<svg width="21" height="25" xmlns="http://www.w3.org/2000/svg"><path d="M1.507 8c-.42 0-.775.142-1.068.425A1.37 1.37 0 0 0 0 9.445v6.096c0 .406.146.75.439 1.034.293.284.649.425 1.068.425.42 0 .773-.142 1.061-.425.288-.284.432-.628.432-1.034V9.446a1.37 1.37 0 0 0-.439-1.02A1.46 1.46 0 0 0 1.507 8zM4 18.635c0 .444.151.82.453 1.128.302.309.67.463 1.105.463h1.048l.014 3.284c0 .415.142.767.425 1.056.283.29.623.434 1.02.434.406 0 .75-.145 1.033-.434a1.45 1.45 0 0 0 .425-1.056v-3.284h1.954v3.284c0 .415.142.767.425 1.056.284.29.628.434 1.034.434s.75-.145 1.034-.434c.283-.29.424-.641.424-1.056v-3.284h1.062a1.47 1.47 0 0 0 1.09-.463c.303-.308.454-.684.454-1.128V9H4v9.635zm9.697-16.29l.998-2.008c.065-.133.042-.235-.07-.306-.122-.062-.216-.031-.281.092l-1.012 2.023a6.422 6.422 0 0 0-2.825-.644c-.993 0-1.935.215-2.825.644L6.67.123C6.605 0 6.511-.031 6.39.03c-.113.071-.137.173-.071.306l.998 2.008a6.371 6.371 0 0 0-2.418 2.352A6.335 6.335 0 0 0 4 8h13c0-1.195-.3-2.296-.9-3.303a6.4 6.4 0 0 0-2.403-2.352zm-5.769 2.92a.506.506 0 0 1-.766 0 .618.618 0 0 1-.154-.422c0-.164.051-.304.154-.422a.506.506 0 0 1 .766 0 .602.602 0 0 1 .162.422.602.602 0 0 1-.162.421zm5.924 0a.506.506 0 0 1-.766 0 .601.601 0 0 1-.162-.422c0-.164.054-.304.162-.422a.506.506 0 0 1 .766 0 .62.62 0 0 1 .154.422.618.618 0 0 1-.154.421zm6.708 3.153A1.492 1.492 0 0 0 19.494 8c-.41 0-.761.14-1.054.418a1.363 1.363 0 0 0-.439 1.028v6.095c0 .406.146.75.44 1.034a1.46 1.46 0 0 0 1.053.425c.42 0 .775-.142 1.068-.425.293-.284.439-.628.439-1.034V9.446c0-.407-.146-.75-.44-1.028z" fill="#FFF" opacity=".5"/></svg>