<svg width="20" height="25" xmlns="http://www.w3.org/2000/svg"><path d="M1.032 9.25c-2.069 3.654-.754 9.198 1.534 12.56C3.708 23.491 4.865 25 6.448 25c.03 0 .06 0 .09-.002.745-.03 1.283-.263 1.803-.488.583-.254 1.187-.515 2.134-.515.9 0 1.475.253 2.031.498.548.241 1.112.49 1.946.475 1.784-.034 2.88-1.662 3.846-3.099a13.842 13.842 0 0 0 1.685-3.512l.007-.022a.205.205 0 0 0-.107-.25l-.015-.007c-.314-.13-3.07-1.374-3.098-4.765-.027-2.755 2.067-4.214 2.487-4.478l.02-.012a.207.207 0 0 0 .057-.287c-1.446-2.153-3.662-2.477-4.553-2.516a3.946 3.946 0 0 0-.398-.02c-1.047 0-2.05.403-2.857.726-.557.224-1.037.416-1.369.416-.372 0-.856-.195-1.416-.42-.748-.303-1.597-.646-2.495-.646h-.064c-2.088.032-4.062 1.248-5.15 3.174zM15.735 0c-1.438.052-3.162.836-4.192 1.906-.876.899-1.732 2.398-1.506 3.909.014.094.1.167.208.175.097.007.196.01.295.01 1.405 0 2.921-.689 3.957-1.798 1.09-1.172 1.64-2.675 1.474-4.022-.013-.106-.118-.184-.236-.18z" fill="#FFF" opacity=".5"/></svg>