<svg width="14" height="17" xmlns="http://www.w3.org/2000/svg"><g fill="#FFF" opacity=".4"><path d="M7.445 9h.107c.984-.017 1.78-.374 2.367-1.055 1.292-1.501 1.077-4.075 1.054-4.32-.084-1.844-.93-2.726-1.628-3.137C8.825.18 8.217.014 7.539 0h-.057c-.373 0-1.105.062-1.806.474-.705.411-1.565 1.293-1.649 3.15-.023.246-.238 2.82 1.054 4.321.585.681 1.38 1.038 2.364 1.055zM4.924 3.711c0-.01.003-.02.003-.027.11-2.48 1.82-2.747 2.551-2.747h.04c.907.021 2.448.402 2.552 2.747 0 .01 0 .02.003.027.003.025.238 2.377-.83 3.615-.422.491-.986.733-1.728.74h-.033c-.739-.007-1.306-.249-1.726-.74-1.064-1.231-.836-3.594-.832-3.615z"/><path d="M13.999 13.448v-.01c0-.03-.003-.058-.003-.09-.02-.708-.065-2.364-1.544-2.894l-.034-.01c-1.538-.412-2.816-1.342-2.83-1.353a.446.446 0 0 0-.64.118.498.498 0 0 0 .112.673c.058.043 1.415 1.034 3.112 1.491.794.297.883 1.188.907 2.004 0 .032 0 .06.003.089.004.322-.017.82-.071 1.105-.553.33-2.717 1.467-6.01 1.467-3.278 0-5.456-1.141-6.012-1.47a6.445 6.445 0 0 1-.071-1.106c0-.028.003-.057.003-.089.024-.816.113-1.706.907-2.003 1.697-.458 3.054-1.452 3.112-1.492a.498.498 0 0 0 .112-.672.446.446 0 0 0-.64-.118c-.014.01-1.286.94-2.83 1.352l-.034.01C.07 10.985.025 12.64.004 13.345a.754.754 0 0 1-.003.1c-.003.187-.007 1.142.174 1.62a.455.455 0 0 0 .177.226C.454 15.362 2.905 17 7.005 17s6.551-1.642 6.653-1.71a.474.474 0 0 0 .177-.225c.17-.476.167-1.43.164-1.617z"/></g></svg>