<svg width="19" height="20" xmlns="http://www.w3.org/2000/svg"><path d="M17.955 18.582h-.828V6.554c0-.56-.456-1.015-1.016-1.015H14.26c-.56 0-1.015.455-1.015 1.015v12.028H11.14v-6.578c0-.56-.455-1.016-1.015-1.016H8.274c-.56 0-1.015.456-1.015 1.016v6.578H5.156v-3.407c0-.56-.456-1.015-1.016-1.015H2.29c-.56 0-1.016.455-1.016 1.015v3.407H.4a.378.378 0 1 0 0 .755h17.555a.378.378 0 1 0 0-.755zm-12.264 0H2.029v-3.407c0-.143.18-.26.401-.26h2.86c.22 0 .4.117.4.26v3.407zm5.985 0H8.014v-6.578c0-.144.18-.26.402-.26h2.859c.221 0 .401.116.401.26v6.578zm5.986 0H14V6.554c0-.143.18-.26.401-.26h2.86c.22 0 .4.117.4.26v12.028zM17.126.397a.376.376 0 0 0-.396-.396L16.71 0h-2.285a.378.378 0 1 0 0 .755h1.411L12.104 4.49l-1.409-1.408a.378.378 0 0 0-.534 0l-6.79 6.79a.378.378 0 0 0 .535.534l6.522-6.523 1.408 1.408a.378.378 0 0 0 .535 0l4-4v1.276a.378.378 0 1 0 .756 0V.416l-.001-.019z" fill="#FFF"/></svg>