<svg width="25" height="26" xmlns="http://www.w3.org/2000/svg" xmlns:xlink="http://www.w3.org/1999/xlink"><defs><path id="a" d="M0 .185h25V25.79H0z"/></defs><g fill="none" fill-rule="evenodd"><mask id="b" fill="#fff"><use xlink:href="#a"/></mask><path d="M24.663 10.047c1.586 6.88-2.574 13.774-9.292 15.398C8.654 27.07 1.923 22.81.337 15.93-1.249 9.049 2.911 2.154 9.63.53c6.717-1.624 13.448 2.637 15.034 9.517" fill="#F89F36" mask="url(#b)"/><path d="M22.717 10.088c1.332 5.643-2.162 11.297-7.805 12.629-5.643 1.332-11.297-2.162-12.629-7.805C.951 9.269 4.445 3.615 10.088 2.283c5.643-1.332 11.297 2.162 12.629 7.805" fill="#383838"/><path d="M14.913 23.32c-5.643 1.362-11.298-2.212-12.63-7.982A10.99 10.99 0 0 1 2.003 13c-.02.898.068 1.813.28 2.728 1.332 5.77 6.987 9.345 12.63 7.982 4.878-1.177 8.148-5.657 8.086-10.578-.11 4.765-3.337 9.041-8.086 10.188" fill="#FFF"/><path d="M10.088 3.058c5.644-1.346 11.3 2.185 12.631 7.886.16.685.249 1.369.274 2.046a10.713 10.713 0 0 0-.274-2.818C21.387 4.471 15.732.94 10.088 2.286 5.122 3.471 1.821 8.036 2.008 13c.163-4.658 3.373-8.82 8.08-9.942" fill="#383838"/><path d="M14.97 15.376c-.617.441-1.33.588-2.05.748-.199.04-.4.071-.62.117l-.533-2.694c.932-.192 1.838-.454 2.788-.25.492.104.826.393.933.901.096.51-.109.888-.518 1.178m-3.943-5.508c.764-.157 1.495-.373 2.251-.204.503.102.812.428.874.88.069.484-.132.883-.591 1.14-.625.356-1.329.49-2.058.608l-.476-2.424m6.745 3.242c-.208-.574-.597-.97-1.184-1.163-.269-.085-.55-.125-.847-.182.027-.028.044-.053.062-.067 1.17-.934.634-2.912-.463-3.4a3.545 3.545 0 0 0-1.385-.3c-.34-.005-.675.01-1.021.027-.122-.58-.28-1.382-.415-2.025l-1.225.253c.123.634.286 1.413.396 1.985l-.985.203c-.12-.57-.273-1.35-.406-1.983l-1.214.25c.124.646.292 1.444.401 2.017-.84.162-1.646.329-2.486.491.094.446.17.863.262 1.299.178-.037.336-.07.484-.09.157-.031.314-.064.463-.084.436-.057.706.136.793.551.343 1.737.689 3.484 1.042 5.219.08.383-.056.563-.433.641l-.817.168c.019.505.033.99.052 1.494l2.488-.48c.13.622.286 1.412.423 2.066l1.226-.253c-.127-.655-.289-1.423-.407-2.038l.991-.171c.131.622.28 1.382.413 2.014l1.225-.252c-.127-.656-.289-1.423-.404-2.027.04-.02.07-.026.1-.043.567-.214 1.153-.389 1.69-.64.704-.34 1.201-.887 1.363-1.677.102-.606.03-1.208-.182-1.803" fill="#FFF"/></g></svg>