<svg width="25" height="26" xmlns="http://www.w3.org/2000/svg" xmlns:xlink="http://www.w3.org/1999/xlink"><defs><path id="a" d="M0 .019h25v25.606H0z"/></defs><g fill="none" fill-rule="evenodd"><mask id="b" fill="#fff"><use xlink:href="#a"/></mask><path d="M24.663 9.881c1.586 6.88-2.574 13.774-9.292 15.399C8.654 26.904 1.923 22.643.337 15.763-1.249 8.883 2.911 1.988 9.63.364c6.717-1.624 13.448 2.637 15.034 9.517" fill="#6D75B6" mask="url(#b)"/><path d="M22.717 10.088c1.332 5.643-2.163 11.297-7.805 12.629-5.643 1.332-11.297-2.162-12.629-7.805C.951 9.269 4.445 3.615 10.088 2.283c5.643-1.332 11.297 2.162 12.629 7.805" fill="#383838"/><path d="M14.913 23.32c-5.643 1.362-11.298-2.212-12.63-7.983A10.984 10.984 0 0 1 2.003 13c-.02.898.068 1.813.28 2.728 1.332 5.77 6.987 9.345 12.63 7.982 4.878-1.177 8.148-5.657 8.086-10.578-.11 4.766-3.337 9.041-8.086 10.188" fill="#FFF"/><path d="M10.088 3.058c5.644-1.346 11.299 2.185 12.631 7.886.16.685.249 1.369.274 2.046a10.731 10.731 0 0 0-.274-2.818c-1.332-5.7-6.987-9.232-12.631-7.886C5.122 3.471 1.821 8.036 2.008 13c.163-4.658 3.372-8.82 8.08-9.942" fill="#383838"/><path fill="#FFF" d="M13 16.559V20l4-6zM17 13l-4-7v5.091z"/><path fill="#FFF" d="M13 11v4l4-2.252zm-5 2l4-7v5.091z"/><path fill="#FFF" d="M12 11v4l-4-2.252zm0 5.559V20l-4-6z"/></g></svg>