<svg width="16" height="27" xmlns="http://www.w3.org/2000/svg"><path d="M13.944 0H2.056C.918 0 0 .882 0 1.967v23.068C0 26.12.918 27 2.056 27h11.888C15.08 27 16 26.12 16 25.035V1.967C16 .882 15.08 0 13.944 0zM5.067 1.194h5.868c.149 0 .27.212.27.474 0 .261-.121.474-.27.474H5.067c-.15 0-.268-.213-.268-.474 0-.262.118-.474.268-.474zM8 25.06c-.724 0-1.313-.563-1.313-1.256 0-.692.59-1.253 1.313-1.253.722 0 1.31.56 1.31 1.253 0 .693-.588 1.256-1.31 1.256zm6.459-4.299H1.54V3.32h12.92v17.44z" fill="#FFF" opacity=".5"/></svg>