<svg width="14" height="19" xmlns="http://www.w3.org/2000/svg"><g fill="#FFF" opacity=".4"><path d="M12.989 8.28h-.275V5.805c0-3.2-2.562-5.805-5.716-5.805-3.15 0-5.715 2.601-5.715 5.805 0 .295.232.531.523.531.29 0 .523-.236.523-.531 0-2.613 2.092-4.742 4.67-4.742 2.572 0 4.668 2.125 4.668 4.742V8.28H1.011A1.02 1.02 0 0 0 0 9.307v6.616C0 17.619 1.36 19 3.03 19h7.94c1.67 0 3.03-1.381 3.03-3.077V9.307a1.02 1.02 0 0 0-1.011-1.027zm-.035 7.643c0 1.11-.888 2.014-1.984 2.014H3.034c-1.093 0-1.984-.9-1.984-2.014v-6.58h11.904v6.58z"/><path d="M7 16c1.105 0 2-.899 2-2 0-1.105-.899-2-2-2-1.105 0-2 .899-2 2s.895 2 2 2zm0-2.935a.932.932 0 0 1 0 1.866.932.932 0 0 1 0-1.866z"/></g></svg>