<svg width="27" height="27" xmlns="http://www.w3.org/2000/svg"><path d="M27 13.502C27 6.062 20.938 0 13.498 0S0 6.062 0 13.502c0 4.097 1.86 7.784 4.751 10.261a.45.45 0 0 0 .137.102A13.357 13.357 0 0 0 13.534 27c3.237 0 6.235-1.17 8.575-3.064a.54.54 0 0 0 .31-.243C25.21 21.18 27 17.564 27 13.502zm-25.76 0C1.24 6.75 6.75 1.24 13.502 1.24c6.75 0 12.26 5.51 12.26 12.262a12.18 12.18 0 0 1-3.443 8.507c-.345-1.62-1.378-4.375-4.548-6.164.724-.896 1.136-2.066 1.136-3.306a5.38 5.38 0 0 0-5.374-5.374A5.38 5.38 0 0 0 8.16 12.54c0 1.24.447 2.375 1.136 3.306-3.199 1.79-4.232 4.545-4.541 6.164a12.027 12.027 0 0 1-3.515-8.507zm8.129-.932a4.144 4.144 0 0 1 4.133-4.132 4.144 4.144 0 0 1 4.132 4.132 4.144 4.144 0 0 1-4.132 4.133 4.144 4.144 0 0 1-4.133-4.133zM5.855 23.075c.07-.999.618-4.376 4.34-6.27a5.336 5.336 0 0 0 3.307 1.135c1.24 0 2.41-.446 3.341-1.17 3.687 1.894 4.27 5.201 4.376 6.27a12.275 12.275 0 0 1-7.68 2.72 12.147 12.147 0 0 1-7.684-2.685z" fill="#FFF"/></svg>