<svg width="50" height="50" xmlns="http://www.w3.org/2000/svg"><g fill="#FFF"><path d="M41.812 15.177l-9.329-6.774a.772.772 0 0 0-.907 1.25l9.33 6.774a.769.769 0 0 0 1.077-.172.772.772 0 0 0-.17-1.078zm-22.978-3.705a.772.772 0 0 0-.884-.642L6.564 12.637a.772.772 0 0 0 .242 1.525l11.386-1.807a.772.772 0 0 0 .642-.883z"/><path d="M49.681 12.75L32.356.168a.771.771 0 0 0-1.079.171l-7.556 10.406-1.04-6.555a.772.772 0 0 0-.883-.642L.65 6.905a.772.772 0 0 0-.641.883l4.13 26.027a.773.773 0 0 0 .883.641l4.86-.77v8.283c0 .427.345.772.771.772h21.411a.772.772 0 0 0 .773-.772v-2.177a9.827 9.827 0 0 0 1.494-1.053l1.924 1.924-.619.619a.772.772 0 0 0 0 1.092l6.988 6.988a.77.77 0 0 0 1.092 0l2.33-2.33a.772.772 0 0 0 0-1.092l-6.989-6.987a.772.772 0 0 0-1.092 0l-.618.618-1.924-1.923a9.757 9.757 0 0 0 2.324-7.15l12.105-16.67a.772.772 0 0 0-.172-1.079zM38.512 40.59l5.896 5.897-1.237 1.237-5.896-5.896 1.237-1.237zM9.882 15.618v3.164l-2.286.363a.772.772 0 0 0 .242 1.525l2.044-.325v5.108l-1.253.198a.772.772 0 0 0 .242 1.525l1.011-.16v5.107l-4.338.689L1.656 8.309l19.621-3.114 1.162 7.318-1.693 2.332H10.654a.772.772 0 0 0-.772.772zm21.412 25.58H11.426V16.39h19.867v5.628a9.737 9.737 0 0 0-3.99-.563.776.776 0 0 0-.179-.022H15.595a.772.772 0 0 0 0 1.544h7.063a9.858 9.858 0 0 0-3.991 5.044h-3.072a.772.772 0 0 0 0 1.544h2.67a9.856 9.856 0 0 0-.148 1.699c0 1.159.197 2.28.584 3.345h-3.106a.772.772 0 0 0 0 1.545h3.824a9.791 9.791 0 0 0 8.529 4.94c1.159 0 2.28-.196 3.346-.583v.686zm2.513-4.074a8.297 8.297 0 0 1-2.093 1.524c-1.172.6-2.44.903-3.766.903a8.259 8.259 0 0 1-7.383-4.52 8.196 8.196 0 0 1-.904-3.766c0-.766.106-1.526.314-2.26a8.215 8.215 0 0 1 1.62-3.06 8.272 8.272 0 0 1 6.353-2.967c1.325 0 2.592.304 3.766.905a8.26 8.26 0 0 1 4.52 7.382 8.232 8.232 0 0 1-2.427 5.859zm3.55-8.715a9.796 9.796 0 0 0-4.52-5.672V18.71l4.197 3.048a.769.769 0 0 0 1.079-.171.772.772 0 0 0-.171-1.079l-5.105-3.706v-1.185a.772.772 0 0 0-.772-.772h-1.923l-1.53-1.11a.772.772 0 0 0-1.052 1.11h-4.906l1.222-1.683 8.197-11.29L48.15 13.545 37.358 28.408z"/><path d="M27.948 24.727a6.544 6.544 0 0 0-6.537 6.537 6.544 6.544 0 0 0 6.537 6.536 6.544 6.544 0 0 0 6.537-6.536 6.544 6.544 0 0 0-6.537-6.537zm0 11.53a4.998 4.998 0 0 1-4.993-4.993 4.998 4.998 0 0 1 4.993-4.993 4.998 4.998 0 0 1 4.992 4.993 4.998 4.998 0 0 1-4.992 4.992z"/><path d="M30.14 31.13a.772.772 0 0 0-1.091 0l-2.059 2.058a.772.772 0 1 0 1.092 1.092l2.059-2.059a.772.772 0 0 0 0-1.092zm-.823-3.295a.772.772 0 0 0-1.092 0L25.961 30.1a.772.772 0 1 0 1.092 1.092l2.264-2.265a.772.772 0 0 0 0-1.092z"/></g></svg>