<svg width="28" height="28" xmlns="http://www.w3.org/2000/svg"><g fill="#FFF"><path d="M27.406 12.091h-.715V7.27c0-1.132-.891-2.023-1.965-2.023h-.537V2.023C24.189.89 23.354 0 22.343 0h-.12L1.846 5.24c-.006 0-.017.006-.023.006C.817 5.326 0 6.189 0 7.269v18.708C0 27.11.891 28 1.966 28h22.76a2.005 2.005 0 0 0 2.023-2.023V21.03h.657c.36 0 .594-.24.594-.595v-7.743c0-.36-.297-.6-.594-.6zm-4.949-10.96c.297.058.594.418.594.892V5.24H6.611l15.846-4.109zm3.103 24.846c0 .474-.36.892-.834.892H1.966c-.475 0-.835-.418-.835-.892V7.27c0-.475.36-.892.835-.892h22.697c.474 0 .834.417.834.892v4.822H19.6a4.425 4.425 0 0 0-4.469 4.469A4.46 4.46 0 0 0 19.6 21.03h5.96v4.948zm1.246-6.08H19.6c-1.789 0-3.274-1.491-3.274-3.274s1.491-3.274 3.274-3.274h7.206v6.548z"/><path d="M18 16.5c0 .303.344.5.689.5h.622c.345 0 .689-.202.689-.5 0-.303-.344-.5-.689-.5h-.616c-.417 0-.695.202-.695.5z"/></g></svg>