<?xml version="1.0" encoding="utf-8"?>
<!-- Generator: Adobe Illustrator 25.0.1, SVG Export Plug-In . SVG Version: 6.00 Build 0)  -->
<svg version="1.1" id="katman_1" xmlns="http://www.w3.org/2000/svg" xmlns:xlink="http://www.w3.org/1999/xlink" x="0px" y="0px"
	 viewBox="0 0 32 32" style="enable-background:new 0 0 32 32;" xml:space="preserve">
<style type="text/css">
	.st0{fill:#FFFFFF;}
	.st1{fill:#94A6C3;}
	.st2{fill:#1B314F;}
	.st3{fill:#FFD923;}
	.st4{fill:#D82122;}
</style>
<g>
	<path class="st0" d="M7.6,17.6l0.8-6.8L1.1,5.5l6.7,2.4l1.6-2.6l5.8-3.8l12.7,7.5l0.7,11.4l-5.7,8.4l-4.5,0.7l2.3-4.5v-4.3L19,17.2
		L17.3,16l-2.6,2.9v3.1l-2.1,2L10,24.3L8.9,25L7,24.4l-0.8-3l1.4-2.1V17.6z"/>
	<path class="st1" d="M19.3,5.4c-1.4-0.3-2.9-0.2-2.9-0.2s-0.5,2.5-3.6,3.1C12.8,8.3,16.9,9.8,19.3,5.4z"/>
	<path class="st1" d="M20.5,27.8c1.7-1.4,2.9-3.3,3.5-5.5c0-0.1,0.3-0.2,0.4-0.3c0.3-0.2,0.5-0.3,0.6-0.5c0.1-0.6,0.2-1.3,0.2-2
		c0-0.3-0.2-0.5-0.5-0.8c-0.2-0.2-0.4-0.4-0.4-0.5c-0.3-2.6-1.4-4.9-3.1-6.7l-0.2,0.2c1.7,1.7,2.8,4,3.1,6.5c0,0.2,0.2,0.4,0.4,0.7
		c0.2,0.2,0.4,0.4,0.4,0.5c0,0.6-0.1,1.3-0.2,1.9c0,0.1-0.3,0.2-0.4,0.3c-0.3,0.1-0.5,0.3-0.6,0.5c-0.6,2.4-2.1,4.5-4,5.8
		c0.3-0.8,1.4-3.3,2-4.6l-0.1-4.2l-3.3-3.4L16.5,16l-2.1,3.6c0,0,1,1.3-0.4,2.9c-1.3,1.5-2.4,1.9-2.4,1.9l-1-0.6
		c0.3-0.4,0.9-1,1.3-1.4c0.8-0.7,1.5-0.7,1.5-1.5c0-1.5-1.5-1.1-1.5-1.1l-0.6,0.6l-0.2,2.1L10,24l-0.1,0L8,23.5c0,0,1.2-0.6,1.3-1.4
		c0.2-0.7-0.4-3-0.4-3.2c0,0,0.6,0.5,0.8,1.3c0.4-1.2,1-2.4,1.1-2.5c0.2-0.1,2.3-1.3,2.3-1.3l-0.7,2l0.5-0.3l1.3-3.3
		c0,0,1.2-0.6,2.2-0.6c1.7,0,4.1-2.2,3-6.1c0.3,0.1,5.8,3.1,6.7,8.8C26.8,21.3,24.5,25.4,20.5,27.8z"/>
	<path class="st2" d="M14.3,6c0.6-0.8,0.4-1.9,0.4-1.9l-1.8,2.8C12.9,6.9,13.5,6.9,14.3,6z"/>
	<path class="st2" d="M8.4,21.2l0.2-1.1c0,0-0.9,1.6-0.9,1.9c-0.1,0.3,0.1,0.7,0.4,0.7c0.3,0,0.8-0.6,0.8-1
		C8.8,21.1,8.4,21.2,8.4,21.2z"/>
	<path class="st2" d="M24,3.3c0,0,1.3,0.1,2.7,0.2c-3.1-2.6-6-3.3-8.4-3.3c-3.3,0-5.5,1.4-5.6,1.5l1-1.7c0,0-4.1-0.4-5.6,4.2
		c-0.4-1-0.7-2.4-0.7-2.4s-2.1,2-1.1,5.3c-2.5-1-5.9-2.3-6.1-2.3C0.1,4.8,0,4.9,0,4.9S0,5,0.1,5.1c0.3,0.2,5.8,4.6,7,5.4
		c-0.3,1-0.3,1.5,0,2c0.4,0.6,0.4,1,0.3,1.5c-0.1,0.5-0.5,4.6-0.6,5.1c-0.1,0.5-1.2,2.3-1.2,2.8C5.8,22.4,6.4,24.7,7,25
		c0.4,0.2,1.6,0.5,2.3,0.5c0.3,0,0.5-0.1,0.6-0.2c0.4-0.4,0.6-0.5,0.9-0.5c0,0,0.1,0,0.1,0c0.1,0,0.3,0,0.5,0c0.4,0,1-0.1,1.4-0.5
		c0.6-0.6,1.6-1.5,1.9-1.9c0.4-0.5,0.6-1.3,0.5-2c-0.1-0.7,0.3-1.3,0.7-1.9c0.5-0.7,1.4-2,1.4-2c1.8,1.5,3,3.7,3,6.1
		c0,4.4-3.6,7.9-8,7.9c-0.7,0-1.3-0.1-2-0.3c2,0.8,3.7,1,5.1,1c3,0,4.6-1.1,4.6-1.1s-0.6,0.8-1.4,1.6c0,0,0,0,0,0
		c4.9-0.7,7.3-5.1,7.3-5.1s-0.2,1.4-0.4,2.4c6.5-5.2,5.4-11.8,5.4-12c0.1,0.1,0.7,0.9,1.1,1.4C32.9,7.1,24,3.3,24,3.3z M13.9,21.8
		c-0.1,0.1-0.6,0.6-0.9,0.9c-0.3,0.3-0.7,0.6-0.9,0.9c-0.1,0.1-0.3,0.2-0.6,0.2c-0.1,0-0.2,0-0.3,0c-0.1,0-0.1,0-0.2,0s-0.1,0-0.1,0
		c-0.1,0-0.2,0-0.2,0c0.4-0.6,1.6-1.9,1.9-2.1c0.5-0.3,0.7-0.7,0.4-1.3c-0.3-0.6-1.1-0.4-1.1-0.4s0.4-0.2,0.8-0.2
		c-0.5-0.1-1.1,0-1.4,0.3c-0.3,0.3-0.3,1.4-0.4,2.1c-0.1,0.7-0.6,1.1-1.3,1.8c-0.4,0.4-0.6,0.5-0.8,0.5c-0.4-0.1-1-0.2-1.3-0.4
		c-0.3-0.4-0.7-1.6-0.8-2.1c0.1-0.3,0.4-0.9,0.6-1.2c0.3-0.6,0.5-1,0.6-1.3C8,18.9,8.4,16,8.5,14.7c0.3,0.5,0.8,1.3,0.7,1.8
		c0.8-1.1,0.2-2.3-0.1-2.7c-0.2-0.4-0.6-1.3-0.3-2.3c0.3-1,1.2-3.6,1.2-3.6s0.3,0.6,0.8,0.5c0.4-0.1,4.1-5.9,4.1-5.9s1,2.3-0.1,3.9
		c-1.1,1.7-2.1,2-2.1,2s1.4,0.3,2.8-0.8c0.6,1.4,1.1,2.8,1.1,3c-0.1,0.2-1.1,2.9-1.2,3.1c-0.1,0.1-0.4,0.2-0.7,0.2
		c-0.4,0.1-0.7,0.2-0.8,0.3c-0.2,0.2-1,2.6-1.4,3.8c-0.5,0.1-0.9,0.4-1.3,1c0.2-0.1,0.8-0.2,1.2-0.3c0.4,0,1.5,0.6,1.8,1.8
		c0,0,0,0,0,0.1C14.3,21.1,14.1,21.5,13.9,21.8z M11.4,22.2c0.2-0.4,0.2-1,0.2-1.2s0.1-0.6,0.3-0.6c0.2-0.1,0.7,0,0.7,0.4
		c0,0.4-0.4,0.4-0.6,0.7C11.9,21.7,11.5,22.1,11.4,22.2z M21.9,16.8c0.3-1.4,0.3-2.7,0.2-3.7c1,1.5,1.7,3.2,1.8,5.1
		c0,0.2,0.2,0.4,0.4,0.7c0.2,0.2,0.4,0.4,0.4,0.5c0,0.6-0.1,1.3-0.2,1.9c0,0.1-0.3,0.2-0.4,0.3c-0.3,0.1-0.5,0.3-0.6,0.5
		c-0.6,2.2-1.8,4.1-3.5,5.4C22.7,24.8,23.8,20.4,21.9,16.8z M20.3,27.8c1.7-1.4,3-3.4,3.6-5.6c0-0.1,0.3-0.2,0.4-0.3
		c0.3-0.1,0.5-0.3,0.6-0.5c0.1-0.6,0.2-1.3,0.2-2c0-0.3-0.2-0.5-0.5-0.8c-0.1-0.2-0.3-0.4-0.3-0.5c-0.2-2-1-4-2.2-5.6
		c-0.5-3.4-2.6-4.4-2.7-4.4c0.1,0.1,1.4,2.2,0.5,4.7c-1,2.5-3.5,2.1-3.7,2.1c-0.2,0-1,1.1-2.1,3.2C14,18,13.4,17.9,12.8,18
		c0.5-1.4,1.2-3.4,1.3-3.6c0.1-0.1,0.4-0.2,0.7-0.3c0.5-0.1,0.7-0.2,0.8-0.3c0.1-0.1,0.3-0.7,0.6-1.4c0.2,0,0.8-0.1,0.9-0.1
		c0.1-0.1,0.6-1.4,0.6-1.6c0-0.1-1-2.9-1.4-3.9c0.2-0.2,0.4-0.5,0.6-0.8c5.4,0.6,9.6,5.5,9.6,11.4C26.4,22,23.9,26,20.3,27.8z"/>
	<path class="st2" d="M13.3,12.7c0.5-0.6,0.2-1.8-0.7-2c0.2-0.6,0.6-1.8,0.6-1.8s-2.7,4.5-2.9,4.6c-0.2,0.1-0.5-0.9-0.5-0.9
		c-0.5,2,0.8,2.3,1,1.7C11.5,14.1,12.8,13.3,13.3,12.7z"/>
	<path class="st3" d="M11,13.8l1.4-2.5c0,0,0.8,0.4,0.4,1.1C12.3,13.1,11,13.8,11,13.8z"/>
	<path class="st4" d="M27.9,25.3c-0.4,0.6-0.8,1.1-1.4,1.7c3.4-7,0.2-13.3,0-13.6c0.2,0.3,0.5,0.5,0.7,0.8
		C29.9,17.3,30.2,22,27.9,25.3z"/>
	<path class="st4" d="M31.1,16.4c-1.2-3.4-2.9-6.3-6.6-8.9c-3.6-2.5-7.4-2.3-7.6-2.3c0,0-0.1,0-0.1,0c0.1-0.1,0.3-0.1,0.4-0.1
		c0.8-0.3,1.9-0.5,2.9-0.6C22.9,4,25.7,5,27.7,7.2c0,0,0,0,0.1,0.1C29.9,9.7,31,12.8,31.1,16.4z"/>
	<path class="st4" d="M23.7,2.5c-3.9-0.8-6.4-0.4-8.3,0.3c-0.1-0.2-0.2-0.7-0.4-1c-0.5,0.7-1.1,1.5-1.5,2.1c-1,0.7-1.4,1.4-1.4,1.4
		c0.6-2.1,2.3-3.7,4.3-4.1C17,1.1,17.6,1,18.3,1C20.1,1.1,21.9,1.6,23.7,2.5z"/>
	<path class="st4" d="M9.1,7.9c-3.1-0.1-2.1-3.9-2-4.2C7.1,3.7,7.4,6.7,9.1,7.9z"/>
	<path class="st4" d="M12.2,1c-2.4,1.5-1.9,5.1-1.9,5.1C8,2.5,12,1.1,12.2,1z"/>
	<path class="st0" d="M8.3,8.9C8.4,9,8.6,9.3,8.4,9.6C8.3,9.8,8.2,9.8,7.9,9.7C7.6,9.5,5.7,8.3,4,7.1C5.9,7.9,7.9,8.7,8.3,8.9
		C8.2,8.8,8.3,8.9,8.3,8.9z"/>
</g>
</svg>
