<svg id="Layer_3" data-name="Layer 3" xmlns="http://www.w3.org/2000/svg" viewBox="0 0 2290.48 2291.3"><defs><style>.cls-1{fill:#fff;}.cls-2{fill:#f5eadc;}.cls-3{fill:#d26b7f;}.cls-4{fill:#feecac;}.cls-5{fill:#ea8397;}</style></defs><path class="cls-1" d="M1661.9,937.7c0-42.86-23.8-77.38-59.52-79.76s-71.43,41.66-73.81,92.85c-1.19,42.86,26.19,73.81,63.1,73.81,41.66,0,69-35.71,70.23-86.9Z" transform="translate(-354.76 -434.27)"/><path class="cls-1" d="M1500,954.37c0-48.81-33.33-95.24-69-96.43-33.33,0-64.28,35.71-65.47,76.19-2.38,48.81,32.14,91.66,72.62,91.66C1473.81,1025.79,1500,996,1500,954.37Z" transform="translate(-354.76 -434.27)"/><path class="cls-1" d="M1227.38,1005.56c-3.57,45.23,30.95,86.9,71.43,88.09,40.48,0,59.52-20.24,61.9-58.33,3.58-45.24-28.57-88.1-67.85-90.48-44-3.57-59.53,25-65.48,60.72Z" transform="translate(-354.76 -434.27)"/><path class="cls-1" d="M1802.38,1025.79c-3.57-32.14-17.86-61.9-59.52-65.47-35.72-3.57-76.19,42.85-76.19,84.52,0,39.29,27.38,69.05,64.28,69.05S1801.19,1074.6,1802.38,1025.79Z" transform="translate(-354.76 -434.27)"/><path class="cls-2" d="M1368.87,590.1c53-6.3,107.6-3,159.05,11.72a538.17,538.17,0,0,1,132.13,75.75c25,19.09,46.51,42.23,68.64,64.5,41.52,46.18,75.6,98.83,102.67,154.62,28.31-10.09,56.57-20.73,86.34-25.67,67.74-12.95,138-7.66,204.55,9.28,110.25,29.28,211.26,89.1,294.29,166.87,59.82,56.8,111.42,123.24,145.83,198.47,5.19,6.5-3.44,9.81-7.66,13.25-23.17,14.47-45.76,29.89-68.58,44.89-4,2.11-7.89,5.23-12.53,5.09-14.83-14.41-25-33-41.16-46.22-3.24-52.51-25.87-101.33-52.77-145.7-29.74-48.72-68.68-92.47-116.65-123.79-40.9-27.24-88.06-44.28-136.46-51.84-15.67-17.81-41.09-16.48-62.45-21.06,4.55,5.71,9.06,11.42,13.57,17.2-11.52-.13-23,.06-34.57,0-13.37-3.8-27-6.72-40.89-7.3l9.57,10.64c-92,11.85-180,48.36-256,101.1-6.82-17.78-12.37-36.09-21.23-53-8-14.83-7.14-32.39-14.15-47.58l-.91,5.65c-6.49-65.3-21-131.78-56.54-187.83-25.22-40.35-62.48-72.71-105.46-92.93-45.44-21.94-96-30.12-145.89-34-62.13-4.71-127.5-2-184.69,25.25-50.7,23.76-89.55,68.25-111.94,119.06-32.52,73.31-38.86,155.11-36.88,234.4,1.69,74.49,13.92,148.17,28.05,221.17-69.14-45-143.14-83.9-222.89-106.23-55-15.36-113.63-22.63-170-10.78-29.47,6.13-57.29,19.09-81.79,36.51,4.57-12.39,15.61-20.15,25.61-27.91,11.36-8.54,22.75-18.15,36.93-21.42a499.65,499.65,0,0,1,223.38,3.37c24.05,5.58,47.09,14.58,70.62,21.88-.32-72.57,10.39-145.34,33.14-214.32,28.18-82.41,72.32-160.79,136.1-220.9,57.93-54.5,132.36-92.38,211.62-102.18" transform="translate(-354.76 -434.27)"/><path class="cls-2" d="M543.7,1589.24c12.83,61.38,40,120.74,82.93,166.9,35,38,80.37,65.73,129.15,82.34C817,1859.71,882.56,1865,947,1863c-12,20.28-24.43,40.41-35,61.57a1199.22,1199.22,0,0,1-164-58.88c-52.43-23.79-103.19-52.32-147.23-89.64a435,435,0,0,1-98.06-116.24c-6.36-11.32-14.18-22.29-16.91-35.18,13.18-16.2,36.8-17.76,53.65-29,1-1.59,3.15-4.77,4.19-6.37" transform="translate(-354.76 -434.27)"/><path class="cls-1" d="M1467.45,434.73c140.93-4,282.64,17.91,415.48,65.33,203,71.73,384.86,202.54,517.48,372.13,147.87,186.5,234.18,420.52,243.66,658.27,10.94,237.78-54.89,478.43-186,677.1-98.28,149.76-231.84,276.31-387.22,365.51-190.62,110.48-413.83,163.19-633.73,150.69a1144,1144,0,0,1-341.94-71.92c-234-87.93-436.79-255.5-568.33-467.87-61.19-97.44-106.57-204.59-135.58-315.85a1158.32,1158.32,0,0,1-24.09-457.66C396.57,1209.26,481.68,1016.69,610,859c71.21-88.74,156.44-165.93,250.57-229.7,178.45-120.65,391.54-189.1,606.9-194.55M1368.87,590.1c-79.26,9.8-153.69,47.68-211.62,102.18-63.78,60.11-107.92,138.49-136.1,220.9-22.75,69-33.46,141.75-33.14,214.32-23.53-7.3-46.57-16.3-70.62-21.88A499.65,499.65,0,0,0,694,1102.25c-14.18,3.27-25.57,12.88-36.93,21.42-10,7.76-21,15.52-25.61,27.91-27.62,23.11-50.67,51.81-65.41,84.82-34,73.35-38.65,156-37,235.61-1,39.6,5.32,78.87,14.64,117.23-1,1.59-3.14,4.78-4.19,6.36-16.84,11.26-40.47,12.82-53.65,29,2.73,12.89,10.55,23.86,16.91,35.18A435,435,0,0,0,600.83,1776c44,37.32,94.8,65.85,147.22,89.64a1199.82,1199.82,0,0,0,164,58.88c-34.47,68.1-59.4,142.49-62.32,219.28-3.11,64.24,11.55,130,45.73,184.82,24.06,39.5,57.68,72.09,93.32,101.1,48,38.47,104.58,67.77,165.7,78,58.09,10.42,118.5,2.18,173.42-18.59,58.45-22.14,111.1-57.62,157.35-99.33,79.75-73.38,143.76-165.5,178.29-268.65,9.41,5.74,16.23,14.61,24.21,22.1a821.26,821.26,0,0,0,90.17,74.85c80.92,57.48,172.64,102.63,271.12,119.35,67.25,11.55,139.31,7.33,201.11-23.54,49.07-23.65,88.74-64.12,115.77-111.06,31.78-55.18,55-115.85,63.72-179.13,7.79-61.19,2.69-124.35-17.95-182.68-33.85-98.48-103.7-181.24-186.24-243.11C2292.25,1552.89,2354,1497,2394,1426.18c28.24-49.3,43-106.63,38.43-163.53,16.17,13.18,26.33,31.81,41.16,46.22,4.64.14,8.57-3,12.53-5.09,22.82-15,45.41-30.42,68.58-44.89,4.22-3.44,12.85-6.75,7.66-13.25-34.41-75.23-86-141.67-145.83-198.47-83-77.77-184-137.59-294.29-166.87-66.57-16.94-136.81-22.23-204.55-9.28-29.77,4.94-58,15.58-86.34,25.67-27.07-55.79-61.15-108.44-102.67-154.62-22.13-22.27-43.59-45.41-68.64-64.5a538.17,538.17,0,0,0-132.13-75.75c-51.45-14.67-106-18-159.05-11.72" transform="translate(-354.76 -434.27)"/><path class="cls-1" d="M2064.11,920.26c21.36,4.57,46.78,3.24,62.45,21.06a403.64,403.64,0,0,0-48.88-3.86c-4.51-5.78-9-11.49-13.57-17.2" transform="translate(-354.76 -434.27)"/><path class="cls-1" d="M2002.22,930.12c13.89.59,27.52,3.51,40.89,7.31-10.48.75-20.9,2-31.32,3.34l-9.57-10.65" transform="translate(-354.76 -434.27)"/><path class="cls-1" d="M1720.39,941.29c7,15.19,6.13,32.75,14.15,47.58,8.86,16.92,14.41,35.22,21.23,53-11.4,8.21-22.5,16.81-33.89,25,2.5-40,0-80-2.4-120Z" transform="translate(-354.76 -434.27)"/><path class="cls-3" d="M1346.48,793c22,26.84,35.89,59.27,47.71,91.66,20.06,58.52,29.28,120.06,35.93,181.38,6.26,64.82,9.44,129.89,12.69,194.91.81,18.49,3,37,1.85,55.5-5.87.26-11.75.61-17.56,1.1-2.56-148.3-28-295.2-61-439.48-6-28.46-14.77-56.34-19.6-85.07" transform="translate(-354.76 -434.27)"/><path class="cls-3" d="M1952.72,1211.69c79.65-37.77,172.67-49.88,258.23-26.8-18.66,4.57-37.91,1.23-56.8,2.72-64.3,4.68-128,20.84-185.92,49.37-94.32,44.6-173,116.46-239.17,196-10.85,13.07-20.62,27-31.88,39.78-3.41-6.9-7-13.69-10.52-20.51-1.33-4.64,2.15-8.53,4.32-12.17,35.64-48,76.47-92,120.16-132.78,42.58-38,89.68-71.54,141.58-95.66" transform="translate(-354.76 -434.27)"/><path class="cls-3" d="M720.73,1476.06c62.18-29.14,133-33.85,200.23-24.5,94.68,14.93,182.31,56.15,267.71,97.79-.13,4.64-.32,9.29-.52,13.92-.49,7.67-1,15.29-1.23,23-60.7-27.24-120.78-56.55-184.69-75.73-60.54-18.86-124.77-29.24-188.12-21.26-32.53,4.68-64.53,13.93-94.1,28.34-12.85,6.65-25.15,14.38-38.53,20-7-27.23,15.16-52.39,39.25-61.54" transform="translate(-354.76 -434.27)"/><path class="cls-3" d="M1669.72,1753.32c4.45-6.3,8.67-12.79,12.72-19.32,193.32,72.22,367.17,187.32,529.29,313.38,12.82,8.7,17,24.74,19,39.24,1.26,7.14-4.71,12.47-7.86,18.18-27.78-25.38-52.77-53.78-82.08-77.51-139.86-118-304.16-203.51-473.88-269.92Z" transform="translate(-354.76 -434.27)"/><path class="cls-3" d="M1350.34,1891.71c9.41-13.76,15.32-30.41,28.23-41.48l3.8.26c4.35,1.27,8.7,2.67,13.05,4.13,2.34,3.11.52,6.36-1.26,9.22-64.82,99.64-113.9,209.18-185.86,304.22-24.89,31.16-52.28,61.93-88.15,80.56a109.64,109.64,0,0,1-57,11.46c25.94-19.16,51.28-39.24,73.88-62.32,86.11-90.69,147.29-200.75,213.31-306.05" transform="translate(-354.76 -434.27)"/><path class="cls-4" d="M1261.63,1400c43-45.92,102.67-76.43,165.47-82.5,5.81-.49,11.69-.84,17.56-1.1,98-5.56,194.42,50.73,242,135.86,3.51,6.82,7.11,13.6,10.52,20.51,38.4,82.29,33.08,183.82-14.74,261.19-4,6.53-8.27,13-12.72,19.32-36.74,49.88-90.69,87.18-151,102.11-40.31,9.57-83.39,11.33-123.34-.81-4.35-1.46-8.7-2.86-13.05-4.13-56.24-19.63-103.83-59.65-138.82-107.3-32.78-45.54-57.09-99.94-56.64-156.93.27-7.7.75-15.32,1.24-23A275,275,0,0,1,1261.63,1400" transform="translate(-354.76 -434.27)"/><path class="cls-5" d="M1226.9,657.45c57.19-27.23,122.56-30,184.69-25.25,49.88,3.86,100.45,12,145.89,34,43,20.22,80.24,52.58,105.46,92.92,35.57,56.06,50,122.54,56.54,187.84,2.43,39.92,4.9,80,2.4,120,11.39-8.21,22.49-16.81,33.89-25,76-52.75,164-89.26,256-101.11,10.42-1.33,20.84-2.6,31.32-3.34,11.53.1,23-.1,34.57,0a403.64,403.64,0,0,1,48.88,3.86c48.4,7.56,95.56,24.6,136.46,51.84,48,31.32,86.91,75.07,116.65,123.79,26.9,44.37,49.53,93.19,52.77,145.7,4.55,56.9-10.19,114.23-38.43,163.53-40,70.85-101.76,126.71-168.58,171.79,82.54,61.87,152.39,144.63,186.24,243.12,20.64,58.32,25.74,121.48,17.95,182.66-8.7,63.29-31.94,124-63.72,179.14-27,46.93-66.7,87.41-115.77,111.06-61.8,30.87-133.86,35.09-201.11,23.54-98.48-16.72-190.2-61.87-271.12-119.35a821.26,821.26,0,0,1-90.17-74.85c-8-7.49-14.8-16.36-24.21-22.1-34.53,103.16-98.54,195.27-178.29,268.65-46.25,41.71-98.9,77.19-157.35,99.32-54.92,20.78-115.33,29-173.42,18.6-61.12-10.23-117.66-39.53-165.7-78-35.64-29-69.26-61.6-93.32-101.1-34.18-54.85-48.84-120.58-45.73-184.82,2.92-76.79,27.85-151.18,62.32-219.28,10.52-21.16,22.91-41.29,35-61.57-64.42,2-130-3.28-191.2-24.51-48.79-16.61-94.1-44.37-129.15-82.34-42.94-46.16-70.11-105.52-82.93-166.9-9.32-38.36-15.61-77.63-14.64-117.23-1.65-79.65,3-162.26,37-235.61,14.74-33,37.79-61.71,65.41-84.82,24.5-17.43,52.32-30.38,81.79-36.51,56.35-11.85,115-4.58,170,10.78,79.75,22.33,153.75,61.24,222.89,106.23-14.13-73-26.36-146.68-28.05-221.17-2-79.29,4.36-161.09,36.88-234.4,22.39-50.8,61.24-95.3,111.94-119.06M1346.48,793c4.83,28.73,13.56,56.61,19.6,85.07,33,144.28,58.46,291.18,61,439.48-62.81,6.07-122.43,36.58-165.47,82.5a275,275,0,0,0-73.48,163.24c.19-4.64.39-9.29.52-13.93-85.4-41.64-173-82.86-267.71-97.79-67.26-9.35-138.05-4.64-200.23,24.5-24.09,9.16-46.22,34.31-39.25,61.54,13.38-5.61,25.68-13.34,38.53-20,29.57-14.41,61.57-23.66,94.1-28.34,63.35-8,127.59,2.4,188.12,21.27,63.91,19.17,124,48.48,184.68,75.72-.45,57,23.87,111.39,56.64,156.93,35,47.65,82.57,87.67,138.82,107.3l-3.8-.26c-12.91,11.07-18.82,27.72-28.23,41.49-66,105.29-127.2,215.35-213.31,306-22.6,23.08-47.94,43.16-73.88,62.32a109.64,109.64,0,0,0,57-11.46c35.86-18.63,63.26-49.4,88.15-80.56,72-95,121-204.58,185.86-304.22,1.78-2.86,3.6-6.11,1.27-9.22,39.94,12.14,83,10.38,123.33.81,60.27-14.93,114.22-52.23,151-102.11l-2.82,4c169.72,66.41,334,152,473.88,269.92,29.31,23.73,54.3,52.13,82.08,77.51,3.15-5.71,9.12-11,7.86-18.18-2-14.5-6.17-30.54-19-39.24-162.12-126.06-336-241.16-529.29-313.38,47.82-77.37,53.14-178.9,14.74-261.18,11.26-12.76,21-26.71,31.88-39.8,66.17-79.58,144.85-151.44,239.17-196,57.91-28.53,121.62-44.69,185.92-49.37,18.89-1.49,38.14,1.85,56.8-2.72-85.56-23.08-178.58-11-258.23,26.8-51.9,24.12-99,57.65-141.58,95.66-43.69,40.8-84.52,84.75-120.16,132.78-2.17,3.63-5.65,7.53-4.32,12.18-47.58-85.14-144-141.42-242-135.87,1.2-18.54-1-37-1.85-55.5-3.25-65-6.43-130.09-12.69-194.91-6.65-61.32-15.87-122.86-35.93-181.38-11.82-32.39-25.67-64.82-47.71-91.66" transform="translate(-354.76 -434.27)"/></svg>