<?xml version="1.0" encoding="UTF-8"?>
<svg width="125px" height="125px" viewBox="0 0 125 125" version="1.1" xmlns="http://www.w3.org/2000/svg" xmlns:xlink="http://www.w3.org/1999/xlink">
    <!-- Generator: Sketch 56.3 (81716) - https://sketch.com -->
    <title>allf</title>
    <desc>Created with Sketch.</desc>
    <g id="allf" stroke="none" stroke-width="1" fill="none" fill-rule="evenodd">
        <path d="M0,62.5 C0,27.980957 27.980957,0 62.5,0 C97.019043,0 125,27.9858398 125,62.5 C125,97.0141602 97.0166016,125 62.5,125 C27.9833984,125 0,97.019043 0,62.5 Z" id="Path-Copy" fill="#6CDE07" fill-rule="nonzero"></path>
        <path d="M66.5110327,102 L60.0856134,102 L60.0856134,96.3412652 C52.8952274,95.9489243 47.2577433,94.0626983 43.1729921,90.6825305 C39.0882408,87.3023627 37.0305974,82.8508692 37,77.3279164 L50.1262136,77.3279164 C50.2792005,79.5612416 51.2659515,81.4474676 53.086496,82.9866512 C54.9070406,84.5258347 57.2400564,85.4463131 60.0856134,85.7481138 L60.0856134,68.9077191 L55.266549,67.7759721 C49.7284219,66.5084092 45.5213442,64.3279319 42.6451898,61.2344748 C39.7690353,58.1410176 38.3309797,54.2403021 38.3309797,49.5322113 C38.3309797,43.9790784 40.2432877,39.4974053 44.0679612,36.0870575 C47.8926346,32.6767096 53.2317986,30.6999447 60.0856134,30.1567034 L60.0856134,24 L66.5110327,24 L66.5110327,30.1567034 C72.9058866,30.7603048 78.0155737,32.7747942 81.8402471,36.2002322 C85.6649206,39.6256701 87.623124,43.9489002 87.7149162,49.1700522 L74.9099735,49.1700522 C74.8487787,47.1178075 74.0379601,45.3221203 72.4774934,43.7829367 C70.9170266,42.2437532 68.9282263,41.3081851 66.5110327,40.9762043 L66.5110327,57.0922809 L71.4218888,58.0882182 C83.1406882,60.5629839 89,66.6592666 89,76.377249 C89,82.1416423 87.0494458,86.7440339 83.1482789,90.1845618 C79.247112,93.6250898 73.7014187,95.6471241 66.5110327,96.2507255 L66.5110327,102 Z M76,78 C76,73.8313968 73.00003,71.1647568 67,70 L67,86 C69.8252568,85.816091 72.0315455,85.0191641 73.618932,83.6091954 C75.2063186,82.1992267 76,80.3295136 76,78 Z M52,48.4085366 C52,50.3292779 52.6811526,51.9374935 54.0434783,53.2332317 C55.4058039,54.5289699 57.3912913,55.4512168 60,56 L60,41 C57.6521622,41.1219518 55.7318915,41.8765175 54.2391304,43.2637195 C52.7463693,44.6509216 52,46.3658434 52,48.4085366 Z" id="$" fill="#FFFFFF" fill-rule="nonzero" transform="translate(63.000000, 63.000000) rotate(11.000000) translate(-63.000000, -63.000000) "></path>
    </g>
</svg>