<svg id="Layer_1" data-name="Layer 1" xmlns="http://www.w3.org/2000/svg" viewBox="0 0 334.21 291.7"><defs><style>.cls-1{fill:#626362;}.cls-2{fill:#464646;}.cls-3{fill:#606160;}.cls-4{fill:#565756;}.cls-5{fill:#4a4a4a;}.cls-6{fill:#4f5150;}.cls-7{fill:#3f403f;}.cls-8{fill:#2f302f;}.cls-9{fill:#303130;}.cls-10{fill:#343434;}.cls-11{fill:#292929;}.cls-12{fill:#5a5b5a;}.cls-13{fill:#505150;}.cls-14{fill:#5b5c5b;}.cls-15{fill:#2c2d2c;}.cls-16{fill:#212121;}.cls-17{fill:#282828;}.cls-18{fill:#202020;}.cls-19{fill:#2e2f2e;}.cls-20{fill:#222;}.cls-21{fill:#fefefe;}.cls-22{fill:#333;}.cls-23{fill:#1f2020;}.cls-24{fill:#363636;}.cls-25{fill:#2a2a2a;}</style></defs><path class="cls-1" d="M595.07,324.17c8.4,14.4,16.9,28.8,25.3,43.2,14.1,24.2,28.1,48.5,42.1,72.7,1,1.7,1.8,3.5,2.7,5.2-3.3,1.4-4.8-1.3-6.5-3-6-5.7-11.7-11.7-17.6-17.5-4.2-4.3-8.4-8.5-12.4-12.9a27.18,27.18,0,0,1-4.2-3.4c-13.4-14-27.4-27.2-41-41.1-2.3-2.3-5-4.4-5.7-7.9,2.7-12.3,8.7-23.2,14.5-34.2A2.27,2.27,0,0,1,595.07,324.17Z" transform="translate(-364.8 -216.17)"/><path class="cls-1" d="M423.67,400q33.75-59.55,67.6-119.2a3.59,3.59,0,0,1,1-.7c2.4,2.2,1.5,4.9.9,7.4-1.4,6-2.8,12-4.6,17.9-2.3,6.6-3.2,13.6-5.5,20.2-5,21.3-11,42.3-16.4,63.5-.8,3-1.3,6.1-4,8.2-4.3,3-9.4,1.6-14.1,2.5-6,1.2-12.2,1.1-18.3,2C428.07,402.07,425.57,402.07,423.67,400Z" transform="translate(-364.8 -216.17)"/><path class="cls-1" d="M576.37,507.47H436.57c.8-3.4,3.9-3.2,6.2-3.8,7-1.8,14.1-3.6,21.1-5.6a174.55,174.55,0,0,0,18.5-5c2.4-1.2,4.8-2.6,7.6-2.8,12.6-1.1,24.4-6,36.7-8.6,10.1-2.1,19.9-5.7,30.2-7.1,6.6,4.1,12.5,10.7,13.4,17S576.77,501.47,576.37,507.47Z" transform="translate(-364.8 -216.17)"/><path class="cls-2" d="M495.57,273.77c10.1-17.9,20.1-35.9,30.2-53.8,2.9-5,6.3-5.1,9.3-.1,3.5,5.8,6.6,11.8,9.9,17.7-6.3,16.9-14.4,33.1-21.5,49.6-1.7,3.8-2.8,7.9-5,11.5-3,1.8-4.2-.9-5.9-2.3s-3.4-3.4-5.1-5.1c-2.8-2.4-5.4-5-8-7.5C497,280.87,494.87,277.87,495.57,273.77Z" transform="translate(-364.8 -216.17)"/><path class="cls-3" d="M568.77,278.77c8.4,13.4,16.6,27.1,23.7,41.2,0,.3-.1.6-.1.9-3.7,12.4-10.4,23.5-14.9,35.6a2.76,2.76,0,0,1-1.4,1.2c-4.6-.7-6.7-4.8-9.7-7.5-5-4.6-9.7-9.6-14.3-14.6a6.52,6.52,0,0,1-1.8-3.1c-1-3.3-2.2-6.6,0-10,1.1-1.6.5-3.3-.3-4.9a10.21,10.21,0,0,1-1-3.8c-.2-5.4,1-6.2,6.6-4.6,1-2.5-.9-4.6-1.2-6.9-.6-5.6,1.1-6.8,6.5-4.8.9-2.3-1-4.2-1-6.3,0-3-2.1-7.8,4.4-6.4.5.1,1,.2.9-.1a6.28,6.28,0,0,1-.3-1.9C565.47,280.77,565.37,278.07,568.77,278.77Z" transform="translate(-364.8 -216.17)"/><path class="cls-3" d="M423.67,400a309.13,309.13,0,0,0,39.5-4c.4,1.8-.4,2.9-2.2,3.3-11.8,1.5-23.7,2.2-35.5,4.1,11.9-2,23.9-2.6,35.8-3.9,2.2,1.4,1.6,3.4,1.1,5.3a200.6,200.6,0,0,1-6.7,23.8c-1.5,2-.5,4.9-2.4,6.8-4,5.7-10.5,3.9-15.9,4.8-5.9,1-12.2-.8-17.9,2.1-2.8,4.3-7.2,5.3-11.8,6s-7.8-.3-8.2-5.6Z" transform="translate(-364.8 -216.17)"/><path class="cls-3" d="M576.37,507.47c-1.8-2.5-3.6-4.9-5.5-7.3-1.7-2.3-1.7-2.3-.4-5.6.5-1.2-.7-1.9-1.3-2.8-3.8-5.3-7.6-10.7-11.5-16,1.2-3,4.1-3.2,6.6-3.8,7.3-1.9,14.6-3.7,21.9-5.5,2.3-.4,4.5-1.2,6.9-.9a15.85,15.85,0,0,1,7.9,7.2c3.9,7,10.1,12.6,14.2,19.7.9,1.5,2.5,1.5,4.1,1.3,4.5,3.6,9.2,7,9,13.7Z" transform="translate(-364.8 -216.17)"/><path class="cls-4" d="M568.77,278.77c-5.3,2.2,0,6.6-1.9,9.7-2.2-.4-2.3-4-4.9-3.4-4.3,5,5.5,10.6-.8,15.5-1.6-1-1.9-3.6-4.4-3.6-4.4,5,5.2,10.6-.9,15.5-1.6-.9-2.1-3.3-4.7-3.7-1.3,2.9-.6,5.8-.1,8.7-4.4,2.4-3,7-3.8,10.7-6.5-.5-8.5-6.8-13-9.9-2.5-2.8-5.7-5-7.2-8.7-1.5-7.9,3.4-13.8,6.8-20,1.2-2.3,2.7-4.1,2.8-6.8.1-2.2,1-4.7,2.9-5.7,2.5-1.3,1.6-3.7,2.5-5.2,4.1-6.7,4.1-15.4,10.3-21.1A255.62,255.62,0,0,1,568.77,278.77Z" transform="translate(-364.8 -216.17)"/><path class="cls-4" d="M399.47,442.57c4.5,6,11.1,5.5,19.7-1.4,6.7,2.4,13.5.9,20.2.3,4.1-.4,8.1-2,12.3-1.7,2.7,3.1-.1,5.8-.7,8.6-.7,3.6-2.4,7.1-3.2,10.7-.4,2.6-.7,5.2-2.6,7.2-10.3,1.1-20.4,3.8-30.9,3.7-6.3,0-12.7,1.1-19,2-9,1.3-9.8.8-7.9-8.2C391.47,456.77,395.47,449.67,399.47,442.57Z" transform="translate(-364.8 -216.17)"/><path class="cls-4" d="M628.37,507.47l-9.3-13c-5.1-5.1-9-11.1-12.8-17-1-1.6-1.5-3.5-3.3-4.7-3.2-2-3.9-5-3-8.5,3.2-3.2,7.7-2.7,11.5-4.4,2.9-1.4,5.9-2.5,9.1-1.2.8.5-.1.2.6.1,3.8-.3,2.4,5.2,6.6,5.3,3.6,0,4.9,4.7,6.9,7.5,7.5,9.9,14.7,20,21.9,30,1.3,1.8,2.9,3.4,2.3,6Z" transform="translate(-364.8 -216.17)"/><path class="cls-5" d="M367.67,498.47c2.7-5.1,5.2-10.4,8.8-15,2.9,2,6.5.5,8.9,0,9.8-2.2,19.9-2.2,29.8-3.4,7.2-.9,14.5-3.4,22-1.2,1.3.4,2.7-3.6,5.2-1.3,1,4.8-2.3,8.7-2.7,13.2a9.61,9.61,0,0,1-2.2,5.4c-4,3.2-8.7.7-12.9,1.1-8.5.6-16.6,2.7-25,3.7a128,128,0,0,1-17.5.6,14,14,0,0,0-5.8.6C372.37,503.57,369.37,502.37,367.67,498.47Z" transform="translate(-364.8 -216.17)"/><path class="cls-5" d="M694.87,507.47h-18.6c-6.5-.7-8.5-6.7-11.3-10.9-8.9-13.2-19.2-25.4-28-38.7-.6-.9-1.4-1.7-1-2.9,2.8-3.2,7.1-2.8,10.6-4.1a10.24,10.24,0,0,1,3.9-.1c6.7,4.3,13.2,8.5,15.8,16.9,1.2,3.8,5.1,6.4,7.7,9.5a33.86,33.86,0,0,1,6.3,9c2.6,6.3,7.3,11.4,12.3,16.1C694,503.67,695.47,505.17,694.87,507.47Z" transform="translate(-364.8 -216.17)"/><path class="cls-6" d="M552.47,250.87c-1.5,4-5.1,7.2-3.2,12.3.7,1.9-3.3,2.5-3.3,2.8-1.4,6.8-6.1,12.2-7.6,18.8a15.6,15.6,0,0,1-2.5,5c-3.5,6-8.5,12-7.4,19.9-3.8.7-5-2.9-7.4-4.5-1.4-1.9-4.1-3.1-3.3-6.1.2-6.9,4.4-12.3,6.9-18.3,5.5-13.3,11.6-26.5,17.5-39.6.6-1.4,1.2-2.9,2.9-3.4A59.92,59.92,0,0,1,552.47,250.87Z" transform="translate(-364.8 -216.17)"/><path class="cls-6" d="M441.87,477.17c-5,4.9-11.9,3-17.5,3.7-9.3,1.1-18.8,2.2-28.2,2.9-5.7.4-11.5.9-17.1,1.7-2,.3-2.3-.4-2.5-1.9,2.9-7,7.1-13.2,10.9-19.6-.3,6.8,2.6,7.7,9.1,6.7,11.9-1.9,24-2.3,36.1-3.4,4-.4,7.7-4.6,12-.7,1.7,2.2.3,4.4,0,6.6C444.07,474.67,443.47,476.27,441.87,477.17Z" transform="translate(-364.8 -216.17)"/><path class="cls-6" d="M636.27,455.87c4.6-.5,5.1,4.8,5.9,6.4,3.2,6.2,8,11.5,12.1,16.8,5.4,7,9.5,15,15.8,21.4,2.1,2.2,3.2,5.4,6.1,7h-17.3c-9.6-13.3-19.1-26.7-29-39.7-2.5-3.2-6.4-5.3-9.6-7.9,2.3-5.5,8-3.3,11.9-5.1A4.33,4.33,0,0,1,636.27,455.87Z" transform="translate(-364.8 -216.17)"/><path class="cls-7" d="M694.87,507.47a53.62,53.62,0,0,0-9.6-11.1c-5.1-4.6-5-12-10.2-15.6-4.1-2.9-4.2-9.8-10.6-9.9-.2,0-.7-1.1-.6-1.6,1.5-6.9-3.5-10.6-8.1-12.2-3.5-1.2-1-5.6-4.6-5.2.4-3.8,3.9-2.9,6.1-4,2.8-.6,5.6-1.5,8.6-1.5,10.7,18.3,21.4,36.7,32.1,55C699.57,504.67,699.87,507.37,694.87,507.47Z" transform="translate(-364.8 -216.17)"/><path class="cls-7" d="M367.67,498.47c4.4,3.9,9.1,1.6,13.9,1,7.4-1,14.7.9,22.4-2,4.3-1.6,10.9-3.4,14.7-2.7,6.1,1,12.1-.5,17.9,1.1,1.7,1.8,1,3.7.5,5.7-.7,2.2-1.4,4.4-3.1,6.1q-32.1.15-64.2.2C363.77,507.67,363.37,505.57,367.67,498.47Z" transform="translate(-364.8 -216.17)"/><path class="cls-8" d="M495.57,273.77c1.4,3.2,2.6,6.5,5,9.2-1.2,8.5-6.1,15.6-9.3,23.3-1.2,2.9-3.5,3.5-4.1-.7.9-8.7,5.2-16.6,5.2-25.5C493.37,278,494.47,275.87,495.57,273.77Z" transform="translate(-364.8 -216.17)"/><path class="cls-9" d="M665.67,446.47c-2.3,2.1-5.1,2.6-8,2.7-6.1-6.3-10.5-13.7-15.7-20.7-1-1.4-1.8-3.1-.3-4.8,6,5.8,11.9,11.6,17.9,17.3,1.7,1.6,3,3.9,5.6,4.3A2.08,2.08,0,0,1,665.67,446.47Z" transform="translate(-364.8 -216.17)"/><path class="cls-8" d="M433.87,507.57l1.3-6.4c8.5-3.4,17.5-3,26.3-3.9,1.3-.1,3.3.1,2.9,2.5l-27.9,7.9Z" transform="translate(-364.8 -216.17)"/><path class="cls-3" d="M595.07,324.17a144.34,144.34,0,0,0-16,35.9q-3.15.6-2.7-2.7h0c5-12.5,11.3-24.4,15.9-37.1l.2-.3C594.07,321,594.47,322.67,595.07,324.17Z" transform="translate(-364.8 -216.17)"/><path class="cls-4" d="M576.37,357.47a4.78,4.78,0,0,0,2.7,2.7l41.4,42c1.8,1.9,3.5,4,5.2,6-2.4,1.6-4.1-.2-5.9-1.2-5.2-2.6-10.1-5.9-15.3-8.5-2-1.4-4-2.9-6.5-3.5-2.9-1.1-6.2-1.3-8.8-3.3-8.6-8.9-20.8-12.1-30.9-18.8-6.2-4.1-12.6-8-18.5-12.7-2.3-9.9,4-17.2,7.6-25.3,1.3-3,3.3,0,5,0,5.9,5.7,11.8,11.4,17.7,17C572.17,353.77,574.27,355.57,576.37,357.47Z" transform="translate(-364.8 -216.17)"/><path class="cls-10" d="M641.67,423.67c1.7,6.5,7.1,10.5,10.4,15.9,1.9,3.2,4.9,5.8,5.6,9.6-1.9,1.7-4.9.5-6.7,2.7h-4c-6.7-5.1-8.6-13.5-13.9-19.6-2.6-3-4.6-6.4-8-8.8a9.67,9.67,0,0,1-4.1-5.8,5.66,5.66,0,0,1,.3-1.8c2.4-2.4,5.6-3.4,8.4-5Z" transform="translate(-364.8 -216.17)"/><path class="cls-11" d="M629.57,410.87c-1.3,3.8-4.8,4.1-7.9,5.1-2.4.9-3.7-.9-5-2.2-4.1-3.9-8.2-7.8-11.9-12-.9-1.1-4-2.8-.3-4.5,7.7,2.4,13.6,8.1,21.1,10.8Z" transform="translate(-364.8 -216.17)"/><path class="cls-4" d="M453.87,429.27l8-29.3c-.5-.3-.6-.6-.5-.9a.51.51,0,0,1,.5-.4c.4-.9.9-1.8,1.3-2.7,6.1-23.5,12.3-47,18.4-70.5l.9.8c2.1,4.6.6,9.6,1.3,14.4.1,8.3-.4,16.5,0,24.8,0,19.2.2,38.3.1,57.5a43.47,43.47,0,0,1-.4,7.2c-.4,2.6-1.9,3.7-4.6,3.8-5.1.2-10.1,1-15.2,1.6C458,436.37,455,434.87,453.87,429.27Z" transform="translate(-364.8 -216.17)"/><path class="cls-10" d="M487.17,305.47c1.2,2,1.8,2.8,3.1-.2,3.2-7.6,5.9-15.4,10.4-22.4l7.9,6.7a22.59,22.59,0,0,1-4.9,12.9,15.32,15.32,0,0,0-2.6,6.8c-.9,5.9-4.9,10.4-6.3,15.9-.8,3.1-3.3,3.9-5.9,4.7a7.87,7.87,0,0,1-4.5-.8c-1.7-.6-1.6-2.4-2.3-3.7l-.4-.1C483.37,318.87,484.27,311.87,487.17,305.47Z" transform="translate(-364.8 -216.17)"/><path class="cls-4" d="M587.07,467.87l-29.3,8q-29.85,7.65-59.7,15.2c-2.7.7-5.4,2-8.3.7.4-4.1,4.2-4.7,6.9-6.3,2.9-1.7,5.6-3.5,8.6-5,3.2-1.6,6.6-2.9,9.3-5.5,1.9-1.7,3.6-3.5,6-4.5a132.42,132.42,0,0,0,23-12.8,135.75,135.75,0,0,1,27.7-13.3C578.77,450.57,586.07,457.07,587.07,467.87Z" transform="translate(-364.8 -216.17)"/><path class="cls-10" d="M464.47,499.67c-4.1-2.9-8.3-.3-12.5-.2-5.6.1-11.2,1-16.8,1.6a9.1,9.1,0,0,0,1.3-5.3,9,9,0,0,0,1.4-5.3c6.7-3.1,14.1-1.8,21-3.4,5.3-1.3,10.7.6,15.7-1.6,2.7-1.2,5.2-.5,7.6.8a5.07,5.07,0,0,1,.9,1.6,18.32,18.32,0,0,1,.2,6.6A95.4,95.4,0,0,1,464.47,499.67Z" transform="translate(-364.8 -216.17)"/><path class="cls-11" d="M483.27,494.47c-2.3-1.9-1.1-4.4-1.4-6.7.8-.8.4-2.3,1.5-2.8a88.82,88.82,0,0,1,20.1-5.8c1.1-.2,2.8-.1,2.4,2l-16.1,10.5Z" transform="translate(-364.8 -216.17)"/><path class="cls-7" d="M488.47,329.47c6.2-3.2,6.8-10.2,9.6-15.5s2-12.3,7.9-16.2c-2.4-3.7,1.6-5.4,2.4-8.1l9.3,9.3,4,5.3c-.7.8-2.4,1.1-2.4,2.1,0,6.6-6.5,10.6-6.5,17.2,0,3.1-3.8,4.2-4.6,7.5-1.1,4.5-1,7.6,3.4,9.9a67.78,67.78,0,0,1,7.7,5,9.48,9.48,0,0,1,2,2c1.9,2.9,3.6,6,.6,9-3.2,3.1-2.1,12.5,2.2,14.2a275.85,275.85,0,0,0,29.7,9.2c4.1,1,8.1,2.2,12.1,3.6,1.4.5,3.9,1,1.9,3.5-3.8,1.7-8,.6-11.9,1.9-2.3.4-4.5,1.1-6.8,1-11.2-1.6-22.5-1.3-33.8-2.5-3.6-.4-7.8-.8-6.8-5.9,1.3-6.4-.4-11-6-13.1-7.3-2.7-7.9-3.8-6.1-11.3.9-3.9,1.3-8,3-11.5,2.7-5.6.6-8.7-4.4-10.9-1.8-.8-2.6-2.8-4.4-3.6A3.37,3.37,0,0,1,488.47,329.47Z" transform="translate(-364.8 -216.17)"/><path class="cls-6" d="M520.47,348.17l-1.3-1.3c1.3-4.2.7-9.3,3.7-12.5a11.1,11.1,0,0,0,3.4-7.2c.5-5.4,4.5-7.7,8.9-9.5l12,10.6c2.3.4,3.1,2.3,4,4l1.4,2.6c-5,2.1-11.6,13.9-11.6,20.8,0,1.5-.3,3-.4,4.5C532.27,358.47,526.17,353.57,520.47,348.17Z" transform="translate(-364.8 -216.17)"/><path class="cls-1" d="M592.27,320.37c-.4,7.7-5.1,13.9-8,20.7-2.4,5.5-3.7,11.7-8,16.4,1.4-9,6.5-16.6,10-24.8C588.07,328.47,589,323.77,592.27,320.37Z" transform="translate(-364.8 -216.17)"/><path class="cls-12" d="M551.07,332.17a7.81,7.81,0,0,1-4-4c-1.5-4.6-3.8-9.5,4-10.6,1.3.9,2.6,2.8,1.7,3.6C549.27,324.57,551.07,328.47,551.07,332.17Z" transform="translate(-364.8 -216.17)"/><path class="cls-13" d="M453.87,429.27c4.6,8.6,12.4,4.2,18.7,4.1,3,0,6.1-1,9.2-.1,3.3,4.5,1.5,9.7,1.8,14.6a11.15,11.15,0,0,1-.5,3.1c-1.1,3.2-3,3.9-6.6,4.6-9.7,1.8-19.6,2.1-29.3,4.3-.5.1-1-.8-1.4-1.3,2.1-6.1,5-12,5.3-18.6-.8-2.1,1.2-3.5,1.3-5.3C454.17,433.07,452.77,430.87,453.87,429.27Z" transform="translate(-364.8 -216.17)"/><path class="cls-12" d="M452.47,434.57c1.7,2.3-.6,3.6-1.3,5.3-6,3.2-12.8,3.6-19.3,4.2-1.8.2-3.6-1-5.8,0-2.9,1.4-5.4.2-6.8-2.9,2.5-1.1,4.4-2.8,7.8-2.6,7.3.4,14.8-.4,22.2-1.1C450.37,437.47,451.37,435.67,452.47,434.57Z" transform="translate(-364.8 -216.17)"/><path class="cls-1" d="M461.87,398.67V400l-37.1,4.1C436.87,400.47,449.37,399.47,461.87,398.67Z" transform="translate(-364.8 -216.17)"/><path class="cls-13" d="M587.07,467.87c-3.4-8.9-9.5-15.9-16-22.6-.6-3.4,2.4-3.7,4.3-4.7,3.7-1.9,7.7-3.1,10.6-6.3,2-2.3,3.7-5.3,7.5-2.5,6.5,4.5,12.7,9.2,13.8,18.1a7.32,7.32,0,0,0,4.3,6c2.9,1.2,3.5,3.2.8,5.4-3.8,2.1-8.4,1.4-12,4a6.17,6.17,0,0,1-6.7,1.4Z" transform="translate(-364.8 -216.17)"/><path class="cls-14" d="M593.67,466.57a11.18,11.18,0,0,1,6.7-1.4c.1,4.1,4.6,5.6,5.6,8.1,3,8,10.6,13,13.1,21.2-1.8,3.7-4,1.5-4.8-.3-3.9-8.6-12.5-14-15.6-23.1C597.87,469,594.27,469.17,593.67,466.57Z" transform="translate(-364.8 -216.17)"/><path class="cls-5" d="M535.07,317.57c-3.1,4-9.1,6.1-7.5,13,.2,1-.3,4.4-3.4,4.1-.9-.1-1.1.4-1.2,1-.5,4-.8,8-3.9,11.1-4.5-.9-7.6-4.4-11.4-6.6-3.4-2-1.9-13.1,2-14.6,2.1-.8,1.9-1.7,1.8-2.9-.5-6.9,7.2-11.1,6.1-18.5-.2-1.3,2.7.4,4.1,0l6.6,5.3Z" transform="translate(-364.8 -216.17)"/><path class="cls-5" d="M445.87,458.57c3.6-.7,6.8-2.8,10.9-2,2.7.5,5.7-.2,8.5-.8,4.7-1.1,9.1-3.1,14.1-1.1.4.1,1.6-1.8,2.5-2.8,3.7-.3,3.1,2.2,2.6,4.3-1.1,4.7-1.2,9.5-1.5,14.2a3.67,3.67,0,0,1-.9,1.6c-10.7,1.6-21.7,1.4-32.4,3.8-2.7.6-4.5-1.3-6.5-2.6.4-2.2.9-4.4,1.3-6.7C445,463.87,446.37,461.37,445.87,458.57Z" transform="translate(-364.8 -216.17)"/><path class="cls-5" d="M612.37,461.17a7.81,7.81,0,0,0,.5-1.2c-9-7.2-7.3-22.6-20.4-26.7-.7-3.1,1.9-3.5,3.8-4.4,4-2,8-3.7,12.1-5.3a3.72,3.72,0,0,1,1.8.2c1.6,2.2,2.4,4.6,5.6,5.8,4.2,1.5,5,6.7,6.6,10.1a36.21,36.21,0,0,0,9,12.2,3.29,3.29,0,0,1,1,4.1c-3.6,2.6-8.5,1-12,4C617.47,459.07,614.87,460.07,612.37,461.17Z" transform="translate(-364.8 -216.17)"/><path class="cls-7" d="M443.17,473.17a73.84,73.84,0,0,0,28.4-2.8c2.8,4.6,7.3-2.3,10.3,1.5,3.8,2.2.8,5.6,1.6,8.4a19.58,19.58,0,0,1-1.6,6.2c-5.8.8-12,3-17.4,1.8-2.9-.6-6.3,4.5-8.2-.6-3.7,5.9-11.2-1.4-15,4.4a19.64,19.64,0,0,1-3.3-1.5l4-13.3Z" transform="translate(-364.8 -216.17)"/><path class="cls-7" d="M632.27,455.87c-.5-4-4.8-4.4-6.8-7.4a89.1,89.1,0,0,1-8-15.3c-.6-1.5-1.6-3.4-3.1-3.1-6.5,1.5-4.2-3.3-4.7-6.1.5-4.4,4.9-4.2,7.5-6.1,1.5-.6,2.9-1.2,4.5-.5,1.7,4.3,7.4,5.4,8.2,10.4,5.3-1,2.9,7.2,7.9,6.6-1.1,5,6,6.5,4.9,11.9-.3,1.6,6.7.7,4.3,5.7-3,2.7-7.6,1.3-10.6,4Z" transform="translate(-364.8 -216.17)"/><path class="cls-5" d="M520.47,348.17l20,12c10.7,6.5,21.5,13,32.2,19.5,5.8,3.5,12.9,4.9,17.1,11a3.28,3.28,0,0,1-2.8,1c-4.7-.8-9.1-2.4-13.8-3.1-1.7-.2-3.5-.4-4.7-2l-37-11.2c-1.4-.4-2.9-.8-4.4-1.3-2.8-.9-5.6-1.9-8.4-2.9,2.4-4.2-1.3-8-.6-12,.2-.9-1.3-5.1,3.5-3.6C522.87,356,520.67,350.77,520.47,348.17Z" transform="translate(-364.8 -216.17)"/><path class="cls-15" d="M573.67,386.77c4.5,1.2,9.2,1.5,13.4,3.9,3.3,3.6,7.1,5.4,11.8,2.9,2.1.8,4.3,1.5,5.5,3.7-1.1,3.1,1.9,3.9,3.4,5.4,4.5,4.6,9.2,8.9,13.9,13.3v1.3l-4,1.4c-5.7-.2-7.8-5.9-12.1-8.2-1.9-1-3.2-2.9-4.8-4.5-5.9-5.8-6.4-5.8-12.7.2a4,4,0,0,1-2.5,1.2c-4.1-.7-7.2-3.5-10.2-5.9-4.3-3.5-7-2.3-9.4,2-.9,1.7-2.1,3.4-2.9,5.2-2,3.5-3.8,7.2-7.1,9.8-5.5,2.5-7,1.7-7.3-4-.1-1.7.4-3.5-.1-5.2.3-6.7,1.7-13.1,5.4-18.8,2.2-.3,2.1,1.8,3,2.9,3,3.7,7.4,3.9,10.7.4C569.77,391.57,571.17,388.67,573.67,386.77Z" transform="translate(-364.8 -216.17)"/><path class="cls-16" d="M598.87,393.57c-1.5,2.2-4.1,4.6-6.2,2.8-1.9-1.6-7.3-.6-5.6-5.7h2.6Z" transform="translate(-364.8 -216.17)"/><path class="cls-5" d="M481.87,449.27v-16q0-33.9.1-67.9c3.1.1,2.9,2.9,3.6,4.8,2,5.6,3.2,11.5,5.4,17.1a39.85,39.85,0,0,1,1.9,5.5c4,14.9,8.1,29.8,11.5,44.9a21.92,21.92,0,0,1,.9,7.2c-.2,2.4-2.1,5.4-3.8,4.3-4.1-2.7-6,2.5-9.2,1.6A36.84,36.84,0,0,0,481.87,449.27Z" transform="translate(-364.8 -216.17)"/><path class="cls-17" d="M489.67,388.17c-4-7.1-4.2-15.6-7.8-22.8v-25.3c1.5-3.8-.2-8.4,2.6-11.9l4,1.3,2.6,1.4c.9,8.4-3.2,15.9-4.6,23.9-.5,3.2-1.3,6.2,3,7.3,6.4,2.4,6.2,7.9,6.1,13.3-.1,3.8-.2,7.5-2.1,10.9A4.35,4.35,0,0,1,489.67,388.17Z" transform="translate(-364.8 -216.17)"/><path class="cls-18" d="M484.47,328.17a28.65,28.65,0,0,1-2.6,11.9l.1-14.5Z" transform="translate(-364.8 -216.17)"/><path class="cls-5" d="M587.07,434.57c-1.9,5-7.2,4.9-10.8,7.3-1.7,1.1-4.3.9-5.2,3.4-10.6,6.5-22.6,10.1-32.7,17.8-5.2,3.9-11.1,7.6-18,8.8a2.25,2.25,0,0,1-.2-1.8c3-4.7,7.9-7.7,10.9-12.3a28,28,0,0,1,4.6-5.7c9.7-9.7,20.2-18.5,29.9-28.1,7-6.9,14.9-5.2,18.2,4C584.67,430.27,588.47,431.17,587.07,434.57Z" transform="translate(-364.8 -216.17)"/><path class="cls-19" d="M481.87,486.47c-1.3-1.8,0-3.5,0-5.3,2.8-3.3,6.9-3.6,10.7-4.9,6.1-2,12.5-2.9,18.2-6.1a2.6,2.6,0,0,1,2.5.8,7.43,7.43,0,0,1,2,4.9c-2.2,3.2-5.8,4.3-9.3,5.4-8.7-.3-16.6,2.4-24,6.6Z" transform="translate(-364.8 -216.17)"/><path class="cls-20" d="M515.17,475.87l-2.7-4c4.2-4.5,5.8-4.7,8-1.3,0,.4-.1.9-.1,1.3Z" transform="translate(-364.8 -216.17)"/><path class="cls-21" d="M555.07,390.67c-2.8,6.4-4.1,13.2-5.6,19.9-.4,8.2-2.8,15.9-5,23.7-1.4,2.9-1,6.7-4.3,8.6-2.6.2-3.8-1.9-5.5-3.3-1.4-1.5-2.9-3-4.4-4.4-3.4-3.3-7.5-5.7-10.6-9.2-5.3-5.4-10.6-10.7-16-16-1.7-2.5-5.4-3.7-4.4-7.7,1.5-1.3,3.5-1.8,5.3-2.5,3.2-1,6.4-1.8,9.6-2.7,11.5-2.6,22.4-7.5,34.3-8l6.6-1.1a1.61,1.61,0,0,1,.3,2.3A1.38,1.38,0,0,1,555.07,390.67Z" transform="translate(-364.8 -216.17)"/><path class="cls-22" d="M548.37,389.17a315.47,315.47,0,0,1-34.6,9.4c.5-6-2.3-9-8.2-9.6a58.35,58.35,0,0,0-7.3-.5c-2.1-.1-4.2,0-5.8-1.8.5-4.3,1.3-8.5,1.5-12.8.2-5-.8-8.8-5.5-11.1-.5-.7-1.2-1.5-1-2.4,1.8-9.2,2.6-18.6,7.7-26.9,1.4.7,3,1.2,4,2.2,2.2,2.1,5.1,3.1,2.4,8-2.4,4.4-2.7,10.3-4.3,15.5-1.4,4.7.8,7,5.5,8.1,2.9.7,8.8,1.6,7.5,4.7-1.8,4.4,2.2,5.8,2,8.7-.5,5.4-.6,4.6,5.7,5.5C528.07,388,538.37,386.37,548.37,389.17Z" transform="translate(-364.8 -216.17)"/><path class="cls-23" d="M555.07,390.67l-.1-2.6c4.3-2.4,9-.9,13.4-1.5l5.2.2a16.51,16.51,0,0,1-5.6,8.7c-1.5,1.4-2.4,4.9-5.5,3.1S553.37,397.17,555.07,390.67Z" transform="translate(-364.8 -216.17)"/><path class="cls-19" d="M495.17,333.47l-6.7,29.2c-3.9.1-5.6-1-4.2-5.5,2.6-8.7,4.6-17.6,6.9-26.4C493.57,330.07,493.07,333.67,495.17,333.47Z" transform="translate(-364.8 -216.17)"/><path class="cls-7" d="M499.37,402.87c1.8,2.1,3.6,4.2,5.3,6.4,4.3,8.5,9.2,16.7,13.9,25a13,13,0,0,1,1.7,4.4c-.3,1.7.5,2.9-2.8,3.7-6.6,1.6-8.9,7.9-8.1,13.8.4,2.4.4,4.8-1.2,6.9-5.7,4.4-11.6,8.1-19.3,6.6-2.4-.5-4.5,1.8-7,.9a31.44,31.44,0,0,1,1.4-15.2c.8-2.1.1-2.7-1.4-3.5v-2.6c2.3-2,5.4-2.6,7.7-1.2,5.6,3.3,7.6.6,8.4-4.3,3.6,0,.2,5.8,3.8,4.5s2.2-4.7,1.5-7.5c-4-15.8-7.9-31.7-11.9-47.5C496.37,394.37,497.17,399.17,499.37,402.87Z" transform="translate(-364.8 -216.17)"/><path class="cls-7" d="M539.07,442.57c3.4-1.6,1.5-5.9,4-8,4.6-5.3,6.8-12.3,12-17.3,3.2-2.4,4.9-5.9,6.6-9.3,2.1-1.8,4.3-2.4,6.3.2,4.1,5.2,8.4,4.9,12.9.5,1.4-1.3,3.2-1.3,4.8-2l1.3-1.3c1.8-1.1,4.1-3,5.4.1,2.1,4.9,6.8,6.4,10.5,9.3,2.8,2.3,7,4.2,5.4,9.2-3.4,3.2-7.9,4.4-12,6.4-1.6.8-3.3,1.1-4,2.9-2.8-3.6-3.5,1.2-5.3,1.3-1.4-3.4-7-4.6-4.8-9.9.4-1-1.1-1.7-2.3-.9-1,.7-2.1,1.3-2.9.1-4.5-6.7-7.4-1.7-10.6,1.4-10,9.3-20,18.7-30,28C534.67,449,538.27,446.17,539.07,442.57Z" transform="translate(-364.8 -216.17)"/><path class="cls-10" d="M481.87,470.47c3.4-1.5,6.2-4.5,10.8-1.3,1.7,1.2,5.4-3.9,9.2-3,.4-3.1,3.9-1.9,5.2-3.7.9,1,2.3.8,3.3,1.5a6.17,6.17,0,0,1,1.6,3.1,3.62,3.62,0,0,1-1,3.4c-2.6,5.3-8.4,3.9-12.5,5.8-5.2,2.4-11.2,3.3-16.8,4.9v-9.3A3.4,3.4,0,0,0,481.87,470.47Z" transform="translate(-364.8 -216.17)"/><path class="cls-10" d="M608.37,424c-1.1-6.8-8.2-7.9-12-12.1-1.8-1.9-5-1.8-4.9-6,.1-2.6-2.9-.1-4.3-.6,6.8-8,7.2-7.9,14.5-.9,5.2,4.9,10.8,9.5,16.1,14.2l-8,5.3Z" transform="translate(-364.8 -216.17)"/><path class="cls-10" d="M585.67,406.67c-1.9,1.6-3.7,3.1-5.5,4.7-4.6,4-9.1,3.3-12.4-1.3-1.9-2.6-3.5-2.8-6-2.1,6.8-12.7,6.8-12.7,18.5-4.9Z" transform="translate(-364.8 -216.17)"/><path class="cls-24" d="M555.07,417.27c-3.3,6-6.4,12.1-9.8,18.1-1.1,1.9-1.9.9-2.2-.8,1.3-8.2,3.8-16.1,6.4-24,2.1,1.3.4,3.3.5,4.8C550.27,420.47,552.27,419.47,555.07,417.27Z" transform="translate(-364.8 -216.17)"/><path class="cls-18" d="M499.37,402.87c-4.6-1.6-4.3-7.3-8.2-9.6-.5-1.7-1-3.4-1.6-5.1a3,3,0,0,1,2.8-1.5H499c8.5,3.6,10.2,8.3,5.4,14.4Z" transform="translate(-364.8 -216.17)"/><path class="cls-16" d="M539.07,442.57c2.9,4.5-3.1,6.8-2.7,10.6l-4,5.3c-2.6,1.7-3.5-.5-4.7-2A14.43,14.43,0,0,1,526,452c.5-9.4,1.8-11.3,9-13.4Z" transform="translate(-364.8 -216.17)"/><path class="cls-11" d="M528.47,455.87c1.4.8,1.9,2.9,3.9,2.6a61.49,61.49,0,0,1-11.9,12c-3.4-3.6-5.4.4-8,1.3l-1.3-1.4v-4c-.7-2.4,1.3-3,2.7-3.7C518.67,460.47,523.17,457.37,528.47,455.87Z" transform="translate(-364.8 -216.17)"/><path class="cls-11" d="M504.47,401.17c3.6-6.8-1-10.6-5.4-14.4,4.1-.7,7.8,1.1,11.8,1.5s5.2,6.1,2.9,10.4A24.72,24.72,0,0,1,504.47,401.17Z" transform="translate(-364.8 -216.17)"/><path class="cls-25" d="M535,438.57c-4.9,3.1-8.2,7.1-7.9,13.3a1.5,1.5,0,0,1-1.8,0c-2.5-3.2-4.5-6.7-4.7-10.9,2.6-8.1,4.2-9.1,10.4-6.4A9.64,9.64,0,0,1,535,438.57Z" transform="translate(-364.8 -216.17)"/><path class="cls-9" d="M531,434.57c-6-1.8-7.9,2-9.2,6.6-2.6.8-1.5-2.1-2.6-2.7-.4-1.3-.9-2.6-1.4-4a22.39,22.39,0,0,1-2.2-4c-.9-2.1-1.7-4.2.1-6.1s3.6.6,5.4.6Z" transform="translate(-364.8 -216.17)"/><path class="cls-10" d="M521,425.07c-5.6-1.1-6.4,1.3-4.4,5.9.5,1.2.8,2.5,1.2,3.7-6.1-7.2-9.2-16.1-14.2-24-.1-.2.7-.9,1.1-1.4C510.87,413.67,516,419.47,521,425.07Z" transform="translate(-364.8 -216.17)"/><path class="cls-10" d="M519.17,438.57l2.6,2.7,4,10.6c-1.1,3.1-4.1,3.8-6.6,5a24,24,0,0,0-9.4,7c-1.4.7-2.7,1-2.7-1.3.6-1.4,1.9-2.9,1-4.3-3.5-5.4,3.1-9.9,1.2-15.2-.4-1,1.3-.8,2.4-.6C515,442.87,518.27,442.87,519.17,438.57Z" transform="translate(-364.8 -216.17)"/><path class="cls-19" d="M509.77,463.87c-.4-3,1.2-4.7,3.8-6,4.1-1.9,8.1-4,12.1-6H527l1.4,4c-4.5,5.6-12.3,5.9-17.3,10.6A2.64,2.64,0,0,1,509.77,463.87Z" transform="translate(-364.8 -216.17)"/></svg>