<?xml version="1.0" encoding="UTF-8"?>
<svg width="125px" height="125px" viewBox="0 0 125 125" version="1.1" xmlns="http://www.w3.org/2000/svg" xmlns:xlink="http://www.w3.org/1999/xlink">
    <!-- Generator: Sketch 56.3 (81716) - https://sketch.com -->
    <title>aud</title>
    <desc>Created with Sketch.</desc>
    <g id="aud" stroke="none" stroke-width="1" fill="none" fill-rule="evenodd">
        <path d="M0,62.5 C0,27.980957 27.980957,0 62.5,0 C97.019043,0 125,27.9858398 125,62.5 C125,97.0141602 97.0166016,125 62.5,125 C27.9833984,125 0,97.019043 0,62.5 Z" id="Path" fill="#6CDE07" fill-rule="nonzero"></path>
        <path d="M31,66 L51,66 L41.1652893,40 L41,40 L31,66 Z M37.836858,34 L46.0845921,34 L68,90 L59.7522659,90 L53.6253776,73.1372549 L29.9033233,73.1372549 L23.6193353,90 L16,90 L37.836858,34 Z M75.8,73.2849162 C75.9066672,76.778416 77.0133228,79.5418893 79.12,81.575419 C81.2266772,83.6089487 83.879984,84.8864034 87.08,85.4078212 L87.08,64.6815642 C84.2533192,64.003721 81.8133436,63.2607117 79.76,62.452514 C77.7066564,61.6443163 76,60.6797077 74.64,59.5586592 C73.2799932,58.4376108 72.2800032,57.0689094 71.64,55.452514 C71,53.8361185 70.68,51.8808308 70.68,49.5865922 C70.68,47.2402235 71.1066624,45.0893953 71.96,43.1340782 C72.8133376,41.1787612 73.973326,39.4841785 75.44,38.0502793 C76.906674,36.6163802 78.63999,35.4823133 80.64,34.6480447 C82.64001,33.8137761 84.7866552,33.3184365 87.08,33.1620112 L87.08,28 L91.48,28 L91.48,33.2402235 C95.8000216,33.7616413 99.2399872,35.3258715 101.8,37.9329609 C104.360013,40.5400503 106.173328,44.1377797 107.24,48.726257 L100.44,48.726257 C99.373328,43.56422 96.3866912,40.5400417 91.48,39.6536313 L91.48,58.8938547 L96.28,60.1452514 C97.346672,60.4059603 98.5999928,60.8621941 100.04,61.5139665 C101.480007,62.1657388 102.86666,63.0651712 104.2,64.2122905 C105.53334,65.3594098 106.666662,66.7932875 107.6,68.5139665 C108.533338,70.2346455 109,72.2942152 109,74.6927374 C109,77.247685 108.560004,79.5158188 107.68,81.4972067 C106.799996,83.4785946 105.586674,85.1862126 104.04,86.6201117 C102.493326,88.0540109 100.653344,89.1880778 98.52,90.0223464 C96.386656,90.856615 94.0400128,91.378025 91.48,91.5865922 L91.48,98 L87.08,98 L87.08,91.5865922 C81.74664,91.0651743 77.5066824,89.2532744 74.36,86.150838 C71.2133176,83.0484016 69.4266688,78.7598039 69,73.2849162 L75.8,73.2849162 Z M91,84 C92.5917392,83.8937578 94.0555489,83.6281562 95.3914729,83.2031873 C96.7273969,82.7782183 97.8927599,82.1540546 98.8875969,81.3306773 C99.8824339,80.5073 100.649868,79.4714538 101.189922,78.2231076 C101.729977,76.9747614 102,75.5006725 102,73.8007968 C102,72.2602845 101.715765,70.9721167 101.147287,69.936255 C100.578809,68.9003932 99.8113743,68.0106279 98.8449612,67.2669323 C97.8785481,66.5232367 96.7131851,65.8990729 95.3488372,65.3944223 C93.9844893,64.8897717 92.5348914,64.4249689 91,64 L91,84 Z M86,39 C83.4956397,39.2564115 81.369574,40.1410181 79.6217391,41.6538462 C77.8739043,43.1666742 77,45.3846008 77,48.3076923 C77,49.6410323 77.2217369,50.7820465 77.6652174,51.7307692 C78.1086979,52.6794919 78.7347786,53.4743558 79.5434783,54.1153846 C80.352178,54.7564135 81.3043423,55.30769 82.4,55.7692308 C83.4956577,56.2307715 84.6956457,56.6410238 86,57 L86,39 Z" id="A$" fill="#FFFFFF" fill-rule="nonzero"></path>
    </g>
</svg>