<?xml version="1.0" encoding="utf-8"?>
<!-- Generator: Adobe Illustrator 25.0.1, SVG Export Plug-In . SVG Version: 6.00 Build 0)  -->
<svg version="1.1" id="katman_1" xmlns="http://www.w3.org/2000/svg" xmlns:xlink="http://www.w3.org/1999/xlink" x="0px" y="0px"
	 viewBox="0 0 32 32" style="enable-background:new 0 0 32 32;" xml:space="preserve">
<style type="text/css">
	.st0{fill-rule:evenodd;clip-rule:evenodd;fill:#E84142;}
	.st1{fill:#FFFFFF;}
</style>
<g>
	<g>
		<circle class="st0" cx="16" cy="16" r="16"/>
		<path class="st1" d="M21.6,16.4c0.6-1,1.4-1,2,0l3.5,6.1c0.6,1,0.1,1.7-1,1.7h-7c-1.1,0-1.5-0.8-1-1.7L21.6,16.4z M15,4.7
			c0.6-1,1.4-1,2,0l0.8,1.4l1.8,3.2c0.4,0.9,0.4,2,0,2.9l-6.1,10.5c-0.6,0.9-1.5,1.4-2.5,1.5H5.9c-1.1,0-1.6-0.8-1-1.7L15,4.7z"/>
	</g>
</g>
</svg>
