<svg xmlns="http://www.w3.org/2000/svg" viewBox="0 0 64.567 64.567"><defs><style>.a{fill:#fff;}</style></defs><path class="a" d="M330.283,453.173H265.717V388.606h64.566Zm-32.305-62a29.721,29.721,0,1,0,29.748,30.154A29.745,29.745,0,0,0,297.978,391.168Z" transform="translate(-265.717 -388.606)"/><path d="M297.978,391.168A29.721,29.721,0,1,1,268.3,420.62,29.692,29.692,0,0,1,297.978,391.168ZM298,409.283c.1.208.159.308.2.411q3.189,7.158,6.376,14.316c1.558,3.5,3.121,7,4.663,10.5a1.026,1.026,0,0,0,1.1.729c1.175-.041,2.353-.012,3.53-.013.912,0,1.056-.226.685-1.059q-2.676-6-5.35-12.012c-.063-.141-.116-.287-.2-.489,1.737,0,3.383,0,5.028,0,.576,0,.719-.143.722-.712,0-1.092,0-2.185,0-3.278,0-.725-.1-.824-.8-.824-2.169,0-4.338-.016-6.506.012a.777.777,0,0,1-.855-.546c-1.807-4.1-3.644-8.194-5.449-12.3a1.036,1.036,0,0,0-1.112-.716c-1.294.032-2.591.049-3.883,0a1.245,1.245,0,0,0-1.363.89c-1.774,4.063-3.592,8.107-5.383,12.163a.716.716,0,0,1-.773.513c-2.219-.026-4.438-.014-6.657-.011-.584,0-.718.132-.72.706q-.006,1.69,0,3.379c0,.6.141.727.755.729.976,0,1.951,0,2.926,0h2.073c-.1.237-.164.406-.237.571q-2.673,6.006-5.347,12.013c-.326.731-.162.975.651.976,1.193,0,2.388-.025,3.58.011a1.031,1.031,0,0,0,1.114-.713q4.149-9.378,8.328-18.741C296.045,413.653,297,411.524,298,409.283Z" transform="translate(-265.717 -388.606)"/><path class="a" d="M298,409.283c-1,2.241-1.95,4.37-2.9,6.5q-4.168,9.368-8.328,18.741a1.031,1.031,0,0,1-1.114.713c-1.192-.036-2.387-.01-3.58-.011-.813,0-.977-.245-.651-.976q2.672-6.007,5.347-12.013c.073-.165.139-.334.237-.571h-2.073c-.975,0-1.95,0-2.926,0-.614,0-.752-.134-.755-.729q-.006-1.689,0-3.379c0-.574.136-.705.72-.706,2.219,0,4.438-.015,6.657.011a.716.716,0,0,0,.773-.513c1.791-4.056,3.609-8.1,5.383-12.163a1.245,1.245,0,0,1,1.363-.89c1.292.054,2.589.037,3.883,0a1.036,1.036,0,0,1,1.112.716c1.805,4.105,3.642,8.195,5.449,12.3a.777.777,0,0,0,.855.546c2.168-.028,4.337-.013,6.506-.012.707,0,.8.1.8.824,0,1.093.006,2.186,0,3.278,0,.569-.146.71-.722.712-1.645,0-3.291,0-5.028,0,.082.2.135.348.2.489q2.674,6.007,5.35,12.012c.371.833.227,1.058-.685,1.059-1.177,0-2.355-.028-3.53.013a1.026,1.026,0,0,1-1.1-.729c-1.542-3.506-3.1-7-4.663-10.5q-3.187-7.158-6.376-14.316C298.154,409.591,298.1,409.491,298,409.283Z" transform="translate(-265.717 -388.606)"/></svg>