<?xml version="1.0" encoding="utf-8"?>
<!-- Generator: Adobe Illustrator 16.0.0, SVG Export Plug-In . SVG Version: 6.00 Build 0)  -->
<!DOCTYPE svg PUBLIC "-//W3C//DTD SVG 1.1//EN" "http://www.w3.org/Graphics/SVG/1.1/DTD/svg11.dtd">
<svg version="1.1" id="Layer_1" xmlns="http://www.w3.org/2000/svg" xmlns:xlink="http://www.w3.org/1999/xlink" x="0px" y="0px"
	 width="3840px" height="2160px" viewBox="0 0 3840 2160" enable-background="new 0 0 3840 2160" xml:space="preserve">
<g>
	<path fill="#EEF4F4" d="M1920,329.999c414.214,0,749.999,335.786,749.999,750c0,414.211-335.785,750.002-749.999,750.002
		s-749.999-335.791-749.999-750.002C1170.001,665.785,1505.786,329.999,1920,329.999z"/>
	<g>
		<path fill="#00CEAA" d="M1941.665,1243.471H1652.5c-65.693,0-118.892-53.193-118.892-118.89V769.999
			c0-65.693,53.198-118.889,118.892-118.889h223.057c181.802,0,329.165,147.36,329.165,329.167l0,0
			C2204.859,1125.694,2086.943,1243.471,1941.665,1243.471z"/>
		<path fill="#00B2FA" d="M2090.829,1556.666h-289.027c-65.693,0-118.887-53.195-118.887-118.889v-354.722
			c0-65.693,53.193-118.892,118.887-118.892h223.057c181.807,0,329.17,147.363,329.17,329.167l0,0
			C2354.029,1438.751,2236.109,1556.666,2090.829,1556.666z"/>
		<path fill="#FFFFFF" d="M1941.665,1243.471c133.193,0,243.193-98.89,260.693-227.361c-51.25-32.917-112.223-51.945-177.637-51.945
			h-222.92c-65.693,0-118.887,53.198-118.887,118.892v160.415H1941.665z"/>
	</g>
</g>
</svg>
