<?xml version="1.0" encoding="UTF-8"?>
<svg width="125px" height="125px" viewBox="0 0 125 125" version="1.1" xmlns="http://www.w3.org/2000/svg" xmlns:xlink="http://www.w3.org/1999/xlink">
    <!-- Generator: Sketch 56.3 (81716) - https://sketch.com -->
    <title>cad</title>
    <desc>Created with Sketch.</desc>
    <g id="cad" stroke="none" stroke-width="1" fill="none" fill-rule="evenodd">
        <path d="M0,62.5 C0,27.980957 27.980957,0 62.5,0 C97.019043,0 125,27.9858398 125,62.5 C125,97.0141602 97.0166016,125 62.5,125 C27.9833984,125 0,97.019043 0,62.5 Z" id="Path" fill="#6CDE07" fill-rule="nonzero"></path>
        <path d="M41.285495,31 C48.422906,31 53.9613515,32.9004335 57.9009977,36.7013575 C61.8406439,40.5022814 64.0278822,44.8202732 64.4627782,49.6554622 L57.018419,49.6554622 C56.1742091,45.9838213 54.4922101,43.0749946 51.9723715,40.9288946 C49.4525328,38.7827947 45.915858,37.7097608 41.362241,37.7097608 C35.8109213,37.7097608 31.3277224,39.681299 27.9125096,43.6244344 C24.4972968,47.5675698 22.789716,53.6114654 22.789716,61.7563025 C22.789716,68.427312 24.3310155,73.8377297 27.4136608,77.9877182 C30.496306,82.1377066 35.0946228,84.2126697 41.208749,84.2126697 C46.836815,84.2126697 51.1217556,82.0278176 54.0636992,77.6580478 C55.6242084,75.3568081 56.7881773,72.3316283 57.5556408,68.5824176 L65,68.5824176 C64.3348649,74.5811548 62.1348358,79.610193 58.3998465,83.6696833 C53.9229758,88.5565855 47.8856865,91 40.2877974,91 C33.7387751,91 28.2387022,88.9961416 23.7874137,84.9883646 C17.9291086,79.6877563 15,71.504257 15,60.4376212 C15,52.0342178 17.2000292,45.1435304 21.6001535,39.7653523 C26.3584275,33.9217549 32.9201424,31 41.285495,31 Z M92,85 C96.6444677,84.7972106 99.8493739,83.2129426 101.614815,80.2471483 C102.538276,78.7262281 103,76.9645221 103,74.9619772 C103,71.7933935 101.75063,69.3853061 99.2518519,67.7376426 C97.8123385,66.7743932 95.3950787,65.8618548 92,65 L92,85 Z M80,48.0765957 C80,50.604268 80.8119754,52.5829716 82.4359504,54.012766 C84.0599255,55.4425603 86.2479201,56.4382951 89,57 L89,39 C85.7520499,39.1276602 83.4400895,40.1489266 82.0640496,42.0638298 C80.6880096,43.978733 80,45.9829683 80,48.0765957 Z M72.0952859,48.3671233 C72.0952859,44.4803459 73.5491329,40.9771845 76.4568706,37.8575342 C79.3646083,34.7378839 83.4392917,33.1525117 88.6810431,33.1013699 L88.6810431,28 L92.3971916,28 L92.3971916,33.0246575 C97.5867862,33.3826502 101.570197,34.8849183 104.347543,37.5315068 C107.124889,40.1780954 108.578736,43.6748641 108.709127,48.0219178 L101.863591,48.0219178 C101.681042,46.0785291 101.146444,44.40366 100.259779,42.9972603 C98.6168423,40.414599 95.996006,39.0593614 92.3971916,38.9315068 L92.3971916,57.5726027 C98.4473723,59.2347115 102.554653,60.7945133 104.719157,62.2520548 C108.239737,64.6557198 110,68.2100221 110,72.9150685 C110,79.716929 107.744255,84.5497574 103.232698,87.4136986 C100.729175,88.9990947 97.1173757,90.047486 92.3971916,90.5589041 L92.3971916,98 L88.6810431,98 L88.6810431,90.5589041 C81.0922389,90.0730569 75.941839,87.4392933 73.2296891,82.6575342 C71.7432223,80.0748729 71,76.5844969 71,72.1863014 L77.9237713,72.1863014 C78.1323982,75.6895152 78.6930747,78.2465673 79.6058175,79.8575342 C81.2226761,82.7470464 84.2216431,84.3707745 88.6028084,84.7287671 L88.6028084,63.8246575 C82.9698816,62.7762505 78.8104447,61.0246698 76.1243731,58.569863 C73.4383015,56.1150562 72.0952859,52.714177 72.0952859,48.3671233 Z" id="C$" fill="#FFFFFF" fill-rule="nonzero"></path>
    </g>
</svg>