<svg width="95" height="99" viewBox="0 0 95 99" fill="none" xmlns="http://www.w3.org/2000/svg">
<g clip-path="url(#clip0)">
<path d="M15.5625 96L14.4961 93.2754H11.0625L10.0078 96H9L12.3867 87.3984H13.2246L16.5938 96H15.5625ZM14.1855 92.3789L13.1895 89.7246C13.0605 89.3887 12.9277 88.9766 12.791 88.4883C12.7051 88.8633 12.582 89.2754 12.4219 89.7246L11.4141 92.3789H14.1855ZM27.5801 96H26.4434L21.7617 88.8105H21.7148C21.7773 89.6543 21.8086 90.4277 21.8086 91.1309V96H20.8887V87.4336H22.0137L26.6836 94.5938H26.7305C26.7227 94.4883 26.7051 94.1504 26.6777 93.5801C26.6504 93.0059 26.6406 92.5957 26.6484 92.3496V87.4336H27.5801V96ZM32.502 96.1172C31.5527 96.1172 30.8027 95.8281 30.252 95.25C29.7051 94.6719 29.4316 93.8691 29.4316 92.8418C29.4316 91.8066 29.6855 90.9844 30.1934 90.375C30.7051 89.7656 31.3906 89.4609 32.25 89.4609C33.0547 89.4609 33.6914 89.7266 34.1602 90.2578C34.6289 90.7852 34.8633 91.4824 34.8633 92.3496V92.9648H30.4395C30.459 93.7188 30.6484 94.291 31.0078 94.6816C31.3711 95.0723 31.8809 95.2676 32.5371 95.2676C33.2285 95.2676 33.9121 95.123 34.5879 94.834V95.7012C34.2441 95.8496 33.918 95.9551 33.6094 96.0176C33.3047 96.084 32.9355 96.1172 32.502 96.1172ZM32.2383 90.2754C31.7227 90.2754 31.3105 90.4434 31.002 90.7793C30.6973 91.1152 30.5176 91.5801 30.4629 92.1738H33.8203C33.8203 91.5605 33.6836 91.0918 33.4102 90.7676C33.1367 90.4395 32.7461 90.2754 32.2383 90.2754ZM41.7715 96L40.5938 92.2324C40.5195 92.002 40.3809 91.4785 40.1777 90.6621H40.1309C39.9746 91.3457 39.8379 91.873 39.7207 92.2441L38.5078 96H37.3828L35.6309 89.5781H36.6504C37.0645 91.1914 37.3789 92.4199 37.5938 93.2637C37.8125 94.1074 37.9375 94.6758 37.9688 94.9688H38.0156C38.0586 94.7461 38.127 94.459 38.2207 94.1074C38.3184 93.752 38.4023 93.4707 38.4727 93.2637L39.6504 89.5781H40.7051L41.8535 93.2637C42.0723 93.9355 42.2207 94.5 42.2988 94.957H42.3457C42.3613 94.8164 42.4023 94.5996 42.4688 94.3066C42.5391 94.0137 42.9473 92.4375 43.6934 89.5781H44.7012L42.9258 96H41.7715ZM50.127 92.4375V96H49.1309V87.4336H51.4805C52.5312 87.4336 53.3066 87.6348 53.8066 88.0371C54.3105 88.4395 54.5625 89.0449 54.5625 89.8535C54.5625 90.9863 53.9883 91.752 52.8398 92.1504L55.166 96H53.9883L51.9141 92.4375H50.127ZM50.127 91.582H51.4922C52.1953 91.582 52.7109 91.4434 53.0391 91.166C53.3672 90.8848 53.5312 90.4648 53.5312 89.9062C53.5312 89.3398 53.3633 88.9316 53.0273 88.6816C52.6953 88.4316 52.1602 88.3066 51.4219 88.3066H50.127V91.582ZM59.1152 96.1172C58.166 96.1172 57.416 95.8281 56.8652 95.25C56.3184 94.6719 56.0449 93.8691 56.0449 92.8418C56.0449 91.8066 56.2988 90.9844 56.8066 90.375C57.3184 89.7656 58.0039 89.4609 58.8633 89.4609C59.668 89.4609 60.3047 89.7266 60.7734 90.2578C61.2422 90.7852 61.4766 91.4824 61.4766 92.3496V92.9648H57.0527C57.0723 93.7188 57.2617 94.291 57.6211 94.6816C57.9844 95.0723 58.4941 95.2676 59.1504 95.2676C59.8418 95.2676 60.5254 95.123 61.2012 94.834V95.7012C60.8574 95.8496 60.5312 95.9551 60.2227 96.0176C59.918 96.084 59.5488 96.1172 59.1152 96.1172ZM58.8516 90.2754C58.3359 90.2754 57.9238 90.4434 57.6152 90.7793C57.3105 91.1152 57.1309 91.5801 57.0762 92.1738H60.4336C60.4336 91.5605 60.2969 91.0918 60.0234 90.7676C59.75 90.4395 59.3594 90.2754 58.8516 90.2754ZM67.0898 96L66.8965 95.0859H66.8496C66.5293 95.4883 66.209 95.7617 65.8887 95.9062C65.5723 96.0469 65.1758 96.1172 64.6992 96.1172C64.0625 96.1172 63.5625 95.9531 63.1992 95.625C62.8398 95.2969 62.6602 94.8301 62.6602 94.2246C62.6602 92.9277 63.6973 92.248 65.7715 92.1855L66.8613 92.1504V91.752C66.8613 91.248 66.752 90.877 66.5332 90.6387C66.3184 90.3965 65.9727 90.2754 65.4961 90.2754C64.9609 90.2754 64.3555 90.4395 63.6797 90.7676L63.3809 90.0234C63.6973 89.8516 64.043 89.7168 64.418 89.6191C64.7969 89.5215 65.1758 89.4727 65.5547 89.4727C66.3203 89.4727 66.8867 89.6426 67.2539 89.9824C67.625 90.3223 67.8105 90.8672 67.8105 91.6172V96H67.0898ZM64.8926 95.3145C65.498 95.3145 65.9727 95.1484 66.3164 94.8164C66.6641 94.4844 66.8379 94.0195 66.8379 93.4219V92.8418L65.8652 92.8828C65.0918 92.9102 64.5332 93.0312 64.1895 93.2461C63.8496 93.457 63.6797 93.7871 63.6797 94.2363C63.6797 94.5879 63.7852 94.8555 63.9961 95.0391C64.2109 95.2227 64.5098 95.3145 64.8926 95.3145ZM70.793 96H69.8203V86.8828H70.793V96ZM73.8281 96H72.8555V89.5781H73.8281V96ZM72.7734 87.8379C72.7734 87.6152 72.8281 87.4531 72.9375 87.3516C73.0469 87.2461 73.1836 87.1934 73.3477 87.1934C73.5039 87.1934 73.6387 87.2461 73.752 87.3516C73.8652 87.457 73.9219 87.6191 73.9219 87.8379C73.9219 88.0566 73.8652 88.2207 73.752 88.3301C73.6387 88.4355 73.5039 88.4883 73.3477 88.4883C73.1836 88.4883 73.0469 88.4355 72.9375 88.3301C72.8281 88.2207 72.7734 88.0566 72.7734 87.8379ZM77.9648 95.3145C78.1367 95.3145 78.3027 95.3027 78.4629 95.2793C78.623 95.252 78.75 95.2246 78.8438 95.1973V95.9414C78.7383 95.9922 78.582 96.0332 78.375 96.0645C78.1719 96.0996 77.9883 96.1172 77.8242 96.1172C76.582 96.1172 75.9609 95.4629 75.9609 94.1543V90.334H75.041V89.8652L75.9609 89.4609L76.3711 88.0898H76.9336V89.5781H78.7969V90.334H76.9336V94.1133C76.9336 94.5 77.0254 94.7969 77.209 95.0039C77.3926 95.2109 77.6445 95.3145 77.9648 95.3145ZM79.1133 89.5781H80.1562L81.5625 93.2402C81.8711 94.0762 82.0625 94.6797 82.1367 95.0508H82.1836C82.2344 94.8516 82.3398 94.5117 82.5 94.0312C82.6641 93.5469 83.1953 92.0625 84.0938 89.5781H85.1367L82.377 96.8906C82.1035 97.6133 81.7832 98.125 81.416 98.4258C81.0527 98.7305 80.6055 98.8828 80.0742 98.8828C79.7773 98.8828 79.4844 98.8496 79.1953 98.7832V98.0039C79.4102 98.0508 79.6504 98.0742 79.916 98.0742C80.584 98.0742 81.0605 97.6992 81.3457 96.9492L81.7031 96.0352L79.1133 89.5781Z" fill="white"/>
<path d="M59.3416 50.6811V49.1436H58.7819V48.9156H60.1735V49.1436H59.6035V50.6709L59.3416 50.6811ZM62.1274 50.6811V49.3153L61.4881 50.2711H61.465L60.8385 49.3153V50.6811H60.5766V48.9156H60.8616L61.4881 49.8714L62.1274 48.9156H62.379V50.6683L62.1274 50.6811ZM24.207 50.8169C24.1274 50.8169 24.0941 50.7708 24.0581 50.7042L15.7161 24.7256C15.7161 24.6794 15.7264 24.6333 15.7726 24.6L38.9834 0.046125C39.0142 0.0179375 39.0527 0.0025625 39.0963 0L67.5681 0.0230625C67.6605 0.0230625 67.7273 0.1025 67.7273 0.19475C67.7273 0.217812 67.7273 0.251125 67.6939 0.287L29.8428 42.8809C29.7941 42.9296 29.7632 42.9987 29.7632 43.0731C29.7632 43.2781 30.0149 43.4497 30.2203 43.2883L49.9289 27.5725C50.0213 27.5264 50.1009 27.4802 50.237 27.4597L77.9668 27.1522C78.0592 27.1522 78.1259 27.2317 78.1157 27.3239C78.1157 27.3573 78.1157 27.4034 78.0823 27.4367L54.6327 50.7836C54.6045 50.8144 54.5634 50.8349 54.5197 50.84L24.207 50.8169ZM91.4876 66.2944H92.0345C92.3092 66.2944 92.4915 66.1817 92.4915 65.9408C92.4915 65.7256 92.3426 65.6 92.0576 65.6H91.4876V66.2944ZM92.5274 67.2733L91.9574 66.5456H91.467V67.2733H91.1923V65.3489H92.0601C92.2886 65.3489 92.5043 65.4181 92.6301 65.5641C92.7097 65.6564 92.7893 65.7691 92.7893 65.9408C92.7893 66.2381 92.5736 66.4303 92.2861 66.5097L92.8792 67.2733H92.5274ZM90.2217 66.3636C90.2217 67.2964 90.9509 68.0728 91.9343 68.0728C92.9049 68.0959 93.6469 67.2989 93.6469 66.3636C93.6469 65.395 92.928 64.6544 91.9343 64.6544C90.9535 64.6544 90.2217 65.4181 90.2217 66.3636ZM90.0626 66.3867C90.0626 65.3617 90.8842 64.4853 91.9446 64.4853C92.9947 64.4853 93.8163 65.3284 93.8163 66.3636C93.8163 67.3886 92.9947 68.2317 91.9446 68.2317C90.8842 68.2317 90.0626 67.3886 90.0626 66.3867ZM86.4885 81.6925L79.8693 73.3439L76.1951 77.08V81.6925H74.2541V64.4622H76.172V74.7584L86.088 64.4622H88.599L81.2045 71.9781L88.9303 81.6925H86.4885ZM26.3638 81.7156V64.4622H38.837V66.2381H28.3151V72.1267H37.7407V73.9153H28.3023V79.9398H38.9731V81.7156H26.3638ZM50.3038 81.7156V64.4622H62.777V66.2381H52.268V72.1267H61.6935V73.9153H52.268V79.9398H62.9388V81.7156H50.3038ZM0.00256757 73.1389V73.0928C0.00256757 68.2061 3.65365 64.1753 8.74257 64.1753C11.8699 64.1753 13.7416 65.2797 15.4747 66.9197L14.1396 68.3547C12.7814 66.9069 10.8582 65.9997 8.72203 65.9869H8.71946C4.88608 65.9869 2.02068 69.085 2.02068 73.0492V73.0953C2.02068 77.0826 4.90662 80.1909 8.71946 80.1909C11.0919 80.1909 12.6453 79.2786 14.2885 77.7078L15.5774 78.9711C13.775 80.8059 11.8005 82 8.67324 82C3.66392 82 0 78.0819 0 73.1389H0.00256757Z" fill="white"/>
</g>
<defs>
<clipPath id="clip0">
<rect width="95" height="99" fill="white"/>
</clipPath>
</defs>
</svg>
