<?xml version="1.0" encoding="utf-8"?>
<!-- Generator: Adobe Illustrator 25.0.1, SVG Export Plug-In . SVG Version: 6.00 Build 0)  -->
<svg version="1.1" id="katman_1" xmlns="http://www.w3.org/2000/svg" xmlns:xlink="http://www.w3.org/1999/xlink" x="0px" y="0px"
	 viewBox="0 0 32 32" style="enable-background:new 0 0 32 32;" xml:space="preserve">
<style type="text/css">
	.st0{fill:#CD0124;}
</style>
<g>
	<path class="st0" d="M19,16.7c0-0.2,0-0.3-0.2-0.4c-0.7-0.5-1.6-1.1-2.3-1.6c-0.2-0.1-0.4-0.1-0.5,0l-2.3,1.7
		c-0.2,0.1-0.3,0.3-0.3,0.5c0,0.2-0.1,0.5-0.2,0.6c-0.1,0.2-0.1,0.4,0,0.5c0.9,1.7,1.6,3.4,2.5,5.1c0.3,0.5,0.5,1.2,0.9,1.8
		c0.1-0.1,0.1-0.2,0.2-0.3c1-2.1,1.8-4.3,2.8-6.4c0.1-0.2,0.1-0.3-0.1-0.4C19,17.6,18.9,17.2,19,16.7z"/>
	<path class="st0" d="M15.4,14c-2.1-1.5-4.3-3-6.3-4.4L9,9.7c0.1,0.2,0.1,0.3,0.2,0.5l2.2,4.8c0.2,0.4,0.3,0.9,1,1
		c0.2,0,0.4,0,0.5-0.1c0.6-0.5,1.4-1,2-1.5L15.4,14z"/>
	<path class="st0" d="M16,0C7.2,0,0,7.2,0,16s7.2,16,16,16s16-7.2,16-16S24.8,0,16,0z M24.6,9.3c-0.2,0-0.3,0.1-0.4,0.3
		c-0.9,2.1-1.8,4.3-2.7,6.4v0.4c0.3,0.7,0,1.5-0.7,1.8c-0.1,0-0.1,0.1-0.2,0.1c-0.1,0-0.2,0.1-0.3,0.3c-1,2.1-1.9,4.4-2.8,6.5
		c-0.1,0.2-0.1,0.4,0,0.5c0.4,0.6,0.3,1.4-0.2,1.8c-0.5,0.5-1.2,0.5-1.7,0.1c-0.6-0.4-0.7-1.1-0.3-1.7c0,0,0,0,0,0
		c0.1-0.2,0.1-0.4,0-0.6c-1.1-2.1-2-4.3-3.1-6.4c-0.1-0.2-0.3-0.4-0.5-0.4c-0.7-0.1-1.2-0.8-1.1-1.6c0-0.2,0.1-0.3,0.2-0.5
		c0.1-0.2,0.1-0.4,0-0.5c-1-2.1-1.9-4.2-3-6.3c0-0.1-0.1-0.2-0.4-0.2C6.7,9.3,6.2,8.8,6.2,8.1c0-0.6,0.4-1.1,1-1.4
		c0.6-0.2,1.3,0,1.6,0.5C8.9,7.5,9,7.5,9.3,7.5h13.5c0.2,0,0.4,0,0.5-0.3c0.3-0.5,0.9-0.7,1.5-0.5c0.5,0.2,0.9,0.7,1,1.3
		C25.8,8.6,25.3,9.2,24.6,9.3z"/>
	<path class="st0" d="M16,13.2c0.2,0.1,0.4,0.1,0.5,0c2-1.5,4.1-2.9,6-4.4c0.1-0.1,0.2-0.1,0.2-0.2V8.5H9.3c0.1,0,0.2,0.1,0.3,0.2
		L16,13.2z"/>
	<path class="st0" d="M17.1,14c0.9,0.6,1.7,1.2,2.6,1.7c0.2,0.1,0.5,0,0.9,0c0.1,0,0.2-0.2,0.2-0.3c0.7-1.7,1.5-3.5,2.2-5.2
		c0-0.1,0.1-0.2,0.1-0.3h-0.1C21.1,11.1,19.1,12.5,17.1,14z"/>
</g>
</svg>
