<?xml version="1.0" encoding="utf-8"?>
<!-- Generator: Adobe Illustrator 25.0.1, SVG Export Plug-In . SVG Version: 6.00 Build 0)  -->
<svg version="1.1" id="layer" xmlns="http://www.w3.org/2000/svg" xmlns:xlink="http://www.w3.org/1999/xlink" x="0px" y="0px"
	 viewBox="0 0 652 652" style="enable-background:new 0 0 652 652;" xml:space="preserve">
<style type="text/css">
	.st0{fill:#8F8E8A;}
	.st1{fill:#413B38;}
	.st2{fill:#77CBEC;}
	.st3{fill:#5E5957;}
	.st4{fill:#FFFFFF;}
</style>
<g>
	<path class="st0" d="M219.3,288.5v6.7c-0.3,52.3,15.1,83.2,28.4,100.2l24.6-6.8l12.1-3.3l-1.8-2.6L219.3,288.5z"/>
	<path class="st0" d="M353.8,366.2L353.8,366.2l0.4-1.4l32.1-108.9c-28.5-52.2-76.1-83-78.1-84.3l-4.3-2.7l47.8,197.9L353.8,366.2z"
		/>
	<path class="st1" d="M347.8,373.5l-54.7,15.1l17,25.4l11.6,17.3c4.5-0.2,8.9-0.8,13.3-1.7l12.3-41.8l2.1-7.1L347.8,373.5z"/>
	<path class="st1" d="M251.6,400c8.5,9.6,16.6,14.8,20.9,17.1c13.2,8.7,27.9,13.6,42.9,14.1L287.7,390l-9.4,2.6L251.6,400z"/>
	<path class="st2" d="M346.5,368.2l-43.2-178.8l-4.5,3.7c-44.8,36.8-61.2,76.7-67.1,104.1l58.2,86.6L346.5,368.2z"/>
	<path class="st3" d="M406,351.8c4.4-21.1,6.1-54.5-9.8-96.9l-2.1-5.7l-30.3,102.4l-3.8,12.8l37.3-10.3L406,351.8z"/>
	<path class="st1" d="M355.2,380.8L355.2,380.8l4.7,19.6l4.2,17.5c14.4-8.9,34.1-26.3,51.3-59.4l2.2-4.2l-12.1,3.4v-0.1l-32.4,8.9
		l-15,4.1L355.2,380.8z"/>
	<path class="st1" d="M355.2,380.8"/>
	<path class="st1" d="M355.2,380.8"/>
	<path class="st1" d="M345.1,426.8c3.2-1,8.1-2.8,14.1-6l-4.6-19.3l-2.5-10.3l-3,10.3l-7.8,26.5
		C342.5,427.6,343.8,427.2,345.1,426.8"/>
	<path class="st1" d="M341.2,428l7.8-26.5L341.2,428z"/>
	<path class="st4" d="M349.6,380.6"/>
	<path class="st4" d="M347.8,373.5"/>
</g>
</svg>
