<svg id="katman_1" data-name="katman 1" xmlns="http://www.w3.org/2000/svg" viewBox="0 0 1024 1024"><defs><style>.cls-1{fill:#fff;}</style></defs><path class="cls-1" d="M471,1052V28H1495V1052ZM547.2,806.08c58.17-110.8,144-190.94,260.8-235.69,116.44-44.62,234-44.47,350.33.51C1275,616,1360.58,696.36,1418.33,807c115.83-183,107.49-458.5-86.88-640.14S837.17-17,641,160.82C442.31,341,429.86,619.31,547.2,806.08ZM972.33,1051c44.73-.13,78.51-3.3,111.91-10.09q113.15-23,205.59-92.2c3-2.27,3.59-4.34,2.62-8-25.66-95.06-82.63-164.22-171.41-206.83-42.34-20.32-87-32.46-134.11-33.78-33.61-.94-66.39,5.06-98.3,15.14C776.27,750.79,702.2,823.8,671,938.53c-1.05,3.84-.37,5.9,2.81,8.29C765.36,1015.67,868.55,1050,972.33,1051Z" transform="translate(-471.04 -28)"/><path d="M547.2,806.08C429.86,619.31,442.31,341,641,160.82c196.13-177.83,496.13-175.53,690.41,6S1534.16,624,1418.33,807c-57.75-110.62-143.35-191-260-236.08-116.36-45-233.89-45.13-350.33-.51C691.23,615.14,605.37,695.28,547.2,806.08Zm775-224c14.61-99.28-20.93-242.67-153.73-329.36-124.76-81.45-290.26-71.79-405.17,23.75q-87.72,72.93-114.95,184a335,335,0,0,0-6.6,123.83c100.88-76.75,214.1-115.91,340.14-116.16S1222,504.48,1322.19,582.09Z" transform="translate(-471.04 -28)"/><path d="M972.33,1051c-103.78-1-207-35.33-298.56-104.18-3.18-2.39-3.86-4.45-2.81-8.29C702.2,823.8,776.27,750.79,888.63,715.28c31.91-10.08,64.69-16.08,98.3-15.14,47.14,1.32,91.77,13.46,134.11,33.78,88.78,42.61,145.75,111.77,171.41,206.83,1,3.62.41,5.69-2.62,8q-92.52,69-205.59,92.2C1050.84,1047.7,1017.06,1050.87,972.33,1051Z" transform="translate(-471.04 -28)"/><path class="cls-1" d="M1322.19,582.09c-100.18-77.61-214.31-114.21-340.31-114S742.62,507.54,641.74,584.29a335,335,0,0,1,6.6-123.83q27.09-110.86,114.95-184c114.91-95.54,280.41-105.2,405.17-23.75C1301.26,339.42,1336.8,482.81,1322.19,582.09Z" transform="translate(-471.04 -28)"/></svg>