<svg xmlns="http://www.w3.org/2000/svg" viewBox="0 0 183 183"><defs><style>.a{fill:#fff;}.b{fill:#8782ed;}.c{fill:#ffb83f;}</style></defs><path class="a" d="M292.968,512.89H206v-183h88.968c-2.923.4-5.845.8-8.77,1.188-42.887,5.683-76.493,41.293-79.145,83.868-2.741,43.991,25.158,83.168,67.435,94.422C280.532,510.977,286.8,511.737,292.968,512.89Z" transform="translate(-206 -329.89)"/><path d="M292.968,512.89c-6.166-1.153-12.436-1.913-18.48-3.522-42.277-11.254-70.176-50.431-67.435-94.422,2.652-42.575,36.258-78.185,79.145-83.868,2.925-.387,5.847-.792,8.77-1.188h6a20.7,20.7,0,0,0,3.285.8c39.99,3.127,71.9,29.8,81.951,68.606,1.078,4.161,1.87,8.4,2.794,12.6v20a16.7,16.7,0,0,0-.95,2.678c-6.286,35.794-26.527,60.182-60.481,72.812-7.8,2.9-16.378,3.728-24.6,5.51ZM211.039,421.4c-.866,45.065,35.738,86.586,85.8,87.107,49.107.511,87.7-38.146,88.1-86.888a86.585,86.585,0,0,0-86.906-87.13C246.854,334.369,210.283,376.382,211.039,421.4Z" transform="translate(-206 -329.89)"/><path class="a" d="M389,411.89c-.924-4.2-1.716-8.437-2.794-12.6-10.05-38.8-41.961-65.479-81.951-68.606a20.7,20.7,0,0,1-3.285-.8H389Z" transform="translate(-206 -329.89)"/><path class="a" d="M302.971,512.89c8.22-1.782,16.8-2.607,24.6-5.51,33.954-12.63,54.195-37.018,60.481-72.812a16.7,16.7,0,0,1,.95-2.678v81Z" transform="translate(-206 -329.89)"/><path class="b" d="M211.039,421.4c-.756-45.013,35.815-87.026,87-86.911a86.585,86.585,0,0,1,86.906,87.13c-.4,48.742-38.994,87.4-88.1,86.888C246.777,507.981,210.173,466.46,211.039,421.4ZM352.42,398.277a16.633,16.633,0,0,0,7.227-7.113c.6-.972,1.272-2.347,1.006-3.284a3.65,3.65,0,0,0-2.567-2.2,28.188,28.188,0,0,0-6.428.6c-10.1,1.681-14.6-1.221-16.66-11.255-.63-3.058-.464-6.276-.729-9.415a85.064,85.064,0,0,0-.938-8.9c-.85-4.432-3.963-7.078-8.227-6.018a23.784,23.784,0,0,0-10.7,5.576c-5.264,5.222-10.488,8.9-18.272,6.423a7.5,7.5,0,0,0-3.97.008c-8.375,2.211-13.989-2-19-7.859a37.406,37.406,0,0,0-4.321-4.147c-9.057-7.656-17.011-6.151-20.983,4.932a96.034,96.034,0,0,0-5.025,23.721c-.9,10.163.927,20.559-2.9,30.483-.458,1.187-.2,2.64-.322,3.966-1.58,17.583,5.6,32.317,15.961,45.506,11.171,14.217,26.515,21.074,44.575,20.6,37.109-.983,58.143-37.486,56.059-67.368C355.87,407.707,353.725,403.014,352.42,398.277Zm15.051,36.132c-3.915,2.154-6.781,3.442-9.273,5.247-.967.7-1.425,2.561-1.456,3.908-.017.725,1.241,1.9,2.128,2.154a117.522,117.522,0,0,0,13.5,3.248c1.053.168,2.942-1.515,3.466-2.759.291-.69-1.2-2.74-2.323-3.28-1.986-.956-4.3-1.227-6.479-1.785l-.2-1.226c3.368-1.212,6.813-2.254,10.061-3.731a4.688,4.688,0,0,0,2.211-3.213,3.459,3.459,0,0,0-1.851-2.809,122.728,122.728,0,0,0-13.975-3.41c-.961-.167-2.977,1.437-3.192,2.493-.21,1.028,1.015,2.73,2.07,3.528C363.241,433.59,364.879,433.665,367.471,434.409Zm-151.216-4c.28,8.224,2.313,14.858,10.242,17.236,2.061.619,5.609-.588,7.235-2.2,5.9-5.865,3.4-12.45.608-19.519Zm93.688,53.365,6.669,17.833,5.34-2.365c-2.1-8.2-2.1-8.2,4.4-9.018.581,1.421.9,3.174,1.908,4.344a4.108,4.108,0,0,0,3.531,1.195c1.01-.33,2.464-2.238,2.227-2.975-1.75-5.438-3.874-10.757-5.768-15.815-8.973.465-3.482,5.73-3.791,9.218l-5.8,1.988C316.5,485.045,316.712,478.588,309.943,483.779Zm-74.649-13.07c3.634.436,11.774-6.188,12.364-10.061.536-3.524-6.147-11.7-10.038-12.274-3.748-.558-12.114,6.4-12.51,10.412C224.8,461.943,231.942,470.307,235.294,470.709Zm121.8,7.43c-3.447-6.611-7.914-11.7-15.782-10.979-2.185.2-5.282,2.543-5.993,4.587-2.677,7.7,1.444,13.263,7.433,18.267l4.17-3.233c-.927-1.7-1.681-3.094-2.543-4.68l5.041-3.936C352.016,481.846,354.507,481.977,357.1,478.139Zm-84.242,8.605c.1-3.074,1.073-4.307,4.006-3.042a36.116,36.116,0,0,0,6.557,2.315c1.159.25,2.52-.432,3.79-.693l.019-1.613-18.106-6.669-6.672,18.388c5.672,2.064,10.763,4,15.926,5.71.8.265,1.924-.462,2.9-.73-.541-.853-.889-2.118-1.661-2.481-2.242-1.055-4.823-1.46-6.933-2.7-1.174-.688-1.676-2.524-2.481-3.843l1.386-.933c2.5.846,4.962,1.81,7.509,2.456.662.169,1.576-.657,2.375-1.026-.419-.758-.653-1.9-1.289-2.206C277.816,488.554,275.319,487.7,272.857,486.744Zm-8.463-7.823c0-2.163.443-3.794-.07-4.192-4.326-3.351-7.5-8.458-14.761-6.642-3.681.921-6.154,2.793-6.66,5.387a14.652,14.652,0,0,0,1.664,9.871c1.933,3.017,5.653,4.89,8.739,7.374,1.579-1.754,2.846-3.059,3.992-4.463,1.109-1.36,2.094-2.823,3.35-4.536l-8.23-6.028c.3,2.775.728,4,.469,5.061a4.395,4.395,0,0,1-1.925,2.6c-.462.249-2.144-.6-2.357-1.25-.919-2.808-1.583-6.19,1.42-7.807a10.679,10.679,0,0,1,7.38-.513C259.616,474.43,261.378,476.6,264.394,478.921Zm42.655,19.892-.362-1.886c-1.983.537-3.951,1.139-5.954,1.587-1.267.283-3.171.955-3.778.382-2.431-2.3-4.451-5.161-2.043-8.571,1.824-2.584,3.927-5.169,6.967-.776.493.712,3.039.058,4.611-.152a4.044,4.044,0,0,0-.075-2.465,8.951,8.951,0,0,0-11.321-2.927c-3.133,1.429-5.717,5.315-7.206,8.7-1.24,2.824,3.514,9.38,6.383,10.379C298.579,504.585,303.92,502.8,307.049,498.813Zm54.885-33.322a11.636,11.636,0,0,0-.73,2c-.128,1.151-.157,2.314-.226,3.472,1.14-.57,2.664-.852,3.348-1.764a93.438,93.438,0,0,0,5.98-9.136c.443-.761.044-2.012.033-3.037a13.132,13.132,0,0,0-2.925.93,11.057,11.057,0,0,0-2.037,2.145l-9.534-6.386a7.106,7.106,0,0,0,.764-1.811c.05-1.251-.037-2.508-.07-3.763a12.181,12.181,0,0,0-2.913,1.868,23.846,23.846,0,0,0-3.049,4.52c-1.26,2.382-2.31,4.874-3.45,7.318,1.658-.762,3.314-1.527,4.975-2.281a3.886,3.886,0,0,1,.711-.123Zm15.1-50.056-4.6-6.425-5.685,5.258,5.685,5.406Zm-158.876.356,5.125,5.223,5.994-4.982-6.05-5.729Z" transform="translate(-206 -329.89)"/><path d="M352.42,398.277c1.305,4.737,3.45,9.43,3.786,14.249,2.084,29.882-18.95,66.385-56.059,67.368-18.06.479-33.4-6.378-44.575-20.6-10.363-13.189-17.541-27.923-15.961-45.506.12-1.326-.136-2.779.322-3.966,3.825-9.924,2-20.32,2.9-30.483a96.034,96.034,0,0,1,5.025-23.721c3.972-11.083,11.926-12.588,20.983-4.932a37.406,37.406,0,0,1,4.321,4.147c5.016,5.862,10.63,10.07,19,7.859a7.5,7.5,0,0,1,3.97-.008c7.784,2.478,13.008-1.2,18.272-6.423a23.784,23.784,0,0,1,10.7-5.576c4.264-1.06,7.377,1.586,8.227,6.018a85.064,85.064,0,0,1,.938,8.9c.265,3.139.1,6.357.729,9.415,2.065,10.034,6.556,12.936,16.66,11.255a28.188,28.188,0,0,1,6.428-.6,3.65,3.65,0,0,1,2.567,2.2c.266.937-.405,2.312-1.006,3.284a16.633,16.633,0,0,1-7.227,7.113Zm-53.9,4.04,5.542.59,1.041,4.256-1.317-.434c-1.206,1.962-2.29,4.016-3.675,5.841a4.569,4.569,0,0,1-2.765,1.569c-4.584.628-9.2,1.053-12.984,1.463-8.725-8.04-16.069-17.014-29.519-11.465V397.8c13.594-1.662,27.1-3.355,40.609-4.955,13.454-1.593,26.918-3.092,39.746-4.561-1.631-4.056-3.7-7.57-4.4-11.339-.962-5.194-.722-10.6-1.337-15.874-.232-1.994-1.086-5.242-2.229-5.513a9.283,9.283,0,0,0-6.749,1.539c-3.491,2.5-6.288,5.957-9.716,8.566a11.889,11.889,0,0,1-6.367,2.308c-4.468.167-9.082-1.1-13.418-.411-7.436,1.188-12.965-1.666-18.024-6.4-2.31-2.16-4.387-4.574-6.727-6.7-6.639-6.028-10.923-5.2-14.387,3-4.859,11.5-5.374,23.569-4.225,35.817.183,1.948.611,4.122-.008,5.859-6.818,19.114-2.994,36.4,7.771,53.088,17.232,26.715,55.453,31.387,78.182,9.143,11.347-11.105,16.154-25.428,18.8-40.436.842-4.783-1.119-10.123-2.174-15.128-.242-1.15-2.034-1.973-3.12-2.94l-1.117-4.982,5-1.168c-.191-1.522-.365-2.909-.589-4.7l-4.618.821c.136,1.973.247,3.581.354,5.184h-4.657c-1.121,6.3,2.815,4.793,5.754,4.718q-.245,2.4-.491,4.8c-3.764.728-7.364,1.279-10.888,2.144-3.721.914-6.7.94-6.661-2.247l-12.474-10,.571-.989-7.95,1.1c.7,4.511-1.507,5.946-5.414,5.53-.1-3.338-.14-6.737-5.283-4.607,0,1.33,0,2.641.032,4l-4.67,1.936.547,4.454,4.756-.858Z" transform="translate(-206 -329.89)"/><path d="M367.471,434.409c-2.592-.744-4.23-.819-5.308-1.635-1.055-.8-2.28-2.5-2.07-3.528.215-1.056,2.231-2.66,3.192-2.493a122.728,122.728,0,0,1,13.975,3.41,3.459,3.459,0,0,1,1.851,2.809,4.688,4.688,0,0,1-2.211,3.213c-3.248,1.477-6.693,2.519-10.061,3.731l.2,1.226c2.178.558,4.493.829,6.479,1.785,1.121.54,2.614,2.59,2.323,3.28-.524,1.244-2.413,2.927-3.466,2.759a117.522,117.522,0,0,1-13.5-3.248c-.887-.252-2.145-1.429-2.128-2.154.031-1.347.489-3.208,1.456-3.908C360.69,437.851,363.556,436.563,367.471,434.409Z" transform="translate(-206 -329.89)"/><path d="M216.255,430.414l18.085-4.486c2.789,7.069,5.294,13.654-.608,19.519-1.626,1.615-5.174,2.822-7.235,2.2C218.568,445.272,216.535,438.638,216.255,430.414Zm10.831,12.014a66.489,66.489,0,0,0,5.518-5.167c.529-.611.176-1.986.225-3.013-1.81-.016-3.622-.078-5.43-.026a3.729,3.729,0,0,0-1.9.511c-1.436.968-2.78,2.072-4.16,3.122Z" transform="translate(-206 -329.89)"/><path d="M309.943,483.779c6.769-5.191,6.553,1.266,8.71,4.405l5.8-1.988c.309-3.488-5.182-8.753,3.791-9.218,1.894,5.058,4.018,10.377,5.768,15.815.237.737-1.217,2.645-2.227,2.975a4.108,4.108,0,0,1-3.531-1.195c-1-1.17-1.327-2.923-1.908-4.344-6.492.814-6.492.814-4.4,9.018l-5.34,2.365Z" transform="translate(-206 -329.89)"/><path d="M235.294,470.709c-3.352-.4-10.5-8.766-10.184-11.923.4-4.007,8.762-10.97,12.51-10.412,3.891.578,10.574,8.75,10.038,12.274C247.068,464.521,238.928,471.145,235.294,470.709Zm-5.976-10.758,4.119,5.769,9.993-6.737-3.7-5.649Z" transform="translate(-206 -329.89)"/><path d="M357.1,478.139c-2.592,3.838-5.083,3.707-7.674.026l-5.041,3.936c.862,1.586,1.616,2.975,2.543,4.68l-4.17,3.233c-5.989-5-10.11-10.567-7.433-18.267.711-2.044,3.808-4.387,5.993-4.587C349.185,466.439,353.652,471.528,357.1,478.139Zm-16.487.838,1.783.1,5.428-4.662-7.994-2.749Z" transform="translate(-206 -329.89)"/><path d="M272.857,486.744c2.462.96,4.959,1.81,7.324,2.937.636.3.87,1.448,1.289,2.206-.8.369-1.713,1.195-2.375,1.026-2.547-.646-5.013-1.61-7.509-2.456l-1.386.933c.805,1.319,1.307,3.155,2.481,3.843,2.11,1.236,4.691,1.641,6.933,2.7.772.363,1.12,1.628,1.661,2.481-.974.268-2.1.995-2.9.73-5.163-1.715-10.254-3.646-15.926-5.71l6.672-18.388,18.106,6.669-.019,1.613c-1.27.261-2.631.943-3.79.693a36.116,36.116,0,0,1-6.557-2.315C273.93,482.437,272.956,483.67,272.857,486.744Z" transform="translate(-206 -329.89)"/><path d="M264.394,478.921c-3.016-2.317-4.778-4.491-6.989-5.141a10.679,10.679,0,0,0-7.38.513c-3,1.617-2.339,5-1.42,7.807.213.652,1.9,1.5,2.357,1.25a4.395,4.395,0,0,0,1.925-2.6c.259-1.059-.166-2.286-.469-5.061l8.23,6.028c-1.256,1.713-2.241,3.176-3.35,4.536-1.146,1.4-2.413,2.709-3.992,4.463-3.086-2.484-6.806-4.357-8.739-7.374a14.652,14.652,0,0,1-1.664-9.871c.506-2.594,2.979-4.466,6.66-5.387,7.257-1.816,10.435,3.291,14.761,6.642C264.837,475.127,264.394,476.758,264.394,478.921Z" transform="translate(-206 -329.89)"/><path d="M307.049,498.813c-3.129,3.986-8.47,5.772-12.778,4.273-2.869-1-7.623-7.555-6.383-10.379,1.489-3.387,4.073-7.273,7.206-8.7a8.951,8.951,0,0,1,11.321,2.927,4.044,4.044,0,0,1,.075,2.465c-1.572.21-4.118.864-4.611.152-3.04-4.393-5.143-1.808-6.967.776-2.408,3.41-.388,6.276,2.043,8.571.607.573,2.511-.1,3.778-.382,2-.448,3.971-1.05,5.954-1.587Z" transform="translate(-206 -329.89)"/><path d="M361.934,465.491l-9.123-6.052a3.886,3.886,0,0,0-.711.123c-1.661.754-3.317,1.519-4.975,2.281,1.14-2.444,2.19-4.936,3.45-7.318a23.846,23.846,0,0,1,3.049-4.52,12.181,12.181,0,0,1,2.913-1.868c.033,1.255.12,2.512.07,3.763a7.106,7.106,0,0,1-.764,1.811l9.534,6.386a11.057,11.057,0,0,1,2.037-2.145,13.132,13.132,0,0,1,2.925-.93c.011,1.025.41,2.276-.033,3.037a93.438,93.438,0,0,1-5.98,9.136c-.684.912-2.208,1.194-3.348,1.764.069-1.158.1-2.321.226-3.472A11.636,11.636,0,0,1,361.934,465.491Z" transform="translate(-206 -329.89)"/><path d="M377.039,415.435l-4.6,4.239-5.685-5.406,5.685-5.258Z" transform="translate(-206 -329.89)"/><path d="M218.163,415.791l5.069-5.488,6.05,5.729-5.994,4.982Z" transform="translate(-206 -329.89)"/><path class="c" d="M303.892,403.087c3.908.411,6.115-1.024,5.415-5.535l7.95-1.1-.571.989,12.474,10c-.036,3.187,2.94,3.161,6.661,2.247,3.524-.865,7.124-1.416,10.888-2.144q.246-2.406.487-4.8c-.005,0-.118.114-.118.114,1.079.973,2.871,1.8,3.113,2.946,1.055,5,3.016,10.345,2.174,15.128-2.643,15.008-7.45,29.331-18.8,40.436-22.729,22.244-60.95,17.572-78.182-9.143-10.765-16.688-14.589-33.974-7.771-53.088.619-1.737.191-3.911.008-5.859-1.149-12.248-.634-24.32,4.225-35.817,3.464-8.2,7.748-9.023,14.387-3,2.34,2.125,4.417,4.539,6.727,6.7,5.059,4.73,10.588,7.584,18.024,6.4,4.336-.692,8.95.578,13.418.411a11.889,11.889,0,0,0,6.367-2.308c3.428-2.609,6.225-6.065,9.716-8.566a9.283,9.283,0,0,1,6.749-1.539c1.143.271,2,3.519,2.229,5.513.615,5.275.375,10.68,1.337,15.874.7,3.769,2.769,7.283,4.4,11.339-12.828,1.469-26.292,2.968-39.746,4.561-13.513,1.6-27.015,3.293-40.609,4.955v6.337c13.45-5.549,20.794,3.425,29.519,11.465,3.789-.41,8.4-.835,12.984-1.463a4.569,4.569,0,0,0,2.765-1.569c1.385-1.825,2.469-3.879,3.675-5.841l1.317.434-1.041-4.256Zm25.456,10.641c-7.325.037-12.244,3.021-12.265,7.439-.023,4.808,7.943,11.45,13.5,11.258,4.075-.14,9.613-6.987,9.637-11.914C340.242,416.2,336.227,413.693,329.348,413.728Zm14.682,6.556-1.39,1.083c.367,1.19.78,2.367,1.093,3.57,1.249,4.792-1.714,9.349-6.41,10.771a36.2,36.2,0,0,0-9.187,4.145c-7.243,4.71-13.955,3.592-18.958-3.253a15.631,15.631,0,0,0-5.008-3.838c-.71-.4-1.961.144-2.965.258a9.813,9.813,0,0,0,1.222,2.785c1.609,1.8,3.615,3.263,5.118,5.137,3.333,4.157,7.7,5.526,12.785,5.346,2.15-.076,4.3-.277,6.448-.2,7.4.256,20-10.051,20.871-17.4a13.2,13.2,0,0,0-.872-5.8C346.4,421.825,344.98,421.138,344.03,420.284Zm-86.571-62.123c-2.129,9.152-2.54,17.67.349,26.391l12.2-7.369ZM340.094,443.6c-6.062,10.395-15.079,10.895-25.782,8,4.921,5.407,10.906,6.676,17.069,4.411C337.124,453.9,340.006,450.067,340.094,443.6Z" transform="translate(-206 -329.89)"/><path class="a" d="M346.106,398.025c-.11-1.607-.221-3.215-.357-5.188l4.618-.821c.224,1.788.4,3.175.589,4.7l-5,1.168Z" transform="translate(-206 -329.89)"/><path class="a" d="M304.066,402.907l-5.542-.59.086.111v-3.953c5.143-2.13,5.186,1.269,5.283,4.609Z" transform="translate(-206 -329.89)"/><path class="a" d="M345.954,397.881q.558,2.491,1.12,4.979s.117-.114.122-.117c-2.935.071-6.871,1.579-5.75-4.722,1.489,0,3.073,0,4.659,0Z" transform="translate(-206 -329.89)"/><path class="a" d="M298.524,402.317l.751,5.688-4.756.858-.547-4.454c1.764-.731,3.217-1.333,4.654-1.959C298.61,402.428,298.524,402.317,298.524,402.317Z" transform="translate(-206 -329.89)"/><path class="b" d="M227.086,442.428l-5.742-4.573c1.38-1.05,2.724-2.154,4.16-3.122a3.729,3.729,0,0,1,1.9-.511c1.808-.052,3.62.01,5.43.026-.049,1.027.3,2.4-.225,3.013A66.489,66.489,0,0,1,227.086,442.428Z" transform="translate(-206 -329.89)"/><path class="b" d="M229.318,459.951l10.41-6.617,3.7,5.649-9.993,6.737Z" transform="translate(-206 -329.89)"/><path class="b" d="M340.612,478.977l-.783-7.316,7.994,2.749-5.428,4.662Z" transform="translate(-206 -329.89)"/><path d="M329.348,413.728c6.879-.035,10.894,2.47,10.873,6.783-.024,4.927-5.562,11.774-9.637,11.914-5.558.192-13.524-6.45-13.5-11.258C317.1,416.749,322.023,413.765,329.348,413.728Z" transform="translate(-206 -329.89)"/><path d="M344.03,420.284c.95.854,2.365,1.541,2.747,2.6a13.2,13.2,0,0,1,.872,5.8c-.87,7.348-13.47,17.655-20.871,17.4-2.144-.074-4.3.127-6.448.2-5.081.18-9.452-1.189-12.785-5.346-1.5-1.874-3.509-3.337-5.118-5.137a9.813,9.813,0,0,1-1.222-2.785c1-.114,2.255-.662,2.965-.258a15.631,15.631,0,0,1,5.008,3.838c5,6.845,11.715,7.963,18.958,3.253a36.2,36.2,0,0,1,9.187-4.145c4.7-1.422,7.659-5.979,6.41-10.771-.313-1.2-.726-2.38-1.093-3.57Z" transform="translate(-206 -329.89)"/><path d="M257.459,358.161l12.552,19.022-12.2,7.369C254.919,375.831,255.33,367.313,257.459,358.161Z" transform="translate(-206 -329.89)"/><path d="M340.094,443.6c-.088,6.469-2.97,10.3-8.713,12.41-6.163,2.265-12.148,1-17.069-4.411C325.015,454.493,334.032,453.993,340.094,443.6Z" transform="translate(-206 -329.89)"/></svg>