<?xml version="1.0" encoding="utf-8"?>
<!-- Generator: Adobe Illustrator 25.0.1, SVG Export Plug-In . SVG Version: 6.00 Build 0)  -->
<svg version="1.1" id="katman_1" xmlns="http://www.w3.org/2000/svg" xmlns:xlink="http://www.w3.org/1999/xlink" x="0px" y="0px"
	 viewBox="0 0 32 32" style="enable-background:new 0 0 32 32;" xml:space="preserve">
<style type="text/css">
	.st0{fill-rule:evenodd;clip-rule:evenodd;fill:#0D022B;}
</style>
<g>
	<path class="st0" d="M25.7,6.4c-0.1-0.1-0.2-0.3-0.2-0.4s0.1-0.3,0.2-0.4c0.3-0.2,0.7-0.2,0.9,0c0.1,0.1,0.2,0.3,0.2,0.4
		s-0.1,0.3-0.2,0.4c-0.1,0.1-0.3,0.2-0.5,0.2C26,6.6,25.8,6.6,25.7,6.4z"/>
	<path class="st0" d="M24.1,8.2C24,8,23.9,7.9,23.9,7.7s0.1-0.3,0.2-0.4c0.2-0.2,0.6-0.2,0.9,0c0.1,0.1,0.2,0.3,0.2,0.4
		S25,8,24.9,8.2c-0.1,0.1-0.3,0.2-0.4,0.2C24.3,8.3,24.2,8.3,24.1,8.2z"/>
	<path class="st0" d="M22.3,9.8c-0.1-0.1-0.2-0.3-0.2-0.4c0-0.2,0.1-0.3,0.2-0.4c0.2-0.2,0.6-0.2,0.9,0c0.1,0.1,0.2,0.3,0.2,0.4
		c0,0.2-0.1,0.3-0.2,0.4c-0.1,0.1-0.3,0.2-0.4,0.2C22.6,10,22.4,9.9,22.3,9.8z"/>
	<path class="st0" d="M20.6,11.5c-0.1-0.1-0.2-0.3-0.2-0.4s0.1-0.3,0.2-0.4c0.3-0.2,0.7-0.2,0.9,0c0.1,0.1,0.2,0.3,0.2,0.4
		s-0.1,0.3-0.2,0.4c-0.1,0.1-0.3,0.2-0.5,0.2C20.9,11.7,20.8,11.7,20.6,11.5z"/>
	<path class="st0" d="M19,13.2c-0.1-0.1-0.2-0.3-0.2-0.4s0.1-0.3,0.2-0.4c0.2-0.2,0.6-0.2,0.9,0c0.1,0.1,0.2,0.3,0.2,0.4
		s-0.1,0.3-0.2,0.4c-0.1,0.1-0.3,0.2-0.4,0.2C19.3,13.4,19.1,13.3,19,13.2z"/>
	<path class="st0" d="M17.1,14.5c0-0.2,0.1-0.3,0.2-0.4c0.2-0.2,0.6-0.2,0.9,0c0.1,0.1,0.2,0.3,0.2,0.4s-0.1,0.3-0.2,0.4
		c-0.1,0.1-0.3,0.2-0.4,0.2c-0.2,0-0.3-0.1-0.4-0.2C17.2,14.8,17.1,14.6,17.1,14.5z"/>
	<path class="st0" d="M14,18.2c-0.1-0.1-0.2-0.3-0.2-0.4s0.1-0.3,0.2-0.4c0.2-0.2,0.6-0.2,0.9,0c0.1,0.1,0.2,0.3,0.2,0.4
		s-0.1,0.3-0.2,0.4c-0.1,0.1-0.3,0.2-0.4,0.2C14.2,18.4,14.1,18.3,14,18.2z"/>
	<path class="st0" d="M12.2,19.9c-0.1-0.1-0.2-0.3-0.2-0.4s0.1-0.3,0.2-0.4c0.3-0.2,0.7-0.2,0.9,0c0.1,0.1,0.2,0.3,0.2,0.4
		s-0.1,0.3-0.2,0.4c-0.1,0.1-0.3,0.2-0.5,0.2C12.5,20.1,12.4,20,12.2,19.9z"/>
	<path class="st0" d="M10.6,21.6c-0.1-0.1-0.2-0.3-0.2-0.4s0.1-0.3,0.2-0.4c0.2-0.2,0.6-0.2,0.9,0c0.1,0.1,0.2,0.3,0.2,0.4
		s-0.1,0.3-0.2,0.4c-0.1,0.1-0.3,0.2-0.4,0.2S10.8,21.7,10.6,21.6z"/>
	<path class="st0" d="M8.9,23.3c-0.1-0.1-0.2-0.3-0.2-0.4s0.1-0.3,0.2-0.4c0.2-0.2,0.6-0.2,0.9,0c0.1,0.1,0.2,0.3,0.2,0.4
		s-0.1,0.3-0.2,0.4c-0.1,0.1-0.3,0.2-0.4,0.2C9.2,23.5,9,23.4,8.9,23.3z"/>
	<path class="st0" d="M7.2,25C7.1,24.9,7,24.7,7,24.6c0-0.2,0.1-0.3,0.2-0.4c0.3-0.2,0.7-0.2,0.9,0c0.1,0.1,0.2,0.3,0.2,0.4
		c0,0.2-0.1,0.3-0.2,0.4c-0.1,0.1-0.3,0.2-0.5,0.2C7.4,25.2,7.3,25.1,7.2,25z"/>
	<path class="st0" d="M5.5,26.7c-0.1-0.1-0.2-0.3-0.2-0.4s0.1-0.3,0.2-0.4c0.2-0.2,0.6-0.2,0.9,0c0.1,0.1,0.2,0.3,0.2,0.4
		s-0.1,0.3-0.2,0.4c-0.1,0.1-0.3,0.2-0.4,0.2C5.8,26.9,5.7,26.8,5.5,26.7z"/>
	<path class="st0" d="M6.4,6.4C6.5,6.3,6.6,6.2,6.6,6S6.5,5.7,6.4,5.6c-0.2-0.2-0.6-0.2-0.9,0C5.4,5.7,5.3,5.8,5.3,6
		s0.1,0.3,0.2,0.4C5.6,6.5,5.8,6.6,6,6.6C6.1,6.6,6.3,6.6,6.4,6.4z"/>
	<path class="st0" d="M8.1,8.2C8.2,8,8.3,7.9,8.3,7.7S8.2,7.4,8.1,7.3c-0.3-0.2-0.7-0.2-0.9,0C7,7.4,6.9,7.5,6.9,7.7S7,8,7.1,8.2
		c0.1,0.1,0.3,0.2,0.5,0.2C7.8,8.3,7.9,8.3,8.1,8.2z"/>
	<path class="st0" d="M9.8,9.8c0.1-0.1,0.2-0.3,0.2-0.4c0-0.2-0.1-0.3-0.2-0.4C9.5,8.7,9.1,8.7,8.9,9C8.8,9.1,8.7,9.2,8.7,9.4
		c0,0.2,0.1,0.3,0.2,0.4C9,9.9,9.2,10,9.3,10C9.5,10,9.6,9.9,9.8,9.8z"/>
	<path class="st0" d="M11.5,11.5c0.1-0.1,0.2-0.3,0.2-0.4s-0.1-0.3-0.2-0.4c-0.2-0.2-0.6-0.2-0.9,0c-0.1,0.1-0.2,0.3-0.2,0.4
		s0.1,0.3,0.2,0.4c0.1,0.1,0.3,0.2,0.4,0.2C11.2,11.7,11.3,11.7,11.5,11.5z"/>
	<path class="st0" d="M13.1,13.2c0.1-0.1,0.2-0.3,0.2-0.4s-0.1-0.3-0.2-0.4c-0.2-0.2-0.7-0.2-0.9,0c-0.1,0.1-0.2,0.3-0.2,0.4
		s0.1,0.3,0.2,0.4c0.1,0.1,0.3,0.2,0.5,0.2C12.8,13.4,13,13.3,13.1,13.2z"/>
	<path class="st0" d="M15,14.5c0-0.2-0.1-0.3-0.2-0.4c-0.2-0.2-0.6-0.2-0.9,0c-0.1,0.1-0.2,0.3-0.2,0.4s0.1,0.3,0.2,0.4
		c0.1,0.1,0.3,0.2,0.4,0.2s0.3-0.1,0.4-0.2C14.9,14.8,15,14.6,15,14.5z"/>
	<path class="st0" d="M16.5,16.6c0.1-0.1,0.2-0.3,0.2-0.4s-0.1-0.3-0.2-0.4c-0.2-0.2-0.6-0.2-0.9,0c-0.1,0.1-0.2,0.3-0.2,0.4
		c0,0.2,0.1,0.3,0.2,0.4c0.1,0.1,0.3,0.2,0.4,0.2C16.3,16.8,16.4,16.7,16.5,16.6z"/>
	<path class="st0" d="M18.2,18.2c0.1-0.1,0.2-0.3,0.2-0.4s-0.1-0.3-0.2-0.4c-0.3-0.2-0.7-0.2-0.9,0c-0.1,0.1-0.2,0.3-0.2,0.4
		s0.1,0.3,0.2,0.4c0.1,0.1,0.3,0.2,0.5,0.2C17.9,18.4,18.1,18.3,18.2,18.2z"/>
	<path class="st0" d="M19.9,19.9c0.1-0.1,0.2-0.3,0.2-0.4S20,19.2,19.9,19c-0.2-0.2-0.6-0.2-0.9,0c-0.1,0.1-0.2,0.3-0.2,0.4
		s0.1,0.3,0.2,0.4c0.1,0.1,0.3,0.2,0.4,0.2C19.6,20.1,19.8,20,19.9,19.9z"/>
	<path class="st0" d="M21.6,21.6c0.1-0.1,0.2-0.3,0.2-0.4s-0.1-0.3-0.2-0.4c-0.2-0.2-0.6-0.2-0.9,0c-0.1,0.1-0.2,0.3-0.2,0.4
		s0.1,0.3,0.2,0.4c0.1,0.1,0.3,0.2,0.4,0.2C21.3,21.8,21.4,21.7,21.6,21.6z"/>
	<path class="st0" d="M23.2,23.3c0.1-0.1,0.2-0.3,0.2-0.4s-0.1-0.3-0.2-0.4c-0.2-0.2-0.6-0.2-0.9,0c-0.1,0.1-0.2,0.3-0.2,0.4
		s0.1,0.3,0.2,0.4c0.1,0.1,0.3,0.2,0.4,0.2C22.9,23.5,23.1,23.4,23.2,23.3z"/>
	<path class="st0" d="M24.9,25c0.1-0.1,0.2-0.3,0.2-0.4c0-0.2-0.1-0.3-0.2-0.4c-0.2-0.2-0.6-0.2-0.9,0c-0.1,0.1-0.2,0.3-0.2,0.4
		c0,0.2,0.1,0.3,0.2,0.4c0.1,0.1,0.3,0.2,0.4,0.2C24.7,25.2,24.8,25.1,24.9,25z"/>
	<path class="st0" d="M26.6,26.7c0.1-0.1,0.2-0.3,0.2-0.4s-0.1-0.3-0.2-0.4c-0.3-0.2-0.7-0.2-0.9,0c-0.1,0.1-0.2,0.3-0.2,0.4
		s0.1,0.3,0.2,0.4c0.1,0.1,0.3,0.2,0.5,0.2C26.3,26.9,26.5,26.8,26.6,26.7z"/>
	<path class="st0" d="M10.4,6.9C12.1,5.8,14,5.2,16,5.2c2,0,3.9,0.6,5.7,1.7l3.6-3.6C22.5,1.1,19.4,0,16,0S9.5,1.1,6.8,3.3L10.4,6.9
		z"/>
	<path class="st0" d="M6.8,21.8C5.6,20,5,18.2,5,16.1c0-2,0.6-3.9,1.7-5.7L3.2,6.9C1.1,9.7,0,12.7,0,16.2c0,3.4,1.1,6.5,3.2,9.3
		L6.8,21.8z"/>
	<path class="st0" d="M21.7,25.4c-1.7,1.2-3.6,1.8-5.6,1.8c-2.1,0-4-0.6-5.7-1.8L6.8,29c2.8,2.2,5.9,3.3,9.3,3.3
		c3.4,0,6.5-1.1,9.2-3.3L21.7,25.4z"/>
	<path class="st0" d="M25.2,10.4c1.2,1.8,1.8,3.7,1.7,5.8c0,2-0.6,3.9-1.7,5.6l3.6,3.6c2.1-2.8,3.2-5.9,3.2-9.2
		c0-3.4-1.1-6.6-3.2-9.4L25.2,10.4z"/>
	<path class="st0" d="M29,26.5c1.4,0,2.5,1.1,2.5,2.5c0,1.4-1.1,2.5-2.5,2.5c-1.4,0-2.5-1.1-2.5-2.5C26.5,27.7,27.6,26.5,29,26.5z"
		/>
	<path class="st0" d="M3.1,26.5c1.4,0,2.5,1.1,2.5,2.5c0,1.4-1.1,2.5-2.5,2.5s-2.5-1.1-2.5-2.5C0.6,27.7,1.8,26.5,3.1,26.5z"/>
	<path class="st0" d="M29.1,0.6c1.4,0,2.5,1.1,2.5,2.5s-1.1,2.5-2.5,2.5s-2.5-1.1-2.5-2.5S27.7,0.6,29.1,0.6z"/>
	<path class="st0" d="M3.1,0.6c1.4,0,2.5,1.1,2.5,2.5S4.5,5.6,3.1,5.6c-1.4,0-2.5-1.1-2.5-2.5C0.6,1.7,1.7,0.6,3.1,0.6z"/>
</g>
</svg>
