<svg xmlns="http://www.w3.org/2000/svg" xmlns:xlink="http://www.w3.org/1999/xlink" viewBox="0 0 466 466"><defs><style>.a{fill:url(#a);}.b,.c,.d,.e,.f,.g{stroke:#000;stroke-miterlimit:10;}.b{fill:url(#b);}.c{fill:url(#c);}.d{fill:url(#d);}.e{fill:url(#e);}.f{fill:url(#f);}.g{fill:url(#g);}.h{fill:none;stroke:#b0b4e9;stroke-width:4px;}.i{fill:url(#h);}.j{fill:url(#i);}.k{fill:url(#j);}.l{fill:url(#k);}.m{fill:url(#l);}.n{fill:url(#m);}.o{fill:url(#n);}.p{fill:url(#o);}.q{fill:url(#p);}.r{fill:url(#q);}</style><linearGradient id="a" y1="233" x2="466" y2="233" gradientUnits="userSpaceOnUse"><stop offset="0.324" stop-color="#ac9cf2"/><stop offset="0.326" stop-color="#ac9cf2"/><stop offset="0.465" stop-color="#b1b3ea"/><stop offset="0.613" stop-color="#b4c3e5"/><stop offset="0.78" stop-color="#b6cde2"/><stop offset="1" stop-color="#b7d0e1"/></linearGradient><linearGradient id="b" x1="415.45" y1="362.57" x2="577.915" y2="525.035" gradientTransform="matrix(1, 0, 0, -1, -304.86, 604.02)" xlink:href="#a"/><linearGradient id="c" x1="879.024" y1="362.57" x2="1041.489" y2="525.035" gradientTransform="translate(1238.714 604.02) rotate(180)" gradientUnits="userSpaceOnUse"><stop offset="0.324" stop-color="#b2dbf5"/><stop offset="0.443" stop-color="#c4e3f4"/><stop offset="0.598" stop-color="#d4eaf4"/><stop offset="0.771" stop-color="#deeff3"/><stop offset="1" stop-color="#e1f0f3"/></linearGradient><linearGradient id="d" x1="471.745" y1="350.48" x2="594.27" y2="350.48" gradientTransform="matrix(1, 0, 0, -1, -304.86, 604.02)" gradientUnits="userSpaceOnUse"><stop offset="0.324" stop-color="#d6cdfb"/><stop offset="0.428" stop-color="#d9d4fa"/><stop offset="0.655" stop-color="#dcdef9"/><stop offset="0.953" stop-color="#dde1f9"/></linearGradient><linearGradient id="e" x1="1088.17" y1="350.48" x2="1210.695" y2="350.48" gradientTransform="translate(1391.566 604.02) rotate(180)" gradientUnits="userSpaceOnUse"><stop offset="0.324" stop-color="#ecf2f2"/><stop offset="0.365" stop-color="#eef4f3"/><stop offset="0.619" stop-color="#f8faf6"/><stop offset="0.953" stop-color="#fbfcf7"/></linearGradient><linearGradient id="f" x1="418.13" y1="248.22" x2="540" y2="248.22" gradientTransform="matrix(1, 0, 0, -1, -304.86, 604.02)" gradientUnits="userSpaceOnUse"><stop offset="0.324" stop-color="#6e89d3"/><stop offset="0.326" stop-color="#6e89d3"/><stop offset="0.5" stop-color="#6a83e3"/><stop offset="0.695" stop-color="#6880ed"/><stop offset="0.953" stop-color="#677ff0"/></linearGradient><linearGradient id="g" x1="1272.853" y1="248.22" x2="1394.723" y2="248.22" gradientTransform="translate(1629.863 604.02) rotate(180)" gradientUnits="userSpaceOnUse"><stop offset="0.324" stop-color="#c4c5fc"/><stop offset="0.544" stop-color="#c8cbf8"/><stop offset="0.953" stop-color="#cacef6"/></linearGradient><linearGradient id="h" x1="468.091" y1="437.379" x2="481.825" y2="464.034" gradientTransform="matrix(1, 0, 0, -1, -304.86, 604.02)" gradientUnits="userSpaceOnUse"><stop offset="0" stop-color="#718bd4"/><stop offset="0.012" stop-color="#758ed5"/><stop offset="0.058" stop-color="#7790d6"/><stop offset="0.099" stop-color="#7a92d7"/><stop offset="0.259" stop-color="#889ddd"/><stop offset="0.473" stop-color="#9aaae4"/><stop offset="0.695" stop-color="#aeb9ec"/><stop offset="1" stop-color="#c6cbf5"/></linearGradient><radialGradient id="i" cx="509.382" cy="148.397" r="3.241" gradientTransform="matrix(0.743, 0.669, 0.669, -0.743, 4.29, 30.834)" gradientUnits="userSpaceOnUse"><stop offset="0" stop-color="#dadcf4"/><stop offset="0.008" stop-color="#dadcf4"/><stop offset="0.058" stop-color="#dadcf4"/><stop offset="0.099" stop-color="#dadcf4"/><stop offset="0.473" stop-color="#dadcf4"/><stop offset="1" stop-color="#dadcf4"/></radialGradient><linearGradient id="j" x1="474.422" y1="318.421" x2="488.157" y2="345.077" xlink:href="#h"/><radialGradient id="k" cx="593.684" cy="64.231" r="3.241" xlink:href="#i"/><linearGradient id="l" x1="596.461" y1="437.379" x2="610.196" y2="464.035" xlink:href="#h"/><radialGradient id="m" cx="604.78" cy="234.294" r="3.241" xlink:href="#i"/><linearGradient id="n" x1="589.442" y1="318.421" x2="603.177" y2="345.077" xlink:href="#h"/><radialGradient id="o" cx="679.162" cy="141.195" r="3.241" xlink:href="#i"/><linearGradient id="p" x1="533.642" y1="398.241" x2="547.377" y2="424.897" xlink:href="#h"/><radialGradient id="q" cx="584.285" cy="163.175" r="3.241" xlink:href="#i"/></defs><circle class="a" cx="233" cy="233" r="233"/><polygon class="b" points="113.27 244.13 235.14 41.07 235.14 192.73 113.27 244.13"/><polygon class="c" points="357.01 244.13 235.14 41.07 235.14 192.73 357.01 244.13"/><polygon class="d" points="235.14 192.26 113.27 243.67 235.14 314.82 235.14 192.26"/><polygon class="e" points="235.14 192.26 357.01 243.67 235.14 314.82 235.14 192.26"/><polygon class="f" points="113.27 267.47 235.14 444.13 235.14 338.62 113.27 267.47"/><polygon class="g" points="357.01 267.47 235.14 444.13 235.14 338.62 357.01 267.47"/><line class="h" x1="169.45" y1="152.89" x2="176.09" y2="273.92"/><line class="h" x1="297.76" y1="152.89" x2="291.12" y2="273.92"/><line class="h" x1="235.32" y1="193.09" x2="176.1" y2="272.91"/><line class="h" x1="233" y1="193.09" x2="292.22" y2="272.91"/><circle class="i" cx="169.77" cy="153.95" r="14.99"/><path class="j" d="M485.12,264.13c-.79.88-2.85.32-4.6-1.25s-2.52-3.56-1.73-4.44,2.85-.32,4.6,1.25S485.91,263.25,485.12,264.13Z" transform="translate(-304.86 -115.87)"/><circle class="k" cx="176.1" cy="272.91" r="14.99"/><path class="l" d="M491.45,383.09c-.79.88-2.85.32-4.6-1.25s-2.52-3.56-1.73-4.44,2.85-.32,4.6,1.25S492.24,382.21,491.45,383.09Z" transform="translate(-304.86 -115.87)"/><circle class="m" cx="298.14" cy="153.95" r="14.99"/><path class="n" d="M613.49,264.13c-.79.88-2.85.32-4.6-1.25s-2.52-3.56-1.73-4.44,2.85-.32,4.6,1.25S614.28,263.25,613.49,264.13Z" transform="translate(-304.86 -115.87)"/><circle class="o" cx="291.12" cy="272.91" r="14.99"/><path class="p" d="M606.47,383.09c-.79.88-2.85.32-4.6-1.25s-2.52-3.56-1.73-4.44,2.85-.32,4.6,1.25S607.27,382.21,606.47,383.09Z" transform="translate(-304.86 -115.87)"/><circle class="q" cx="235.32" cy="193.09" r="14.99"/><path class="r" d="M550.67,303.27c-.79.88-2.85.32-4.6-1.25s-2.52-3.56-1.73-4.44,2.85-.32,4.6,1.25S551.47,302.39,550.67,303.27Z" transform="translate(-304.86 -115.87)"/></svg>