<?xml version="1.0" encoding="UTF-8"?>
<svg width="125px" height="125px" viewBox="0 0 125 125" version="1.1" xmlns="http://www.w3.org/2000/svg" xmlns:xlink="http://www.w3.org/1999/xlink">
    <!-- Generator: Sketch 56.3 (81716) - https://sketch.com -->
    <title>eur</title>
    <desc>Created with Sketch.</desc>
    <g id="eur" stroke="none" stroke-width="1" fill="none" fill-rule="evenodd">
        <path d="M0,62.5 C0,27.980957 27.980957,0 62.5,0 C97.019043,0 125,27.9858398 125,62.5 C125,97.0141602 97.0166016,125 62.5,125 C27.9833984,125 0,97.019043 0,62.5 Z" id="Path" fill="#6CDE07" fill-rule="nonzero"></path>
        <path d="M25,74.667744 L27.3981968,66.498384 L38.5897821,66.498384 C38.5136485,64.9258702 38.4755823,63.3150266 38.4755823,61.6658048 C38.4755823,60.246707 38.5136485,58.8276305 38.5897821,57.4085326 L25,57.4085326 L27.3981968,49.2391726 L39.5033809,49.2391726 C40.7976524,42.2203915 43.2148583,36.1413745 46.7550714,31.0019392 C52.6934933,22.3339364 60.8967671,18 71.365139,18 C80.2727718,18 87.1913102,20.8189763 92.1209617,26.4570136 C97.0506132,32.0950508 99.7818656,38.5000719 100.314801,45.6722689 L91.0075131,45.6722689 C89.9797094,40.2260016 87.8860664,35.9112419 84.7265214,32.7278604 C81.5669764,29.5444788 77.1512931,27.9528119 71.4793388,27.9528119 C64.5131132,27.9528119 58.8983434,30.8868485 54.634861,36.7550097 C52.274719,39.9767453 50.5807715,44.1380913 49.5529677,49.2391726 L81.4147258,49.2391726 L79.0165289,57.4085326 L48.4109692,57.4085326 C48.2967688,59.3645864 48.2396694,61.435671 48.2396694,63.6218487 C48.2396694,64.6190526 48.2587025,65.5778881 48.2967693,66.498384 L81.4147258,66.498384 L79.0165289,74.667744 L49.1532682,74.667744 C50.0668716,79.6921173 51.6846866,84.0452305 54.0067618,87.727214 C57.8515093,93.8638531 63.599511,96.9321267 71.2509391,96.9321267 C78.2932984,96.9321267 83.6606377,93.6912627 87.353118,87.2094376 C89.2945251,83.7959321 90.7410421,79.308582 91.6927122,73.7472527 L101,73.7472527 C100.16253,82.6453795 97.4027281,90.1051196 92.7205109,96.1266968 C87.1246903,103.375602 79.5875756,107 70.1089406,107 C61.9245772,107 55.0536216,104.02761 49.4958678,98.0827408 C44.2426484,92.4830575 40.8737865,84.6781367 39.3891811,74.667744 L25,74.667744 Z" id="€" fill="#FFFFFF" fill-rule="nonzero"></path>
    </g>
</svg>