<svg xmlns="http://www.w3.org/2000/svg" viewBox="0 0 400 400"><defs><style>.a{fill:#ffe142;}</style></defs><path class="a" d="M498,620.89H98v-400H498ZM319.294,339.343c-4.633-.989-9.079-1.554-13.268-2.912-9.206-2.984-16.249-8.608-18.7-18.391-3.856-15.394-14.336-24.294-28.432-29.7a13.416,13.416,0,0,0-13.672,1.95c-5.833,4.426-11.944,8.486-17.88,12.779-10.258,7.42-20.846,14.486-26.452,26.609-.64,1.385-2.682,2.453-4.3,3-7.253,2.44-14.567,4.7-21.9,6.9-8.137,2.443-11.443,6.991-9.9,15.262a102.223,102.223,0,0,0,31.591,57.6q24.7,22.946,49.323,45.969c22.344,20.935,44.234,42.373,67.05,62.778,24.479,21.894,52.791,33.862,86.507,29.082,12.85-1.822,24.057-6.507,29.592-19.1,6.265-14.257,2.126-27.188-7.468-38.413-4.724-5.525-10.918-9.77-15.93-15.083-2.947-3.124-6.082-6.924-7.012-10.914-1.767-7.585-4.758-10.779-12.637-11.337a46.661,46.661,0,0,1-13.125-2.536,63.79,63.79,0,0,1-41.069-58.046c-.378-15.02,6.006-32.308,25.151-33.908,5.3-.443,8.061-4.8,8.16-10.422.123-7,.107-14,.028-21-.127-11.323-8.864-20.025-21.115-21.152-11.019-1.014-21.556,6.7-23.342,17.37C319.787,329.954,319.718,334.28,319.294,339.343Zm45.879,64.431a22.858,22.858,0,0,0,21.805-17.8c1.374-6.507-1.969-12.6-7.8-14.232-5.988-1.671-11.869,1.493-14.5,7.517a5.95,5.95,0,0,1-3.1,2.85c-5.645,2.085-9.268,7.011-8.474,11.97C354.006,399.736,359.044,403.78,365.173,403.774Zm32.985,11c.038-6.14-2.756-9.969-8.289-11.359-5.647-1.42-10.437.862-13.37,6.062-.95,1.685-2.213,3.731-3.834,4.4-5.962,2.475-8.9,6.423-8.195,12.064.636,5.081,4.9,8.9,10.63,9.513C386.324,436.661,398.089,426.108,398.158,414.77Z" transform="translate(-98 -220.89)"/><path d="M319.294,339.343c.424-5.063.493-9.389,1.2-13.61,1.786-10.67,12.323-18.384,23.342-17.37,12.251,1.127,20.988,9.829,21.115,21.152.079,7,.095,14-.028,21-.1,5.625-2.858,9.979-8.16,10.422-19.145,1.6-25.529,18.888-25.151,33.908a63.79,63.79,0,0,0,41.069,58.046,46.661,46.661,0,0,0,13.125,2.536c7.879.558,10.87,3.752,12.637,11.337.93,3.99,4.065,7.79,7.012,10.914,5.012,5.313,11.206,9.558,15.93,15.083,9.594,11.225,13.733,24.156,7.468,38.413-5.535,12.593-16.742,17.278-29.592,19.1-33.716,4.78-62.028-7.188-86.507-29.082-22.816-20.405-44.706-41.843-67.05-62.778q-24.6-23.049-49.323-45.969a102.223,102.223,0,0,1-31.591-57.6c-1.539-8.271,1.767-12.819,9.9-15.262,7.33-2.2,14.644-4.463,21.9-6.9,1.617-.544,3.659-1.612,4.3-3,5.606-12.123,16.194-19.189,26.452-26.609,5.936-4.293,12.047-8.353,17.88-12.779a13.416,13.416,0,0,1,13.672-1.95c14.1,5.4,24.576,14.3,28.432,29.7,2.451,9.783,9.494,15.407,18.7,18.391C310.215,337.789,314.661,338.354,319.294,339.343Zm-42.877,87.614.966-.733c3.145,1.405,6.189,3.144,9.459,4.136,5,1.518,9.037-1.634,8.119-6.724a18.346,18.346,0,0,0-4.644-8.457C283.7,407.93,276.352,401.32,270,393.861a23.749,23.749,0,0,1-5.284-11.938c-.911-7.734,7.236-12.744,14.4-9.413,1.784.83,3.288,2.242,5,3.247,3.283,1.927,6.439,4.289,9.978,5.516,8.407,2.914,15.348-2.622,14.512-11.44-.618-6.52-4.1-10.887-10.528-13.14-11.99-4.2-21.856-11.375-28.266-22.542-2.2-3.84-2.988-8.508-5.257-12.3A33.131,33.131,0,0,0,256,312.037c-1.122-.812-4.955,1.959-7.451,3.274a30.676,30.676,0,0,0-4.543,3.072c-6.015,4.713-12.121,9.324-17.927,14.284-3.336,2.85-3.892,5.938-.251,9.667,4.752,4.867,8.837,10.389,13.163,15.666,4.508,5.5,4.158,11.5-.862,15.9-4.6,4.033-11.66,3.433-16.1-1.51-3.223-3.591-6.332-7.29-9.4-11.017-7.448-9.052-7.376-8.924-18.434-5.155-3.935,1.341-4.6,3.252-3.473,7.038,4.079,13.668,11.929,24.734,22.329,34.3q25,22.983,49.7,46.291c19.6,18.513,38.583,37.719,58.754,55.584,10.226,9.058,22.3,16.114,33.91,23.482,4.184,2.655,9.467,3.577,14.248,5.29l.434-1.247C333.692,498.4,301.348,466.1,276.417,426.957Zm132.729,91.312c-.677-2.543-.681-5.607-2.167-7.523a85.521,85.521,0,0,0-11.472-12.258c-6.417-5.556-13.231-10.624-17.044-18.555a3.473,3.473,0,0,0-2.182-1.653c-4.969-.939-11.726,3.99-11.009,8.977.8,5.559,2.3,11.58,5.366,16.137,7.259,10.78,18.832,15.95,30.606,20.42C407.518,526.2,408.825,525.229,409.146,518.269Z" transform="translate(-98 -220.89)"/><path d="M365.173,403.774c-6.129.006-11.167-4.038-12.072-9.691-.794-4.959,2.829-9.885,8.474-11.97a5.95,5.95,0,0,0,3.1-2.85c2.632-6.024,8.513-9.188,14.5-7.517,5.835,1.628,9.178,7.725,7.8,14.232A22.858,22.858,0,0,1,365.173,403.774Z" transform="translate(-98 -220.89)"/><path d="M398.158,414.77c-.069,11.338-11.834,21.891-23.058,20.684-5.73-.616-9.994-4.432-10.63-9.513-.706-5.641,2.233-9.589,8.195-12.064,1.621-.673,2.884-2.719,3.834-4.4,2.933-5.2,7.723-7.482,13.37-6.062C395.4,404.8,398.2,408.63,398.158,414.77Z" transform="translate(-98 -220.89)"/><path class="a" d="M276.417,426.957C301.348,466.1,333.692,498.4,370.1,526.951l-.434,1.247c-4.781-1.713-10.064-2.635-14.248-5.29-11.613-7.368-23.684-14.424-33.91-23.482-20.171-17.865-39.15-37.071-58.754-55.584q-24.69-23.315-49.7-46.291c-10.4-9.562-18.25-20.628-22.329-34.3-1.129-3.786-.462-5.7,3.473-7.038,11.058-3.769,10.986-3.9,18.434,5.155,3.066,3.727,6.175,7.426,9.4,11.017,4.436,4.943,11.491,5.543,16.1,1.51,5.02-4.4,5.37-10.4.862-15.9-4.326-5.277-8.411-10.8-13.163-15.666-3.641-3.729-3.085-6.817.251-9.667,5.806-4.96,11.912-9.571,17.927-14.284a30.676,30.676,0,0,1,4.543-3.072c2.5-1.315,6.329-4.086,7.451-3.274a33.131,33.131,0,0,1,8.551,9.817c2.269,3.789,3.053,8.457,5.257,12.3,6.41,11.167,16.276,18.34,28.266,22.542,6.428,2.253,9.91,6.62,10.528,13.14.836,8.818-6.105,14.354-14.512,11.44-3.539-1.227-6.695-3.589-9.978-5.516-1.715-1-3.219-2.417-5-3.247-7.163-3.331-15.31,1.679-14.4,9.413A23.749,23.749,0,0,0,270,393.861c6.357,7.459,13.7,14.069,20.322,21.318a18.346,18.346,0,0,1,4.644,8.457c.918,5.09-3.116,8.242-8.119,6.724-3.27-.992-6.314-2.731-9.459-4.136Z" transform="translate(-98 -220.89)"/><path class="a" d="M409.146,518.269c-.321,6.96-1.628,7.927-7.9,5.545-11.774-4.47-23.347-9.64-30.606-20.42-3.068-4.557-4.568-10.578-5.366-16.137-.717-4.987,6.04-9.916,11.009-8.977a3.473,3.473,0,0,1,2.182,1.653c3.813,7.931,10.627,13,17.044,18.555a85.521,85.521,0,0,1,11.472,12.258C408.465,512.662,408.469,515.726,409.146,518.269Z" transform="translate(-98 -220.89)"/></svg>