<?xml version="1.0" encoding="UTF-8"?>
<svg width="125px" height="125px" viewBox="0 0 125 125" version="1.1" xmlns="http://www.w3.org/2000/svg" xmlns:xlink="http://www.w3.org/1999/xlink">
    <!-- Generator: Sketch 56.3 (81716) - https://sketch.com -->
    <title>gbp</title>
    <desc>Created with Sketch.</desc>
    <g id="gbp" stroke="none" stroke-width="1" fill="none" fill-rule="evenodd">
        <path d="M0,62.5 C0,27.980957 27.980957,0 62.5,0 C97.019043,0 125,27.9858398 125,62.5 C125,97.0141602 97.0166016,125 62.5,125 C27.9833984,125 0,97.019043 0,62.5 Z" id="Path" fill="#6CDE07" fill-rule="nonzero"></path>
        <path d="M53.335545,58.5102041 L71.5488152,58.5102041 L71.5488152,67.084266 L55.1279621,67.084266 C55.8603512,68.7836381 56.2265403,70.4829847 56.2265403,72.1823568 C56.2265403,75.5424789 55.4267063,79.0956582 53.8270142,82.8420013 C52.2273222,86.5883444 49.5965428,90.4118743 45.9345972,94.3127057 C48.9797941,93.4630197 51.7551218,93.038183 54.2606635,93.038183 C57.4600476,93.038183 61.064119,93.5209519 65.0729858,94.4865043 C71.7030347,96.0700101 76.1936691,96.8617512 78.5450237,96.8617512 C81.3974866,96.8617512 85.0979235,95.7803488 89.6464455,93.6175115 L93,103.176432 C89.4536947,104.682694 86.7072767,105.667542 84.7606635,106.131007 C82.8140503,106.594472 80.8771028,106.826201 78.949763,106.826201 C77.3307976,106.826201 75.6925833,106.671715 74.0350711,106.362739 C72.9943076,106.169628 70.49844,105.464786 66.5473934,104.24819 C62.5963468,103.031594 60.0426598,102.30744 58.8862559,102.075708 C57.0745565,101.766731 55.2628843,101.612245 53.4511848,101.612245 C50.6758155,101.612245 47.7173933,102.095014 44.5758294,103.060566 C41.4342655,104.026118 38.5722088,105.33925 35.9895735,107 L32,96.9776169 C35.7004924,94.9306459 38.8420092,92.0050662 41.4246445,88.20079 C44.0072799,84.3965138 45.2985782,79.7522767 45.2985782,74.2679394 C45.2985782,71.9119917 44.9709353,69.5174579 44.3156398,67.084266 L32.9829384,67.084266 L32.9829384,58.5102041 L41.8872038,58.5102041 C40.6151595,54.1845296 39.8056889,51.0272208 39.4587678,49.038183 C39.1118466,47.0491452 38.9383886,45.1084141 38.9383886,43.2159315 C38.9383886,35.1825361 41.9064474,28.90654 47.842654,24.3877551 C52.6224568,20.7959004 58.4043895,19 65.1886256,19 C72.1655957,19 77.9186187,20.9214203 82.4478673,24.7643186 C86.9771159,28.6072169 89.7620801,34.0045735 90.8028436,40.9565504 L80.4530806,42.5207373 C79.8748786,37.8860861 78.1499354,34.236353 75.2781991,31.5714286 C72.4064627,28.9065041 68.9662128,27.5740619 64.957346,27.5740619 C60.6786516,27.5740619 57.122763,28.954781 54.2895735,31.7162607 C51.4563839,34.4777404 50.0398104,37.808846 50.0398104,41.7096774 C50.0398104,45.9967298 51.1383776,51.5968493 53.335545,58.5102041 Z" id="£" fill="#FFFFFF" fill-rule="nonzero"></path>
    </g>
</svg>