<svg xmlns="http://www.w3.org/2000/svg" viewBox="0 0 76.586 75.747"><defs><style>.a{fill:#52cbc9;}.b{fill:#fff;}.c{fill:#ea107d;}</style></defs><ellipse class="a" cx="41.37" cy="27.314" rx="27.459" ry="27.314"/><path class="b" d="M147.461,384.847h76.587v45.964H147.461Zm43.454,2.427H169.847c-.111,0-.223,0-.334,0a1.1,1.1,0,0,0-1.042.727,1.155,1.155,0,0,0,.667,1.518,2.522,2.522,0,0,0,.517.07q21.247,0,42.494,0a.759.759,0,0,0,.191,0,2.023,2.023,0,0,0,.541-.171,1.084,1.084,0,0,0,.513-1.092,1.112,1.112,0,0,0-.7-.976,1.605,1.605,0,0,0-.636-.077ZM188.4,397.947H169.746a1.414,1.414,0,0,0-.357.013,1.452,1.452,0,0,0-.53.2,1.167,1.167,0,0,0,.025,1.892,1.269,1.269,0,0,0,.814.224h37.473a1.177,1.177,0,0,0,.583-2.216,1.6,1.6,0,0,0-.678-.111Zm-11.953-5.328H161.07c-.095,0-.191,0-.287,0a1.037,1.037,0,0,0-.894.476,1.2,1.2,0,0,0,.43,1.72,1.508,1.508,0,0,0,.629.113h30.991c.08,0,.16,0,.239,0a.994.994,0,0,0,.57-.227,1.231,1.231,0,0,0,.435-1.09,1.128,1.128,0,0,0-.93-.979c-.135-.009-.271-.009-.407-.009Zm21.69,10.674H182.688c-.16,0-.319.008-.478.019a.617.617,0,0,0-.184.043,1.2,1.2,0,0,0-.676,1.244,1.166,1.166,0,0,0,1.077.979c.095,0,.191,0,.287,0h30.777c.135,0,.271,0,.406-.009a.644.644,0,0,0,.207-.048,1.193,1.193,0,0,0,.746-1.174c.006-.467-.481-1.081-.955-1.049-.119.007-.239-.008-.359-.008Zm-11.6,10.659h-9.5c-.111,0-.223,0-.334.008a.752.752,0,0,0-.209.046,1.17,1.17,0,0,0-.571,1.624,1.155,1.155,0,0,0,1.09.628q9.517,0,19.036,0a1.29,1.29,0,0,0,.856-.324,1.19,1.19,0,0,0-.1-1.8,1.173,1.173,0,0,0-.7-.185Q191.32,413.954,186.536,413.952Zm11.816-5.345h-2.319c-2.439,0-4.878.006-7.316-.005a1.13,1.13,0,0,0-1.1.873,1.166,1.166,0,0,0,.541,1.283,1.237,1.237,0,0,0,.689.157h18.959c.039,0,.079,0,.119,0a1.266,1.266,0,0,0,.588-.169,1.181,1.181,0,0,0,.156-1.886,1.16,1.16,0,0,0-.777-.254Q203.121,408.61,198.352,408.607ZM170.5,403.293h-7.319a3.076,3.076,0,0,0-.429.023.721.721,0,0,0-.266.092,1.175,1.175,0,0,0,.1,2.069,1.325,1.325,0,0,0,.652.1h14.494c.072,0,.144,0,.216,0a1.149,1.149,0,0,0,1.1-1.324,1.065,1.065,0,0,0-.969-.956c-.1,0-.207-.006-.311-.006Zm15.256,6.479a1.15,1.15,0,0,0-1.111-1.17,1.162,1.162,0,0,0-1.1,1.159,1.13,1.13,0,0,0,1.114,1.158A1.118,1.118,0,0,0,185.754,409.772Zm-29.007-17.151a1.154,1.154,0,1,0,1.111,1.161A1.119,1.119,0,0,0,156.747,392.621ZM171.761,415.1a1.116,1.116,0,0,0,1.108,1.163,1.147,1.147,0,0,0,1.108-1.157,1.16,1.16,0,0,0-1.1-1.158A1.126,1.126,0,0,0,171.761,415.1Zm-5.2-26.65a1.107,1.107,0,1,0-2.211-.02,1.106,1.106,0,1,0,2.211.02Zm0,10.671a1.1,1.1,0,0,0-1.1-1.164,1.09,1.09,0,0,0-1.106,1.14,1.106,1.106,0,1,0,2.21.024Zm-7.59,6.463a1.108,1.108,0,0,0,1.109-1.151,1.106,1.106,0,1,0-2.211.014A1.114,1.114,0,0,0,158.975,405.58Z" transform="translate(-147.461 -355.064)"/><path class="c" d="M190.915,387.274h21.14a1.605,1.605,0,0,1,.636.077,1.112,1.112,0,0,1,.7.976,1.084,1.084,0,0,1-.513,1.092,2.023,2.023,0,0,1-.541.171.759.759,0,0,1-.191,0q-21.248,0-42.494,0a2.522,2.522,0,0,1-.517-.07,1.155,1.155,0,0,1-.667-1.518,1.1,1.1,0,0,1,1.042-.727c.111,0,.223,0,.334,0Z" transform="translate(-147.461 -355.064)"/><path class="c" d="M188.4,397.947h18.677a1.6,1.6,0,0,1,.678.111,1.177,1.177,0,0,1-.583,2.216H169.7a1.269,1.269,0,0,1-.814-.224,1.167,1.167,0,0,1-.025-1.892,1.452,1.452,0,0,1,.53-.2,1.414,1.414,0,0,1,.357-.013Z" transform="translate(-147.461 -355.064)"/><path class="c" d="M176.446,392.619h15.4c.136,0,.272,0,.407.009a1.128,1.128,0,0,1,.93.979,1.231,1.231,0,0,1-.435,1.09.994.994,0,0,1-.57.227c-.079.006-.159,0-.239,0H160.948a1.508,1.508,0,0,1-.629-.113,1.2,1.2,0,0,1-.43-1.72,1.037,1.037,0,0,1,.894-.476c.1,0,.192,0,.287,0Z" transform="translate(-147.461 -355.064)"/><path class="c" d="M198.136,403.293h15.4c.12,0,.24.015.359.008.474-.032.961.582.955,1.049a1.193,1.193,0,0,1-.746,1.174.644.644,0,0,1-.207.048c-.135.009-.271.009-.406.009H182.714c-.1,0-.192-.007-.287,0a1.166,1.166,0,0,1-1.077-.979,1.2,1.2,0,0,1,.676-1.244.617.617,0,0,1,.184-.043c.159-.011.318-.019.478-.019Z" transform="translate(-147.461 -355.064)"/><path class="c" d="M186.536,413.952q4.784,0,9.566,0a1.173,1.173,0,0,1,.7.185,1.19,1.19,0,0,1,.1,1.8,1.29,1.29,0,0,1-.856.324q-9.517,0-19.036,0a1.155,1.155,0,0,1-1.09-.628,1.17,1.17,0,0,1,.571-1.624.752.752,0,0,1,.209-.046c.111-.009.223-.008.334-.008Z" transform="translate(-147.461 -355.064)"/><path class="c" d="M198.352,408.607q4.768,0,9.539,0a1.16,1.16,0,0,1,.777.254,1.181,1.181,0,0,1-.156,1.886,1.266,1.266,0,0,1-.588.169c-.04,0-.08,0-.119,0H188.846a1.237,1.237,0,0,1-.689-.157,1.166,1.166,0,0,1-.541-1.283,1.13,1.13,0,0,1,1.1-.873c2.438.011,4.877.005,7.316.005Z" transform="translate(-147.461 -355.064)"/><path class="c" d="M170.5,403.293h7.271c.1,0,.207.008.311.006a1.065,1.065,0,0,1,.969.956,1.149,1.149,0,0,1-1.1,1.324c-.072,0-.144,0-.216,0H163.238a1.325,1.325,0,0,1-.652-.1,1.175,1.175,0,0,1-.1-2.069.721.721,0,0,1,.266-.092,3.076,3.076,0,0,1,.429-.023Z" transform="translate(-147.461 -355.064)"/><path class="c" d="M185.754,409.772a1.118,1.118,0,0,1-1.1,1.147,1.13,1.13,0,0,1-1.114-1.158,1.162,1.162,0,0,1,1.1-1.159A1.15,1.15,0,0,1,185.754,409.772Z" transform="translate(-147.461 -355.064)"/><path class="c" d="M156.747,392.621a1.154,1.154,0,0,1,0,2.307,1.154,1.154,0,0,1,0-2.307Z" transform="translate(-147.461 -355.064)"/><path class="c" d="M171.761,415.1a1.126,1.126,0,0,1,1.114-1.152,1.16,1.16,0,0,1,1.1,1.158,1.147,1.147,0,0,1-1.108,1.157A1.116,1.116,0,0,1,171.761,415.1Z" transform="translate(-147.461 -355.064)"/><path class="c" d="M166.565,388.446a1.106,1.106,0,1,1-2.211-.02,1.107,1.107,0,1,1,2.211.02Z" transform="translate(-147.461 -355.064)"/><path class="c" d="M166.565,399.117a1.106,1.106,0,1,1-2.21-.024,1.09,1.09,0,0,1,1.106-1.14A1.1,1.1,0,0,1,166.565,399.117Z" transform="translate(-147.461 -355.064)"/><path class="c" d="M158.975,405.58a1.114,1.114,0,0,1-1.1-1.137,1.106,1.106,0,1,1,2.211-.014A1.108,1.108,0,0,1,158.975,405.58Z" transform="translate(-147.461 -355.064)"/></svg>