<?xml version="1.0" encoding="utf-8"?>
<!-- Generator: Adobe Illustrator 26.0.3, SVG Export Plug-In . SVG Version: 6.00 Build 0)  -->
<svg version="1.0" id="katman_1" xmlns="http://www.w3.org/2000/svg" xmlns:xlink="http://www.w3.org/1999/xlink" x="0px" y="0px"
	 viewBox="0 0 600 450" style="enable-background:new 0 0 600 450;" xml:space="preserve">
<style type="text/css">
	.st0{fill-rule:evenodd;clip-rule:evenodd;fill:#221F20;}
</style>
<g>
	<path class="st0" d="M165.8,213c3.7,0.3,7-2.4,7.3-6.1c0.3-3.7-2.4-7-6.1-7.3c-0.4,0-0.8,0-1.2,0h-52.1c-3.7,0.3-6.4,3.6-6.1,7.3
		c0.3,3.2,2.8,5.8,6.1,6.1H165.8z M150.7,263.8c0,3.7,3,6.7,6.7,6.7h52.1c3.7-0.3,6.4-3.6,6.1-7.3c-0.3-3.2-2.8-5.8-6.1-6.1h-52.1
		C153.7,257.1,150.7,260.1,150.7,263.8C150.7,263.8,150.7,263.8,150.7,263.8z M194.5,228.4h-57.9c-3.7,0-6.7,3-6.7,6.7
		c0,3.7,3,6.7,6.7,6.7h57.8c3.7,0.3,7-2.4,7.3-6.1c0.3-3.7-2.4-7-6.1-7.3C195.3,228.4,194.9,228.4,194.5,228.4
		C194.5,228.4,194.5,228.4,194.5,228.4z M119.3,241.9c3.7,0,6.7-3,6.7-6.7c0-3.7-3-6.7-6.7-6.7h-2.6c-3.7,0-6.7,3-6.7,6.7
		c0,3.7,3,6.7,6.7,6.7H119.3z M238.8,292.5c0-3.7-3-6.7-6.7-6.7H119.6c-3.7,0.3-6.4,3.6-6.1,7.3c0.3,3.2,2.8,5.8,6.1,6.1h112.6
		C235.8,299.2,238.8,296.2,238.8,292.5C238.8,292.5,238.8,292.5,238.8,292.5z"/>
	<path class="st0" d="M446,285c-20.6-8.3-30.7-13-39.1-5.2c4.3-8.6,2.6-9.1-1-15.4c-7.2-12.7-26.2-33.5-32.8-73.1
		c5.6-14.9,9.4-30.5,11.5-46.3c0,0,4-11.5-13.6-5.7c-10.9,6.7-22.5,12.3-34.5,16.8c-21.9-2.6-54-18.4-65.8-42.8
		c0,0,9.9-20.6,1.3-25.4c-5.7-3.3-23.7,15.2-23.7,15.2l-58.1,67.7l-4.5,8.3c-2,3.7-1.7,8.2,0.9,11.5c15.4,20.5,76,101.3,110.6,144
		c-98.8,0.8-152.2,16-114.3,21.2c31,4.3,101.8,3,155,2.9c6.2,1.8,12.5,3.2,18.9,4.1l89.1,0.9c11.5-0.6,22.1-1.5,30.4-2.4
		c5.5-0.6,10.2-4.2,12.2-9.4C498.1,326.3,483,299.9,446,285z M268,235.8l-3-68.9l20.2,42.3l21.8-8.7l5.7,66.6l-23-41.5L268,235.8z"
		/>
</g>
</svg>
