<svg xmlns="http://www.w3.org/2000/svg" viewBox="0 0 284 284"><defs><style>.a{fill:#a7a9ac;}</style></defs><path class="a" d="M156,278.89H440v284H156Zm76.139,129.474c-8.176,0-15.628-.092-23.077.031-5.133.085-8.131,2.493-8.141,6.142-.012,3.988,3.086,6.468,8.424,6.511,8.33.069,16.662.017,24.993.019,8.4,0,11.86,2.5,15.228,11.271-2.131,0-4.1,0-6.08,0-9.662.029-19.325.02-28.986.112-3.508.033-5.578,1.876-5.884,5.455-.328,3.829,1.7,5.956,5.226,6.734a21.223,21.223,0,0,0,4.476.246c11.331.02,22.724.747,33.971-.218,8.752-.751,11.7,4.607,15.683,10.793-2.243.1-3.847.23-5.451.233-10.331.023-20.661-.034-30.991.044-5.121.038-7.887,2.36-7.927,6.333-.042,4.1,2.36,6.091,7.8,6.382,1.663.089,3.331.079,5,.079q17.245.006,34.491,0c8.307-.006,11.91,2.515,15.473,11.1-1.938,0-3.735,0-5.533,0-10.83.014-21.66-.007-32.49.061-3.97.025-6.365,2.237-6.461,6.123-.1,3.958,2.343,6.027,6.267,6.3.664.046,1.333.034,2,.034,23.827,0,47.655.121,71.48-.047q27.714-.2,55.422-1.029c8.016-.245,12.1-4.08,14-11.786,2.9-11.765-1.636-23.855-13.4-31.305-7.5-4.745-16.178-7.605-24.294-11.384-1.58-.735-3.663-1.449-4.392-2.786-4.843-8.882-9.8-17.751-13.792-27.022-1.4-3.253-.662-7.7-.086-11.47.878-5.743,2.714-11.335,3.689-17.068,1.177-6.927-3.018-11.327-10-10.887a39.575,39.575,0,0,0-4.919.835c-11.841,2.271-22.228-.726-30.714-9.2-3.617-3.612-6.392-8.063-9.577-12.112-3.865-4.914-7.772-6.136-13.036-2.782a62.629,62.629,0,0,0-12.491,10.545c-8.3,9.107-16.076,18.68-24.157,27.985C225.327,392.463,224.893,396.477,232.139,408.364Zm-38.311,12.011-1.508-.27c2.334-11,3.828-22.26,7.154-32.951,12.141-39.027,50.705-68.067,91.44-70.175q45.093-2.333,78.155,27.953c20.017,18.409,30.324,41.714,32.752,68.644,1.244,13.806-.869,27.187-4.936,40.364-1.172,3.8-.8,7.441,3.854,8.861,3.741,1.14,6.889-.848,8.26-5.213,11.762-37.464,6.449-72.669-16.065-104.514-21.2-29.988-51.1-46.863-87.719-48.857-34.921-1.9-65.945,9.094-90.765,34.878-28.86,29.98-39.178,65.794-30.953,106.144,7.244,35.542,27.753,62.535,60.017,79.3,34.133,17.732,69.284,18.245,104.391,2.183a8.546,8.546,0,0,0,4.244-5.424c1.059-6.069-4-8.646-11.027-5.471-17.058,7.709-34.753,11.211-53.459,8.971-21.511-2.575-41.2-9.806-57.471-24.335C206.409,479.222,193.228,452.859,193.828,420.375Z" transform="translate(-156 -278.89)"/><path d="M232.139,408.364c-7.246-11.887-6.812-15.9,1.735-25.742,8.081-9.305,15.862-18.878,24.157-27.985a62.629,62.629,0,0,1,12.491-10.545c5.264-3.354,9.171-2.132,13.036,2.782,3.185,4.049,5.96,8.5,9.577,12.112,8.486,8.477,18.873,11.474,30.714,9.2a39.575,39.575,0,0,1,4.919-.835c6.984-.44,11.179,3.96,10,10.887-.975,5.733-2.811,11.325-3.689,17.068-.576,3.774-1.315,8.217.086,11.47,4,9.271,8.949,18.14,13.792,27.022.729,1.337,2.812,2.051,4.392,2.786,8.116,3.779,16.8,6.639,24.294,11.384,11.768,7.45,16.308,19.54,13.4,31.305-1.9,7.706-5.984,11.541-14,11.786q-27.7.847-55.422,1.029c-23.825.168-47.653.046-71.48.047-.666,0-1.335.012-2-.034-3.924-.27-6.364-2.339-6.267-6.3.1-3.886,2.491-6.1,6.461-6.123,10.83-.068,21.66-.047,32.49-.061,1.8,0,3.6,0,5.533,0-3.563-8.581-7.166-11.1-15.473-11.1q-17.246.011-34.491,0c-1.666,0-3.334.01-5-.079-5.441-.291-7.843-2.277-7.8-6.382.04-3.973,2.806-6.3,7.927-6.333,10.33-.078,20.66-.021,30.991-.044,1.6,0,3.208-.133,5.451-.233-3.979-6.186-6.931-11.544-15.683-10.793-11.247.965-22.64.238-33.971.218a21.223,21.223,0,0,1-4.476-.246c-3.528-.778-5.554-2.9-5.226-6.734.306-3.579,2.376-5.422,5.884-5.455,9.661-.092,19.324-.083,28.986-.112,1.975-.006,3.949,0,6.08,0-3.368-8.77-6.832-11.268-15.228-11.271-8.331,0-16.663.05-24.993-.019-5.338-.043-8.436-2.523-8.424-6.511.01-3.649,3.008-6.057,8.141-6.142C216.511,408.272,223.963,408.364,232.139,408.364ZM325.426,381c-23.045,2.793-39.151-6.538-50.835-24.57a17.48,17.48,0,0,0-2.543,1.868q-15.264,17.487-30.481,35.017c-2.15,2.465-1.045,4.537.583,6.649,16.667,21.618,33.512,43.1,49.891,64.936,6.955,9.271,16.591,13.24,27.135,13.726,18.246.84,36.564.12,54.851.106,3.31,0,4.688-1.43,4.916-4.787.387-5.7-1.743-10.473-6.1-13.493a98.589,98.589,0,0,0-17.413-9.437c-2.908-1.243-6.657-1.18-9.915-.789-5.37.645-8.441-2.068-8.125-7.615a10.94,10.94,0,0,0-1.379-4.967c-4.413-9.278-9.145-18.409-13.342-27.781a21.118,21.118,0,0,1-.226-17.441C323.825,389.135,324.3,385.466,325.426,381Z" transform="translate(-156 -278.89)"/><path d="M193.828,420.375c-.6,32.484,12.581,58.847,36.364,80.084,16.272,14.529,35.96,21.76,57.471,24.335,18.706,2.24,36.4-1.262,53.459-8.971,7.027-3.175,12.086-.6,11.027,5.471a8.546,8.546,0,0,1-4.244,5.424c-35.107,16.062-70.258,15.549-104.391-2.183-32.264-16.761-52.773-43.754-60.017-79.3-8.225-40.35,2.093-76.164,30.953-106.144,24.82-25.784,55.844-36.779,90.765-34.878,36.619,1.994,66.519,18.869,87.719,48.857,22.514,31.845,27.827,67.05,16.065,104.514-1.371,4.365-4.519,6.353-8.26,5.213-4.657-1.42-5.026-5.062-3.854-8.861,4.067-13.177,6.18-26.558,4.936-40.364-2.428-26.93-12.735-50.235-32.752-68.644q-33.031-30.375-78.155-27.953c-40.735,2.108-79.3,31.148-91.44,70.175-3.326,10.691-4.82,21.952-7.154,32.951Z" transform="translate(-156 -278.89)"/><path class="a" d="M325.426,381c-1.129,4.467-1.6,8.136-2.984,11.422a21.118,21.118,0,0,0,.226,17.441c4.2,9.372,8.929,18.5,13.342,27.781a10.94,10.94,0,0,1,1.379,4.967c-.316,5.547,2.755,8.26,8.125,7.615,3.258-.391,7.007-.454,9.915.789a98.589,98.589,0,0,1,17.413,9.437c4.358,3.02,6.488,7.794,6.1,13.493-.228,3.357-1.606,4.784-4.916,4.787-18.287.014-36.6.734-54.851-.106-10.544-.486-20.18-4.455-27.135-13.726-16.379-21.833-33.224-43.318-49.891-64.936-1.628-2.112-2.733-4.184-.583-6.649q15.252-17.5,30.481-35.017a17.48,17.48,0,0,1,2.543-1.868C286.275,374.461,302.381,383.792,325.426,381Zm-26.752,41.675c9.725-3.182,10.653-6.021,4.937-14.438-3.738-5.5-7.513-10.986-11.385-16.4-2.8-3.91-6.288-4.878-9.309-2.585-3.613,2.742-3.517,6.109-1.154,9.649,2.472,3.7,4.963,7.4,7.546,11.246-9.223,1.884-10.83,5.87-5.743,13.336,3.841,5.636,7.694,11.268,11.7,16.785,2.829,3.894,6.379,4.8,9.386,2.454,3.591-2.8,3.274-6.248,1.007-9.721C303.407,429.552,301.045,426.17,298.674,422.674Z" transform="translate(-156 -278.89)"/><path d="M298.674,422.674c2.371,3.5,4.733,6.878,6.986,10.33,2.267,3.473,2.584,6.92-1.007,9.721-3.007,2.344-6.557,1.44-9.386-2.454-4.007-5.517-7.86-11.149-11.7-16.785-5.087-7.466-3.48-11.452,5.743-13.336-2.583-3.848-5.074-7.541-7.546-11.246-2.363-3.54-2.459-6.907,1.154-9.649,3.021-2.293,6.51-1.325,9.309,2.585,3.872,5.41,7.647,10.892,11.385,16.4C309.327,416.653,308.4,419.492,298.674,422.674Z" transform="translate(-156 -278.89)"/></svg>