<svg id="katman_1" data-name="katman 1" xmlns="http://www.w3.org/2000/svg" xmlns:xlink="http://www.w3.org/1999/xlink" viewBox="0 0 461.1 609.7"><defs><style>.cls-1{fill:url(#Adsız_degrade);}.cls-2{fill:url(#Adsız_degrade_2);}.cls-3{fill:url(#Adsız_degrade_3);}.cls-4{fill:url(#Adsız_degrade_4);}</style><linearGradient id="Adsız_degrade" x1="821.45" y1="324.09" x2="1282.45" y2="324.09" gradientTransform="matrix(1, 0, 0, -1, 0, 647.89)" gradientUnits="userSpaceOnUse"><stop offset="0" stop-color="#3fcfff"/><stop offset="1" stop-color="#006bdc"/></linearGradient><linearGradient id="Adsız_degrade_2" x1="821.55" y1="163.64" x2="984.35" y2="163.64" xlink:href="#Adsız_degrade"/><linearGradient id="Adsız_degrade_3" x1="1121.95" y1="486.29" x2="1282.55" y2="486.29" xlink:href="#Adsız_degrade"/><linearGradient id="Adsız_degrade_4" x1="821.55" y1="324.09" x2="1282.35" y2="324.09" xlink:href="#Adsız_degrade"/></defs><path class="cls-1" d="M1282.45,514.35v114.3h-79.9V514.35c0-66.3-27.9-113.8-77.2-136.2-20.8-9.5-45.4-14.4-73.4-14.4a228.846,228.846,0,0,1-129.5-39.9,230.337,230.337,0,0,1-101-190.5V18.95h79.9v114.4a150.536,150.536,0,0,0,150.6,150.5c51.9,0,97.4,13.1,133.9,36.9a202.48,202.48,0,0,1,21.1,15.7C1254.75,376.95,1282.45,438.85,1282.45,514.35Z" transform="translate(-821.45 -18.95)"/><path class="cls-2" d="M984.35,379.75a150.793,150.793,0,0,0-82.9,134.5v114.4h-79.9V514.35a230.089,230.089,0,0,1,80-174.5A252.2,252.2,0,0,0,984.35,379.75Z" transform="translate(-821.45 -18.95)"/><path class="cls-3" d="M1206.45,304.25c-24.9-17.6-53.3-30.2-84.5-37.6a150.71,150.71,0,0,0,80.7-133.3V18.95h79.9v114.4A230.743,230.743,0,0,1,1206.45,304.25Z" transform="translate(-821.45 -18.95)"/><path class="cls-4" d="M1202.55,18.95v114.4a150.71,150.71,0,0,1-80.7,133.3c31.2,7.4,59.6,20,84.5,37.6a230.127,230.127,0,0,0,76-170.9V18.95Zm-301,320.9a229.931,229.931,0,0,0-80,174.5v114.3h79.9V514.35a150.793,150.793,0,0,1,82.9-134.5A254.417,254.417,0,0,1,901.55,339.85Z" transform="translate(-821.45 -18.95)"/></svg>