<svg id="katman_1" data-name="katman 1" xmlns="http://www.w3.org/2000/svg" viewBox="0 0 222 213"><defs><style>.cls-1{fill:#fefefe;}.cls-2{fill:#e7963e;}.cls-3{fill:#eba454;}.cls-4{fill:#ecab5f;}.cls-5{fill:#eca759;}.cls-6{fill:#ecaa5f;}.cls-7{fill:#edae65;}.cls-8{fill:#eeb572;}.cls-9{fill:#eeb36e;}.cls-10{fill:#efbb7c;}.cls-11{fill:#edad65;}.cls-12{fill:#eeb471;}.cls-13{fill:#eca657;}.cls-14{fill:#eba658;}.cls-15{fill:#eeb26c;}.cls-16{fill:#eeb674;}.cls-17{fill:#eeb36f;}.cls-18{fill:#efb979;}.cls-19{fill:#efb673;}.cls-20{fill:#edae66;}.cls-21{fill:#eeb06a;}.cls-22{fill:#edb16a;}.cls-23{fill:#eba453;}.cls-24{fill:#f0bd80;}.cls-25{fill:#eca85d;}.cls-26{fill:#eba250;}.cls-27{fill:#edac63;}.cls-28{fill:#edaa5f;}.cls-29{fill:#ea9c47;}.cls-30{fill:#eba555;}.cls-31{fill:#f1c38c;}.cls-32{fill:#eeb16a;}.cls-33{fill:#f1c590;}.cls-34{fill:#eba455;}.cls-35{fill:#f2c792;}.cls-36{fill:#efb878;}.cls-37{fill:#edaf67;}.cls-38{fill:#eba353;}.cls-39{fill:#eeb876;}.cls-40{fill:#efb877;}.cls-41{fill:#eba352;}.cls-42{fill:#eeb571;}.cls-43{fill:#efbc80;}.cls-44{fill:#eeb673;}.cls-45{fill:#f2c894;}.cls-46{fill:#f2c692;}.cls-47{fill:#ecab61;}.cls-48{fill:#ecaa5d;}.cls-49{fill:#eeb46f;}.cls-50{fill:#edb06a;}.cls-51{fill:#eba557;}.cls-52{fill:#eca85c;}.cls-53{fill:#f0bc80;}.cls-54{fill:#eeb470;}.cls-55{fill:#f0be83;}.cls-56{fill:#edb069;}.cls-57{fill:#edb26c;}.cls-58{fill:#edad64;}.cls-59{fill:#edaa60;}.cls-60{fill:#eaa150;}.cls-61{fill:#eca75b;}.cls-62{fill:#eaa251;}.cls-63{fill:#e99b45;}.cls-64{fill:#ecaa5e;}.cls-65{fill:#efb97a;}.cls-66{fill:#ebaa5e;}.cls-67{fill:#ecac62;}.cls-68{fill:#eba556;}.cls-69{fill:#ea9f4b;}.cls-70{fill:#eeaf68;}.cls-71{fill:#eba04e;}.cls-72{fill:#eca658;}.cls-73{fill:#eaa14f;}.cls-74{fill:#eba14f;}.cls-75{fill:#edab61;}.cls-76{fill:#eca95c;}.cls-77{fill:#edaf68;}.cls-78{fill:#eba75a;}.cls-79{fill:#efbc7e;}.cls-80{fill:#edaf66;}.cls-81{fill:#edaf69;}.cls-82{fill:#ecac61;}.cls-83{fill:#f2c590;}.cls-84{fill:#eca85b;}.cls-85{fill:#efb879;}.cls-86{fill:#ecaa60;}.cls-87{fill:#eaa250;}.cls-88{fill:#eba759;}.cls-89{fill:#ecab60;}.cls-90{fill:#eba659;}.cls-91{fill:#edb068;}.cls-92{fill:#eeb776;}.cls-93{fill:#edb572;}.cls-94{fill:#eeb573;}.cls-95{fill:#eeb777;}.cls-96{fill:#edae67;}.cls-97{fill:#f0bd81;}.cls-98{fill:#f1c691;}.cls-99{fill:#edac61;}.cls-100{fill:#ecac63;}.cls-101{fill:#ecac60;}.cls-102{fill:#edb16b;}.cls-103{fill:#efba7a;}.cls-104{fill:#f1c38b;}.cls-105{fill:#e7973e;}</style></defs><path class="cls-1" d="M960.05,645.94q-54.46,0-108.93.06c-1.92,0-2.11-.55-2.11-2.23q.06-104.28,0-208.58c0-1.75.3-2.19,2.15-2.19q108.81.09,217.6,0c2,0,2.25.56,2.25,2.35q-.07,104.16,0,208.33c0,1.83-.36,2.32-2.28,2.31Q1014.39,645.89,960.05,645.94Z" transform="translate(-849 -433)"/><path class="cls-2" d="M1056.87,534c0,3.93,0,7.86.08,11.79,0,1.47-.61,1.9-1.92,1.71-4.16.54-4.09.55-4.64,4.9-.26,2-.37,3.49,2.07,4.24,1.56.47,2.18,2,1.69,3.68a11.53,11.53,0,0,0-.76,3.62,12.41,12.41,0,0,0-.88,2.36c0,.22-.11.45-.17.66a18.09,18.09,0,0,0-1,3.22,2.19,2.19,0,0,1-.33.6c-.7.57-1.35,1.38-2.36.5a1.85,1.85,0,0,0-2.59-.25,20,20,0,0,0-2.53,4.82c-.62,1.7-.27,3.07,1.17,3.89,1.77,1,1.68,2.12,1,3.73-1.33,3.16-3.37,5.89-5.06,8.83a1.94,1.94,0,0,1-2.62.7c-1.06-.4-2-1.29-3.29-.93-1.73.84-2.16,2.78-3.39,4a3.86,3.86,0,0,0-.3.57c-.23.81-.61,1.63.07,2.42a3,3,0,0,1,.36.57,3.84,3.84,0,0,1-.09,4.84,24.34,24.34,0,0,1-2.81,3c-1,.89-1.78,2.12-3.14,2.61-2.85,1.88-2.85,1.88-5.23-.29-.48-.68-1.06-.6-1.69-.25-.39.19-.77.41-1.15.62-1.39,1.12-3,2-4.08,3.45-.79,1.33.28,2.34.6,3.48a2.52,2.52,0,0,1-1.53,3.18c-1.52.77-2.87,1.84-4.43,2.52a5.43,5.43,0,0,0-2.4,1.44,4,4,0,0,1-1.71.67,3.7,3.7,0,0,1-2.18-.22c-1-.86-1.55-2.71-3.18-2.46a10.75,10.75,0,0,0-6.22,2.85c-1.19,1.22.64,2.43.35,3.72-.13,1.2-1.05,1.62-2,2a95.82,95.82,0,0,1-10,2.59c-1.94.47-2.93-.94-3.18-2.33-.35-1.87-1.37-1.94-2.8-1.93a22.47,22.47,0,0,0-4.41.48c-1.93.78-1.18,2.67-1.68,4.05a3.85,3.85,0,0,1-2.85,1.81,56.12,56.12,0,0,1-9.7.08c-1.41-.07-2.25-1.29-2.51-2.74-.31-.59,0-1.33-.43-1.9a.66.66,0,0,1-.09-.39,2.53,2.53,0,0,0-.45-.86c-.75-.45-1.59-.16-2.38-.29a13.2,13.2,0,0,0-3.2-.22,2,2,0,0,0-2.25,1.41c-1.27,2.85-2.13,3.18-5,2.22-1.79-.59-3.8-.25-5.45-1.38-.87-.26-1.65-.77-2.53-1-1.46-.41-2.15-1.4-1.66-2.82.59-1.73-.26-2.56-1.5-3.5s-2.89-1.25-4.35-1.77-2.43.38-3,1.56c-.93,1.74-2.16,1.78-3.74,1-3-1.54-5.83-3.46-8.82-5.07-1.4-.76-.87-1.78-.52-2.78,1.08-3.08,1-3.39-1.63-5.23A13.14,13.14,0,0,0,904,610c-.76-1-1.55-.93-2.36-.08-2.7,2.16-2.7,2.16-5.63.06l0,0a53.52,53.52,0,0,0-5-5l0,0c-1.43-1.85-1.86-3.66,0-5.53a1.91,1.91,0,0,0,0-2.73c-.91-1.08-1.65-2.28-2.53-3.38-1.17-1.47-2.48-1.87-4.09-.73a3,3,0,0,1-.69.29,2.85,2.85,0,0,1-2.19-.28c-1.94-3.1-4.15-6-5.41-9.54-.44-1-.72-2.16.46-2.87,3.05-1.83,2.57-2.66,1-6.53a6.63,6.63,0,0,0-2-2.78c-4.48,1.16-5.5-1.82-6.21-5.18a6.07,6.07,0,0,0-.65-1.33c-.29-1.1-.12-2.25-.6-3.36a3.25,3.25,0,0,1,1.77-4.67,2.21,2.21,0,0,1,.76-.17c1-.27,1.17-1,1.18-1.89,0-1.57-.28-3.1-.33-4.66a2,2,0,0,0-2.39-1.91c-2,.23-3.05-.83-4-2.3V537a3,3,0,0,0,.89-1.45c.32-2.44,2-3.11,4.09-3.38a2.67,2.67,0,0,0,1.35-1.63c.19-1.16-.07-2.35.17-3.49.37-1.76.14-3-1.88-3.64-1.64-.54-2.32-1.95-1.93-3.82.3-1.46.91-2.87.76-4.41a4.66,4.66,0,0,1,.69-2.14c1.41-1.21.7-3.61,2.55-4.57a1.11,1.11,0,0,1,.67-.12c1.2.15,2.44,2.09,3.61-.06a5.23,5.23,0,0,1,.82-1.48,7.68,7.68,0,0,0,1-1.66c1.36-3.11,1.19-3.63-1.79-5.49a2.41,2.41,0,0,1-.87-.84,8.87,8.87,0,0,1,2-4.61,42.74,42.74,0,0,0,3.61-6.12c.82-1.58,1.76-1.73,3.15-1,3.1,1.47,3.4,1.39,5.34-1.51.33-.48.68-.93,1-1.37,1.09-1.33,1.49-2.65.23-4.17a3.71,3.71,0,0,1-1.05-2.94,4,4,0,0,1,1.59-2.3c.58-.33,1.17-.65,1.72-1a5.86,5.86,0,0,0,2.08-1.88,15,15,0,0,1,.85-1.38,2.06,2.06,0,0,1,.53-.4c1.43-.85,2.89-1.35,4.5-.48a2.78,2.78,0,0,1,.59.37c.39.28.71,1,1.15.8,2.37-1.15,5.31-1.57,6.31-4.6a8.27,8.27,0,0,0-.51-2.82,2.23,2.23,0,0,1-.27-.61,3.69,3.69,0,0,1,.1-2,1.28,1.28,0,0,1,.44-.51,15.22,15.22,0,0,0,3.44-2.11,3.61,3.61,0,0,1,1.37-1c1.41-.23,2.27-1.46,3.54-1.94a4.73,4.73,0,0,1,.67-.2c.91-.15,1.81-.64,2.77-.21a2,2,0,0,1,.56.82c.21.58.3,1.23,1,1.51a6.3,6.3,0,0,1,.53.37,2.07,2.07,0,0,0,2.48-.25,4,4,0,0,1,1-.22,4.54,4.54,0,0,0,2.51-1.31c1.7-.92,1.59-2.26.88-3.75a1.85,1.85,0,0,1,.07-1c.81-1.67,2.54-1.73,4-2.3.82-.29,1.56-.77,2.4-1a10.71,10.71,0,0,0,4-1c2.05-.8,3.63-.52,4.85,1.35a14.81,14.81,0,0,1,.2,1.49c.18.47.37,1,.95,1a32.77,32.77,0,0,0,5.69-.08,1.66,1.66,0,0,0,1.52-1.66,3.22,3.22,0,0,1,.21-1.06c.31-1.92,1.78-2.76,3.31-3.55H965c1.73.66,3.48,1.3,3.71,3.54a3.84,3.84,0,0,0,.3,1.38c1.07,2.32,3.25,1,4.87,1.5,1.36,0,2.75.16,3.53-1.34A3.85,3.85,0,0,1,982,447.3a25.73,25.73,0,0,0,3.19.26,3.1,3.1,0,0,1,.74.13,15.61,15.61,0,0,0,4.06,1.76c1.57.41,2.5,1.22,1.82,3.06a1.88,1.88,0,0,0,.78,2.57,12.16,12.16,0,0,0,4.68,2.14c.77.36,1.55,1,2.26-.11a18,18,0,0,1,1.81-2.09,3.54,3.54,0,0,1,3.2,0,8.19,8.19,0,0,1,2,.89c1.76,1.57,4,2.41,6,3.53,1.77,1,2.41,2.19,1.33,4-1,1.68-1,3,.87,4.19A28.13,28.13,0,0,0,1018,470a2.28,2.28,0,0,0,2.56-.29c3.29-1.49,3.6-1.42,6,1.16a12.34,12.34,0,0,1,2.2,2.25c.93,1.48,2.68,2.25,3.43,3.89.33,1-.42,1.74-.67,2.6a4.6,4.6,0,0,1-.29.59c-.29.65-1.39,1.12-.46,2,.51.69.39,1.67,1,2.29.8,1.41,1.46,3,3.29,3.36.34,0,.67,0,1,0,1.46.09,2.86-1.39,4.37-.22,1.16,1.39,2,3,3,4.46a2.59,2.59,0,0,1,.34.58c.67,1.52,1.7,2.83,2.4,4.33a2.24,2.24,0,0,1,.15.67,2.07,2.07,0,0,1-1,2.09c-1.77,1.08-2.55,2.49-1.51,4.51a3.62,3.62,0,0,0,1,2c1.6,2.77,1.6,2.77,4.62,2a1.09,1.09,0,0,1,.69.08c1.54.73,1.57,2.39,2.24,3.65a16.7,16.7,0,0,1,1.3,5.06c.17.55.27,1.12.45,1.67,1.1,3.42.9,3.81-2.46,5a2.22,2.22,0,0,0-.84.49c-.71,2-.41,4.07-.15,6.11a5.4,5.4,0,0,1,.25.67c.39,1.26,1.52,1.18,2.43,1.15A3.59,3.59,0,0,1,1056.87,534Z" transform="translate(-849 -433)"/><path class="cls-3" d="M896,610c2,1.43,3.84,1.17,5.54-.55a2.12,2.12,0,0,1,2.5,0c.84.67,1.65,1.37,2.52,2,1.9,1.34,3.56,2.67,2,5.37-.78,1.39-.43,2.43,1.22,3.23,2.72,1.33,5.12,3.26,7.92,4.49,1.33.58,2.19.59,2.93-1s2.19-2.69,4.23-1.49c1.18.69,2.59.65,3.79,1.62,1.53,1.25,2.92,2.18,1.79,4.42-.52,1,.31,1.49,1.1,1.84s1.79.37,2.47,1.05c-.67.55-1.37.28-2.06.07l0,0c-2.82-.94-3-1.22-2.31-4.21.1-.47.24-1-.23-1.35a13.36,13.36,0,0,0-3.89-2.16c-1.92-.8-3.43-.47-4.39,1.44s-2.18,1.53-3.54.76c-3.09-1.76-6.12-3.64-9.25-5.34-1.71-.93-1.8-2.15-.79-3.45,1.62-2.09.45-3.37-1.15-4.48s-3-3.42-5.47-1C899.14,613.06,898.25,612.71,896,610Z" transform="translate(-849 -433)"/><path class="cls-4" d="M1007.48,622.46c1.91-.62,3.41-2,5.17-2.86,1.21-.6.71-1.71.82-2.64-.38-1.13-1.16-2.22-.5-3.51a10,10,0,0,1,4.49-3.5.78.78,0,0,1,1.11.06c-.92.69-1.82,1.41-2.78,2.06-1.89,1.27-2.8,2.65-1.18,4.87a1.93,1.93,0,0,1-.76,3.11c-3.24,1.81-6.42,3.73-9.65,5.56-1.39.79-2.57.87-3.44-.9-1-2.06-2.77-2.32-4.57-1.11-1.27.85-3.48.56-3.69,2.81a2,2,0,0,1,0,2.08c-1.9-3-1.83-2.87,1.07-4.92a14.09,14.09,0,0,1,4.79-1.87c1.73-.46,2.64,1.19,3.18,2.73a2.65,2.65,0,0,0,2.49,0l1.5-.51C1006.19,623.51,1006.79,622.92,1007.48,622.46Z" transform="translate(-849 -433)"/><path class="cls-5" d="M1034.46,592c1-1.08,1.83,0,2.66.34,1.67.65,2.76.66,3.75-1.3,1.39-2.78,3.52-5.17,4.57-8.16.38-1.09.59-1.82-.9-2.5-2.35-1.08-2.54-3.8-.73-6.85.63-1.06,1.43-2,2.16-3a2.71,2.71,0,0,1,3,.5c1,1,1.3-.44,2-.51a.73.73,0,0,1,0,1,2,2,0,0,1-1.64.36c-1.11,0-2.44-1-3.26.15a10.64,10.64,0,0,0-2.11,5.26c-.06,1.18.79,1.79,1.67,2.29,1.55.87,1.74,2,1,3.54a107.4,107.4,0,0,1-5.49,9.47c-.94,1.45-1.9,1.68-3.29.82a3.92,3.92,0,0,0-3.29-.78A.4.4,0,0,1,1034.46,592Z" transform="translate(-849 -433)"/><path class="cls-6" d="M1032,477l-3.5-3.5a.88.88,0,0,1,.57-.68c.51-.05.68.38.94.67l2.14,2c1.44,1.39,2,2.78.25,4.43-2.28,2.15-.14,3.74.9,5.36s2.24,2.46,4.14,1.23c1.71-1.12,3.08-.88,4,1.13.44,1,1.06,1.86,1.6,2.79.23.66,1.09,1.17.48,2a14.52,14.52,0,0,1-3-4.49c-.51-1-1.21-.74-2-.41s-1.66.51-2.45.9h-1a11.21,11.21,0,0,1-3.51-4c-1.18-.26-.61-1.37-1-2-.86-1,.07-1.72.48-2.5,0-.17,0-.33,0-.5C1031.25,478.68,1032.71,478.3,1032,477Z" transform="translate(-849 -433)"/><path class="cls-7" d="M1051,571.51c0-.35,0-.69,0-1h0c.47-1.12.61-2.35,1-3.49,0-.17,0-.33,0-.5a10.38,10.38,0,0,1,1-2,8.94,8.94,0,0,1,.47-3.66c.86-2-.12-3.44-1.85-4.13A2.27,2.27,0,0,1,1050,554c0-.58,0-1.16,0-1.74,0-4.89.12-5,5.06-4.76a2.59,2.59,0,0,1-1.91.39,1.92,1.92,0,0,0-2.11,2c-.14,1.32-.32,2.64-.42,4s.36,2.12,1.76,2.2c2.69.17,3.11,1.92,2.58,4-.92,3.61-2,7.18-3,10.77A.94.94,0,0,1,1051,571.51Z" transform="translate(-849 -433)"/><path class="cls-8" d="M891.52,475c-.88.38-1,1.3-1.5,2-1.15,1.36,1.34,2.22.5,3.54-2.44-2.13-2.55-3-.4-5.22s4.32-4.33,6.46-6.5c1.45-1.47,2.9-1.88,4.44-.17a2.38,2.38,0,0,0,3.72.14c1.53-1.4,4.12-2.24,3.24-5.18a.59.59,0,0,1-.06-.64.45.45,0,0,1,.6.05h0a9.05,9.05,0,0,1,.47,3.22c-1.48,3.33-5.22,5.1-8,3.76h0c-1.87-1.86-3.39-.28-5,.52h0c-.41.58-.83,1.16-1.25,1.73a10.35,10.35,0,0,1-1.6,1.43A17.45,17.45,0,0,1,891.52,475Z" transform="translate(-849 -433)"/><path class="cls-9" d="M992.45,628.49c0-.69,0-1.38,0-2.08,1.11,3.43.75,4.13-2.38,5-2.62.72-5.22,1.5-7.81,2.31-3.13,1-4.44.44-5.2-2.56a1.89,1.89,0,0,0-2.27-1.67c-.74,0-1.49,0-2.23,0a3.47,3.47,0,0,1-2.63-.06c2-1,4.2-.35,6.3-.41.9,0,1,.86,1.29,1.57.66,1.65,1.36,3,3.79,2.06s5.08-1.18,7.63-1.74C990.49,630.6,991.85,630.09,992.45,628.49Z" transform="translate(-849 -433)"/><path class="cls-10" d="M968.51,449l0-1.48c0-1.16-1.14-2.16-.5-3.42,1.18,0,1.11.9,1,1.57-.43,2.94,1.07,3.94,3.74,4.21,2.28.23,4.34.72,4.5-2.66.06-1.36,1.27-1.72,2.58-1.72A11.94,11.94,0,0,1,985,447a.48.48,0,0,1,0,.64,4.28,4.28,0,0,1-2.94-.18c-2.34-1-3.6.11-4.53,2.06-.72,1.56-2.09,1.56-3.5,1.48a4.85,4.85,0,0,0-2.84-.21A2.2,2.2,0,0,1,968.51,449Z" transform="translate(-849 -433)"/><path class="cls-11" d="M932,631l2.06-.07c2.35,1.41,5.15.89,7.64,1.77,1.15.4,2-.82,2.26-1.56.79-2.29,2.44-2.35,4.34-2.21.74.06,1.49,0,2.24,0,.75.6,1.75-.1,2.5.5,0,.36,0,.73-.07,1.1-2-1-4.15-1-6.28-1.08-1.49-.09-1.7,1-1.93,2.11-.36,1.72-1.37,2.89-3.12,2.34C938.4,632.91,934.88,632.91,932,631Z" transform="translate(-849 -433)"/><path class="cls-12" d="M997.46,457.57c-1.94,0-3.35-1.27-5-2a3.47,3.47,0,0,1-.44-.64,6.45,6.45,0,0,1-.18-2.31,1.9,1.9,0,0,0-.77-2.64c-.38-.21-.93-.4-.57-1.05A1.75,1.75,0,0,1,992,449c1.75,1,1,2.68.89,4.05-.12,2.16,1.52,2.66,2.89,3.2s2.89,1.26,4.25-.47c2.35-3,4.33-2.86,7.05.19a.38.38,0,0,1-.65.06,3,3,0,0,1-2-.52c-1-.67-2-1.41-3,0l-1.51,2A1.75,1.75,0,0,1,997.46,457.57Z" transform="translate(-849 -433)"/><path class="cls-13" d="M884,592.47c1.71-1.6,3.3-1.3,4.66.43,1,1.3,1.92,2.67,2.81,4.05.46.71.92,1.68.27,2.32C890,601,890.29,603,891,605c-3-2.52-3-2.64-.62-5.66a2.16,2.16,0,0,0,.61-1.57c-.14-1.55-3.62-5-5.36-5.28A1.42,1.42,0,0,1,884,592.47Z" transform="translate(-849 -433)"/><path class="cls-14" d="M876,570.48c.83,1.92,2.26,3.46,3,5.51.85,2.3-.16,3.63-1.53,4.28-1.63.76-1.25,1.6-1,2.71-1.7-.32-1.34-1.46-1-2.59,3.16-2.55,3.31-5.11.56-8.31-.9-1.05-2-.34-3-.55C873.6,570,874.78,570.11,876,570.48Z" transform="translate(-849 -433)"/><path class="cls-15" d="M884,487.52c-1.37-.55-2.34-.49-3,1.18-1.41,3.64-4.73,6.28-5.48,10.29.23.22.21.42,0,.6-1.52-.75-.76-1.91-.3-2.74,1.8-3.22,3.78-6.34,5.59-9.56.88-1.55,1.9-1.62,3.24-.74.35.26.78.48.57,1.05A.43.43,0,0,1,884,487.52Z" transform="translate(-849 -433)"/><path class="cls-16" d="M908,463l-.06.62c-1.67-1.59-1.45-3,.46-4.19,3.16-1.9,6.32-3.82,9.6-5.52,2.56-1.33,3.18,1,4.07,2.58a.87.87,0,0,1-.57.32c-.53,0-.74-.43-1-.79l0-.95c-1.12-.7-2,0-3,.46l-.48,0c-1.4.27-2.16,1.65-3.52,2l-1,1c-1.45.42-2.61,1.43-4,2h0C907.63,461.22,908.56,462.27,908,463Z" transform="translate(-849 -433)"/><path class="cls-17" d="M1006.44,456.06l.65-.06c2.51.87,4.64,2.44,6.94,3.71,1.61.88,1.56,2,.77,3.27a3.93,3.93,0,0,0-.7,3.51c-1.53-.48-1.53-.48-.63-3,.69-2.57.3-3.25-3-4.72C1008.92,458.14,1007.41,457.52,1006.44,456.06Z" transform="translate(-849 -433)"/><path class="cls-18" d="M1050.47,524c.37-.58,1.06-.38,1.55-.63,1.61-.82,3.22-1.61,1.75-3.92-.4-.62-.23-1.6-.32-2.42a3.06,3.06,0,0,1,0-2.61c.59,2,1.25,3.88,1.76,5.85.43,1.68-.19,3.14-1.92,3.41-2.35.37-2.73,1.69-2.42,3.65.22,1.37.43,2.75.64,4.13-.59.38-.81-.13-1.1-.47h0A20.51,20.51,0,0,1,1050.47,524Z" transform="translate(-849 -433)"/><path class="cls-19" d="M869.57,513a3.42,3.42,0,0,0-.53,2c-.25,1.43-.5,2.87-.85,4.27-.17.64.08,1.8-1.22,1.72.36-4,2-7.78,2.92-11.69a1.75,1.75,0,0,1,2.33-1.29c2.73.77,4.16-.42,5-2.87a5.89,5.89,0,0,1,.79-1.24c.77,1.36-.13,2.23-.93,3.13l-.53,1.46c-1.31,1.61-2.66.67-4,.05h-.47a2.64,2.64,0,0,0-1.45,2.09C870.38,511.48,870.44,512.47,869.57,513Z" transform="translate(-849 -433)"/><path class="cls-20" d="M1049.51,508.54c-2.69,1.63-2.71,1.63-5-2a9.59,9.59,0,0,1-1-2c-1.38-2.35-.61-4,1.69-5.13.78-.38.79-1.16.82-1.9.25-.25.38-.75.9-.42.24,1.38.17,2.5-1.35,3.29-2,1-2,2.7-.92,4.41a12,12,0,0,1,1.38,3.13C1047,509.16,1048.46,507.63,1049.51,508.54Z" transform="translate(-849 -433)"/><path class="cls-21" d="M875.49,580.39c.1,1-.16,2.06,1,2.59.77,3.1,3,5.39,4.42,8.15.22.43.41.88.61,1.32a2,2,0,0,0,2.48,0h0l1.58,0c-3.38,2.19-3.44,2.23-5.45-1-1.7-2.79-3.31-5.64-4.87-8.52C874.86,582.16,874.2,581.14,875.49,580.39Z" transform="translate(-849 -433)"/><path class="cls-22" d="M867,521c1.52-1.71,1-4.14,2.07-6a10,10,0,0,1-.56,4.39,2.77,2.77,0,0,0,1.72,3.79c1.8.66,2,1.78,1.82,3.26s.48,3.13-.47,4.58a10.15,10.15,0,0,1-.06-4.65,2.29,2.29,0,0,0-2.26-2.62C867.75,523.55,866.6,522.84,867,521Z" transform="translate(-849 -433)"/><path class="cls-23" d="M953.56,632.42a4.9,4.9,0,0,0,5.25,3.08c3.33-.26,6.83.52,9.64-2.08.69,1.21.07,1.91-1,2.44-4,0-7.94,0-11.91.09-.87,0-1.66-.06-2.12-.93A3.07,3.07,0,0,1,953.56,632.42Z" transform="translate(-849 -433)"/><path class="cls-4" d="M865.13,545.47c1.71,1,3.16,2.58,5.43,2.13.13,0,.3.12.44.21,1.78,1.12,1.44,7.63-.46,8.68-.17-.1-.22-.21-.16-.31s.11-.15.16-.15c2-1.58.4-3.51.51-5.27.18-2.78-1.77-2.85-3.77-2.92C865.85,547.78,864.62,547.37,865.13,545.47Z" transform="translate(-849 -433)"/><path class="cls-3" d="M884,487.52l.5,0a1.42,1.42,0,0,1,1.56,0l.85,0c1.41-.53,1.82-1.91,2.54-3s2-2.24,1-3.89c.13-1.22-2-2.13-.5-3.54-.08,1.42.84,2.48,1.46,3.58a2.31,2.31,0,0,1,.07,2.52,27.83,27.83,0,0,1-2.95,4.49C887.21,489.17,885.53,488.85,884,487.52Z" transform="translate(-849 -433)"/><path class="cls-24" d="M944.46,448.12c-1.21-1.44-2.55-1.67-4.36-.94a22.87,22.87,0,0,1-4.59.87c-1,.43-2,.77-3,1.18-.5,0-1,.15-1.48.24a1.21,1.21,0,0,1-1-.44c2.44-.82,4.72-2.25,7.44-2,2-.36,3.86-1.87,6.07-.95l1,1A.68.68,0,0,1,944.46,448.12Z" transform="translate(-849 -433)"/><path class="cls-25" d="M1013.47,463.53c.39,1-1.35,2.35.63,3,1.54.69,2.54,2.08,3.89,3,.69.59,1.53.1,2.27.31l.24.24c-.42.72-1,1.14-1.85.79a14.52,14.52,0,0,1-5.87-4.45C1012,465.44,1012.65,464.35,1013.47,463.53Z" transform="translate(-849 -433)"/><path class="cls-26" d="M876,570.48c-1.13,0-2.25,0-3,1-1.43.33-2.85.64-3-1.54,0-1.82-1.23-3.38-1.22-5.22l.25-.29c1.46,1.08,1.62,2.83,1.88,4.36.32,1.89,1,2.19,2.61,1.42A2,2,0,0,1,876,570.48Z" transform="translate(-849 -433)"/><path class="cls-27" d="M921.51,456.56l.6-.06c2.23,1.36,3.9-.63,5.84-1s1-2.36,1.61-3.51c1.58,2,1.33,3-1,4.05a9.36,9.36,0,0,1-2.51,1.49l-1,0a2.08,2.08,0,0,1-3,0h0C921.75,457.27,921.21,457.13,921.51,456.56Z" transform="translate(-849 -433)"/><path class="cls-24" d="M1028.44,607.4c.85-1,1.69-1.95,2.54-2.93,1.81-1.67,1.58-3.34,0-5h0a2.87,2.87,0,0,1,0-3h0a.39.39,0,0,1,.6.08,3.18,3.18,0,0,0,.94,3.32c1.34,1.4,1.25,3-.16,4.35l-3.88,3.77c-.16-.13-.21-.25-.17-.38S1028.4,607.4,1028.44,607.4Z" transform="translate(-849 -433)"/><path class="cls-28" d="M877.05,507c.39-1,1.2-1.91.93-3.13.69-2.31-1-3.25-2.47-4.32,0-.2,0-.4,0-.6a4.58,4.58,0,0,0,.66.34c1.6.45,3.32,1.5,3.12,3S879.07,506.09,877.05,507Z" transform="translate(-849 -433)"/><path class="cls-25" d="M1029,473.05l-.51.49c-.42-.5-.86-1-1.23-1.51-1.73-2.42-3.85-3.48-6.73-2l-.06-.07c1.48-2.95,2.2-3,5.55-.47l1.49,1.51C1028.07,471.63,1029.17,471.86,1029,473.05Z" transform="translate(-849 -433)"/><path class="cls-29" d="M870.54,532.5c-.39.55-1,.52-1.54.5-1.3,0-2,.5-2,1.85a2,2,0,0,1-1.9,2.15v-3a3.58,3.58,0,0,1,2.38-1.75C868.5,532.46,869.57,531.82,870.54,532.5Z" transform="translate(-849 -433)"/><path class="cls-30" d="M1018.57,610l-1.11-.06a1.11,1.11,0,0,1,1-.5,1.62,1.62,0,0,1,2,0c1.42,2.63,3.26,1,5,.49a.43.43,0,0,1,.2.4c0,.15-.05.23-.1.23-2.25,2.29-2.56,2.33-5,.24A2.77,2.77,0,0,0,1018.57,610Z" transform="translate(-849 -433)"/><path class="cls-31" d="M953.51,447.55l0,1c-.41,1.71-1.43,2.56-3.23,2.25s-3.76.71-5.45-.59a.67.67,0,0,1,.29-.73c2,1.11,4,.6,6,.21,1.44-.27,1.41-1.67,1.74-2.75.28-.9-.41-2,.68-2.73C954.41,445.32,953.73,446.43,953.51,447.55Z" transform="translate(-849 -433)"/><path class="cls-15" d="M870.54,532.5l-3.47,0c-.63.27-1.19.8-2,.46,0-1.17.95-.92,1.64-1,4-.35,4-.34,4.36-4.22a8,8,0,0,1,.38-1.41l.06,4.65A1.53,1.53,0,0,1,870.54,532.5Z" transform="translate(-849 -433)"/><path class="cls-32" d="M1050.46,531l1.1.47a9.14,9.14,0,0,0,3.62.57c1.31,0,2,.54,1.69,2-1.56-.88-3.06-1.87-5-1.59C1051,532.56,1050.52,531.87,1050.46,531Z" transform="translate(-849 -433)"/><path class="cls-33" d="M1026,469.52c-.31-.08-.72-.06-.9-.26-1.94-2.11-3.35-1.14-4.65.73-.83-.07-1.77.4-2.45-.48a3.53,3.53,0,0,0,2.53-.72C1023.3,466.55,1023.66,466.63,1026,469.52Z" transform="translate(-849 -433)"/><path class="cls-4" d="M870.08,556.53c-1.86,1.44-2,3.2-1.22,5.3a8.87,8.87,0,0,1,.2,2.65h0c-1.51-.34-.14-1.88-1-2.48l0,0c-.45-1-.59-2-1-3v-.5C867.72,557.34,868.29,556,870.08,556.53Z" transform="translate(-849 -433)"/><path class="cls-34" d="M1031.58,596.55l-.6-.08c.75-1.82,1.41-3.71,3.48-4.51l.06.66C1033.53,593.91,1032.85,595.45,1031.58,596.55Z" transform="translate(-849 -433)"/><path class="cls-35" d="M992,449l-1.54.05c-1.73.76-3-.52-4.48-1l-.49-.07c-.15-.18-.48-.19-.51-.5V447C987.58,446.83,989.71,448.24,992,449Z" transform="translate(-849 -433)"/><path class="cls-36" d="M967.49,635.86c.54-.73,1.2-1.4,1-2.44.27-1.42-.6-3.27,1.53-4l2.63.06c-2.81.27-4.06,1.72-3.66,4.61C969.08,635,968.87,636,967.49,635.86Z" transform="translate(-849 -433)"/><path class="cls-37" d="M891,605a10.24,10.24,0,0,1,5,5A17.35,17.35,0,0,1,891,605Z" transform="translate(-849 -433)"/><path class="cls-38" d="M953.51,447.55c0-1.12,0-2.24,0-3.36l3-.06C955.93,445.63,953.94,445.9,953.51,447.55Z" transform="translate(-849 -433)"/><path class="cls-39" d="M1053.5,514.43c0,.87,0,1.74,0,2.61l-1.5-5c-.39-.59-.17-1.28-.34-1.9a1,1,0,0,1,.38-.67C1052.47,511.12,1053.57,512.6,1053.5,514.43Z" transform="translate(-849 -433)"/><path class="cls-40" d="M929.56,452c0,1.41,1,3.3-1.61,3.51,1.21-.94,1.09-2.22,1.09-3.57,0-1-.71-2.38.93-2.91l1.06.05c-.06,1-1.32,1.08-1.49,2Z" transform="translate(-849 -433)"/><path class="cls-41" d="M968,444.13a7.53,7.53,0,0,1,.5,3.42c-.57-1.73-2.46-2.13-3.47-3.42Z" transform="translate(-849 -433)"/><path class="cls-40" d="M868,562c1,.54.13,1.89,1,2.48.14,1.87,1.52,3.52,1,5.51A19.15,19.15,0,0,1,868,562Z" transform="translate(-849 -433)"/><path class="cls-11" d="M929.45,625.47a.94.94,0,0,1,.5,1.24c-1.14,2.33.27,3.39,2,4.32-2.62-.21-3.15-.83-2.85-3.36C929.23,626.93,929.35,626.2,929.45,625.47Z" transform="translate(-849 -433)"/><path class="cls-42" d="M1052,509.46l-.07.56c-1-.06-1.08-1.32-2-1.48h-.42c-1.09-.67-2.69,1.46-3.51-.63,1.3,0,2.6,0,3.9.06C1050.92,508,1051.92,508.08,1052,509.46Z" transform="translate(-849 -433)"/><path class="cls-31" d="M943.48,446.05c-2.16-.57-4,1.25-6.07.95C939.32,445.92,941.22,444.8,943.48,446.05Z" transform="translate(-849 -433)"/><path class="cls-43" d="M1043.47,492.52l-.48-2c1.31,1,1.73,2.66,2.57,4l-.28.17c-1.16-.25-1.4-1.27-1.81-2.15Z" transform="translate(-849 -433)"/><path class="cls-10" d="M1025.55,610.58l-.09-.63,3-2.55c0,.2,0,.39,0,.58A7,7,0,0,1,1025.55,610.58Z" transform="translate(-849 -433)"/><path class="cls-40" d="M870.08,556.53c-1.4.06-2.11,1.2-3.06,2,0-2.46,1.84-2.37,3.52-2.46v.46Z" transform="translate(-849 -433)"/><path class="cls-44" d="M889.48,484.45c-.23,1.52-.7,2.85-2.54,3C887.79,486.46,888.63,485.45,889.48,484.45Z" transform="translate(-849 -433)"/><path class="cls-45" d="M1029,473.05l-1.49-2a3.07,3.07,0,0,1,2.49,2.5Z" transform="translate(-849 -433)"/><path class="cls-36" d="M953.56,632.42c0,.86-.07,1.73-.1,2.6-.79-1.29-.31-2.72-.44-4.07C953.6,631.29,953.49,631.89,953.56,632.42Z" transform="translate(-849 -433)"/><path class="cls-46" d="M1046.89,497.07l-.9.42c0-.15,0-.31,0-.46-.46-.77-1-1.51-.59-2.49l.2,0Z" transform="translate(-849 -433)"/><path class="cls-47" d="M865.11,533a2.88,2.88,0,0,1,2-.46,2.65,2.65,0,0,1-2,1.48C865.12,533.67,865.12,533.33,865.11,533Z" transform="translate(-849 -433)"/><path class="cls-40" d="M867,559a4.3,4.3,0,0,1,1,3A3.63,3.63,0,0,1,867,559Z" transform="translate(-849 -433)"/><path class="cls-31" d="M944.46,448.12l0-1c.85.63.42,1.58.6,2.38l-.18.17a.24.24,0,0,1-.4-.1Z" transform="translate(-849 -433)"/><path class="cls-44" d="M886.09,487.49h-1.56l-.49-.95A3.31,3.31,0,0,1,886.09,487.49Z" transform="translate(-849 -433)"/><path class="cls-1" d="M910.56,475.55a1.24,1.24,0,0,0,.42-.15c.65-.86,1.69-1.31,2.28-2.23a3.56,3.56,0,0,1,1.68-1.09,7.62,7.62,0,0,0,3.22-2,101.77,101.77,0,0,1,18.66-8.54c1.31-.47,2.87.16,4-1,10.65-2.46,21.37-3.52,32.24-1.67a94,94,0,0,1,19.9,5.66c1.74.71,3.37,1.75,5.12,2.46,2.17,1.43,4.57,2.45,6.79,3.78,2,1.65,4.53,2.48,6.19,4.54,3.08,1.86,5.33,4.68,8.12,6.88a60.27,60.27,0,0,0,4.57,5.15,6.63,6.63,0,0,1,1.71,2.63h0c2.64,2.29,4.1,5.43,5.9,8.31a10.92,10.92,0,0,1,1.84,3.45c1.72,4.63,4.5,8.85,5.69,13.67.82,3.35,2.22,6.55,2.56,10-.57,1.79.6,3.34.7,5,.43,7.35.75,14.7-.55,22a22.6,22.6,0,0,0-.17,2.47,56.8,56.8,0,0,1-1.73,6.67,76.85,76.85,0,0,1-11,23.62,65,65,0,0,1-9.17,11.61c-3.08,3.27-6.7,5.89-10,8.88a87.28,87.28,0,0,1-22,11.38,31.73,31.73,0,0,1-4.89,1.39,2.15,2.15,0,0,1-.75.13c-2.3.53-4.49,1.48-6.86,1.74a118,118,0,0,1-18.59,1c-3.24,0-6.38-.87-9.61-1a.83.83,0,0,1-.83-.12h0c-.42-.29-.94-.19-1.38-.38a84.87,84.87,0,0,1-32.47-14.54c-.54-.39-.82-1-1.49-1.28-3.55-2.3-6.32-5.47-9.31-8.38a20.39,20.39,0,0,0-2.18-2.08c-.82-1.32-2-2.42-2.67-3.81h0c-2.61-2.38-4.27-5.46-6-8.44A80.16,80.16,0,0,1,883,564.79a13.54,13.54,0,0,1-.75-3.87c-3.34-10.1-3.13-20.48-2.36-30.87.13-1.71.67-3.4.7-5.14.85-3.92,1.85-7.81,2.93-11.67a83.45,83.45,0,0,1,9.51-19.15,17.4,17.4,0,0,0,1.66-2.25A69,69,0,0,1,910.56,475.55Z" transform="translate(-849 -433)"/><path class="cls-48" d="M998.35,467.58a111.15,111.15,0,0,0-12.41-5c-11.09-3.3-22.32-5.09-33.91-3.28-3.84.6-7.74.83-11.52,1.87,0-1.38,1.38-1,2-1.59h0c1.27-.66,2.73.18,4-.49l1,0c.78-.46,1.52-1.09,2.52-.51l1.48-.49a160.59,160.59,0,0,1,19.5,0h0c1.12.49,2.48.15,3.5,1a22.49,22.49,0,0,1,7.66,1.58c2.14.81,4.58,1.12,6.79,1.95a51.16,51.16,0,0,1,10.56,5A1,1,0,0,1,998.35,467.58Z" transform="translate(-849 -433)"/><path class="cls-42" d="M910.54,603.9c3.89,2.34,7.37,5.29,11.46,7.34,6.21,3.12,12.51,6,19.39,7.35a26.2,26.2,0,0,1,3.72,1.32,3,3,0,0,1-2.61.05h0a21.25,21.25,0,0,1-2-1c-5-.14-9.28-2.46-13.66-4.48a67.57,67.57,0,0,1-10-5.4c-2.16-1.47-4.53-2.67-6.31-4.66a.33.33,0,0,1-.11-.37C910.45,604,910.5,603.9,910.54,603.9Z" transform="translate(-849 -433)"/><path class="cls-27" d="M882.51,561.49a91,91,0,0,0,14,28.45c-1.21,0-1.62-.92-2.2-1.73a95.67,95.67,0,0,1-7.82-13.4c-1.68-3.39-2.67-7-4.26-10.4a6.78,6.78,0,0,1-.22-2.94C882.22,561.25,882.37,561.27,882.51,561.49Z" transform="translate(-849 -433)"/><path class="cls-49" d="M1009.42,605.44l9.68-8.8c3.63-3.29,6.34-7.35,9.31-11.19.2-.26.39-.25.57,0-.53,2.66-2.73,4.23-4.2,6.24-3.27,4.46-7.41,8.14-11.54,11.81-.87.78-2.26.73-2.77,1.94A.71.71,0,0,1,1009.42,605.44Z" transform="translate(-849 -433)"/><path class="cls-50" d="M1009.42,605.44l1.05,0a56.74,56.74,0,0,1-13.62,8.46c-2.93,1.23-5.91,2.36-8.86,3.54a.46.46,0,0,1-.62,0,.56.56,0,0,1,.08-.63A111.84,111.84,0,0,0,1009.42,605.44Z" transform="translate(-849 -433)"/><path class="cls-38" d="M910.56,475.55c-2.76,3.28-6.5,5.54-9.19,8.9-2,2.57-4.19,5.07-6.29,7.6-.48.42-.73,1.13-1.47,1.26A.87.87,0,0,1,893,493c4.54-6.06,9.26-11.94,15.4-16.49C909.08,476.06,909.59,475.32,910.56,475.55Z" transform="translate(-849 -433)"/><path class="cls-51" d="M942.51,459.54l-2,1.59a90.78,90.78,0,0,0-22.43,9.54l-.22-.29c.12-.68.68-1,1.16-1.35a35.65,35.65,0,0,1,7-3.49,8.85,8.85,0,0,1,2.5-1.5,72.06,72.06,0,0,1,6.89-2.4C937.81,461.05,940.16,460.3,942.51,459.54Z" transform="translate(-849 -433)"/><path class="cls-52" d="M893,493h.52a.87.87,0,0,1,0,1.08A117.93,117.93,0,0,0,884,513c-.43.24,0,1.32-1,1l2-6.48a8.74,8.74,0,0,1,1.51-2.5c.39-.61-.13-1.45.49-2,.84-1.07,1.2-2.41,2-3.5l1-2a4.71,4.71,0,0,1,1.49-1.49C891.26,494.63,892.53,494,893,493Z" transform="translate(-849 -433)"/><path class="cls-53" d="M882.51,561.49l-.45,0c-.34-2-2-3.74-1.53-6a85.62,85.62,0,0,1,0-31h0q.24-.33.48,0c0,5.64-1.46,11.18-1.09,16.86.4,6.2.66,12.4,2.45,18.41A8.16,8.16,0,0,1,882.51,561.49Z" transform="translate(-849 -433)"/><path class="cls-54" d="M1029,585.47l-.57,0a110.86,110.86,0,0,0,11-23.51,2.85,2.85,0,0,1,0,2.53,88.05,88.05,0,0,1-7.38,16.57C1031.16,582.63,1029.78,583.84,1029,585.47Z" transform="translate(-849 -433)"/><path class="cls-55" d="M1040.92,555.49c.39-6.7,1.54-13.35,1.09-20.11-.24-3.47-1.17-6.87-1-10.38a.44.44,0,0,1,.67.14,6,6,0,0,1-.09,2.38l.4.5c1.32,3.94.58,8,.74,12,.08,2.07,0,4.14,0,6.2.34,3.1-.88,6-1.17,9C1041.51,555.59,1041.16,555.49,1040.92,555.49Z" transform="translate(-849 -433)"/><path class="cls-17" d="M1041.45,525l-.47,0c-1.94-7.56-4-15.07-7.76-22a6,6,0,0,1-.38-1.43.44.44,0,0,1,.63-.05q2.27,5,4.51,10c.65,2,1.67,3.89,2,6l.06,2a7.21,7.21,0,0,1,1.46,3.53h0A2,2,0,0,1,1041.45,525Z" transform="translate(-849 -433)"/><path class="cls-56" d="M880.53,524.5c-1.31,7.28-.88,14.63-1.06,22-.08,3.1,1.63,5.92,1.06,9-.63-2.44-1.53-4.82-1.52-7.41q.06-8.08,0-16.17C879,529.32,879.89,526.94,880.53,524.5Z" transform="translate(-849 -433)"/><path class="cls-57" d="M946,620.4a.69.69,0,0,1,.35,0,2.81,2.81,0,0,1,1.71-.16,77.73,77.73,0,0,0,25.87,0,8.53,8.53,0,0,1,1.24,0c.45,0,.93-.11,1.31.25-2.54.62-5,1.5-7.68,1.5H952.4A18.91,18.91,0,0,1,946,620.4Z" transform="translate(-849 -433)"/><path class="cls-58" d="M1040.92,555.49a39.77,39.77,0,0,0,1.57-9c.16-.24.32-.23.48,0,0,6.23-1.79,12.1-3.51,18,0-.84,0-1.68,0-2.53C1039.32,559.65,1040.47,557.65,1040.92,555.49Z" transform="translate(-849 -433)"/><path class="cls-59" d="M1033.47,501.52l-.63.05L1025.47,490c2-.25,2.09,1.69,2.83,2.68A31.08,31.08,0,0,1,1033.47,501.52Z" transform="translate(-849 -433)"/><path class="cls-9" d="M910.54,603.9l0,.55a37,37,0,0,1-9-8,.69.69,0,0,1,0-1Z" transform="translate(-849 -433)"/><path class="cls-56" d="M881,524.5h-.48c0-3.69,1.52-7,2.48-10.5l1-1Q882.52,518.76,881,524.5Z" transform="translate(-849 -433)"/><path class="cls-60" d="M986,448.11c1.61-.2,2.91,1,4.48,1,1.31.77,2.47,1.62,2,3.43a3,3,0,0,0,0,2.54c0,.16,0,.33,0,.49-2.15-.43-1.78-2.11-1.22-3.27.76-1.57,0-1.89-1.16-2.21C988.63,449.64,987,449.51,986,448.11Z" transform="translate(-849 -433)"/><path class="cls-61" d="M1018.84,482.58l-7.81-7.06a.29.29,0,0,1,.49,0c1.41,0,2.12,1.11,3,1.88,1.88,1.65,3.64,3.43,5.45,5.16A.92.92,0,0,1,1018.84,482.58Z" transform="translate(-849 -433)"/><path class="cls-17" d="M1043,546.49h-.48c-.14-6.16.36-12.34-.53-18.48a5.3,5.3,0,0,1,1,3.73Z" transform="translate(-849 -433)"/><path class="cls-62" d="M971,458H951.5a1.55,1.55,0,0,1,1.33-.49h16.84A1.53,1.53,0,0,1,971,458Z" transform="translate(-849 -433)"/><path class="cls-63" d="M901,470c3.41.81,5.56-1.12,7.51-3.48.26-.28.4-.81,1-.51.13,1.58-.93,2.36-2.09,3a26.57,26.57,0,0,0-3.41,1.85C902.45,472.15,901.59,471.79,901,470Z" transform="translate(-849 -433)"/><path class="cls-64" d="M1018.84,482.58l1.13-.05c1.34,1.42,2.75,2.78,4,4.29.74.91,1.71,1.82,1.52,3.21Z" transform="translate(-849 -433)"/><path class="cls-41" d="M985,447.54l.51.5c-1.57-.1-3.14.22-4.7-.31s-2.09,1.39-3.29,1.82c.55-2.65,1.37-3.16,3.84-2.64C982.55,447.16,983.71,447.73,985,447.54Z" transform="translate(-849 -433)"/><path class="cls-14" d="M1011.52,475.49a3.91,3.91,0,0,1-.49,0l-6.11-4.34c-.25-.24-.23-.45.06-.64C1007.26,472.05,1010.05,472.9,1011.52,475.49Z" transform="translate(-849 -433)"/><path class="cls-65" d="M976.51,620.46l-1,0c-.16-.11-.21-.22-.16-.33s.11-.15.16-.15c2.35-.41,4.48-1.74,7-1.56.14.11.2.23.16.35s-.07.19-.12.19C980.43,619.22,978.78,621.06,976.51,620.46Z" transform="translate(-849 -433)"/><path class="cls-38" d="M944.52,449.53a1.38,1.38,0,0,1,.4.1c2.1,1.85,6.73,1.25,8.57-1.1.22,1.77-.44,2.65-2.35,2.54-1.65-.1-3.31-.05-5,0C945.07,451.09,944.39,450.78,944.52,449.53Z" transform="translate(-849 -433)"/><path class="cls-66" d="M1005,470.54l-.06.64-6.57-3.6,1.16-.05C1001.25,468.68,1003.4,469.09,1005,470.54Z" transform="translate(-849 -433)"/><path class="cls-63" d="M896,470.54c1.57-1.14,3-3.63,5-.52C899.27,469.25,897.68,470.18,896,470.54Z" transform="translate(-849 -433)"/><path class="cls-67" d="M896.55,589.94a12.45,12.45,0,0,1,3,3.57.62.62,0,0,1,0,1C898.5,593,896.52,592.12,896.55,589.94Z" transform="translate(-849 -433)"/><path class="cls-34" d="M1031,599.46c2.46,2.12,2.46,2.89,0,5C1032.24,602.8,1031.71,601.13,1031,599.46Z" transform="translate(-849 -433)"/><path class="cls-68" d="M872.52,508.55c1.34.06,2.68.66,4-.05C875.48,510.52,874.69,510.53,872.52,508.55Z" transform="translate(-849 -433)"/><path class="cls-6" d="M1040,517.51c-.7-2-1.83-3.84-2-6A9.72,9.72,0,0,1,1040,517.51Z" transform="translate(-849 -433)"/><path class="cls-32" d="M1050.47,524c0,2.33,0,4.66,0,7A10.42,10.42,0,0,1,1050.47,524Z" transform="translate(-849 -433)"/><path class="cls-68" d="M869.57,513c1-1.42-.06-3.94,2.48-4.49C870.57,509.68,871.51,512.16,869.57,513Z" transform="translate(-849 -433)"/><path class="cls-41" d="M968.51,449a3.07,3.07,0,0,0,3.23,1.55c.76-.06,1.62-.24,2.27.45-1.15,0-2.3,0-3.44,0C969.14,451.11,968.38,450.54,968.51,449Z" transform="translate(-849 -433)"/><path class="cls-69" d="M1031.46,484.54l3.51,4A5.06,5.06,0,0,1,1031.46,484.54Z" transform="translate(-849 -433)"/><path class="cls-6" d="M1045.36,494.54l.6,2.49c-1-1.4-2.29-2.66-2.49-4.51Z" transform="translate(-849 -433)"/><path class="cls-70" d="M982.48,618.94c0-.18,0-.36,0-.54v0c1.75,0,3.18-1.54,5-1H988A8.13,8.13,0,0,1,982.48,618.94Z" transform="translate(-849 -433)"/><path class="cls-37" d="M899.52,594.47v-1a5.53,5.53,0,0,1,2,2c0,.34,0,.68,0,1A5.51,5.51,0,0,1,899.52,594.47Z" transform="translate(-849 -433)"/><path class="cls-69" d="M1036,488.52c1.43-.69,2.74-2.59,4.49-.49C1038.83,487,1037.51,488.79,1036,488.52Z" transform="translate(-849 -433)"/><path class="cls-14" d="M908.53,460.55c1.15-1,2.29-2.05,4-2C911.28,459.38,910.18,460.5,908.53,460.55Z" transform="translate(-849 -433)"/><path class="cls-58" d="M918.08,470.67c-1,.69-1.75,1.7-3.06,1.79-.24-.52.23-.67.49-.93a3,3,0,0,1,2-1,.29.29,0,0,1,.51,0Z" transform="translate(-849 -433)"/><path class="cls-63" d="M893,473.52a3.21,3.21,0,0,1,1.51-1.49.66.66,0,0,1,1,0c-.61.94-1.22,1.87-2.49,2-.15-.11-.21-.23-.16-.34S893,473.52,893,473.52Z" transform="translate(-849 -433)"/><path class="cls-71" d="M915.51,471.53l-.49.93-1.57,1.06a.59.59,0,0,1-.93,0C913.23,472.44,914,471.41,915.51,471.53Z" transform="translate(-849 -433)"/><path class="cls-27" d="M929.54,451.07c-.15-1.15,1-1.36,1.49-2l1.48-.05a.7.7,0,0,1,1,0C932.22,449.79,930.61,449.89,929.54,451.07Z" transform="translate(-849 -433)"/><path class="cls-14" d="M909.52,466l-1,.51c0-1.16,0-2.33,0-3.5A4.69,4.69,0,0,1,909.52,466Z" transform="translate(-849 -433)"/><path class="cls-67" d="M913.52,457.54c1.11-.77,1.87-2.17,3.52-2C915.9,456.28,915.16,457.71,913.52,457.54Z" transform="translate(-849 -433)"/><path class="cls-20" d="M1049.93,508.54c1.14-.15,1.36.94,2,1.48l0,2C1051.28,510.86,1050.6,509.7,1049.93,508.54Z" transform="translate(-849 -433)"/><path class="cls-29" d="M889,499.52a5.47,5.47,0,0,1-2,3.5A5.36,5.36,0,0,1,889,499.52Z" transform="translate(-849 -433)"/><path class="cls-6" d="M1041.47,523c-.49-1.17-1-2.35-1.46-3.53C1041.5,520.23,1041.58,521.58,1041.47,523Z" transform="translate(-849 -433)"/><path class="cls-58" d="M912.52,473.53h.94c-.54,1-1.57,1.36-2.48,1.88A2.55,2.55,0,0,1,912.52,473.53Z" transform="translate(-849 -433)"/><path class="cls-62" d="M974.5,459a7.56,7.56,0,0,1-3.5-1C972.21,458.21,973.67,457.5,974.5,459Z" transform="translate(-849 -433)"/><path class="cls-34" d="M1031,596.47c0,1,0,2,0,3C1029.32,598.46,1030.07,597.47,1031,596.47Z" transform="translate(-849 -433)"/><path class="cls-6" d="M1041.45,525c0-.67,0-1.34,0-2a5,5,0,0,1,.09,4.52C1041.52,526.69,1041.49,525.86,1041.45,525Z" transform="translate(-849 -433)"/><path class="cls-69" d="M1031,480l-.48,2.5C1029.13,481.63,1029.17,481.43,1031,480Z" transform="translate(-849 -433)"/><path class="cls-67" d="M1001.48,455.53c1-1.81,2-1.14,3,0C1003.48,455.37,1002.48,454.74,1001.48,455.53Z" transform="translate(-849 -433)"/><path class="cls-67" d="M917.52,455.54a1.78,1.78,0,0,1,3-.46Z" transform="translate(-849 -433)"/><path class="cls-3" d="M1052,567a4.83,4.83,0,0,1-1,3.49A5.2,5.2,0,0,1,1052,567Z" transform="translate(-849 -433)"/><path class="cls-51" d="M946.51,459.05c-1.24,1-2.68.28-4,.49C943.74,458.55,945.18,459.25,946.51,459.05Z" transform="translate(-849 -433)"/><path class="cls-72" d="M922,457.54a4.66,4.66,0,0,0,3,0C924,458.93,923,459,922,457.54Z" transform="translate(-849 -433)"/><path class="cls-73" d="M904,609.46h-2.5C902.35,608.14,903.19,608.11,904,609.46Z" transform="translate(-849 -433)"/><path class="cls-30" d="M1013,613.45c.17,1.17.34,2.34.5,3.51C1012.53,615.9,1012,614.79,1013,613.45Z" transform="translate(-849 -433)"/><path class="cls-3" d="M1049,571c-1-.17-1.94-.68-3-.5C1047.13,569.66,1048.15,569.69,1049,571Z" transform="translate(-849 -433)"/><path class="cls-71" d="M928.51,464a4.6,4.6,0,0,1-2.5,1.5A2.39,2.39,0,0,1,928.51,464Z" transform="translate(-849 -433)"/><path class="cls-14" d="M908,463c-.07-.86-1-1.91.49-2.46,0,.83,0,1.66,0,2.49Z" transform="translate(-849 -433)"/><path class="cls-69" d="M1032,477c1.1,1.4-.17,1.85-1,2.49Z" transform="translate(-849 -433)"/><path class="cls-72" d="M926,457.54a4.52,4.52,0,0,1,2.51-1.49A2.4,2.4,0,0,1,926,457.54Z" transform="translate(-849 -433)"/><path class="cls-67" d="M997.46,457.57a4.86,4.86,0,0,0,2.51,0C999.15,458.93,998.31,458.81,997.46,457.57Z" transform="translate(-849 -433)"/><path class="cls-13" d="M884,592.47c-.83.71-1.67,1.58-2.48,0Z" transform="translate(-849 -433)"/><path class="cls-40" d="M933.51,449.05l-1,0a4.84,4.84,0,0,1,3-1A2.82,2.82,0,0,1,933.51,449.05Z" transform="translate(-849 -433)"/><path class="cls-57" d="M942.5,620l2.61-.05a.8.8,0,0,1,.94.5C944.85,620.34,943.58,620.89,942.5,620Z" transform="translate(-849 -433)"/><path class="cls-29" d="M886.54,505a4.75,4.75,0,0,1-1.51,2.5A2.36,2.36,0,0,1,886.54,505Z" transform="translate(-849 -433)"/><path class="cls-62" d="M950,458.52l-2.52.51C948.16,458,949,457.64,950,458.52Z" transform="translate(-849 -433)"/><path class="cls-74" d="M1020.47,609.46h-2C1019.14,608.28,1019.81,608.24,1020.47,609.46Z" transform="translate(-849 -433)"/><path class="cls-30" d="M1007.48,622.46a2.37,2.37,0,0,1-2,1.49A2.37,2.37,0,0,1,1007.48,622.46Z" transform="translate(-849 -433)"/><path class="cls-71" d="M918,470.47l-.51,0A1.44,1.44,0,0,1,919,469Z" transform="translate(-849 -433)"/><path class="cls-57" d="M940.46,619a2.48,2.48,0,0,1,2,1A1.91,1.91,0,0,1,940.46,619Z" transform="translate(-849 -433)"/><path class="cls-72" d="M921.51,456.56l.5,1a1.38,1.38,0,0,1-1.48-1.51Z" transform="translate(-849 -433)"/><path class="cls-29" d="M891.52,496a3,3,0,0,1-1.49,1.49A1.4,1.4,0,0,1,891.52,496Z" transform="translate(-849 -433)"/><path class="cls-30" d="M1004,624.46a1.65,1.65,0,0,1-2.49,0Z" transform="translate(-849 -433)"/><path class="cls-3" d="M893,473.52c0,.18,0,.35,0,.52a1.5,1.5,0,0,1-1.51,1A3.4,3.4,0,0,1,893,473.52Z" transform="translate(-849 -433)"/><path class="cls-3" d="M1053,564.47a2.68,2.68,0,0,1-1,2A1.79,1.79,0,0,1,1053,564.47Z" transform="translate(-849 -433)"/><path class="cls-23" d="M953,629.46c-.84-.13-1.79.29-2.5-.5C951.34,629.07,952.3,628.61,953,629.46Z" transform="translate(-849 -433)"/><path class="cls-3" d="M895.52,472h-1a3.33,3.33,0,0,1,1.49-1.5C895.85,471,895.69,471.53,895.52,472Z" transform="translate(-849 -433)"/><path class="cls-75" d="M1043.48,504.52a2.73,2.73,0,0,1,1,2A1.77,1.77,0,0,1,1043.48,504.52Z" transform="translate(-849 -433)"/><path class="cls-57" d="M992.48,455.05a1.77,1.77,0,0,1,0-2.54C992.46,453.36,992.47,454.2,992.48,455.05Z" transform="translate(-849 -433)"/><path class="cls-76" d="M1031,515.51c4.53,12.48,5.16,25.33,2.93,38.26-2.11,12.24-7.53,23.09-15.29,32.78a17.92,17.92,0,0,1-1.59,1.55,1.25,1.25,0,0,1-.44-1.13c1.37-3.14,3.82-5.56,5.59-8.46a74.63,74.63,0,0,0,9.76-24.54,68.8,68.8,0,0,0,.75-23.5c-.74-5.13-1.47-10.35-3.73-15.14a2.4,2.4,0,0,1-.2-2.15.48.48,0,0,1,.7-.17.49.49,0,0,1,.07.35A10,10,0,0,1,1031,515.51Z" transform="translate(-849 -433)"/><path class="cls-77" d="M999,603.5a69,69,0,0,1-21.23,8.68,78.88,78.88,0,0,1-29.88.75A33.9,33.9,0,0,1,937.41,610a1.34,1.34,0,0,1,.92-.57,3.55,3.55,0,0,1,1.45.1,19.42,19.42,0,0,0,2.58,1c.23,0,.45.12.68.19,2.25.31,4.48.78,6.7,1.25.25,0,.49.11.73.18,2.16.43,4.36,0,6.52.29a3.7,3.7,0,0,1,.75.16,19.51,19.51,0,0,0,6.38,0,4.67,4.67,0,0,1,.74-.17c2-.28,4,0,6.06-.25a5.71,5.71,0,0,1,.71-.19,41.71,41.71,0,0,0,4.54-.86,5.94,5.94,0,0,1,.7-.17,13.83,13.83,0,0,0,5.19-1.4,102.51,102.51,0,0,0,14.36-6.11c.8-.4,1.52-1.06,2.52-.62A.45.45,0,0,1,999,603.5Z" transform="translate(-849 -433)"/><path class="cls-77" d="M892,566.5c-1.61-1.94-1.88-4.44-2.53-6.7-2.51-8.72-2.85-17.69-2.27-26.7a48.71,48.71,0,0,1,2.29-12.18,1.54,1.54,0,0,1,.62,1.05,8.17,8.17,0,0,1-.31,3.26,29.94,29.94,0,0,1-.79,4.39c-.54,1.59-.09,3.29-.48,4.9a48.69,48.69,0,0,0-.15,10.38,6.82,6.82,0,0,1,.19.78c.29,1.68-.09,3.41.37,5.08a14.19,14.19,0,0,1,.31,1.47,17.43,17.43,0,0,1,.48,2.86c.06.35.16.69.24,1,.22.9.09,1.9.74,2.69.79,2.5,2,4.91,2,7.62A.48.48,0,0,1,892,566.5Z" transform="translate(-849 -433)"/><path class="cls-37" d="M936.94,470c11-4.45,22.46-4.75,34-3.46.34.38,1.85.37.43,1.32-4.44-.08-8.89-.06-13.33-.08a49.21,49.21,0,0,0-8.14.45,16,16,0,0,0-4.85.78c-2.39.41-4.55,1.85-7.1,1.59A1.59,1.59,0,0,1,936.94,470Z" transform="translate(-849 -433)"/><path class="cls-8" d="M978.55,468c5.46.89,10.41,3.2,15.35,5.51a48.35,48.35,0,0,1,10.49,6.54,1.39,1.39,0,0,1-.66.34c-2.22-.16-3.67-1.82-5.41-2.87a84.1,84.1,0,0,0-15.64-7c-.83-.41-1.72-.69-2.59-1l-.66-.24c-.8-.46-2.37.36-2.36-1.43A2,2,0,0,1,978.55,468Z" transform="translate(-849 -433)"/><path class="cls-78" d="M892.89,511.47a61.1,61.1,0,0,1,14.5-22.07.77.77,0,0,1,.41.55c-.76,2.37-2.69,3.94-4.12,5.83a95.65,95.65,0,0,0-9,14.32c-.31.59-.5,1.24-1.16,1.56A.79.79,0,0,1,892.89,511.47Z" transform="translate(-849 -433)"/><path class="cls-79" d="M975.49,620v.48c-5.63,1.26-11.35.9-17,1.08-4.1.12-8.06-.61-12.07-1.13,2.29-1.14,4.59,0,6.79.22,6,.75,11.93.28,17.87-.34A39.14,39.14,0,0,1,975.49,620Z" transform="translate(-849 -433)"/><path class="cls-32" d="M999,603.5l0-.59c-.15-1.06.7-1.45,1.37-1.87a52.26,52.26,0,0,0,11.7-9.57,2.38,2.38,0,0,1,1.46-.87,1.16,1.16,0,0,1,1,.38A55.83,55.83,0,0,1,999,603.5Z" transform="translate(-849 -433)"/><path class="cls-14" d="M907.39,489.4A52.38,52.38,0,0,1,917.91,480a1.09,1.09,0,0,1,1.06-.09c.47.92-.22,1.42-.78,1.84a57,57,0,0,0-8.66,7.31c-.48.53-1.11,1.06-1.95.54Z" transform="translate(-849 -433)"/><path class="cls-23" d="M929,606.51a43.78,43.78,0,0,1-10.49-6,.45.45,0,0,1,0-.66,1.48,1.48,0,0,1,1.64,0c2.85,1.91,6,3.29,8.77,5.36a1.14,1.14,0,0,1,.31.66A1,1,0,0,1,929,606.51Z" transform="translate(-849 -433)"/><path class="cls-67" d="M919,480l-1.11,0A44.59,44.59,0,0,1,930,472.93a.85.85,0,0,1,.18.69c-1.36,2.07-3.8,2.55-5.75,3.68C922.69,478.3,921.26,480,919,480Z" transform="translate(-849 -433)"/><path class="cls-34" d="M929,606.51l0-.56c2.57-.4,8.14,1.93,9.51,4l-1.12.1A29.75,29.75,0,0,1,929,606.51Z" transform="translate(-849 -433)"/><path class="cls-42" d="M1019,494.08c2.52,2.78,4.88,5.68,6.1,9.31l-.27.24a1.25,1.25,0,0,1-1.06-.54c-1.68-2.69-3.67-5.18-5.15-8A1.27,1.27,0,0,1,1019,494.08Z" transform="translate(-849 -433)"/><path class="cls-80" d="M1029.46,513H1029c-2-2.87-3.83-5.79-4.07-9.41l.16-.21C1027.26,506.27,1029.37,509.18,1029.46,513Z" transform="translate(-849 -433)"/><path class="cls-58" d="M918.52,600v.52a31.09,31.09,0,0,1-8-6.47.4.4,0,0,1-.15-.41c0-.15.07-.22.11-.22.22-.12.54-.28.69-.16C913.69,595.38,916.77,597,918.52,600Z" transform="translate(-849 -433)"/><path class="cls-6" d="M930,473.53l0-.6a24.49,24.49,0,0,1,7-2.92l1.11.06c0,.17.06.38,0,.47A10,10,0,0,1,930,473.53Z" transform="translate(-849 -433)"/><path class="cls-68" d="M904.89,588c-1.92-1.47-3-3.62-4.41-5.49a1,1,0,0,1-.06-1.06c2.37.82,5.12,4.32,5.17,6.56A.56.56,0,0,1,904.89,588Z" transform="translate(-849 -433)"/><path class="cls-81" d="M892,566.5l.55,0c1.72,2.41,3.71,4.68,3.67,7.91a.46.46,0,0,1-.66.09C894.19,571.9,892.42,569.49,892,566.5Z" transform="translate(-849 -433)"/><path class="cls-82" d="M1019,494.08V495c-2.57-1-3.85-3.1-4.87-5.45a1.07,1.07,0,0,1,.4-.62A19.55,19.55,0,0,1,1019,494.08Z" transform="translate(-849 -433)"/><path class="cls-34" d="M892.89,511.47l.64,0a5.22,5.22,0,0,1-2.55,6.07,1,1,0,0,1,0-1.14A16.12,16.12,0,0,1,892.89,511.47Z" transform="translate(-849 -433)"/><path class="cls-37" d="M904.89,588l.64-.07a9.42,9.42,0,0,1,5,5.46l0,.58A24.13,24.13,0,0,1,904.89,588Z" transform="translate(-849 -433)"/><path class="cls-8" d="M1003.9,480.08a3.91,3.91,0,0,1,.49,0,24.7,24.7,0,0,1,5.61,4.47,1.13,1.13,0,0,1-.65.37C1007,483.85,1004.7,482.83,1003.9,480.08Z" transform="translate(-849 -433)"/><path class="cls-83" d="M978.55,468l-1.56.05c-1.65,1-3.11-.33-4.68-.37l-.27-.22-1-.91A13.94,13.94,0,0,1,978.55,468Z" transform="translate(-849 -433)"/><path class="cls-78" d="M1014.5,591l-1,0c.45-2,1.87-3.07,3.51-4,0,.38,0,.76,0,1.14A6.92,6.92,0,0,1,1014.5,591Z" transform="translate(-849 -433)"/><path class="cls-17" d="M900.53,581.47c0,.36,0,.72,0,1.08a15.9,15.9,0,0,1-3-4.55.92.92,0,0,1,.67-.21A3.92,3.92,0,0,1,900.53,581.47Z" transform="translate(-849 -433)"/><path class="cls-78" d="M1014.51,489l0,.59c-2.13,0-2.92-.76-3.12-3a.43.43,0,0,1,.69,0A8.73,8.73,0,0,1,1014.51,489Z" transform="translate(-849 -433)"/><path class="cls-84" d="M891,516.44l.06,1.09c1.07,1.7-.12,3-.78,4.38a.54.54,0,0,1-.71.11l-.09-1.1A13.14,13.14,0,0,1,891,516.44Z" transform="translate(-849 -433)"/><path class="cls-15" d="M898,578l-.58,0c-.7-1.14-1.77-2.07-1.89-3.52H896C897.53,575.17,898.63,576.08,898,578Z" transform="translate(-849 -433)"/><path class="cls-65" d="M987.48,617.45c-1.74,0-3.19,1.5-5,1a12,12,0,0,1,5-1.55Z" transform="translate(-849 -433)"/><path class="cls-82" d="M1012,486.5l-.58,0c-1.78.46-2.07-.59-2-2l.55,0A6.76,6.76,0,0,1,1012,486.5Z" transform="translate(-849 -433)"/><path class="cls-8" d="M1031,515.51a2.91,2.91,0,0,1-1.45-2.14A1.81,1.81,0,0,1,1031,515.51Z" transform="translate(-849 -433)"/><path class="cls-85" d="M893.59,494.12c0-.36,0-.72,0-1.09l1.53-1A3.67,3.67,0,0,1,893.59,494.12Z" transform="translate(-849 -433)"/><path class="cls-2" d="M1009.45,484.56c.52.81.73,1.94,2,2a4.15,4.15,0,0,0,3,3A26.93,26.93,0,0,0,1019,495l5.94,8.58q2,4.69,4.06,9.41c.21,2.56,1.81,4.63,2.35,7.18,1,4.5,2.21,9,2.53,13.54a74.15,74.15,0,0,1-1.7,22.94,76.65,76.65,0,0,1-5.64,15.4A86.08,86.08,0,0,1,1017,587l-3.51,4c-4.15,4.82-9.43,8.26-14.51,11.95-4.27,2.31-8.78,4.09-13.19,6.1a8.19,8.19,0,0,1-3.78,1,21.34,21.34,0,0,1-5.5,1.49h0c-1.65.4-3.39.33-5,1h0c-2.3.68-4.71-.21-7,.5h0a20.57,20.57,0,0,1-7,0h0c-2.46-.72-5,.19-7.5-.5h0a41.58,41.58,0,0,0-7.49-1.5h0c-.79-.45-1.7-.59-2.5-1l-1.48-.05c-2.91-1.95-6.3-2.75-9.51-4-3.41-2.16-6.7-4.52-10.5-6l-8-6.53-5-5.46a27.49,27.49,0,0,0-5-6.5c-.88-1.13-1.35-2.56-2.51-3.49-.06-1.52-1.3-2.35-2-3.5,0-2.27-1.89-3.75-2.56-5.76-.24-.75-.87-1.38-.93-2.24-.83-2.5-1.67-5-2.5-7.5-.65-.91.15-2.08-.52-3l-.45-.48c.27-1.09.64-2.2-.52-3l0-1.48c-.67-1.79.19-3.71-.5-5.5h0c-.54-3.07-.12-6.17-.23-9.26.92-2.17.12-4.52.73-6.73l.53-4.47c1.3-.69.31-2.12,1-3-.12-1.6,1.34-2.83,1-4.48a12.61,12.61,0,0,0,2.47-6c3.17-7.51,7.85-14.06,13.05-20.27a3.25,3.25,0,0,0,1-1.66c2.8-1.48,4.52-4.22,7-6,1.51-1.07,3.41-1.75,4.39-3.51,3.45-2.52,7.32-4.34,11-6.5,2.77-.94,5.7-1.5,8-3.46,2.48.21,4.53-1.5,7-1.53,1.49-.37,3.07-.36,4.5-1a116.16,116.16,0,0,1,22.53-.08l0,0a76.81,76.81,0,0,0,8,1.55h0c.68.71,1.67.66,2.51,1a64.28,64.28,0,0,1,19,8.82,6.93,6.93,0,0,0,2.4,1.23A20.72,20.72,0,0,0,1009.45,484.56Z" transform="translate(-849 -433)"/><path class="cls-34" d="M942.51,611a14.29,14.29,0,0,1,7.49,1.5A38.24,38.24,0,0,1,942.51,611Z" transform="translate(-849 -433)"/><path class="cls-34" d="M950,612.46c2.5.28,5.06-.59,7.5.5C955,612.69,952.44,613.55,950,612.46Z" transform="translate(-849 -433)"/><path class="cls-34" d="M964.5,613c2.27-1,4.67-.25,7-.5C969.23,613.5,966.83,612.73,964.5,613Z" transform="translate(-849 -433)"/><path class="cls-34" d="M957.5,613h7A10.63,10.63,0,0,1,957.5,613Z" transform="translate(-849 -433)"/><path class="cls-34" d="M976.49,611.46,982,610C980.4,611.36,978.48,611.52,976.49,611.46Z" transform="translate(-849 -433)"/><path class="cls-34" d="M971.5,612.46c1.48-1.23,3.26-1,5-1A11.13,11.13,0,0,1,971.5,612.46Z" transform="translate(-849 -433)"/><path class="cls-34" d="M940,610a2.84,2.84,0,0,1,2.5,1A2.92,2.92,0,0,1,940,610Z" transform="translate(-849 -433)"/><path class="cls-84" d="M888,536q0,4.74,0,9.48a25,25,0,0,1,0-11A1.26,1.26,0,0,1,888,536Z" transform="translate(-849 -433)"/><path class="cls-34" d="M888,536c0-.51,0-1,0-1.52.23-1.66-.5-3.41.51-5C888.26,531.66,889.1,533.91,888,536Z" transform="translate(-849 -433)"/><path class="cls-14" d="M888,545.49c1.05,1.76.24,3.68.5,5.5C887.48,549.24,888.27,547.32,888,545.49Z" transform="translate(-849 -433)"/><path class="cls-34" d="M890,522c-.32,1,.76,2.47-1,3a6.35,6.35,0,0,0,.51-3Z" transform="translate(-849 -433)"/><path class="cls-14" d="M888.55,552.47c1.7.75,1,1.91.52,3A6.24,6.24,0,0,0,888.55,552.47Z" transform="translate(-849 -433)"/><path class="cls-14" d="M889.52,556c.92.87.35,2,.52,3C889.12,558.11,889.69,557,889.52,556Z" transform="translate(-849 -433)"/><path class="cls-6" d="M949.51,467.54c-1.33,1.09-2.92,1-4.5,1A10.9,10.9,0,0,1,949.51,467.54Z" transform="translate(-849 -433)"/><path class="cls-14" d="M980,469c-2.73-.15-5.53.06-8-1.55,1.76-.79,3.28.64,5,.56C977.76,469.06,979.23,468,980,469Z" transform="translate(-849 -433)"/><path class="cls-14" d="M982.5,470c-1,0-2,.17-2.51-1A4.92,4.92,0,0,1,982.5,470Z" transform="translate(-849 -433)"/><path class="cls-86" d="M945,520.49c2.23-2,5-3,7.52-4.59,5.42-3.35,11-6.43,16.55-9.6A4.11,4.11,0,0,1,970,506c2.6-1.23,4-.33,4,2.7,0,8.85,0,17.71,0,26.57,0,.92-.6,2.54,1.46,2.22,1-.58,1.78-1.44,3-1.51.57-.53,1.36-.6,2-1h0a1.32,1.32,0,0,1,1.56,0c.07,1-.73,1.46-1.45,1.81-1.79.88-3.57,1.79-5.4,2.58-2.11.91-3.1.28-3.34-2.05a25.06,25.06,0,0,1-.05-2.74c0-8.15,0-16.31,0-24.46,0-2.61-.5-3-2.73-1.63-5.42,3.25-11,6.26-16.45,9.43A26.42,26.42,0,0,1,946.1,521,1.42,1.42,0,0,1,945,520.49Z" transform="translate(-849 -433)"/><path class="cls-30" d="M982.07,535l-1.58,0c4.45-2.22,8.89-4.46,13.35-6.66,4.92-2.43,9.86-4.83,14.79-7.25,2.76-1.36,4-.42,4.43,2.55s-1.16,4.54-3.2,5.52c-3.17,1.53-6.22,3.29-9.38,4.84-.32-.87.32-1.38.72-2,1.91-1.65,4.28-2.53,6.41-3.8a9.31,9.31,0,0,0,3-2.21c.62-.84,1.06-1.83.32-2.75s-1.69-.56-2.52-.14q-5.13,2.57-10.27,5.09c-4.63,2.25-9.26,4.51-14,6.63C983.5,535.14,982.82,535.58,982.07,535Z" transform="translate(-849 -433)"/><path class="cls-87" d="M976.5,547c-1.76,1.55-2.1,3.51-2,5.79.13,5.82.38,11.66-.05,17.45s-1.07,11.4-3.4,16.73a1.83,1.83,0,0,1-.58-1.08,6.51,6.51,0,0,1-.07-1.25c.83-3.83,1.68-7.65,2.21-11.54.52-4.45.12-8.91.22-13.36.09-3.38-.07-6.77.08-10.15.35-1.58,1.13-2.75,2.87-3A1.26,1.26,0,0,1,976.5,547Z" transform="translate(-849 -433)"/><path class="cls-54" d="M938,603a20.66,20.66,0,0,1-12.45-9.44c-4-6.35-4.21-13.11-1.76-20.06A2.37,2.37,0,0,1,925,572a1.46,1.46,0,0,1,.49,1c-1.08,4.46-2,8.89-1,13.55,1.39,6.37,4.86,11,10.81,13.74a8.2,8.2,0,0,1,3.2,1.86,1,1,0,0,1,.13.76A.37.37,0,0,1,938,603Z" transform="translate(-849 -433)"/><path class="cls-30" d="M975.49,537.5c-2.31,1-2-.78-2-2,0-7.95,0-15.9,0-23.85,0-1,0-2,0-3,0-2.73-.72-3.26-3.51-2.69a1.91,1.91,0,0,1,2.78-.76,3.22,3.22,0,0,1,1.75,3.27c-.06,8.85,0,17.71,0,26.56C974.52,536,974,537.19,975.49,537.5Z" transform="translate(-849 -433)"/><path class="cls-88" d="M952,479.53c.1-1.66,1.59-2,2.63-2.74,3.25-2.15,11.25-2.16,14.92,2,4.3,4.9,4.79,11.32,1,15.87A25.49,25.49,0,0,1,968,497a.79.79,0,0,1-1,.05c-.23-1,.45-1.55,1-2.13,3.44-3.53,4.42-7.58,2.36-12.1s-5.87-6.09-10.54-6.16h-.5a5.76,5.76,0,0,0-3.82,1.12c-.46.32-.88.69-1.33,1C953.44,479.12,952.91,479.89,952,479.53Z" transform="translate(-849 -433)"/><path class="cls-89" d="M955,547.49a5.06,5.06,0,0,0,.5-2.89c0-5.48,0-11,0-16.43,0-2.52-.43-2.9-2.73-2-3.12,1.25-6.12,2.78-9.23,4.06-2.11.86-4.07,2.18-6.45,2.27a.39.39,0,0,1-.66-.08c.12-1.12,1.07-1.44,1.87-1.79,5.11-2.21,10.19-4.52,15.34-6.65,1.6-.67,2.79-.51,3,1.53,0,7,.16,14-.06,21.05a2.3,2.3,0,0,1-.37.83A.89.89,0,0,1,955,547.49Z" transform="translate(-849 -433)"/><path class="cls-90" d="M966.84,496.94,968,497a5.59,5.59,0,0,1-4.55,2c-2.91-.17-5.88.62-8.65-1.29-3.46-2.38-6-5.12-5.76-9.61.09-1.53-.53-3.15.48-4.58,1.39,2.13.24,4.57.84,6.79a6.79,6.79,0,0,0,1.07,1.53c1.52,1.95,3,3.93,5.41,4.93a9.4,9.4,0,0,0,7.44.35C965.08,496.81,965.93,496.29,966.84,496.94Z" transform="translate(-849 -433)"/><path class="cls-91" d="M936.36,532.44l.72.09-1.06,1c-.7.67-1.69.63-2.51,1-1-.1-2.48.46-2.79-.91-.38-1.63-.73-3.43.46-5a9.94,9.94,0,0,1,3.4-2.44l10.4-5.67,1.07,0c-.16,1.53-1.53,1.86-2.57,2.39-2.74,1.39-5.36,3-8.09,4.39-1.39.71-2.81,1.52-3.32,3.19-.19.63-.42,1.32.1,1.89s1.2.4,1.86.21S935.54,531.79,936.36,532.44Z" transform="translate(-849 -433)"/><path class="cls-92" d="M971,585v1c-.83,1.93-1.21,4.1-3,5.54,0,.15,0,.3,0,.46-.37.64-.45,1.43-1,2-1.39.83-1.91,2.41-3,3.51-1.94,1.4-3.68,3.07-5.89,4.07-.65.41-1.46.5-2.08,1-.38.57-1,.48-1.52.49l-.34-.14a.93.93,0,0,1-.31-.64,2.47,2.47,0,0,1,1.66-1.38c6-2.44,10-6.85,12.72-12.64.55-1.18,1-2.49,2.08-3.33A.63.63,0,0,1,971,585Z" transform="translate(-849 -433)"/><path class="cls-75" d="M955,547.49h1c.23,1-.49,1.58-1.21,1.93-4,1.93-7.78,4.37-11.64,6.6a3.13,3.13,0,0,1-1.66.44,1.4,1.4,0,0,1-1-.49C945.22,553,949.83,549.75,955,547.49Z" transform="translate(-849 -433)"/><path class="cls-93" d="M976.5,547l-.51,0a.78.78,0,0,1-.22-.68,1.72,1.72,0,0,1,.92-1.11C980.14,543.5,983.2,541,987,540a1.37,1.37,0,0,1,1,.48c-1.72,1.65-4.12,2.12-6,3.51a26.39,26.39,0,0,1-5,3Z" transform="translate(-849 -433)"/><path class="cls-12" d="M925,573c0-.35,0-.7,0-1.06a16.86,16.86,0,0,1,7-9,1,1,0,0,1,.19.67c-1.13,2.52-3.41,4.17-4.89,6.45C926.63,571.08,926.56,572.64,925,573Z" transform="translate(-849 -433)"/><path class="cls-94" d="M932,563.47c0-.17,0-.35,0-.53,1.79-2.43,4.47-3.8,6.79-5.6.57-.44,1.14-.91,1.71-1.36l1.13.08a1.37,1.37,0,0,1-.57,1.3c-2.51,2-5.08,3.95-7.66,5.86A1.28,1.28,0,0,1,932,563.47Z" transform="translate(-849 -433)"/><path class="cls-92" d="M950,491c-1.07-2.44-.25-5-.49-7.5a15.78,15.78,0,0,1,2.49-4c.69-.26,1.09-1,1.92-1a.9.9,0,0,1-.1,1.14c-2.78,2.93-3.38,6.52-3.24,10.35A1.65,1.65,0,0,1,950,491Z" transform="translate(-849 -433)"/><path class="cls-95" d="M988,540.5l-1.13-.07c.74-2.08,2.85-2.43,4.45-3.29,1.77-.94,3.3-2.65,5.62-2.29a.45.45,0,0,1,.06.66A88.72,88.72,0,0,1,988,540.5Z" transform="translate(-849 -433)"/><path class="cls-96" d="M938,603l.5,0a2,2,0,0,1,1.88-.29,24.18,24.18,0,0,0,11.5,0,3.25,3.25,0,0,1,2.61.28v0A20.84,20.84,0,0,1,938,603Z" transform="translate(-849 -433)"/><path class="cls-89" d="M958,601.46a37.54,37.54,0,0,1,6-4c-1.54,1.73-3,3.53-5.49,4A.3.3,0,0,1,958,601.46Z" transform="translate(-849 -433)"/><path class="cls-56" d="M997,535.51V535a4,4,0,0,1,4.48-2.53l-1,1.55Z" transform="translate(-849 -433)"/><path class="cls-89" d="M968,591.51q1.47-2.78,3-5.54c0,.33,0,.67,0,1C969.92,588.43,970.28,590.83,968,591.51Z" transform="translate(-849 -433)"/><path class="cls-87" d="M977,547a16.32,16.32,0,0,1,5-3C980.85,545.89,979,546.61,977,547Z" transform="translate(-849 -433)"/><path class="cls-96" d="M958,601.46h.52a3.12,3.12,0,0,1-2.48,1A2.51,2.51,0,0,1,958,601.46Z" transform="translate(-849 -433)"/><path class="cls-34" d="M933.51,534.49a5,5,0,0,1,2.51-1C935.5,534.66,934.48,534.5,933.51,534.49Z" transform="translate(-849 -433)"/><path class="cls-89" d="M967,594a2.83,2.83,0,0,1,1-2C968,592.82,967.92,593.6,967,594Z" transform="translate(-849 -433)"/><path class="cls-30" d="M980.49,535a2.7,2.7,0,0,1-2,1A1.78,1.78,0,0,1,980.49,535Z" transform="translate(-849 -433)"/><path class="cls-1" d="M1001.46,532.45A14.93,14.93,0,0,0,997,535a61.65,61.65,0,0,0-10.12,5.45,111.79,111.79,0,0,0-10.89,6,4.47,4.47,0,0,0-3,4.82c.17,4-.05,8,.06,11.94A67,67,0,0,1,970.47,585c-2.15,4.38-4.09,8.86-7.89,12.22-2.6,2.3-5.69,3.64-8.68,5.22a24.47,24.47,0,0,1-15.39,0c-5.83-2.24-10.75-5.5-13.35-11.53a22.07,22.07,0,0,1-1.55-12.13A18.64,18.64,0,0,1,925,573c1.66-3.67,4.33-6.6,7-9.55l9.62-7.41c4.81-2.83,9.91-5.16,14.39-8.56h0c.57-2.8.24-5.62.22-8.42,0-4.72.32-9.45-.2-14.16-.26-1.16-1-.88-1.74-.57-6,2.68-11.95,5.39-17.92,8.08a7.81,7.81,0,0,0-1.39.46c-1.22.69-2.74,1.38-3.54,0a3.37,3.37,0,0,1,.93-4.27c3.2-2.55,7-4,10.54-6.1,1.06-.64,2.1-1.32,3.14-2,7.1-3.58,14-7.56,20.8-11.6,1.06-.63,2.18-1.17,3.22-1.84,1.81-1.17,2.43-.38,2.44,1.42,0,3,0,6,0,9v18.73c0,3.55.25,3.77,3.44,2.06,2-1.09,4.37-1.64,6.14-3.25,6.3-3,12.61-5.92,18.9-8.92,2.24-1.07,4.41-2.28,6.64-3.38,1.33-.65,3-1.69,4,0a3.3,3.3,0,0,1-1.3,4.58C1007.39,529.08,1004.41,530.74,1001.46,532.45Z" transform="translate(-849 -433)"/><path class="cls-97" d="M970.47,585c-.15-3,1.39-5.6,1.62-8.54.67-8.57.22-17.14.33-25.7,0-2.5,1.17-3.85,3.55-4.3,0,.19,0,.37,0,.55a3.73,3.73,0,0,0-2.5,2c-.56,2-.18,3.94-.24,5.91-.18,6.19.28,12.4-.25,18.59,0,3.94-1.42,7.64-2,11.48Z" transform="translate(-849 -433)"/><path class="cls-93" d="M973,573.49c0-7.39,0-14.78,0-22.16,0-.8-.28-1.69.48-2.34,0,7.3,0,14.61,0,21.91C973.48,571.77,973.79,572.74,973,573.49Z" transform="translate(-849 -433)"/><path class="cls-16" d="M938.51,602.45a11.41,11.41,0,0,1,4.39.57c3.76,1.06,7.33-.58,11-.61l.6.55c-2.24-.09-4.25,1.07-6.52,1a31.15,31.15,0,0,1-9.47-1.06Z" transform="translate(-849 -433)"/><path class="cls-1" d="M950.07,489.93c-.75-4.49.84-8.2,3.85-11.42l1.08-1a22.46,22.46,0,0,1,4-1.5c6.52-.05,10.13,2.15,12.28,7.57,1.56,3.92.57,7.45-1.89,10.66a32.35,32.35,0,0,1-2.58,2.66c-3.55,1.42-7,2.17-10.73.23a12.83,12.83,0,0,1-5.17-5.13A7.64,7.64,0,0,1,950.07,489.93Z" transform="translate(-849 -433)"/><path class="cls-92" d="M959,476.05c-1.3.61-2.5,1.48-4,1.5A4.92,4.92,0,0,1,959,476.05Z" transform="translate(-849 -433)"/><path class="cls-75" d="M956,524.93c.59.63.36,1.41.37,2.13,0,6,.07,11.91.05,17.86,0,.87.35,1.84-.44,2.59Q956,536.22,956,524.93Z" transform="translate(-849 -433)"/><path class="cls-98" d="M950.07,489.93a3.25,3.25,0,0,1,.87,2.11l-.94-1C950,490.66,950.05,490.29,950.07,489.93Z" transform="translate(-849 -433)"/><path class="cls-99" d="M937,586c-3.16-5.22-.86-9.68,1.93-14.08a1.43,1.43,0,0,1,.56,1c.23,1.61-.87,2.81-1.36,4.18-1.31,3.68-.55,7,1.49,10.11a.63.63,0,0,1-.41.55C938.09,587.67,937.6,586.77,937,586Z" transform="translate(-849 -433)"/><path class="cls-54" d="M956.05,570.12a22.12,22.12,0,0,1-2.94,11.9.56.56,0,0,1-.78-.13,1.67,1.67,0,0,1-.08-1.43c2.36-6,2.72-12.18,2.53-18.48,0-.9-.52-2,.56-2.68.64,0,.9.36.89.93C956.15,563.52,956.47,566.83,956.05,570.12Z" transform="translate(-849 -433)"/><path class="cls-12" d="M956.05,570.12c0-2.82,0-5.65-.06-8.47,0-.83.41-1.95-1-2.14-1.5,2.63-4.37,3.35-6.71,4.81a1.55,1.55,0,0,1-1.06-.12l-.24-.27c2.23-2.12,4.95-3.55,7.53-5.16,1.07-.66,1.91-.17,1.9,1C956.33,563.21,956.84,566.69,956.05,570.12Z" transform="translate(-849 -433)"/><path class="cls-100" d="M939,587.48h.52a.81.81,0,0,1,.71-.13c3.57,1.76,6.35.28,8.94-2.11.53-.49,1.07-1.11,2-.77a.83.83,0,0,1-.1,1c-3.49,4.5-8.38,5.54-12.06,2.57-.15-.13-.19-.26-.13-.39S938.93,587.48,939,587.48Z" transform="translate(-849 -433)"/><path class="cls-101" d="M939,573c0-.37,0-.74,0-1.11a6.25,6.25,0,0,1,2.4-3,.57.57,0,0,1,.7,0C942.33,571.21,940.74,572.16,939,573Z" transform="translate(-849 -433)"/><path class="cls-102" d="M942,569l-.67-.08c.56-1.44,1.83-2.17,3-3a.62.62,0,0,1,.68,0A3.15,3.15,0,0,1,942,569Z" transform="translate(-849 -433)"/><path class="cls-103" d="M951,585.48v-1a2,2,0,0,1,1.5-2.49l.61,0A4.44,4.44,0,0,1,951,585.48Z" transform="translate(-849 -433)"/><path class="cls-12" d="M945.05,566l-.68-.09a5.07,5.07,0,0,1,2.59-2l.07.09c.26.8-.35,1.19-.78,1.67C945.89,566,945.53,566.21,945.05,566Z" transform="translate(-849 -433)"/><path class="cls-104" d="M939,587.48c0,.19,0,.38,0,.57A2.33,2.33,0,0,1,937,586Z" transform="translate(-849 -433)"/><path class="cls-105" d="M945.05,566l1-.53c.71-.44,1.3-1.05,2-1.48l6.94-4.49a36.32,36.32,0,0,1-.15,14.28A31,31,0,0,1,952.5,582l-1.5,2.49c-.62.55-1.25,1.08-1.86,1.64-3.32,3-5.64,3.35-9.63,1.37-3.89-4.56-3.11-7.71-.9-12.83A4.36,4.36,0,0,0,939,573c.83-1.46,2.59-2.23,3-4A13.34,13.34,0,0,0,945.05,566Z" transform="translate(-849 -433)"/><path class="cls-102" d="M948,564a2.49,2.49,0,0,1-2,1.48l1-1.46Z" transform="translate(-849 -433)"/></svg>