<svg id="Layer_1" data-name="Layer 1" xmlns="http://www.w3.org/2000/svg" xmlns:xlink="http://www.w3.org/1999/xlink" viewBox="0 0 1985.37 2265.78"><defs><style>.cls-1,.cls-10{fill:none;}.cls-2{fill:#221e32;stroke-miterlimit:10;}.cls-10,.cls-2{stroke:#000;}.cls-3{fill:#d57258;}.cls-11,.cls-12,.cls-13,.cls-14,.cls-15,.cls-16,.cls-17,.cls-18,.cls-3,.cls-5,.cls-7,.cls-9{fill-rule:evenodd;}.cls-4{clip-path:url(#clip-path);}.cls-5{fill:#e39a67;}.cls-14,.cls-6{fill:#fff;}.cls-7{fill:#6e3b69;}.cls-8{clip-path:url(#clip-path-2);}.cls-9{fill:#976892;}.cls-10{stroke-linecap:round;stroke-linejoin:round;stroke-width:2.02px;}.cls-11{fill:#7f192d;}.cls-12{fill:#af3138;}.cls-13{fill:#45709c;}.cls-15{fill:#914258;}.cls-16{fill:#7c2c3b;}.cls-17{fill-opacity:0.36;}.cls-18{fill:#242422;}.cls-19{clip-path:url(#clip-path-3);}</style><clipPath id="clip-path" transform="translate(426.69 427.23)"><path class="cls-1" d="M551.63,178.94l19.46-15.82,1.07-4.34s-4.1-6.77,30.3-1.35S641,161.38,641,161.38s22.58,3,31.33,9.89,9.58,10,23.82,15.81,13-1.29,21.92,13.38,13.4,4.65,16.07,19.46,2.08,13.25,8.17,29.79,7.26,15.88,12.42,32.44,19.88,64.06,23.44,78.12,14.44,184.08,14.44,184.08l-.14,108L709.6,941.11l-20.79,67.64-10.43,124.59,42.89,151.92L694.67,1316l-68.86-19.1-112.42-52-65.7,16.19-8.27-47.47S621.9,995,626,984.48c14.15-36.45,46-118.87,47-125.07,1.28-8,5-74.63,7.13-88.34s3.26-47.72,1.6-57.73-21.55-63.76-21.55-74.58-30.9-62.18-30.9-62.18-31.48-27.38-38.43-32-40-22.78-40-22.78l-61.63-1.86-23.86-31.4-6.71-29.63-55.89-21.32-26.21-9.37,19.34-43.29,9.88-18.29L425.25,353l58.54,3.78L534.3,342l35.62-45.34s24.42-17.05,20.84-29-5-38.37-5-38.37l-17.59-33Z"/></clipPath><clipPath id="clip-path-2" transform="translate(426.69 427.23)"><path class="cls-1" d="M689,1316l-52.88-19.83L591,1288.29l-32-15.7-36-15.7s-22.7-10.56-36-3.93-44,23.56-44,23.56l-64,82.44L303.21,1500.3l-67.95,145.27-20,75.9H734.89l-20-126.94-24.67-176.67V1344.7Z"/></clipPath><clipPath id="clip-path-3" transform="translate(426.69 427.23)"><rect class="cls-1" x="-223.77" y="950.65" width="1175.68" height="788.1"/></clipPath></defs><ellipse class="cls-2" cx="992.69" cy="965.86" rx="992.19" ry="965.36"/><g id="svgg"><path class="cls-3" d="M551.63,178.94l19.46-15.82,1.07-4.34s-4.1-6.77,30.3-1.35S641,161.38,641,161.38s22.58,3,31.33,9.89,9.58,10,23.82,15.81,13-1.29,21.92,13.38,13.4,4.65,16.07,19.46,2.08,13.25,8.17,29.79,7.26,15.88,12.42,32.44,19.88,64.06,23.44,78.12,14.44,184.08,14.44,184.08l-.14,108L709.6,941.11l-20.79,67.64-10.43,124.59,42.89,151.92L694.67,1316l-68.86-19.1-112.42-52-65.7,16.19-8.27-47.47S621.9,995,626,984.48c14.15-36.45,46-118.87,47-125.07,1.28-8,5-74.63,7.13-88.34s3.26-47.72,1.6-57.73-21.55-63.76-21.55-74.58-30.9-62.18-30.9-62.18-31.48-27.38-38.43-32-40-22.78-40-22.78l-61.63-1.86-23.86-31.4-6.71-29.63-55.89-21.32-26.21-9.37,19.34-43.29,9.88-18.29L425.25,353l58.54,3.78L534.3,342l35.62-45.34s24.42-17.05,20.84-29-5-38.37-5-38.37l-17.59-33Z" transform="translate(426.69 427.23)"/><g class="cls-4"><path class="cls-5" d="M589.31,182.9S532,194,495.85,282C495.85,282,572.41,244.46,589.31,182.9Z" transform="translate(426.69 427.23)"/><path class="cls-5" d="M693.11,84.85S635.75,96,599.64,184C599.64,184,676.21,146.4,693.11,84.85Z" transform="translate(426.69 427.23)"/><path class="cls-5" d="M657.21,162.69s-57.36,11.11-93.47,99.12C563.74,261.81,640.3,224.25,657.21,162.69Z" transform="translate(426.69 427.23)"/><path class="cls-5" d="M691.09,182.39S625,212.54,557.76,323.78C557.76,323.78,653.19,257.65,691.09,182.39Z" transform="translate(426.69 427.23)"/><path class="cls-5" d="M695.45,268.79s-72.57,6.69-173.81,89.43C521.64,358.22,634.09,327.26,695.45,268.79Z" transform="translate(426.69 427.23)"/><path class="cls-5" d="M813,242.7s-72.56,6.69-173.8,89.43C639.2,332.13,751.65,301.17,813,242.7Z" transform="translate(426.69 427.23)"/><path class="cls-5" d="M819.73,179.36s-72.56,6.69-173.8,89.43C645.93,268.79,758.38,237.83,819.73,179.36Z" transform="translate(426.69 427.23)"/><path class="cls-5" d="M695.45,268.79s-72.57,6.69-173.81,89.43C521.64,358.22,634.09,327.26,695.45,268.79Z" transform="translate(426.69 427.23)"/><path class="cls-5" d="M673,353.09s-70.2-19.25-194.87,22.45C478.08,375.54,594.36,386.13,673,353.09Z" transform="translate(426.69 427.23)"/><path class="cls-5" d="M535.75,337.89s-72.5-7.35-188.23,54.41C347.52,392.3,464,383.48,535.75,337.89Z" transform="translate(426.69 427.23)"/><path class="cls-5" d="M535.66,406.63s-66.25-29.83-196-7.88C339.61,398.75,452.76,427.15,535.66,406.63Z" transform="translate(426.69 427.23)"/><path class="cls-5" d="M643,442.09s-66.25-29.84-196-7.88C446.93,434.21,560.08,462.61,643,442.09Z" transform="translate(426.69 427.23)"/><path class="cls-5" d="M806.5,520S732,473.44,569.91,461.16C569.91,461.16,701.71,518.51,806.5,520Z" transform="translate(426.69 427.23)"/><path class="cls-5" d="M588.11,496.58S529.51,454,397.9,449.3C397.9,449.3,502.69,499.93,588.11,496.58Z" transform="translate(426.69 427.23)"/><path class="cls-5" d="M770.31,568.76S721.84,511.15,589.48,494C589.48,494,682.76,565.52,770.31,568.76Z" transform="translate(426.69 427.23)"/><path class="cls-5" d="M565.74,1112.15s-73,21-141.34,133.67C424.4,1245.82,528.15,1189.88,565.74,1112.15Z" transform="translate(426.69 427.23)"/><path class="cls-5" d="M592.36,1156.74s-75.12,11.89-157.21,115.31C435.15,1272.05,545.19,1229.27,592.36,1156.74Z" transform="translate(426.69 427.23)"/><path class="cls-5" d="M704.28,1041.44s-75.12,11.89-157.21,115.31C547.07,1156.75,657.11,1114,704.28,1041.44Z" transform="translate(426.69 427.23)"/><path class="cls-5" d="M704.28,1041.44s-75.12,11.89-157.21,115.31C547.07,1156.75,657.11,1114,704.28,1041.44Z" transform="translate(426.69 427.23)"/><path class="cls-5" d="M628.34,1041.44s-75.13,11.89-157.22,115.31C471.12,1156.75,581.17,1114,628.34,1041.44Z" transform="translate(426.69 427.23)"/><path class="cls-5" d="M781.66,1095.59s-36-65.86-162.31-108.3C619.35,987.29,696.47,1075.48,781.66,1095.59Z" transform="translate(426.69 427.23)"/><path class="cls-5" d="M758.06,1152.67s-22.74-71.33-138.7-136.31C619.36,1016.36,678.23,1117.2,758.06,1152.67Z" transform="translate(426.69 427.23)"/><path class="cls-5" d="M664.22,1140.84s-73.39,19.74-143.71,131.21C520.51,1272.05,625.24,1217.91,664.22,1140.84Z" transform="translate(426.69 427.23)"/><path class="cls-5" d="M635.48,1233.64s-65.15,38.62-101.93,164.68C533.55,1398.32,619.33,1318.23,635.48,1233.64Z" transform="translate(426.69 427.23)"/><path class="cls-5" d="M686.62,1156.75s-50.06,56.29-45.94,187.36C640.68,1344.11,697.5,1242.14,686.62,1156.75Z" transform="translate(426.69 427.23)"/><path class="cls-5" d="M694.61,1258.83s-50.06,56.29-45.94,187.36C648.67,1446.19,705.5,1344.22,694.61,1258.83Z" transform="translate(426.69 427.23)"/><path class="cls-5" d="M725,597.61s-46.81-58.93-178.62-79.74C546.4,517.87,637.6,592,725,597.61Z" transform="translate(426.69 427.23)"/><path class="cls-5" d="M701,701.62s32.52-28.61,14.13-94.81C715.14,606.81,682.63,658.52,701,701.62Z" transform="translate(426.69 427.23)"/><path class="cls-5" d="M678.76,805.53s37.07-22.64,30.63-91C709.39,714.56,668.26,760,678.76,805.53Z" transform="translate(426.69 427.23)"/><path class="cls-5" d="M657.68,692.48s36.09-24.13,26.79-92.14C684.47,600.34,645.28,647.37,657.68,692.48Z" transform="translate(426.69 427.23)"/><path class="cls-5" d="M797.59,773.58S832.31,696,751.13,582.33C751.13,582.33,733.7,704.11,797.59,773.58Z" transform="translate(426.69 427.23)"/><path class="cls-5" d="M756.44,849.53s25.42-70.44-27.58-190.81C728.86,658.72,714.29,774.09,756.44,849.53Z" transform="translate(426.69 427.23)"/><path class="cls-5" d="M732.66,976.25s25.42-70.45-27.58-190.81C705.08,785.44,690.51,900.81,732.66,976.25Z" transform="translate(426.69 427.23)"/><path class="cls-5" d="M710.06,1111.66s25.42-70.45-27.57-190.81C682.49,920.85,667.91,1036.22,710.06,1111.66Z" transform="translate(426.69 427.23)"/><path class="cls-5" d="M666.1,982.1s25.42-70.45-27.58-190.81C638.52,791.29,624,906.66,666.1,982.1Z" transform="translate(426.69 427.23)"/><path class="cls-5" d="M684.15,895.73s25.42-70.45-27.58-190.81C656.57,704.92,642,820.28,684.15,895.73Z" transform="translate(426.69 427.23)"/><path class="cls-5" d="M921.34,600.15s-48.48-57.62-180.83-74.79C740.51,525.36,833.79,596.91,921.34,600.15Z" transform="translate(426.69 427.23)"/><path class="cls-5" d="M713.15,400.38s-66.25-29.83-196-7.88C517.11,392.5,630.26,420.9,713.15,400.38Z" transform="translate(426.69 427.23)"/><path class="cls-5" d="M808.92,422.56s-66.25-29.84-196-7.89C612.88,414.67,726,443.08,808.92,422.56Z" transform="translate(426.69 427.23)"/><path class="cls-5" d="M803.65,472.15S742.59,433.06,610.92,436C610.92,436,718.59,480.47,803.65,472.15Z" transform="translate(426.69 427.23)"/><path class="cls-5" d="M803.65,472.15S742.59,433.06,610.92,436C610.92,436,718.59,480.47,803.65,472.15Z" transform="translate(426.69 427.23)"/><path class="cls-5" d="M535.75,337.89s-72.5-7.35-188.23,54.41C347.52,392.3,464,383.48,535.75,337.89Z" transform="translate(426.69 427.23)"/><path class="cls-5" d="M851.27,317.75s-70.2-19.25-194.87,22.44C656.4,340.19,772.68,350.79,851.27,317.75Z" transform="translate(426.69 427.23)"/><path class="cls-5" d="M834.73,369.68s-70.2-19.25-194.88,22.44C639.85,392.12,756.14,402.72,834.73,369.68Z" transform="translate(426.69 427.23)"/></g><ellipse class="cls-6" cx="474.81" cy="257.91" rx="99.68" ry="116.32" transform="translate(601.08 1134.26) rotate(-84.73)"/><path class="cls-7" d="M689,1316l-52.88-19.83L591,1288.29l-32-15.7-36-15.7s-22.7-10.56-36-3.93-44,23.56-44,23.56l-64,82.44L303.21,1500.3l-67.95,145.27-20,75.9H734.89l-20-126.94-24.67-176.67V1344.7Z" transform="translate(426.69 427.23)"/><g class="cls-8"><path class="cls-9" d="M397.65,1206.92s-107.48,20.82-175.14,185.73C222.51,1392.65,366,1322.27,397.65,1206.92Z" transform="translate(426.69 427.23)"/><path class="cls-9" d="M592.15,1023.19S484.67,1044,417,1208.91C417,1208.91,560.48,1138.53,592.15,1023.19Z" transform="translate(426.69 427.23)"/><path class="cls-9" d="M524.87,1169.05s-107.48,20.82-175.14,185.72C349.73,1354.77,493.2,1284.4,524.87,1169.05Z" transform="translate(426.69 427.23)"/><path class="cls-9" d="M588.37,1206s-123.87,56.49-249.85,264.94C338.52,1470.91,517.34,1347,588.37,1206Z" transform="translate(426.69 427.23)"/><path class="cls-9" d="M596.52,1367.86s-136,12.54-325.68,167.59C270.84,1535.45,481.56,1477.43,596.52,1367.86Z" transform="translate(426.69 427.23)"/><path class="cls-9" d="M816.81,1319s-136,12.53-325.69,167.58C491.12,1486.56,701.84,1428.54,816.81,1319Z" transform="translate(426.69 427.23)"/><path class="cls-9" d="M829.42,1200.29s-136,12.53-325.68,167.58C503.74,1367.87,714.46,1309.85,829.42,1200.29Z" transform="translate(426.69 427.23)"/><path class="cls-9" d="M596.52,1367.86s-136,12.54-325.68,167.59C270.84,1535.45,481.56,1477.43,596.52,1367.86Z" transform="translate(426.69 427.23)"/><path class="cls-9" d="M554.38,1525.83s-131.54-36.07-365.17,42.06C189.21,1567.89,407.12,1587.75,554.38,1525.83Z" transform="translate(426.69 427.23)"/><path class="cls-9" d="M297.28,1497.34s-135.86-13.76-352.71,102C-55.43,1599.3,162.76,1582.78,297.28,1497.34Z" transform="translate(426.69 427.23)"/><path class="cls-9" d="M385,1644.22s-124.14-55.91-367.35-14.77C17.69,1629.45,229.71,1682.66,385,1644.22Z" transform="translate(426.69 427.23)"/><path class="cls-9" d="M426.26,1696.53s-124.15-55.92-367.36-14.78C58.9,1681.75,270.93,1735,426.26,1696.53Z" transform="translate(426.69 427.23)"/><path class="cls-9" d="M804.63,1838.55S665,1751.35,361.29,1728.33C361.29,1728.33,608.26,1835.79,804.63,1838.55Z" transform="translate(426.69 427.23)"/><path class="cls-9" d="M395.39,1794.72S285.59,1714.94,39,1706.11C39,1706.11,235.33,1801,395.39,1794.72Z" transform="translate(426.69 427.23)"/><path class="cls-9" d="M629.7,1614.46s-124.14-55.92-367.35-14.78C262.35,1599.68,474.37,1652.9,629.7,1614.46Z" transform="translate(426.69 427.23)"/><path class="cls-9" d="M858.48,1666.13s-124.14-55.91-367.35-14.77C491.13,1651.36,703.15,1704.58,858.48,1666.13Z" transform="translate(426.69 427.23)"/><path class="cls-9" d="M799.29,1748.93s-114.42-73.24-361.15-67.68C438.14,1681.25,639.9,1764.52,799.29,1748.93Z" transform="translate(426.69 427.23)"/><path class="cls-9" d="M799.29,1748.93s-114.42-73.24-361.15-67.68C438.14,1681.25,639.9,1764.52,799.29,1748.93Z" transform="translate(426.69 427.23)"/><path class="cls-9" d="M297.28,1497.34s-135.86-13.76-352.71,102C-55.43,1599.3,162.76,1582.78,297.28,1497.34Z" transform="translate(426.69 427.23)"/><path class="cls-9" d="M888.51,1459.6S757,1423.53,523.35,1501.66C523.35,1501.66,741.26,1521.53,888.51,1459.6Z" transform="translate(426.69 427.23)"/><path class="cls-9" d="M881.5,1525.5S750,1489.43,516.34,1567.56C516.34,1567.56,734.24,1587.42,881.5,1525.5Z" transform="translate(426.69 427.23)"/></g><path class="cls-10" d="M689,1316l-52.88-19.83L591,1288.29l-32-15.7-36-15.7s-22.7-10.56-36-3.93-44,23.56-44,23.56l-64,82.44L303.21,1500.3l-67.95,145.27-20,75.9H734.89l-20-126.94-24.67-176.67V1344.7Z" transform="translate(426.69 427.23)"/><path class="cls-11" d="M467.42,717.61a38.82,38.82,0,0,0-8.1-.63,29.06,29.06,0,0,0-15,6.19l-30.6,24.37a33.49,33.49,0,0,0-10.24,14,81.08,81.08,0,0,0-2.62,9.83c-7,9.69-16.61,26.37-19.54,41.12-2.61,13.11-.41,24.8,5,33.38,1.27,4.43,4.46,14.4,8.67,19.49,7.82,9.48,20.22,17.67,28.21,27.35a33.06,33.06,0,0,0,17.1,10.77A80.68,80.68,0,0,0,450.66,905c1.26.74,2.66,1.49,4.2,2.21,11.06,5.19,36.9,14.28,40.94,14.7-.49-.05-1.74-.26-1.74-.26s15.81,4.48,21.87,4.72a32.08,32.08,0,0,0,21.61-6.68c1.66-1.32,3.86-1.87,5.82-2.81a66,66,0,0,0,12.4-7.55,71.85,71.85,0,0,0,11.73-12.26c2-2.5,3.49-5.4,5.91-7.33a31.07,31.07,0,0,0,10.71-17.93c1.2-5.58,1.19-17.13,1.5-20.05,2.73-25.76,2.1-46.88-5.75-63.2a24.8,24.8,0,0,0,.27-5.29,27.85,27.85,0,0,0-2.77-9.33c-.18-8.06-2.45-29.79-21-41.38-6.08-3.81-15.13-6.07-24.55-6.33A27.73,27.73,0,0,0,513,716.08c-9.08-.94-31.07-1.19-42.16.79C469.66,717.08,468.51,717.33,467.42,717.61Zm44.76,117.62-.12.13a24.67,24.67,0,0,0,3.35,1.08l-.13-.11A28.4,28.4,0,0,1,512.18,835.23ZM406.59,764.36l.73-.66A8.54,8.54,0,0,0,406.59,764.36Z" transform="translate(426.69 427.23)"/><path class="cls-11" d="M513.73,631.5a24.82,24.82,0,0,0-2.19,4.31c-.9,2.28-1.92,9.15-2.19,11.06a68.41,68.41,0,0,0-1.69,6.91l-1.12,2.2,0,0a22.62,22.62,0,0,0-2.78,4.91c-.85,2-2,10.66-2,11h0c.28-.7,1-2.53,1.6-3.6-1.56,3-2.66,10.27-3.22,14.79-2.67,5.76-4.16,15.71-4.7,20a47.89,47.89,0,0,1-8.39,8.69c-2.7,2.15-5.79,3.7-7.69,5.22-.62.48-5.35,5-6.75,7.19a23.31,23.31,0,0,0-2.91,6.57,21.82,21.82,0,0,0,4.49,20.46,23.91,23.91,0,0,0,20.64,8.87,30.82,30.82,0,0,0,13.05-4.08L508,756a22.88,22.88,0,0,0,16.53,9.25,22.6,22.6,0,0,0,18.4-5.82A22.32,22.32,0,0,0,550.7,744a23.09,23.09,0,0,0-1-8.71,16.66,16.66,0,0,0-.93-2.17,22.71,22.71,0,0,0-4.3-10.49,70.58,70.58,0,0,0-3.66-10.64c.82-4.28,1.3-8.09,1.45-9.32l.54-1.44.39-1.15a23.8,23.8,0,0,0,2-4.43c.66-2,.95-6.69,1.06-9.92a51.36,51.36,0,0,0,2.21-10.29l.06-1.14c1-2.14,1.66-3.65,1.66-3.65s-.26.46-.69,1.17a66.06,66.06,0,0,0,4.64-13.09,29.49,29.49,0,0,1-2.47,6.36c1.1-1.7,2.54-7.22,3.5-11.27a33.57,33.57,0,0,0,3.5-8c1.53-5.23,1.93-12.57,2.42-17.19a23.45,23.45,0,0,0-46.65-4.79C514.27,625.53,513.93,629.33,513.73,631.5ZM549,735.72a20.6,20.6,0,0,1-.12,2.82A14.21,14.21,0,0,0,549,735.72Zm-67.88-17a20.57,20.57,0,0,0-2.12,2.76A26,26,0,0,1,481.14,718.76Zm59.68-6.58-.09.45c1.57,3.33,2.58,6,2.58,6S542.15,715.21,540.82,712.18ZM539,708.6a5.64,5.64,0,0,0-.38-.51Zm-38.89-25.28c-.9,2.08-1.68,4.52-1.68,4.52s.62-1.61,1.6-3.85ZM501.73,672l.1-1.37c-.05.53-.21,1.65-.21,1.65Zm7.89-21.82c1.54-2.69,3.17-5.13,4.5-6.19A19.21,19.21,0,0,0,509.62,650.16Z" transform="translate(426.69 427.23)"/><path class="cls-11" d="M504.68,547.35c26.8,7.4,27.16,10.65,27.29,11.75a22,22,0,0,1-3.56-.42l-.57-.14h0l-.21-.07-.59-.18c-3.4-1.9-8.47-4.92-10.19-7a22.14,22.14,0,0,0,10.19,7l.07,0c-4-1.1-9.24-3-11.43-5.65.72.88,2,2.21,2.89,3.08,1.22,2.31,5.75,10.74,8.09,13.58a8.24,8.24,0,0,0,1.45,1.32l.24.65-.23-.56a96.26,96.26,0,0,0,2.23,10.72l0,3.42.41-1a68.4,68.4,0,0,0-2.59,10.29,67.82,67.82,0,0,0-3.1,7.32,22.8,22.8,0,0,0,8.23,30,23.71,23.71,0,0,0,32.38-7c2-3,4.26-9.69,4.26-9.69s-.69,1.55-1.27,2.56c1.22-2.34,3.7-9.81,3.7-9.81s-1.56,2.61-3.29,5.29a63,63,0,0,0,3.71-9,35.25,35.25,0,0,0,2.87-7.41,10.9,10.9,0,0,1,1.53,2.68c1,2.69,4.07,6.48,6.07,8.82,3,4.41,7.25,9.5,8.2,10.63a23.37,23.37,0,0,0,19.89,15.89c-3.11-.32-11.19-4.27-11.19-4.27S623,635.63,630,630c5.64-4.49,10-11.25,8.45-21.49a23.18,23.18,0,0,0-2.11-6.69c-.77-1.57-5.28-7.53-5.28-7.53l1,1.7a137.75,137.75,0,0,0-9.33-12.28l-.58-.92c-.67-1-.62-.9-1.36-1.91l-1.26-1.6a66.8,66.8,0,0,0-12-16.6c-5.15-5.4-11.38-10.21-15.23-14.87-1.62-2-5.55-4.57-8.35-6.29-4-3.19-10.52-8.14-10.52-8.14s.33.36.46.52c-2.76-3.34-15.39-8.86-15.39-8.86a51.46,51.46,0,0,1,5.86,2.55c-3.36-2.11-8.37-5.77-11.42-7.69a43.54,43.54,0,0,0-5.19-2.5,24.68,24.68,0,0,0-6.56-3c-4.66-1.38-39.88-3.73-39.88-3.73Zm86.53,70.33a13.75,13.75,0,0,1-1-1.78,21.83,21.83,0,0,0,1.17,2.31v0ZM580.88,604l.07.11-.11-.2Zm-.16-.33-.36-.82A8.2,8.2,0,0,0,580.72,603.69Zm-6.18-5.76-.17.63.11-.41Zm-46.41-3.55c-.81,1.72-1.78,4.1-1.78,4.1s.66-1.35,1.64-3.27Zm.7-.81c2.22-4.29,5.31-10,6.6-11C532.76,584.68,530.18,590.27,528.83,593.57Z" transform="translate(426.69 427.23)"/><path class="cls-11" d="M597.28,624.9a67.86,67.86,0,0,0,6.58,4.76,23.72,23.72,0,0,0,32.38-7,22.8,22.8,0,0,0-7.17-31.81c-1.05-.66-3-2.28-3.36-2.56a24.14,24.14,0,0,0-8.23-6.08c-3.37-1.54-14.08-2.95-16.56-3.2l-27.23-2.79A23,23,0,1,0,568.82,622l27.23,2.8Z" transform="translate(426.69 427.23)"/><path class="cls-11" d="M611.15,642a98.3,98.3,0,0,0,2.77,9.45c.29,1.53,1.06,5.3,2.14,9.23a72.8,72.8,0,0,0-.31,9.82c.06.49.13,1,.21,1.45l-.14.87c-.21,2-1.62,4.18-2.73,5.89-2.24,3.45-6.48,7.5-9.44,12.06-.45.7-1.21,2.1-1.76,3.15a25.52,25.52,0,0,0-3.87,7.44c-1,3.19-1.51,9.22-1.76,11.53-1.14,10.77-2.1,19.15,1.9,29.58a25,25,0,0,0,13.77,14.76,25.47,25.47,0,0,0,15.63,1.69,29.76,29.76,0,0,0,13-6.42,52.92,52.92,0,0,0,7.82-8.65,27.2,27.2,0,0,0,4.56-4.78c7.74-11.92,11-27.66,12.84-44.6a22.62,22.62,0,0,0-3.59-14.82c.12-.69.21-1.37.28-2.05,0,.25-.16,1.22-.16,1.22s1.07-10.47.57-13.07l-.21-.91a54.34,54.34,0,0,0,.13-8.4,28.05,28.05,0,0,0-2.73-9.29,79,79,0,0,0-3.88-13.48c.83,1.82,1.45,3.51,1.45,3.51a82.54,82.54,0,0,0-4.26-13.95c.23.49.38.79.38.79s-1.07-4.21-1.73-5.92c-1-2.7-3.18-4.26-2.83-7.47a23.45,23.45,0,0,0-46.65-4.78c-1.24,11.68,1.83,18.66,5.58,28.46-.12-.32-.34-1-.34-1S609.29,637.82,611.15,642Zm6,16.28c.14.2.27.39.4.55Z" transform="translate(426.69 427.23)"/><path class="cls-12" d="M357.24,467.82c-3.17,3.42-6.07,7-9.49,9.86-2.31,1.91-7.64,10.29-7.64,10.29s2.09-2.81,3.67-4.53c-2.22,2.49-4.5,7.06-6.1,10.69-2,3.27-3.8,8.19-6,11.69-3.2,5.12-7.81,9.05-11.49,13.71-2.8,2.22-7.13,5.89-8.8,8.57a10.64,10.64,0,0,1-1.95,2.82c-1.85,1.53-4,5.07-5.68,8.29-3.42,4.08-6.83,9.16-6.83,9.16l.44-.45c-2.93,3.11-6,9.22-7.76,13-2.29,2.59-4.32,5.25-4.32,5.25a22.71,22.71,0,0,0,.9,27.61,23.72,23.72,0,0,0,27.23,6.91s8.27-4.71,12.36-9.22a117.08,117.08,0,0,0,15.09-10.64,45,45,0,0,1-4,2.6,84.88,84.88,0,0,0,10-7.28c-.74.69-1.29,1.18-1.29,1.18s11.07-6.54,16.05-12.16c1.06-.68,7.34-4.76,10.29-7.19,6.09-5,14.28-11.26,21.58-15.2a23.82,23.82,0,0,0,13.26-.47,6.35,6.35,0,0,1,.63-.22,68.58,68.58,0,0,0,8.45-3c5-2,10.41-3.22,15.2-5.5a45.12,45.12,0,0,0,8.41-3.14,24.22,24.22,0,0,0,3.83-2.58,23.76,23.76,0,0,0,18.79.67,22.91,22.91,0,0,0,13.17-29.9A40.44,40.44,0,0,0,464.87,484c-2.26-2.12-5.12-3.92-7.47-6.52a103.26,103.26,0,0,0-4.74-10.83c-4.34-7.77-10.78-13.24-18.65-17.06-6.15-3-13.55-4.64-20.1-6.85-4.29-1.45-10-4.22-15.22-5.11a32.62,32.62,0,0,0-17.5,1.57c2.26-.88,9.57-1.45,9.57-1.45s-16.22,2.18-20.11,5.39-8.77,15.57-8.77,15.57a40.2,40.2,0,0,1,2.51-6.1c-2.34,3.75-3.05,7.86-5.64,12A19,19,0,0,0,357.24,467.82Zm55.1,71.75-.31.15.43-.18ZM431,533.52a16.12,16.12,0,0,1-1.73.39A5.64,5.64,0,0,0,431,533.52Zm-8.48-1.29,0,0a28.87,28.87,0,0,0,3.74.56A23.29,23.29,0,0,1,422.52,532.23Zm12-11.6-.68.79-.08.21.77-1h0Zm-96.84-26.42a47.2,47.2,0,0,0-2.18,5.27S336.32,497.16,337.64,494.21Z" transform="translate(426.69 427.23)"/><ellipse class="cls-6" cx="655.57" cy="396.73" rx="77.52" ry="80.91" transform="translate(646.54 1454.3) rotate(-86.53)"/><path class="cls-13" d="M473.87,243.62c-2.34.64-5.65,1.69-7.13,2.87s-3.38,2.11-4.92,3.34c-2.29,1.83-5.33,8-5.33,8a22.74,22.74,0,0,1,3.31-4.32c-.52.41-4.55,4.7-5.12,10s2.48,10.35,2.9,10.86a23.64,23.64,0,0,0,10.25,6.21,19,19,0,0,0,11.34-.21l1.8-.64a13.61,13.61,0,0,0,8.4-4.17,13.73,13.73,0,0,0,3.71.92,13.48,13.48,0,0,0,14.86-11.84c.67-6.28-1.8-11.65-6.56-15.67a29.33,29.33,0,0,0-14.86-6l.53.07s-7.66-.94-9.6-.59A14.48,14.48,0,0,0,473.87,243.62Zm3.36,30.15-.39.34A4.11,4.11,0,0,0,477.23,273.77Zm3.52-4.6-.35.22a22.64,22.64,0,0,1-3.08,4.29A16.69,16.69,0,0,0,480.75,269.17Zm.24-6.83v0l0-.42h0Zm-10.7-7-.64.21Z" transform="translate(426.69 427.23)"/><path class="cls-13" d="M666.72,389a13.64,13.64,0,0,0-4.66-1.33,13.47,13.47,0,0,0-14.86,11.83,12.72,12.72,0,0,0,2.28,9.09c2.12,3.09,11.85,6,11.85,6s-.75,0-1.14-.06a13.49,13.49,0,0,0,14.86-11.84A13.27,13.27,0,0,0,666.72,389Zm5.94,5.77a12.94,12.94,0,0,1,1.51,6.76A11.42,11.42,0,0,0,672.66,394.72Z" transform="translate(426.69 427.23)"/><path class="cls-14" d="M466.65,254.1a3.74,3.74,0,0,0,.82,1.87,4.12,4.12,0,0,0,4.1,1.45,3.71,3.71,0,0,0,3.38-2.6,4.52,4.52,0,0,0,.54-1.63,3.87,3.87,0,0,0-.49-2.36,4.39,4.39,0,0,0-6.61-1.61A4.49,4.49,0,0,0,466.65,254.1Z" transform="translate(426.69 427.23)"/><path class="cls-14" d="M650.74,396.31a4.33,4.33,0,0,0,2.82,3.54,3.76,3.76,0,0,0,3.88-.72,3.93,3.93,0,0,0,.44-5.84,4.23,4.23,0,0,0-5.79-.63,3.86,3.86,0,0,0-1.35,2A4,4,0,0,0,650.74,396.31Z" transform="translate(426.69 427.23)"/><path class="cls-15" d="M450.3-31.25a13.49,13.49,0,0,0-2.71,4.18c-.75,1.79-1.4,9.36-1.4,9.36s0-.38,0-.52c-.51,4.83-1.69,8.45-2.27,13.86-2.29,21.6,2.14,34.26,11.64,46.43.63,3,2,8.57,3.79,10.77a13.22,13.22,0,0,0,7.52,4.65,13.38,13.38,0,0,0,9.82-1.37A13.24,13.24,0,0,0,483,48.64c.44-1.29.88-7.45.95-8.58.37-3.82-.18-5.71.26-9.78,1-9.45-1.61-14.87-.77-22.78.16-1.51.25-6.61.25-6.61A24.23,24.23,0,0,1,482.39,4a34,34,0,0,0,2-6.25,45.57,45.57,0,0,0,4.69-6.43c1.46-2.35,2.52-5.14,4.77-6.93,4.53-3.62,11.6-5.7,16.12-9.3.89-.71,5.07-2.91,6.31-3.55a13.66,13.66,0,0,0,7.21-3,13.66,13.66,0,0,0,9.4-1.36,13.18,13.18,0,0,0,5.27-18.07,15.84,15.84,0,0,0-8.63-7c-3.65-1.31-11-1.46-13.54-1.72-7.36-.76-16.5-1.55-24.28-.81-7.6.72-14.13,3-18.62,6.58-5.72,4.56-11.15,9.6-16.61,13.95C454.23-38.11,451.32-33.1,450.3-31.25Z" transform="translate(426.69 427.23)"/><path class="cls-15" d="M646.68-114.46a39.27,39.27,0,0,0-6.17.57l.74-.18a56.35,56.35,0,0,0-6.9-.48,17.33,17.33,0,0,0-6.17,1.52c-2.68.52-6.43,1.4-8.36,2.6l0,0s-3.32,1.17-4.94,1.82a25.9,25.9,0,0,0-6.5,3.69c-6.52,5.2-11,13-17.9,18.51-2.95,2.34-6.39,9.54-7.4,11.76a15.65,15.65,0,0,0-3.88,7.5c-.67,3-.2,9.83,0,12.14-1.12,12.19.83,22.47,6.44,29.26.35.43,1.15,1.74,1.54,2.38A13.4,13.4,0,0,0,599.3-11.08a13.48,13.48,0,0,0,14.86-11.84,19.82,19.82,0,0,0-.77-7.56A13.29,13.29,0,0,0,620.86-41l.76-7.19a15,15,0,0,0,2.19-3.15,30.54,30.54,0,0,0,1.67-5,17.15,17.15,0,0,0,1.34-2.6A30.16,30.16,0,0,0,628-64.52c.47-.13.93-.27,1.38-.44a40.94,40.94,0,0,0,6.14-2.88c1.51-.13,4-.36,5.2-.63a17.78,17.78,0,0,0,7.06-3.16c.21-.09,1.72-.66,2.62-.92,1.77-.5,3.63-.94,5.43-1.42a41.31,41.31,0,0,0,10.67-4.3,60.83,60.83,0,0,0,9.37-3.45,17.75,17.75,0,0,0,7.77-8.09c2.06-4.61,2.57-10.16-2.49-16.29-1.93-2.33-7.1-5.8-14-7.56S652-115.7,646.68-114.46Z" transform="translate(426.69 427.23)"/><path class="cls-15" d="M756.21,14l-3,1.2a29.79,29.79,0,0,0-7.48,4.26c-2.09,1.66-5.31,6.07-5.83,6.79a14.8,14.8,0,0,0-5.14,11.22,17.52,17.52,0,0,0,.91,5.39c-.26,2.95-.51,7.42.09,9,.45,1.16,1.52,2.16,1.37,3.55a13.53,13.53,0,0,0,26.91,2.76,28.35,28.35,0,0,0-1.82-12.58,28.46,28.46,0,0,0,.55-5.15l.18-.24.32-.44a26.57,26.57,0,0,1,3.8-1.43l.94-.43c2.34.4,5.92,1,6.78,1.08a97,97,0,0,1,11.87,1.65,30.9,30.9,0,0,1,3.46,1.17,31.66,31.66,0,0,0,5.2,3.61,13.59,13.59,0,0,0,24.87-5.74,14.85,14.85,0,0,0-3.91-12c-1.44-1.6-5.29-3.77-7.25-4.82a31,31,0,0,0-12.65-7.11c-5.72-1.75-12.7-2.53-18.78-3.15C775.93,12.39,769.3,11,766,11A16.15,16.15,0,0,0,756.21,14Zm-18,34.65a3.6,3.6,0,0,0,.43.71A8,8,0,0,1,738.18,48.67Zm20.5-3.29a14.49,14.49,0,0,1-1.33,1.22A12.64,12.64,0,0,0,758.68,45.38Zm34.59-7.87.05-.58C793.3,37.13,793.28,37.32,793.27,37.51Z" transform="translate(426.69 427.23)"/><path class="cls-16" d="M541.26-55.93S445.5-24.18,484.84,69.66l37.55,30.57,15.13,28.28s12.49,9.39,14.06,17a55.47,55.47,0,0,1,.61,15.65l32.48-3.35s5.19-2.48,29,.75,31.64,5.88,44.39,9A168.38,168.38,0,0,1,684.27,177l21,15.52,6.26,5.1,10.27,10s3.13,13.42,8.51,5.32,7.89-3.77,9.06-21.34-2.51-9.65,4.82-24,1.18-15,11.55-23.31,13.15-6.64,20-18,3.53-10.76,16-22.85,14.21-10.39,20-18,7-10.27,10.85-16.7,4.62-10.09,6.59-19.37-80.68-36.79-88.63,2l-7.3,26L728,85.68,727,94.5l-7.9,10.32L714,111a11.57,11.57,0,0,1-9.67,5.69c-7.06.41-17.61,2.29-24.91-.33a21.55,21.55,0,0,1-10.51-7.76s-4.38.16-8.26-7.53-3.89-9.71-4.62-20.51-7.75-9.8-2.38-20.29S660.81,51,669.39,39.6s1.55-7.88,15.8-20.65S696,9.56,705.71-3.44,713-9.22,716.78-22.35s1.8-12,4.59-21.8,3.42-11.15,1.87-17.62S719.69-71,719.69-71l-1.54-6.84-1.77-4.63L703.86-92.7,695.36-98S594.24-103.39,602.93-14l15,26a89.27,89.27,0,0,0-2.1,19.82C615.86,43,611,43.13,613.7,51.7s-1.87,17.62-1.87,17.62l-8.14,12.53s5.09,7.81-11.53,5.49-24.58-7-24.58-7l-15.23-6-7.57-14.14-7.33-16.34s-3.18-9.81,1.87-17.62a149.54,149.54,0,0,0,8.37-14.73s5.21-6.9,6.59-19.37,2.65-2.93,2.11-19.82S554-47.95,554-47.95Z" transform="translate(426.69 427.23)"/><path class="cls-17" d="M583.49,168.85S762,147.62,771.08,562.29C764.47,779.5,632.9,1031.1,635.46,1288.42c.29,172.08,7,330.17,39.35,433.06H728L693.13,1316l28.63-12.56L690.7,1185c-9.86-59.57-6.05-117.69,8.89-174.62l80.46-241.48,14.38-135.25-3.07-269.76-31.91-90.12-68.69-93.88-65.84-20.47Z" transform="translate(426.69 427.23)"/><g id="path0"><path class="cls-18" d="M637.05-121.75c-18.81,0-36.67,5.76-48.67,15.68-4.54,3.75-5.76,5.2-13.23,15.71-7.77,10.9-11.89,26-10.6,38.92.8,7.92,1.06,7.92-5.76,0-22.18-25.77-69.46-26.89-99.11-2.34A71.38,71.38,0,0,0,438,26c8.28,22.75,24,40.86,60,69.22,19.79,15.58,23.25,18.65,29.65,26.23,9.78,11.59,16.34,26.08,16.92,37.35.2,3.94-4.93,5.66-9.51,3.2-23.47-12.64-63.62-15.73-94.22-7.27-17.12,4.75-43.78,19.49-53.69,29.71-1.24,1.28-2.95,2.92-3.8,3.64-21,17.92-36.48,58.28-33.33,86.77,3.29,29.82,22.42,60.21,47.26,75.08,6.38,3.81,6.42,3.88,4.24,7.19a37.77,37.77,0,0,0-2.79,5.12c-.58,1.37-2.38,5-4,8.12s-4.07,7.86-5.42,10.58-3.39,6.52-4.53,8.44-2.42,4.3-2.84,5.28-1.51,3-2.41,4.58-3.83,6.75-6.5,11.58c-17.06,30.78-27.94,49.89-36.72,64.52-2.2,3.65-8.65,14.68-14.34,24.51-10.74,18.56-21.23,35.64-39,63.54-16.38,25.72-18.79,31.16-17.17,38.81,4,19.08,28.71,24.74,46.86,10.74,3.68-2.84,15.83-10.59,24.87-15.85,12.19-7.11,16.8-9.87,22.72-13.62,4.33-2.75,29.53-15.91,37.85-19.78,1.44-.66,5.11-2.38,8.16-3.81,14.68-6.88,43.77-18.22,57.6-22.46,3.23-1,6.92-2.14,8.21-2.56,13.11-4.23,14.94-3.62,23.58,7.87,12,16,17.41,28.44,19.55,45.22.75,5.87-1.34,23.86-3.79,32.64C495.47,677.62,484.7,692.73,438.45,723c-24.52,16-36.23,25.93-46.78,39.61-10.42,13.51-19.41,38.29-20.14,55.48-.83,19.82,3.13,38.64,11.47,54.41a115,115,0,0,0,50.23,49.11c19.63,9.9,62.95,15.71,86.41,11.58,44.29-7.78,76.67-46.93,76.88-92.93,0-8.25-.39-12.4-2.41-23.39-1.23-6.71-5.69-24.51-7.26-29-.3-.85-2.17-7.39-4.16-14.53-6-21.49-8.62-30.54-9.1-31.37s-4.56-13.46-6.8-21c-8.24-27.71-6.89-70.76,2.63-83.62,6.09-8.22,16.71-8,24,.56,9.86,11.6,8.35,29.78-4.12,49.79-18.83,30.21-17.9,58.51,2.53,77.23,21,19.28,59.93,12.14,71.44-13.11.7-1.53,2.09-4.2,3.11-5.94l1.83-3.15.68,10.09c.38,5.55.49,15.15.26,21.34s-.37,14.35-.3,18.15c.25,12.39-7.11,63.72-10.79,75.33-.34,1.06-1.4,5-2.37,8.67-4.41,16.89-12.92,40.68-18.27,51.06-1.4,2.71-2.92,5.73-3.36,6.7-.67,1.45-3.61,7.49-9.92,20.34q-1.83,3.75-4.07,8.29c-2.48,5-5,10.14-5.54,11.31a15.85,15.85,0,0,1-1.64,2.8,19.49,19.49,0,0,0-1.89,3.52c-.7,1.56-2.6,5-4.23,7.73s-3.82,6.39-4.87,8.22l-1.92,3.33,17,1.75s-.43,11.7,2.21,6.87a548.94,548.94,0,0,0,25-52.33c53.42-128.44,63-283.84-2.8-382.17-37-55.28-82.45-77.31-141.83-68.76-5.61.8-10.39,1.22-10.63.92a43.22,43.22,0,0,1-1.94-5.89,97,97,0,0,0-3.86-10.67,52.83,52.83,0,0,1-2.3-5.7c.16-1.5-12.25-19.8-17.41-25.68-16.61-18.89-46.15-35.27-67.51-37.44-1.13-.11-2-.42-2-.68.05-.44,11.55-22.28,13.3-25.25.85-1.44,4.88-9.22,11.51-22.2,4.84-9.47,3.54-9,15.54-5.92,22.8,5.81,50.18,5.55,70.44-.67,91-27.95,122.74-126.48,59.24-184.14-6.24-5.66-6.29-5.38,1.48-8,68.06-22.81,146.42,13.72,170.41,79.43,5.57,15.25,11.28,31.88,14.55,42.32,27.72,88.53,37.81,166.49,34.34,265.21-1.44,40.77-9.33,111.52-16.54,148.2C756,771.4,744.34,810.16,716.79,880.61c-16.26,41.59-35.95,128.12-35.95,128.12l23.42,1.61,2.11-8.27c1.16-4.54,4.75-15.61,8-24.6S724,950,728.59,936.38s11.55-32.94,15.47-43c17.35-44.41,29.43-80.7,36.68-110.18,1.47-6,4.14-16.72,5.94-23.88s5-22.71,7.11-34.53,4.72-26.26,5.78-32.07c3-16.5,10.35-88,10.55-102.83.09-6.73.35-16.05.58-20.73s.28-16.35.11-26-.24-20.14-.16-23.4c.19-7.37-.1-20.17-.65-29a86.13,86.13,0,0,1-.13-9.66,68.59,68.59,0,0,0-.48-10.07c-.43-3.92-1.1-11.67-1.51-17.22-1.19-16.38-6.17-51.1-9.78-68.18-1.05-5-2.74-13.2-3.74-18.2s-2.9-13.21-4.23-18.25-3.2-12.41-4.16-16.39q-3.42-14.06-10.59-35.6c-2.11-6.34-4.14-12.72-4.51-14.19s-2.59-7.71-4.93-13.86c-22-57.86-23.21-66.38-13.91-96.07,6.1-19.44,20.74-37.26,55.43-67.43,28.86-25.1,37.46-44.17,30.41-67.44C827.28,3.32,775-12,743.48,10.65c-15.75,11.32-20,19.88-21.6,43.61-2.13,31.48-7.43,50.87-15.35,56.14-9.46,6.3-30.63,3.31-38.15-5.38-11-12.76-6.12-39,10.22-54.46C683,46.4,690,39.2,693.08,35.61c.6-.7,3.56-4.07,6.56-7.49C740.57-18.46,745.42-73.53,711-100.62c-16.47-13-45-21.13-73.92-21.13m29,19.59c34,12.5,41.94,20.87,46.88,32.27,7.64,26-2.73,45.69-11.63,61.17C695,2.28,691,7.94,681.87,19a118.48,118.48,0,0,1-15.61,16.37c-29.89,27.32-34.63,68.5-9.93,86.34,23.75,17.16,59.95,14.56,73.13-5.26,6.93-10.42,12.45-29.57,13.35-46.3C744.15,44.92,745,39.45,748.53,34q10.76-16.82,31.34-15.56c40.28,2.49,50.48,40.4,18.25,67.8C747.81,129,731.69,151.41,725.78,187a78.84,78.84,0,0,1-1.59,8.19c-.13,0-2.87-2.44-6.09-5.39a161.58,161.58,0,0,0-142.62-38.44c-4.54,1-8.51,1.73-8.8,1.7s-1.45-3.57-2.57-7.87c-4.18-16.12-12.62-29.79-27-43.72-3.74-3.63-14-12.26-14.7-12.33-.16,0-3.84-2.78-8.17-6.14s-9-6.91-10.33-7.89c-13.66-9.93-29.72-26.89-38.15-40.27-27.2-43.2.78-93.86,49.13-89,31.66,3.2,44.69,32.55,25,56.29a63.56,63.56,0,0,1-4.58,5.17c-.84.47-4.88,6-8.14,11-2.79,4.34-2.94,4.88-3.82,13.34-3.81,36.71,28.86,70.41,65.12,67.2,25.09-2.23,37.53-17.39,41-50,3.79-35.37-4.06-57.13-26.54-73.59C588.5-35.3,583.93-45,585.67-61.44c2.75-25.84,21.67-43.09,48.54-44.27,11.23-.49,17.45.2,31.86,3.55M575.44-24.32a70.59,70.59,0,0,0,12.37,11.71c13.64,10.18,18.32,18.69,20.36,37.06,3,27.13-3.85,51.14-15.8,55.16-23.52,7.91-52-19.48-49.15-47.22.57-5.52,1.66-7.37,10.69-18.09,11.15-13.25,14.52-21.37,15.34-37a60.22,60.22,0,0,1,.69-8c.15,0,2.62,2.9,5.5,6.41m-64.8,195.66c77.3,23.93,89.82,113.65,22.51,161.24-30.36,21.47-82.91,25.25-113,8.12-22.27-12.66-34.24-24.83-42.71-43.42-26.15-57.35,22.73-126.49,92-130.12,4.27-.22,8.28-.48,8.91-.57,3-.43,27,3.1,32.33,4.75m-41.55,53.59c-26.17,4.19-39.93,32.6-24.72,51,17.9,21.69,56.51,13.59,63.79-13.38C514,240.9,493.39,221,469.09,224.93m13.74,14.54c13.22,5.11,14.63,22.88,2.46,31C471,280,452.08,271.34,453.57,256c1.32-13.63,15.7-21.74,29.26-16.49m170.8,72.89c-66.29,1.1-107.78,67.95-77,124.1,25,45.59,91.7,61.41,133.91,31.75,72.8-51.15,34-157.35-56.89-155.85m29.75,21.55c49.82,18.4,62.33,80.09,23,113.34-41.21,34.82-108.59,14.25-120.13-36.67-12.06-53.23,43-96.68,97.13-76.67M650.9,369.85C637.72,372.56,628,385,629.44,397.19c3.78,31.23,51,32.34,54.33,1.28,1.89-17.76-14.85-32.33-32.87-28.62m12.48,14.95c9.32,5.37,7.87,17.74-2.52,21.62-5.68,2.13-12.65-.76-15.6-6.46-5.57-10.73,7.24-21.43,18.12-15.16M404.77,446.62a91.33,91.33,0,0,1,57.52,56.31c3.14,8.72,3,8.92-5.45,11.41-11.93,3.5-29.76,10.09-48,17.74-11.2,4.7-40.2,19-54,26.68L346,563.61c-8.55,4.64-30.28,17.67-38.95,23.36-17,11.15-16.85,11.28-6.1-5.9,9.72-15.53,13-20.87,24.73-40.44,13.72-22.86,15.23-25.47,32.73-56.76,5.18-9.27,9.79-17.48,10.26-18.25s2.14-3.77,3.74-6.67,3.71-6.69,4.69-8.42,2.45-4.39,3.25-5.91l1.46-2.74,8.35,1.34a113.29,113.29,0,0,1,14.6,3.4m147,84.55C575.63,538.25,596,553.8,614,578.73c17.7,24.54,33.15,55.22,39.8,79l1.38,5-4.33,27.76c-5.58,35.82-6.29,38.58-12.3,47.79-6.31,9.69-22.28,11.47-30.11,3.37-8.27-8.58-6.73-21.74,4.69-40.15,12-19.36,16.51-42.41,11.52-59.27-14.17-47.91-71.18-49.4-84.5-2.21-8.39,29.74-6.44,70.06,5,103.46.43,1.27,1.54,5.06,2.47,8.42s1.91,6.8,2.2,7.65c1.57,4.64,3.21,10.25,5.61,19.13,1.48,5.46,2.94,10.62,3.25,11.47s1.29,4.45,2.17,8,1.84,7.16,2.13,8c4.4,13,6.17,32.2,4.11,44.58-6.9,41.65-48.88,61.16-102.67,47.75-38.67-9.65-63-37.61-64.66-74.32-1.31-28.81,12.74-50.88,46.27-72.69,4-2.61,7.5-4.91,7.73-5.11s2.61-1.79,5.29-3.53c37.42-24.4,59-52.55,71.54-93.6,13-42.44,13.7-69,2.43-93.83a61.18,61.18,0,0,1-2.43-5.79c.08-.73-8.12-13.52-11.24-17.55-3.29-4.25-3.28-4.44.39-4.85,4.07-.46,26.58,2.29,32.06,3.91" transform="translate(426.69 427.23)"/></g><g id="path1"><g class="cls-19"><path class="cls-18" d="M-223.75-330.54c0,38.85.53,45.14,2.65,32.32.91-5.48,3.32-5.4,3.41.12.05,3.49.06,3.49,1.93-.73,2.56-5.78,4.47-5.35,5.54,1.26,1,6.31,2.8,3.93,3.13-4.21.16-3.78.39-4.12,1.34-2,1,2.34,1.15,2.24,1.24-.9,0-1.94.62-3.85,1.27-4.24s1.16,0,1.13.9c-.24,6.25.42,7.68,3.35,7.27,4-.55,4.56-5.1,1.06-8.21-1.5-1.33-2.72-3.25-2.72-4.26s-.6-1.48-1.34-1-1.33.22-1.33-.5c0-2.68,5.44-.85,6.19,2.09.42,1.64,1.3,3,2,3,1.69,0,1.47-3.13-.35-4.92-1.17-1.15-1.16-2,.06-3.42.88-1,1.77-4.59,2-7.88.38-6.48,2.17-10,2.17-4.28,0,3.64,1.89,4.74,3,1.77a12.13,12.13,0,0,0,0-5.24c-.52-2.66-.15-3.51,1.5-3.51,1.2,0,2.85-1.62,3.65-3.6s1.73-2.88,2.08-2c1.22,3.26,3,1.53,3.89-3.69.82-5,5.91-9.42,8.23-7.14.39.38.07.69-.71.69s-1.05,1.57-.38,4.5a49.57,49.57,0,0,1,.67,11.17c-.31,5.58-.06,6.42,1.49,5.16,1.13-.93,1.86-1,1.86-.19s-.9,1.67-2,2.08a3.34,3.34,0,0,0-2,2.9c0,1.37.72,1.87,2,1.39,1.1-.41,2-.14,2,.61a6.46,6.46,0,0,1-2,3.32c-2.14,2.1-2.65,4.4-1,4.4,2.55,0,4.74-6.63,5.13-15.55.24-5.36,1-10.35,1.78-11.07.9-.9.87-1.89-.12-3.06s-1-2.24.15-3.64c.88-1,1.2-2.54.71-3.32a3.14,3.14,0,0,1,.67-3.28c.86-1,1.17-2.46.7-3.21s-.38-1.39.22-1.41c2.89-.11,6.37-4,4.56-5.1a2,2,0,0,1-.9-2.59,1.66,1.66,0,0,1,2.17-.72c.68.42,1.24.13,1.24-.63,0-.94-11.45-1.39-35.66-1.39h-35.65l0,41.91m1526.66-39c.39,1.62,1.16,5.3,1.72,8.17.91,4.81,1.08,5,1.95,2,.69-2.36,1-1.09,1.22,4.58a55.11,55.11,0,0,0,1.35,11.12l1.08,3.28.94-2.95c1.77-5.53,3.11-2.95,4.11,7.85.71,7.76,1.26,9.88,2,7.53.64-2.19,1,0,1.24,6.54.26,8.74.4,9.25,1.34,4.58,1.23-6.11,2.16-37.35,1.52-51l-.21-4.58h-9.47c-9.15,0-9.45.1-8.75,2.95M-194-369.73a1.79,1.79,0,0,1-3.48,0c-.27-.77.52-1.41,1.74-1.41s2,.64,1.74,1.41m0,7.51c.29.85-.42,1.55-1.58,1.55a2.1,2.1,0,0,1-2.11-2.07c0-2.31,2.87-1.91,3.69.52m-.83,7.44a2,2,0,0,1-1.43,1.71c-.78.26-1.43-.51-1.43-1.71s.65-2,1.43-1.71a2,2,0,0,1,1.43,1.71m-.2,6.54a2,2,0,0,1-2,2c-2.08,0-2.65-1.55-1.11-3.06s3.1-.95,3.1,1.09m-.24,8.43c.33,1-.17,1.47-1.17,1.14a4.1,4.1,0,0,1-2.33-2.29c-.33-1,.17-1.47,1.17-1.14a4.1,4.1,0,0,1,2.33,2.29m1505.83,5c0,2.34.58,4.25,1.31,4.25,1.7,0,1.7-4,0-6.54-1-1.49-1.29-.94-1.31,2.29M-195.9-333.73c2.22,5.67.48,16.25-2.67,16.25-2.59,0-2.31-2.22.48-3.86,2.22-1.31,2.22-1.44,0-2.75-2.86-1.68-3-3.86-.34-3.86a2,2,0,0,0,2-2c0-1.08-.6-2-1.33-2s-1.33-.88-1.33-2c0-2.59,2.16-2.52,3.19.11m28.05,18.16c-1.36,2.49-2.08,4.92-1.58,5.41s.25,2.05-.53,3.49c-1.07,1.94-1,2.87.29,3.65s1.39,1.43,0,3.11c-1.89,2.22-.55,2.72,2.4.88,1.66-1,4-21.07,2.51-21.07-.32,0-1.7,2-3.07,4.53m-28.78,11.76c.29,1.49-.19,2.12-1.34,1.75a4.14,4.14,0,0,1-2.25-2.92c-.29-1.49.19-2.12,1.33-1.75a4.11,4.11,0,0,1,2.26,2.92m28.41,9c-3.28,3.43-3.93,6-.89,3.51,1.62-1.32,2-1.26,2,.34a5.57,5.57,0,0,1-2,3.59,5.25,5.25,0,0,0-2,2.74c0,.6.9.76,2,.35s2,0,2,1.19a5.55,5.55,0,0,1-2,3.57c-1.1.9-2,2.14-2,2.78s1.18,0,2.63-1.44c2-2,4.95-19.67,3.26-19.66-.05,0-1.4,1.36-3,3m-32.63,7.11c1.33,1.26,3.21,3.18,4.16,4.26,1.45,1.62,1.47,1.4.14-1.32-1.63-3.31-3.64-5.17-5.63-5.21-.61,0,0,1,1.33,2.27m32.07,20.06c-1.28.74-2.33,1.9-2.33,2.58,0,2.1,1.94,1.38,3.69-1.37,1.89-3,1.83-3-1.36-1.21m-.39,6.82c-3,3.37-3.45,4.84-1.34,4.05,1.31-.5,2.06-.05,2.06,1.21a2.84,2.84,0,0,1-1.66,2.58c-.92.32-1.19,1.09-.6,1.71,1.54,1.61,3.75-2.26,3-5.28a5.43,5.43,0,0,1,.81-4.25c1.82-2.15-.39-2.17-2.27,0m-1,14.35c-1.78,2.18-1.95,3-.67,3.45a5.23,5.23,0,0,1,2.44,1.63c.4.6.73-1,.73-3.47s0-4.55-.07-4.54-1.13,1.33-2.43,2.93m-.42,20.49c.15,2.9.61,5.61,1,6s.61-1.66.44-4.58-.63-5.64-1-6-.59,1.67-.44,4.58m-1.83,9.88c-1.5,1.77-1.43,2,.44,1.25,1.52-.58,2.21-.09,2.29,1.61,0,1.33.4,1.71.75.84,1.3-3.13-1.47-6.08-3.48-3.7m0,7.25a1.4,1.4,0,0,0,1.47,1.31c.86,0,1.1,1,.59,2.29-.64,1.65-.49,1.89.57.87a3.63,3.63,0,0,0,.6-3.6c-.93-2.37-3.23-3-3.23-.87m-.49,13.75c-.47,1.21-.26,1.76.5,1.29s1.32.12,1.32,1.24.62,2,1.38,2,.83-1-.18-2.94c-2.12-4-2.1-4-3-1.63m746.61-.56c-49.75,4.11-85.59,57.26-73.39,108.85,1.5,6.35.43,6.12-4.94-1-29.56-39.48-97.18-30.73-121.75,15.76C347.54-22.77,362.92,34.56,413.79,77.77c5.5,4.66,10.3,8.79,10.66,9.18s11.46,8.62,24.65,18.31c36.32,26.68,46,37.55,54,60.73,5.52,15.92,3.12,19.37-9.72,14-30-12.64-75.23-9.86-105.57,6.46-84.67,45.58-88.68,165.71-7.06,212.05,5.35,3,9.89,5.65,10.09,5.8,2.19,1.66-26.53,83.76-53.12,151.81-3.53,9-19.49,47.7-27.71,67.11-9.36,22.12-9,29.56,2,37.77s23,5.83,39.92-7.61c47.42-37.71,124.15-82.23,141.74-82.23,13.9,0,36.05,37.64,36.05,61.25,0,44.24-15,75.27-49.77,102.85-31.37,24.88-39.78,34.59-45.81,52.88-16.24,49.22,21.81,98.8,80.65,105.08,52.94,5.65,89.9-11.91,103-49,8.54-24.1,3.44-46.3-23.66-102.85-22.46-46.9-22.28-91.43.38-90.8,17.12.48,21.27,22.2,9.09,47.5-14,29-8.12,53,15.54,63.45,18.69,8.24,43-.2,52.6-18.26,5-9.49,5.41-9.25,6.66,4.21,6.33,68.84-9.33,130.66-50.32,198.6-1.1,1.82,0,1.09-1.21,3-3.88,6.52-10,15.88-11.93,19.21-2.46,4.32-10,16.39-16.7,26.82s-14.15,22.22-16.47,26.18c-27.73,47.13-61.68,97.29-79.27,117.11-11.37,12.8-12.49,13.71-33.94,27.74-39.77,26-50.09,44.82-41.51,75.67,1.6,5.75,3.22,11.7,3.59,13.2.47,1.88-2.21,7.19-8.6,17-23.71,36.55-92.45,151.35-113.53,189.62-23.45,42.57-49.22,93.44-58,114.51-24.66,59.2-32.54,80-40.35,106.66-1.48,5-4.54,15.28-6.8,22.77s-4.73,15.89-4.11,15.83c18.81,0,17.37.55,25.14,0,3.82.33,50.7-143.39,82.7-206.77.64-1.26,2.65-5.09,5.29-10.08,6.73-12.73,17.48-32.9,19.41-36.38,15.57-28,23.35-38.35,23.35-39.49s4-8.9,8.8-17.27,10.5-17.78,12.17-21.11c27.55-54.86,78.86-122,131.32-128.45,31.13-3.85,51.58,40.2,84.38,39.08,59.45-2,96.42,27.94,83.76,51.55-.34.64,4.74,56.39,5,63,.13,3.41.57,6.21,1,6.21s.66,2.5.59,5.57a135.83,135.83,0,0,0,1.59,17c1,6.3,2,15.13,2.36,19.63,1.93,24.78,2.58,30.62,3.63,32.62.64,1.21,1.16,4.83,1.16,8.05s1,14,2.21,24,18.5,138.72,19.15,143.76,2.16,15,3.37,22.25,2.46,14.85,2.79,17c1.63,10.55.6,9.81,13.83,9.81h12l-.83-5.56c-.46-3.06-1.93-10.57-3.28-16.68s-3.39-18.78-4.55-28.14-3-22.31-4.08-28.79-2.85-18.55-3.93-26.83-2.62-18.88-3.42-23.56-2.3-15.86-3.33-24.86-2.52-21.37-3.3-27.48c-4-31.08-6.71-55.15-8.56-75.26-5.3-57.71-7.47-84.43-8.77-108-.78-14-1.67-26.41-2-27.49-.85-2.91.62-4.27,8.42-7.79,33.33-15,33.79-49.31,1.56-118.49-16.29-35-19.45-88-9.21-155.09,1.48-9.71,3.62-23.85,4.76-31.4,3.25-21.61,19.14-99.32,21.8-106.62,1.32-3.63,4.9-15.13,8-25.56,6.18-21.08,6.4-21.74,15.94-48.18,40.75-112.84,53.29-222.64,41.3-361.45-5.09-58.86-23.63-130.47-53.86-208.08-13.52-34.7-13.47-34.55-15.92-49.61-2.72-16.71,1.15-43.62,8.57-59.63a45.25,45.25,0,0,0,2.69-6.58c0-3.53,22.46-32.41,52.84-67.93,17.73-20.75,25.77-39.21,25.77-59.21,0-68.74-90.48-89.12-120.47-27.13-4.86,10-6.11,19.45-6.11,46,0,58.1-13.6,77.7-44.74,64.52-21.95-9.29-22.11-47.43-.32-76.66C729-90.49,695.54-205.75,573.68-195.67m-747.41,8.35c-1.5,1.77-1.43,1.95.43,1.25,1.53-.57,2.22-.09,2.29,1.61.06,1.33.4,1.71.76.84,1.3-3.13-1.48-6.08-3.48-3.7m784.82,17.56A134.2,134.2,0,0,1,626.41-165l5.22,2.24-4,1c-2.2.56-8.67,2-14.38,3.32s-10.69,2.81-11.07,3.41c-1.07,1.7,2.63,1.31,7.83-.82,6.08-2.5,23.61-4.61,23.61-2.85s4.08,6.08,5.69,6.08c.7,0-.15-1.15-1.88-2.57s-2.42-2.59-1.53-2.62c3.66-.09,18.05,15.1,21.86,23.09C676.25-96,662.58-37.48,623.16,13.38c-42.39,54.7-25.54,119.33,31.13,119.33,38.46,0,52.76-23.36,53.34-87.16.21-23,.72-30.23,2.48-35.34,15.76-45.57,80.42-30.87,76.27,17.34-1.45,16.86-6,25.11-26.9,48.89-42.2,48-56.53,73.91-60.75,109.93-2,17.26-1.66,16.77-8.16,10.91-42.26-38.16-110.52-51-159.66-30-1.71.74-2.94-1.33-6.32-10.6-9.67-26.54-25.87-44.47-64.17-71.06C408,49.21,384.64,15.71,384.51-23.11c-.21-62.85,67.81-91.42,97.95-41.14,4.55,7.59,5.71,30.79,1.92,38.25-1,2-5.44,10-9.82,17.84-33.23,59.26,38.93,138,91.49,99.83C588,75.73,590.74,7.12,571-31c-4.41-8.49-13.78-18.45-31.15-33.13-17.13-14.46-22.39-40.4-13.72-67.54,11.07-34.6,42.77-48.82,85-38.11m-785.3,16.82c-.34.56.22,1.77,1.24,2.69,1.52,1.39,1.86,1.35,1.86-.24,0-2.23-2.18-3.94-3.1-2.45m770.57.3c-1.07.67-1.51,1.66-1,2.19s2,0,3.24-1.23c2.41-2.37,1-3-2.28-1M588-147.91c-2,1.07-3.67,2.23-3.67,2.56,0,1.27,2.11.47,5.34-2,4-3.05,3.36-3.24-1.67-.56m-10.76,8.56c-5.26,5.64-3.74,6,2.19.48,2.7-2.51,4.16-4.54,3.24-4.53s-3.36,1.83-5.43,4.05m749.53,40.42c0,2.52.27,3.55.61,2.29a10.72,10.72,0,0,0,0-4.58c-.34-1.26-.61-.23-.61,2.29M518.37-52a102.37,102.37,0,0,0,13.5,11.46C556.65-23.16,568.41,25.27,557,63c-11.68,38.62-68.61,4.63-68.61-41,0-9.13.28-10,8.06-23.65C507.42-21,508.94-26.48,509-47.06c0-15.61.17-16.62,2.06-13.74A92.33,92.33,0,0,0,518.37-52m99.28,235.67c39.44,9.67,77.46,42.64,93.54,81.12,45.55,109,65.22,219.79,59.81,336.71-4,86.51-13.61,136-43.64,224.81-20.08,59.38-22.54,94.69-30.05,132-3.18,15.81-13.82,32-16.45,50.53-1,7.2-3.09,21-4.61,30.75-8.72,55.81-9.06,98.36-1.09,136.74,3.23,15.55,5.42,21.65,16.44,45.83,19.48,42.7,22.13,68,8,76.53-8.27,5-13.1,3.77-27.47-7.07-29.58-22.31-48.56-30.94-74.42-11.48,0,0-42.66-56-91.29-46.24-33.46,6.69-54.7,19.45-57.75.29-3.3-20.65,2.67-29.12,35.34-50.12C521.53,1160,539,1138.75,618.5,1009.47c2.81-4.56,4.69-11.91,6.41-19.3,2-8.52,3.74-17.11,6.43-21.59,33.92-56.43,50.17-70.75,60.45-105.55,23.9-80.81,9.62-185.48-33.59-246.26-47.55-66.88-91.86-86.7-158.08-70.69l-4.95,1.19L491.24,539c-16.55-34.73-60.94-66-93.65-66-5.3,0-6.07,3.17,12.45-51.39,1.84-5.43,3.62-8.63,4.58-8.27,5.31,2,25.4,3.65,37,3C561.21,410.59,611.87,283,534.77,206.89l-11.7-11.54,9.92-4.5c8.4-3.82,20.91-7.42,35.36-10.19,8-1.54,38.23.31,49.3,3m-150.28,9.86c124.39,21.3,105,203.16-21.6,202.75-61.54-.2-103-40.62-103.19-100.64-.23-66.31,57.59-113.63,124.79-102.11m-28.59,66.19c-27.14,6.49-37.14,40.24-17.62,59.43,26.41,25.93,69.94-.66,59.41-36.29-4.78-16.16-24.75-27.22-41.79-23.14m16.36,16c18.88,9.37,14,36.33-7.05,38.54-20.19,2.13-30.63-24.84-14.09-36.4,7.91-5.54,13.21-6.07,21.14-2.14m166.79,65.05c-64.67,17.15-88.23,95.89-42.73,142.79,56.39,58.14,156.31,16.12,152.69-64.2-2.47-54.51-56.14-92.86-110-78.59m-808.6,9.61c-.22,3.93-.15,4,1,1,.7-1.74.81-3.62.23-4.18s-1.14.86-1.27,3.16m.24,7.43a6.56,6.56,0,0,0,.32,4.61c.81,1.42,1.14.67,1.14-2.6,0-5.26-.28-5.65-1.46-2m844.76-1.16c44.1,8,68.68,56.37,49.07,96.55-20.93,42.9-79.53,53.1-113.77,19.8-49.16-47.8-4.1-128.84,64.7-116.35m-25.15,43.61c-25.7,11.17-17.61,49.66,10.45,49.68,22.86,0,34.47-26.94,19-44-6.33-6.94-20.28-9.64-29.41-5.68m19.21,15.06c4.41,4.33,4.83,7.59,1.77,13.91-3.85,8-13.43,9-19.9,2.14-10.78-11.43,6.9-27.08,18.13-16m-247,81.82c26.47,5.48,48.81,22.06,62.86,46.64,5.16,9,5.26,11.37.51,12.48-21.57,5.07-107.89,58.17-135,83-8.8,8.08-8.72,7.62,4.06-22.34,5.84-13.69,12.08-28.57,13.86-33.06,7.12-18,19.59-50.91,24.88-65.75,3.07-8.64,6.19-17.32,6.92-19.3,1.61-4.32,7.2-4.76,21.91-1.71M560.27,565.4c33.83,8.24,66.51,38.86,90.73,85,9.77,18.62,9.61,17.32,6.54,51.59-2.45,27.26-6.46,36-18,39.11-18.86,5.11-25.65-11.19-14.19-34.06,20.25-40.38,3.68-79.37-33.44-78.73-40.33.71-49.72,56.52-20.31,120.79,13.32,29.11,16.81,37.28,22.11,51.69,15.78,43-11.85,71.81-66.67,69.65-44.46-1.75-72.64-25-72.64-59.86,0-21.35,6.66-31.12,37.81-55.44,36.63-28.59,50.24-50.38,57.5-92,6.91-39.61,1.35-66.09-18.85-89.83-3.58-4.21-6.51-8.19-6.51-8.85,0-2.05,26.48-1.36,35.89.93M-203,914a8.53,8.53,0,0,0,1.29,3.92c1.15,1.75,1.3,1.75,1.3,0a8.55,8.55,0,0,0-1.3-3.92c-1.15-1.75-1.29-1.75-1.29,0m-5.33,166.2a8.69,8.69,0,0,0,1.29,3.93c1.15,1.74,1.29,1.74,1.29,0a8.57,8.57,0,0,0-1.29-3.93c-1.14-1.74-1.29-1.74-1.29,0" transform="translate(426.69 427.23)"/></g></g></g></svg>