<?xml version="1.0" encoding="UTF-8"?>
<svg width="125px" height="125px" viewBox="0 0 125 125" version="1.1" xmlns="http://www.w3.org/2000/svg" xmlns:xlink="http://www.w3.org/1999/xlink">
    <!-- Generator: Sketch 56.3 (81716) - https://sketch.com -->
    <title>kwd</title>
    <desc>Created with Sketch.</desc>
    <g id="kwd" stroke="none" stroke-width="1" fill="none" fill-rule="evenodd">
        <path d="M0,62.5 C0,27.980957 27.980957,0 62.5,0 C97.019043,0 125,27.9858398 125,62.5 C125,97.0141602 97.0166016,125 62.5,125 C27.9833984,125 0,97.019043 0,62.5 Z" id="Path" fill="#6CDE07" fill-rule="nonzero"></path>
        <path d="M112,82.8242678 C112,83.8981923 111.920992,84.7707428 111.762973,85.4419456 C111.604955,86.1131484 111.234225,86.6806113 110.650771,87.1443515 C110.067318,87.6080916 109.192152,87.992502 108.025245,88.2975941 C106.858339,88.6026863 105.241712,88.9138757 103.175316,89.2311715 C99.7232179,89.7437264 96.6115146,90 93.8401122,90 C90.9471571,90 89.0023425,89.6949124 88.0056101,89.084728 C86.66853,88.2792847 86,86.4975731 86,83.7395397 C86,83.3246144 86.0729305,82.6595234 86.2187938,81.7442469 C86.3646571,80.8289703 86.5469835,79.925911 86.7657784,79.0350418 C86.9845733,78.1441727 87.2337527,77.3631484 87.513324,76.6919456 C87.7928953,76.0207428 88.0663848,75.6851464 88.3338008,75.6851464 C88.3824219,75.6851464 88.4310423,75.6973499 88.4796634,75.7217573 L88.4796634,78.4309623 C88.4796634,80.2859228 88.6619898,81.3354242 89.026648,81.5794979 C90.1935542,82.238497 92.2112994,82.5679916 95.0799439,82.5679916 C96.0766763,82.5679916 97.1584794,82.5252794 98.3253857,82.4398536 C99.4922919,82.3544277 100.768577,82.2140874 102.154278,82.0188285 C105.873791,81.5062736 107.73352,80.7984703 107.73352,79.8953975 C107.73352,78.6750288 106.906974,75.7339843 105.253857,71.0721757 C103.552119,66.2151082 102.36092,63.6889828 101.680224,63.4937238 L105.764376,55 C106.201966,55.1220369 107.332389,58.6976636 109.15568,65.7269874 C111.051903,73.2688662 112,78.9679026 112,82.8242678 Z M66,83 L73,83 L73,91 L66,91 L66,83 Z M50.08867,78.9718129 C50.0645866,79.0657703 50.0525452,79.1479817 50.0525452,79.2184497 C50.0525452,79.312407 50.0405037,79.382874 50.0164204,79.4298527 L50.0164204,48.5650224 C49.7033372,47.3905557 49.3842381,46.1926177 49.0591133,44.9711723 C48.7339885,43.749727 48.3787649,42.434344 47.9934319,41.024984 L54.0623974,35 L54.6765189,42.2581678 L58,45.7463165 L55.2183908,51.5951313 L55.2183908,79.5355541 C55.2183908,81.0388715 55.2063493,82.2602985 55.182266,83.1998719 C55.1581827,84.1394452 55.1220583,84.7971367 55.0738916,85.172966 C54.8089751,86.6293047 51.9551449,87.8507318 46.5123153,88.8372838 C44.4170667,89.2366025 42.496451,89.5302147 40.7504105,89.7181294 C39.00437,89.9060441 37.4088742,90 35.9638752,90 C21.3212185,90 14,86.3826969 14,79.1479821 C14,76.5876447 14.9271938,73.7102445 16.7816092,70.5156951 C18.2266082,67.978847 19.1417605,66.710442 19.5270936,66.710442 L19.6715928,66.7456758 L19.6715928,67.0275464 C19.6715928,67.3798865 19.6174061,67.8907718 19.5090312,68.5602178 C19.4006563,69.2296638 19.2862622,69.9460778 19.1658456,70.7094811 C19.0454291,71.4728844 18.931035,72.2069151 18.8226601,72.9115951 C18.7142852,73.6162751 18.6600985,74.1330327 18.6600985,74.4618834 C18.6600985,76.0591581 18.7323474,77.1044178 18.8768473,77.5976938 C19.8160967,81.0506258 25.4635498,82.777066 35.819376,82.777066 C37.794208,82.777066 40.1182132,82.6126431 42.7914614,82.2837924 C44.4050436,82.0723884 45.7536892,81.8257541 46.8374384,81.5438821 C47.9211877,81.2620101 48.7520497,80.9683979 49.3300493,80.6630365 C49.6431324,80.4986112 49.8719205,80.087554 50.0164204,79.4298527 C50.0405037,79.5472993 50.0525452,79.6882332 50.0525452,79.8526586 L50.08867,78.9718129 Z M40,63.6410788 C40,69.2137208 36.5765048,72 29.7294118,72 C28.9529373,72 28.3764725,71.9177048 28,71.753112 C33.5294394,69.5193526 36.2941176,68.0027663 36.2941176,67.2033195 C36.2941176,66.9917002 36.0941196,66.8506228 35.6941176,66.780083 C35.2941156,66.7095432 34.8235321,66.6625174 34.2823529,66.6390041 C33.7411738,66.6154909 33.1941204,66.5802215 32.6411765,66.533195 C32.0882325,66.4861685 31.6705896,66.368604 31.3882353,66.1804979 C30.8705856,65.8277991 30.6117647,65.1106555 30.6117647,64.0290456 C30.6117647,63.3941877 30.8058804,62.6535312 31.1941176,61.8070539 C31.5823549,60.9605767 32.164702,59.9377653 32.9411765,58.7385892 C34.564714,56.2461839 35.8823479,55 36.8941176,55 L37,55 C36.2705846,56.3872822 35.6352968,57.5923185 35.0941176,58.6151452 C34.5529385,59.6379719 34.1294133,60.5138276 33.8235294,61.2427386 C34.29412,61.7130037 35.2235225,62.0421844 36.6117647,62.2302905 C38.5647156,62.4889363 39.6235286,62.6535266 39.7882353,62.7240664 C39.9294125,62.9121724 40,63.2178402 40,63.6410788 Z" id="د.ك" fill="#FFFFFF" fill-rule="nonzero"></path>
    </g>
</svg>