<svg id="katman_1" data-name="katman 1" xmlns="http://www.w3.org/2000/svg" viewBox="0 0 250 250"><defs><style>.cls-1{fill:#f8d65d;}.cls-2{fill:#fefefe;}.cls-3{fill:#ec782c;}.cls-4{fill:#f9dd79;}.cls-5{fill:#f9dd7a;}.cls-6{fill:#f9de7d;}.cls-7{fill:#fbebb0;}.cls-8{fill:#fbebb2;}</style></defs><path class="cls-1" d="M976,664.92h-9a46,46,0,0,0-15,0h-7c-3-1.33-6.18-.85-9.27-1.22-20.46-2.48-38-11.77-53.88-24.16-22.07-17.16-36.62-39.51-44.17-66.45-1.58-5.62-.76-11.55-2.61-17.1v-5a1.31,1.31,0,0,0,0-2v-4a29.23,29.23,0,0,0,0-12v-9c1.4-2.45.82-5.19,1.13-7.79,2.51-21.18,12.13-39.16,24.95-55.72A111.53,111.53,0,0,1,873,447.68c2.13-2,4.45-3.76,7.57-2.55,2.94,1.15,3.28,3.86,3.55,6.61,2.82,28.91,14,54.21,33.07,76,27,30.91,61.11,48.65,101.57,54.11a143.57,143.57,0,0,0,50.1-1.84c2.91-.64,6.07-1.55,8.35,1.32s.92,5.72-.22,8.51A116.71,116.71,0,0,1,1057.13,622a127.55,127.55,0,0,1-62.05,40C988.81,663.83,982.21,663,976,664.92Z" transform="translate(-835 -415)"/><path class="cls-2" d="M976,664.92c1.48-2.07,3.85-1.61,5.88-2q65.11-13,92.93-73.29c1-2.28,3.42-4.87,1.51-7.4-2.07-2.72-5-.47-7.43,0C996.43,598.07,916.52,555.5,890,486.9a124.43,124.43,0,0,1-8-35.92c-.13-1.77.36-3.9-1.75-4.83s-3.41.72-4.73,2a124.28,124.28,0,0,0-38.52,70.58c-.33,1.88.12,4.1-2,5.33,0-35.14,0-70.29-.08-105.43,0-3,.6-3.59,3.58-3.58,34.81.13,69.62.08,104.43.08.14,3.34-2.55,3.51-4.7,4a120.78,120.78,0,0,0-18.22,5.13c-12.14,4.64-13.66,11.32-4.28,20.07,9,8.42,20.23,13.28,31.49,17.87,21.55,8.78,43.69,16,65.48,24.16,3.86,1.44,8,2.34,10.88,5.74,5.8,10.65,11.66,21.26,19.64,30.54,10.82,12.6,24.15,22.29,37.08,32.46,1.35,1.06,3.2.91,4.54,2,0,34.81-.05,69.62.08,104.43,0,3-.6,3.59-3.58,3.58C1046.28,664.87,1011.13,664.92,976,664.92Z" transform="translate(-835 -415)"/><path class="cls-1" d="M1023,492.89c-9.93-5.14-20.74-8-31.12-12-17.55-6.7-35.55-12.2-52.67-20-9.24-4.22-18.36-8.73-25.82-15.83-9.1-8.68-7.92-16.23,3.38-21.74,6.78-3.3,14.07-5,21.45-6.34,1.72-.31,3.76,0,4.84-1.93h4a1.31,1.31,0,0,0,2,0h16a7.78,7.78,0,0,0,6,0h5c8.54,1.74,17.34,1.6,25.73,4.78,40.8,15.44,67.74,43.8,80.55,85.48,1.43,4.68,2.21,9.65,1,14.63-1.22.8-2.3.22-3.19-.52-9.4-7.9-21.08-11.15-32.13-15.66-6.15-2.51-12.41-4.78-18.68-7A19.33,19.33,0,0,1,1023,492.89Z" transform="translate(-835 -415)"/><path class="cls-2" d="M835.08,556c1.87.88,1.64,2.74,1.9,4.3A125.29,125.29,0,0,0,940.09,663.1c1.7.28,3.73,0,4.92,1.82-35.4,0-70.79,0-106.19.08-3.11,0-3.83-.7-3.82-3.82C835.13,626.12,835.08,591.05,835.08,556Z" transform="translate(-835 -415)"/><path class="cls-2" d="M1083,520.11c-1.73-16.74-7.87-32-16.81-46-19.92-31.24-48.14-50.46-84.7-57.25-1.86-.35-4.06,0-5.48-1.8,35.14,0,70.29.05,105.43-.08,3,0,3.59.6,3.58,3.58-.13,35.14-.08,70.29-.08,105.43C1082.17,523.76,1082.19,522.13,1083,520.11Z" transform="translate(-835 -415)"/><path class="cls-3" d="M1083,520.11c.9,1.18.08,3.2,1.94,3.9v33c-1.35.63-1.93,2.76-4.32.87-14.33-11.33-29-22.21-40.77-36.44-7.1-8.62-13-18-16.87-28.52,8.67,1.66,16.58,5.59,24.77,8.64s16.29,6.65,24.37,10.13A25.91,25.91,0,0,1,1083,520.11Z" transform="translate(-835 -415)"/><path class="cls-4" d="M952,664.92a24.37,24.37,0,0,1,15,0Z" transform="translate(-835 -415)"/><path class="cls-5" d="M835.08,533a16.11,16.11,0,0,1,0,12Z" transform="translate(-835 -415)"/><path class="cls-6" d="M971,415.08a4.72,4.72,0,0,1-6,0Z" transform="translate(-835 -415)"/><path class="cls-7" d="M949,415.08c-.67.87-1.34,1-2,0Z" transform="translate(-835 -415)"/><path class="cls-8" d="M835.08,549c.86.67,1,1.34,0,2Z" transform="translate(-835 -415)"/></svg>