<svg xmlns="http://www.w3.org/2000/svg" viewBox="0 0 419.99 410.769"><defs><style>.a{fill:#00dacc;}</style></defs><path class="a" d="M604.54,299.98C602.079,184.005,506.1,92.024,390.123,94.485S182.167,192.926,184.628,308.9a209.574,209.574,0,0,0,126.435,187.96,178.958,178.958,0,0,0,23.072-49.836c4.307-10.767,8.921-21.226,13.536-31.378A65.287,65.287,0,0,0,413.2,399.036l.615-.615h0a65.953,65.953,0,0,0-62.449,9.229c5.845-12,12-24,18.458-35.377a65.92,65.92,0,0,0,66.14-13.536l.615-.615h0a65.168,65.168,0,0,0-61.833,5.845c6.46-10.767,13.228-21.227,20.3-31.071a65.512,65.512,0,0,0,65.218-19.38l.615-.615h0a64.162,64.162,0,0,0-57.526,8.921c.615-.616,1.23-1.538,1.845-2.154,4.307-5.537,8.614-10.767,12.921-16.3a77.6,77.6,0,0,0,52.3-60.295l.308-.923h-.308a76.8,76.8,0,0,0-55.988,59.065c-4.307,5.229-8.306,10.151-12.613,15.381a65.26,65.26,0,0,0-4.306-55.065h0l-.616.615a65.755,65.755,0,0,0-5.537,68.6c-6.768,9.537-13.228,19.073-19.38,29.225a65.813,65.813,0,0,0-16.92-57.527h0l-.308.923a65.061,65.061,0,0,0,11.383,67.371q-9.23,16.149-17.535,33.223a68.03,68.03,0,0,0-19.381-59.064h0l-.307.923a67.865,67.865,0,0,0,14.766,68.6c-3.692,8-7.076,15.69-10.46,24a6.376,6.376,0,0,0-3.076-1.845,69.876,69.876,0,0,1-16.919-7.691,95.312,95.312,0,0,0-13.844-6.46c-19.073-6.153-16.3-15.382-25.84-33.839a111.045,111.045,0,0,0-10.152-10.767,23.808,23.808,0,0,1-8-8.614,42.3,42.3,0,0,1-4-13.843,12.841,12.841,0,0,0-8.921-12C214.468,333.819,227.081,297.519,228,292.9a57.957,57.957,0,0,0-4-17.843c-.308-.615-.308-1.538-.616-2.153a24.349,24.349,0,0,1,5.845-21.226c3.384-3.384,15.074-8.922,17.535-12s4.307-6.768,6.768-9.536A103.385,103.385,0,0,1,280.3,211.076c8-4.307,9.537-15.689,12.613-19.073,5.23-5.845,13.228-5.845,19.381-11.383,3.076-2.768,7.383-4,10.151-6.767a92.309,92.309,0,0,1,50.451-23.38,119.538,119.538,0,0,1,39.069,3.384,35.694,35.694,0,0,1,5.537,1.23c28.917.923,63.679,7.076,76.292,19.381a55.621,55.621,0,0,1,13.536,21.841,88.578,88.578,0,0,0,8.306,18.15l7.69,12.613a35.459,35.459,0,0,1,4.307,26.764,23.553,23.553,0,0,0-.308,13.843,105.9,105.9,0,0,0,14.151,16.92,40.074,40.074,0,0,0,7.076,5.537c5.845,3.691,11.689,7.383,17.227,11.69a10.247,10.247,0,0,1-4,8.921c-4.922,4.307-14.459,11.382-14.459,11.382a19.55,19.55,0,0,0,1.846,5.537c1.538,2.461,4.614,6.46,3.384,9.537s-8,6.152-5.845,9.844c1.846,4,6.768,4.922,5.537,8.306-1.538,3.384-8.306,9.229-7.69,11.69s6.46,25.84-6.768,30.147a321.678,321.678,0,0,1-48.913,5.537,16.453,16.453,0,0,0-12.92,8,42.948,42.948,0,0,0-4.615,15.073,348.593,348.593,0,0,1-18.765,54.758,12.661,12.661,0,0,0-1.231,2.769,27.063,27.063,0,0,0-3.076,11.074,25.277,25.277,0,0,0,4.922,7.691,8.685,8.685,0,0,0,9.229,2.769C548.859,473.482,606.078,391.653,604.54,299.98Z" transform="translate(-184.58 -94.437)"/></svg>