<svg xmlns="http://www.w3.org/2000/svg" viewBox="0 0 200 200"><defs><style>.a{fill:none;}.b{fill:#f2b705;}.c{fill:#53cbc8;}</style></defs><rect class="a" width="200" height="200"/><path class="b" d="M98.2,4A71.867,71.867,0,0,0,26.334,75.868v0A72.8,72.8,0,0,0,27.608,89.4l9.284-6.359c16.322-11.194,42.8-11.194,59.118,0l9.742,6.672,5.28,3.629c14.712,10.08,38.545,10.08,53.243,0l4.332-2.966A71.913,71.913,0,0,0,98.228,4.031Z" transform="translate(0 0)"/><path class="c" d="M138.589,119.04c-10.828,0-21.182-2.938-28.978-8.281L94.6,100.472c-7.186-4.94-16.836-7.66-27.147-7.66s-19.964,2.7-27.15,7.66L30.6,107.117a4.216,4.216,0,1,1-4.812-6.924l.048-.033,9.7-6.645c8.581-5.887,19.909-9.123,31.915-9.123s23.332,3.236,31.913,9.123l15.01,10.287a46.383,46.383,0,0,0,48.425,0l5.7-3.9a4.215,4.215,0,1,1,4.867,6.883q-.053.038-.105.072l-5.7,3.9C159.729,116.118,149.418,119.04,138.589,119.04Z" transform="translate(0 0)"/><path class="c" d="M67.14,149.222V108.615a16.076,16.076,0,0,1,.108-2.558A4.572,4.572,0,0,1,71.8,102a4.426,4.426,0,0,1,4.291,4.059,24.538,24.538,0,0,1,.148,4.25v80.961c-.243,3-2.123,4.981-4.655,4.927s-4.36-2.111-4.371-5.156V164.054Z" transform="translate(0 0)"/><path class="c" d="M58.6,128.785v20.179c0,3.453-1.842,5.739-4.452,5.657s-4.588-2.408-4.6-5.7V108.58c0-3.534,2.058-5.918,4.737-5.781s4.278,2.274,4.291,5.8C58.614,115.332,58.6,122.058,58.6,128.785Z" transform="translate(0 0)"/><path class="c" d="M84.818,128.758V114.574c0-3.289,1.745-5.413,4.344-5.413s4.6,2.192,4.63,5.29q.147,14.482,0,28.952c0,3.288-1.937,5.263-4.6,5.238s-4.369-2.047-4.4-5.414V128.744Z" transform="translate(0 0)"/><path class="c" d="M31.952,131.708V117.521c0-3.287,1.746-5.412,4.344-5.412s4.6,2.192,4.631,5.29q.133,14.483,0,28.952c0,3.288-1.951,5.263-4.6,5.237s-4.371-2.047-4.4-5.414V131.7Z" transform="translate(0 0)"/><path class="c" d="M106.851,119.635h.013a4.454,4.454,0,0,1,4.453,4.455V131.8a4.455,4.455,0,0,1-4.453,4.453h-.013A4.454,4.454,0,0,1,102.4,131.8V124.09A4.457,4.457,0,0,1,106.851,119.635Z" transform="translate(0 0)"/><path class="c" d="M124.5,126.39h.013a4.454,4.454,0,0,1,4.453,4.455v43.267a4.452,4.452,0,0,1-4.452,4.452H124.5a4.451,4.451,0,0,1-4.452-4.45V130.845A4.454,4.454,0,0,1,124.5,126.39Z" transform="translate(0 0)"/><path class="c" d="M142.027,128.067h.013a4.454,4.454,0,0,1,4.455,4.453v36.773a4.453,4.453,0,0,1-4.455,4.451h-.013a4.45,4.45,0,0,1-4.452-4.448V132.521a4.452,4.452,0,0,1,4.45-4.454Z" transform="translate(0 0)"/><path class="c" d="M159.8,123.872h.013a4.453,4.453,0,0,1,4.453,4.453h0v15.861a4.454,4.454,0,0,1-4.453,4.453H159.8a4.452,4.452,0,0,1-4.452-4.452h0v-15.86a4.452,4.452,0,0,1,4.45-4.454Z" transform="translate(0 0)"/></svg>