<?xml version="1.0" encoding="utf-8"?>
<!-- Generator: Adobe Illustrator 25.0.1, SVG Export Plug-In . SVG Version: 6.00 Build 0)  -->
<svg version="1.1" id="katman_1" xmlns="http://www.w3.org/2000/svg" xmlns:xlink="http://www.w3.org/1999/xlink" x="0px" y="0px"
	 viewBox="0 0 32 32" style="enable-background:new 0 0 32 32;" xml:space="preserve">
<g>
	<path d="M22.8,4.8l-4.7,7.7c-0.3,0.5,0.3,1.2,0.8,0.7l4.7-4.4c0.1-0.1,0.3,0,0.3,0.2v13.9c0,0.2-0.2,0.3-0.3,0.1L9.4,4.5
		C8.9,3.9,8.3,3.6,7.6,3.6H7.1c-1.3,0-2.4,1.2-2.4,2.6v19.5c0,1.5,1.1,2.6,2.4,2.6c0.8,0,1.6-0.5,2.1-1.3l4.7-7.7
		c0.3-0.5-0.3-1.2-0.8-0.7l-4.7,4.4c-0.1,0.1-0.3,0-0.3-0.2V9.1c0-0.2,0.2-0.3,0.3-0.1l14.1,18.5c0.5,0.6,1.1,0.9,1.8,0.9h0.5
		c1.3,0,2.4-1.2,2.4-2.6V6.2c0-1.5-1.1-2.6-2.4-2.6C24.1,3.6,23.3,4,22.8,4.8z"/>
</g>
</svg>
