<?xml version="1.0" encoding="UTF-8"?>
<svg width="125px" height="125px" viewBox="0 0 125 125" version="1.1" xmlns="http://www.w3.org/2000/svg" xmlns:xlink="http://www.w3.org/1999/xlink">
    <!-- Generator: Sketch 56.3 (81716) - https://sketch.com -->
    <title>ngn</title>
    <desc>Created with Sketch.</desc>
    <g id="ngn" stroke="none" stroke-width="1" fill="none" fill-rule="evenodd">
        <path d="M0,62.5 C0,27.980957 27.980957,0 62.5,0 C97.019043,0 125,27.9858398 125,62.5 C125,97.0141602 97.0166016,125 62.5,125 C27.9833984,125 0,97.019043 0,62.5 Z" id="Path" fill="#6CDE07" fill-rule="nonzero"></path>
        <path d="M20,75.7705922 L20,66.9482641 L29.7917485,66.9482641 L29.7917485,59.4329476 L20,59.4329476 L20,50.6106195 L29.7917485,50.6106195 L29.7917485,23 L42.719057,23 L60.1021611,50.6106195 L83.5363458,50.6106195 L83.5363458,23 L93.9332024,23 L93.9332024,50.6106195 L104,50.6106195 L104,59.4329476 L93.9332024,59.4329476 L93.9332024,66.9482641 L104,66.9482641 L104,75.7705922 L93.9332024,75.7705922 L93.9332024,103 L81.6660118,103 L64.2278978,75.7705922 L40.2436149,75.7705922 L40.2436149,103 L29.7917485,103 L29.7917485,75.7705922 L20,75.7705922 Z M40,68 L58,68 L53.257485,60 L40,60 L40,68 Z M70.7630769,68 L84,68 L84,60 L66,60 L70.7630769,68 Z M41,52 L49,52 L41,40 L41,52 Z M83,89 L83,77 L75,77 L83,89 Z" id="₦" fill="#FFFFFF" fill-rule="nonzero"></path>
    </g>
</svg>