<svg xmlns="http://www.w3.org/2000/svg" viewBox="0 0 200 200"><defs><style>.a{fill:#ffb150;}.b{fill:#afb395;}.c{fill:#fff;}.d{fill:#ffffd1;}</style></defs><path d="M198,491.89v-13c3.309.2,6.772,1.1,9.884.414,3.184-.7,6.024-2.961,9.014-4.538l-.892-2.268a53.59,53.59,0,0,0-5.61,1.631c-1.775.719-3.315,2.11-5.124,2.632A54.04,54.04,0,0,1,198,477.89v-67l64.943,2.58c.82,7.073,1.653,14.262,2.485,21.451a6.92,6.92,0,0,0,1.38-4.673c-.054-5.647-.419-11.305-.18-16.938.162-3.843-1.109-4.733-4.868-4.688-21.251.255-42.506.21-63.76.268v-3c13.25.192,26.5.641,39.748.486,8.659-.1,17.308-1.1,25.965-1.628a5.256,5.256,0,0,1,2.2.656c5.066,2.186,6.731,5.919,6.034,11.418-.568,4.481-.116,9.091-.116,14.856,2.732-3,6.545-5.509,6.2-7.1-1.638-7.472-1.364-15.963-8.654-21.226-2.994-2.161-3.934-5.121-2.959-8.774,1.445-5.41,7.176-10.157,12.757-10.37,11.4-.435,13.755-3.056,12.082-14.521-.538-3.686-2.834-7.118-3.356-10.8-1.087-7.683-1.27-15.432,2.043-22.79,1-2.222,1.428-4.566-1.8-4.889a63.57,63.57,0,0,0-12.925-.2c-1.42.149-3.711,2.652-3.7,4.068.077,13.955.262,27.924,1.033,41.855.427,7.711-3.333,12.3-11,11.241a110.629,110.629,0,0,0-21.043-.767c-9.669.5-19.4,0-29.095-.29-4.478-.134-8.939-.793-13.408-1.214v-5h67.716c1.695-11.032.178-51.751-2.5-54.5v51.69c-10.427,0-20.381.025-30.335-.006-11.627-.037-23.253-.122-34.879-.186v-3c14.471.28,28.941.591,43.412.826,5.727.093,11.456.015,17.718.015-.671-1.155-.983-2.178-1.308-2.182q-29.91-.409-59.822-.659v-52H398v8c-4.677-.861-8.653.665-12.925,2.614-2.7,1.235-4.195,2.1-4.117,4.984.239,8.895.5,17.788.772,27.4H398v9l-17.706.8.155,2.2H398v3H384.482l-.127,1.656c4.153,2.835,9.153.559,13.645,1.344v40q-4.925-6.121-9.847-12.243c-2.711-3.376-4.327-8.026-9.8-8.283l-1.821,5.431c-2-.233-3.508-.14-4.788-.63-1.375-.527-3.447-1.429-3.645-2.468-1.074-5.625-4.493-7.285-9.826-7.85-3.445-.365-5.809-.121-8.073,2.906l4.179,2.054-25.664,8.844,4.133-4.451-.876-.888c-4.831,3.627-9.788,7.1-14.46,10.921-5.46,4.464-10.764,9.133-15.925,13.939-1.338,1.247-1.889,3.338-2.8,5.041,1.839-.33,3.828-.323,5.488-1.057,4.2-1.86,7.129-6.908,11.109-5.289,3.59-2.015,5.973-4.329,8.59-4.634,7.241-.844,5.78,7.92,10.97,9.686l-.451,1.379L324.2,435.771l-.024,1.168,5.28,2.344c-5.568,4.508-10.393,8.621-15.439,12.443-5.184,3.926-10.585,7.566-15.988,11.4-5.624-8.829-10.238.006-15.143,1.105-1.332.3-1.822,4.36-2.495,6.153-1.945.073-4.609.36-7.253.235-6.1-.288-8.814,4.913-12.643,8-3.334,2.691-2.149,4.982,2.487,6.083l-15.008,9.574c6.794,2.757,13.792-1.258,17.159-9.04-1.642,5.814-2.486,12.316-10.782,12.359-.327,0-.638.641-.98.957-1.613,1.494-3.234,2.98-3.847,3.543-1.256,4.8-2.336,8.932-3.548,13.566L248,520.89H198v-4h16.677l.027-1H198v-5l8.715.809c-1.4-4.846-3.5-10.321-4.424-15.987C201.776,492.559,200.641,491.818,198,491.89ZM298.331,357.024l12.815-3.953c-.558,3.173-.234,5.766-1.364,6.865a42.547,42.547,0,0,1-9.159,6.576c-2.828,1.557-2.461,3.346-1.033,5.23,3.231,4.265,6.677,8.367,10.175,12.708,1.421-7.024,7.383-5.625,12.032-6.25,2.069-.278,4.335.918,6.512,1.445l-.5.885-13.383,3.217.28,1.629,9.23-.777c1.758,6.479-8.351,3.493-7.463,9.57,1.307-.2,2.693.016,3.422-.579,5.668-4.624,11.29-9.314,16.747-14.184,1.85-1.651,3.088-5.466,4.773-5.57,7.739-.475,10.805-7.807,16.84-10.583.472-.217.43-1.83.413-2.791-.147-8.154-.288-16.309-.561-24.459-.075-2.24-.591-4.466-.993-7.321-5.276,0-10.064-.192-14.82.116-1.435.093-3.609,1.311-3.98,2.479-.625,1.968-.995,5.263.123,6.334,6.9,6.612,4.509,14.778,5.369,22.765-3.678-.8-6.6-1.761-4.2,3.147.628,1.285-.124,3.244-.291,5.586-1.168-1.043-1.657-1.29-1.836-1.68a5.8,5.8,0,0,1-.695-2.344,37.125,37.125,0,0,0-6.442-21.471c-3.826-5.853-9.843-9.783-16.711-9.054-7.513.8-14.715,6.43-15.923,13.1C297.218,350.372,298.038,353.318,298.331,357.024Zm-45.957,65.223h-50.6c1.386,2.023,1.867,3.591,2.81,3.952,4,1.533,3.869,4.643,3.8,8.052-.142,7.31-.074,14.625-.049,21.937.021,6.348,3.962,10.321,9.967,10.247l3.238-4.647c1.818,4.772,4.428,4.821,7.542,2.284,3.05-2.484,5.762-5.539,9.132-7.441,6.681-3.772,10.635-8.179,8.849-16.672-.874-4.156-2.073-5.768-6.03-4.592-4.369,1.3-6.407.075-5.763-4.68C239.439,432.7,249.929,427.967,252.374,422.247Zm-5.522-59.623c0-8.551.007-17,0-25.451-.008-6.663-1.467-7.77-8.117-8.351-9.6-.838-18.53,1.976-27.552,4.334-1.217.318-2.865,2.114-2.91,3.28q-.44,11.453-.1,22.927c.032,1.113,1.826,3.1,2.833,3.119C222.754,362.7,234.511,362.624,246.852,362.624Zm-28,147.595c2.2-1.1,5.755-1.921,7.808-4.138,2.383-2.573,5.157-6.717,4.582-9.53-.533-2.607-1.37-9.158-7.877-6.877-.435.152-1.169-.315-1.674-.635-5.839-3.7-11.417-.015-17.074.7a3.072,3.072,0,0,0-1.7,2.522,4.894,4.894,0,0,0,2.377,2.586,8.846,8.846,0,0,0,3.015.564C209.082,502.17,213.819,505.894,218.85,510.219ZM363.527,325.968v32.111C366.87,355.575,367.009,330.8,363.527,325.968ZM312.852,438.984l-1.7-1.067a53.4,53.4,0,0,0-4.583,4.369c-.58.685-.922,2.613-.615,2.813.932.607,3.033,1.172,3.263.822A66.384,66.384,0,0,0,312.852,438.984Zm-54.141-104-.241.007V363.71l.241-.006Zm111.776,5.7-.622-.036v10.411l.622-.046Z" transform="translate(-198 -320.89)"/><path class="a" d="M262.977,484.706c-4.636-1.1-5.821-3.392-2.487-6.083,3.829-3.09,6.54-8.291,12.643-8,2.644.125,5.308-.162,7.253-.235.673-1.793,1.163-5.855,2.495-6.153,4.905-1.1,9.519-9.934,15.143-1.105,5.4-3.835,10.8-7.475,15.988-11.4,5.046-3.822,9.871-7.935,15.439-12.443l-5.28-2.344.024-1.168,10.293-1.473.451-1.379c-5.19-1.766-3.729-10.53-10.97-9.686-2.617.305-5,2.619-8.59,4.634-3.98-1.619-6.908,3.429-11.109,5.289-1.66.734-3.649.727-5.488,1.057.913-1.7,1.464-3.794,2.8-5.041,5.161-4.806,10.465-9.475,15.925-13.939,4.672-3.822,9.629-7.294,14.46-10.921l.876.888-4.133,4.451,25.664-8.844-4.179-2.054c2.264-3.027,4.628-3.271,8.073-2.906,5.333.565,8.752,2.225,9.826,7.85.2,1.039,2.27,1.941,3.645,2.468,1.28.49,2.784.4,4.788.63l1.821-5.431c5.476.257,7.092,4.907,9.8,8.283q4.918,6.125,9.847,12.243v90l-7.413,1.972-5.513-3.592-6.01,6.429,3.975,3.774-.039.417H347l.615-4.41-8.977,1.7c2.7-1.878,1.6-2.674-.87-3.157-5.673-1.109-9.068,2.7-12.768,5.863H290l3.143-3.293-4.266-1.924c.937-4.66,4.076-9.191-.307-13.471,14.668-3.411,16.714-4.734,16.259-10.546l-2.139,1.082-.5-1.583,11.611-2.367-.544-6.9h5.119l-1.976-4.167,5.641-10.548-1.36-1.008c-11.458,8.93-23.343,17.372-34.257,26.924-11.126,9.738-23.776,17.521-34.423,27.8h-4l-2.029-5.225c1.212-4.634,2.292-8.762,3.548-13.566.613-.563,2.234-2.049,3.847-3.543.342-.316.653-.955.98-.957,8.3-.043,9.14-6.545,10.793-12.352C264.425,485.072,263.7,484.889,262.977,484.706Zm111.581,15.871,9.808.557.038-.735-3.687-1.932c8-2.348,8.092-9.132,11.314-14.223-6.264-1.562-10.48,7.926-15.923,1.358C369.282,490.41,379.342,494.984,374.558,500.577Zm-22.413-43.413a44.113,44.113,0,0,0-2.827-4.867,24.424,24.424,0,0,0-4.087-4.111c-.4-.305-2.511.823-2.488.9.791,2.721,1.191,5.862,2.9,7.888C346.543,458.045,349.762,457.164,352.145,457.164Z" transform="translate(-198 -320.89)"/><path class="b" d="M198,385.89c4.469.421,8.93,1.08,13.408,1.214,9.7.291,19.426.787,29.1.29a110.629,110.629,0,0,1,21.043.767c7.667,1.062,11.427-3.53,11-11.241-.771-13.931-.956-27.9-1.033-41.855-.007-1.416,2.284-3.919,3.7-4.068a63.57,63.57,0,0,1,12.925.2c3.227.323,2.8,2.667,1.8,4.889-3.313,7.358-3.13,15.107-2.043,22.79.522,3.686,2.818,7.118,3.356,10.8,1.673,11.465-.68,14.086-12.082,14.521-5.581.213-11.312,4.96-12.757,10.37-.975,3.653-.035,6.613,2.959,8.774,7.29,5.263,7.016,13.754,8.654,21.226.349,1.593-3.464,4.1-6.2,7.1,0-5.765-.452-10.375.116-14.856.7-5.5-.968-9.232-6.034-11.418a5.256,5.256,0,0,0-2.2-.656c-8.657.53-17.306,1.526-25.965,1.628-13.246.155-26.5-.294-39.748-.486Z" transform="translate(-198 -320.89)"/><path d="M252,520.89c10.647-10.279,23.3-18.062,34.423-27.8,10.914-9.552,22.8-17.994,34.257-26.924l1.36,1.008L316.4,477.722l1.976,4.167h-5.119l.544,6.9-11.611,2.367.5,1.583,2.139-1.082c.455,5.812-1.591,7.135-16.259,10.546,4.383,4.28,1.244,8.811.307,13.471l4.266,1.924L290,520.89Z" transform="translate(-198 -320.89)"/><path class="b" d="M398,363.89H381.73c-.273-9.614-.533-18.507-.772-27.4-.078-2.885,1.412-3.749,4.117-4.984,4.272-1.949,8.248-3.475,12.925-2.614Z" transform="translate(-198 -320.89)"/><path class="c" d="M198,377.89c11.626.064,23.252.149,34.879.186,9.954.031,19.908.006,30.335.006v-51.69c2.68,2.747,4.2,43.466,2.5,54.5H198Z" transform="translate(-198 -320.89)"/><path class="c" d="M198,408.89c21.254-.058,42.509-.013,63.76-.268,3.759-.045,5.03.845,4.868,4.688-.239,5.633.126,11.291.18,16.938a6.92,6.92,0,0,1-1.38,4.673c-.832-7.189-1.665-14.378-2.485-21.451L198,410.89Z" transform="translate(-198 -320.89)"/><path class="c" d="M198,372.89q29.911.3,59.822.659c.325,0,.637,1.027,1.308,2.182-6.262,0-11.991.078-17.718-.015-14.471-.235-28.941-.546-43.412-.826Z" transform="translate(-198 -320.89)"/><path class="d" d="M198,491.89c2.641-.072,3.776.669,4.291,3.822.926,5.666,3.022,11.141,4.424,15.987L198,510.89Z" transform="translate(-198 -320.89)"/><path class="a" d="M390.587,513.862,398,511.89v9H383l.039-.417c.5-2.141,1-4.281,1.276-5.491Z" transform="translate(-198 -320.89)"/><path d="M325,520.89c3.7-3.163,7.1-6.972,12.768-5.863,2.469.483,3.572,1.279.891,3.149-1.206.9-2.432,1.807-3.659,2.714Z" transform="translate(-198 -320.89)"/><path class="c" d="M198,477.89a54.04,54.04,0,0,0,7.272-1.129c1.809-.522,3.349-1.913,5.124-2.632a53.59,53.59,0,0,1,5.61-1.631l.892,2.268c-2.99,1.577-5.83,3.835-9.014,4.538-3.112.687-6.575-.212-9.884-.414Z" transform="translate(-198 -320.89)"/><path class="c" d="M398,375.89H380.449l-.155-2.2,17.706-.8Z" transform="translate(-198 -320.89)"/><path d="M335,520.89c1.227-.907,2.453-1.814,3.659-2.714,2.813-.53,5.647-1.068,8.956-1.7L347,520.89Z" transform="translate(-198 -320.89)"/><path class="c" d="M398,381.89c-4.492-.785-9.492,1.491-13.645-1.344l.127-1.656H398Z" transform="translate(-198 -320.89)"/><path class="c" d="M198,515.89h16.7l-.027,1H198Z" transform="translate(-198 -320.89)"/><path class="d" d="M298.331,357.024c-.293-3.706-1.113-6.652-.623-9.36,1.208-6.674,8.41-12.306,15.923-13.1,6.868-.729,12.885,3.2,16.711,9.054a37.125,37.125,0,0,1,6.442,21.471,5.8,5.8,0,0,0,.695,2.344c.179.39.668.637,1.836,1.68.167-2.342.919-4.3.291-5.586-2.4-4.908.524-3.943,4.2-3.147-.86-7.987,1.534-16.153-5.369-22.765-1.118-1.071-.748-4.366-.123-6.334.371-1.168,2.545-2.386,3.98-2.479,4.756-.308,9.544-.116,14.82-.116.4,2.855.918,5.081.993,7.321.273,8.15.414,16.305.561,24.459.017.961.059,2.574-.413,2.791-6.035,2.776-9.1,10.108-16.84,10.583-1.685.1-2.923,3.919-4.773,5.57-5.457,4.87-11.079,9.56-16.747,14.184-.729.6-2.115.383-3.422.579-.888-6.077,9.221-3.091,7.463-9.57l-9.23.777-.28-1.629,13.383-3.217.5-.885c-2.177-.527-4.443-1.723-6.512-1.445-4.649.625-10.611-.774-12.032,6.25-3.5-4.341-6.944-8.443-10.175-12.708-1.428-1.884-1.795-3.673,1.033-5.23a42.547,42.547,0,0,0,9.159-6.576c1.13-1.1.806-3.692,1.364-6.865Zm16.316-4.58c1.868,5.553,3.476,6.53,9.4,4.66,3.042-.96,6.21-2.728,1.027-5.6-.022-.012.147-.291.154-.448.122-2.631-.244-3.063-2.1-2.3C320.281,349.938,317.472,351.211,314.647,352.444Zm6.559,18.365L321,369.1c-3.21.494-6.593.545-9.543,1.7-1.17.459-1.376,3.374-2.022,5.17L311,377.244Z" transform="translate(-198 -320.89)"/><path class="b" d="M252.374,422.247c-2.445,5.72-12.935,10.454-17.1,8.44-.644,4.755,1.394,5.978,5.763,4.68,3.957-1.176,5.156.436,6.03,4.592,1.786,8.493-2.168,12.9-8.849,16.672-3.37,1.9-6.082,4.957-9.132,7.441-3.114,2.537-5.724,2.488-7.542-2.284l-3.238,4.647c-6,.074-9.946-3.9-9.967-10.247-.025-7.312-.093-14.627.049-21.937.065-3.409.2-6.519-3.8-8.052-.943-.361-1.424-1.929-2.81-3.952Zm-12.466,27.282,1.161,1.126c1.445-.7,4.075-1.341,4.117-2.119.138-2.555-.664-5.16-1.105-7.746a7.308,7.308,0,0,0-2.468,1.013c-1.66,1.625-2.982,3.613-4.715,5.143-2.854,2.518-3.524,5.284-1.91,9.128C236.817,453.642,238.363,451.586,239.908,449.529Zm-23.089-6.416c2.339-4.943,1.867-5.516-5.045-7.541C206.414,443.09,216.345,439.212,216.819,443.113Z" transform="translate(-198 -320.89)"/><path class="b" d="M246.852,362.624c-12.341,0-24.1.079-35.85-.142-1.007-.018-2.8-2.006-2.833-3.119q-.329-11.457.1-22.927c.045-1.166,1.693-2.962,2.91-3.28,9.022-2.358,17.952-5.172,27.552-4.334,6.65.581,8.109,1.688,8.117,8.351C246.859,345.623,246.852,354.073,246.852,362.624Z" transform="translate(-198 -320.89)"/><path class="a" d="M218.85,510.219c-5.031-4.325-9.768-8.049-10.539-14.809a8.846,8.846,0,0,1-3.015-.564,4.894,4.894,0,0,1-2.377-2.586,3.072,3.072,0,0,1,1.7-2.522c5.657-.714,11.235-4.4,17.074-.7.5.32,1.239.787,1.674.635,6.507-2.281,7.344,4.27,7.877,6.877.575,2.813-2.2,6.957-4.582,9.53C224.605,508.3,221.049,509.123,218.85,510.219Z" transform="translate(-198 -320.89)"/><path class="c" d="M363.527,325.968c3.482,4.827,3.343,29.607,0,32.111Z" transform="translate(-198 -320.89)"/><path class="c" d="M262.977,484.706c.724.183,1.448.366,2.162.541-3.378,7.775-10.376,11.79-17.17,9.033Z" transform="translate(-198 -320.89)"/><path class="c" d="M312.852,438.984a66.384,66.384,0,0,1-3.637,6.937c-.23.35-2.331-.215-3.263-.822-.307-.2.035-2.128.615-2.813a53.4,53.4,0,0,1,4.583-4.369Z" transform="translate(-198 -320.89)"/><path class="c" d="M258.711,334.988V363.7l-.241.006V335Z" transform="translate(-198 -320.89)"/><path class="c" d="M370.487,340.688v10.329l-.622.046V340.652Z" transform="translate(-198 -320.89)"/><path d="M374.558,500.577c4.784-5.593-5.276-10.167,1.55-14.975,5.443,6.568,9.659-2.92,15.923-1.358-3.222,5.091-3.316,11.875-11.314,14.223L384.4,500.4l-.038.735Z" transform="translate(-198 -320.89)"/><path d="M352.145,457.164c-2.383,0-5.6.881-6.5-.189-1.707-2.026-2.107-5.167-2.9-7.888-.023-.078,2.083-1.206,2.488-.9a24.424,24.424,0,0,1,4.087,4.111A44.113,44.113,0,0,1,352.145,457.164Z" transform="translate(-198 -320.89)"/><path d="M390.587,513.862l-6.272,1.12c-.281,1.21-.779,3.35-1.276,5.491l-3.975-3.774,6.01-6.429Z" transform="translate(-198 -320.89)"/><path d="M314.647,352.444c2.825-1.233,5.634-2.506,8.483-3.685,1.854-.767,2.22-.335,2.1,2.3-.007.157-.176.436-.154.448,5.183,2.873,2.015,4.641-1.027,5.6C318.123,358.974,316.515,358,314.647,352.444Z" transform="translate(-198 -320.89)"/><path d="M321.206,370.809,311,377.244l-1.564-1.268c.646-1.8.852-4.711,2.022-5.17,2.95-1.157,6.333-1.208,9.543-1.7Z" transform="translate(-198 -320.89)"/><path d="M239.908,449.529c-1.545,2.057-3.091,4.113-4.92,6.545-1.614-3.844-.944-6.61,1.91-9.128,1.733-1.53,3.055-3.518,4.715-5.143a7.308,7.308,0,0,1,2.468-1.013c.441,2.586,1.243,5.191,1.105,7.746-.042.778-2.672,1.417-4.117,2.119Z" transform="translate(-198 -320.89)"/><path d="M216.819,443.113c-.474-3.9-10.4-.023-5.045-7.541C218.686,437.6,219.158,438.17,216.819,443.113Z" transform="translate(-198 -320.89)"/></svg>