<svg xmlns="http://www.w3.org/2000/svg" viewBox="0 0 351 351"><defs><style>.a{fill:#ffe229;}</style></defs><path class="a" d="M473,596.89H122v-351H473ZM186.157,343.574c-.124,1.98-.259,3.123-.259,4.267q-.012,75.738-.08,151.477c-.009,3.911,1.422,4.725,4.957,4.7,18.33-.134,36.662-.186,54.99.029,4.377.052,5.8-1.256,5.726-5.661-.233-14.327-.1-28.661-.074-42.992,0-1.742.207-3.484.338-5.546H264.8c21.33,0,42.661-.071,63.99.045,12.028.065,17.011,5.182,17.041,17.043.028,10.665.113,21.332-.041,32-.051,3.486.762,5.126,4.69,5.093,18.829-.158,37.661-.122,56.491-.021,3.152.017,4.446-.891,4.407-4.236-.158-13.662.4-27.353-.264-40.985-.678-13.833-7.152-24.761-19.41-31.826-2.209-1.274-4.526-2.36-5.816-3.027,5.373-4.424,11.951-8.051,16.054-13.531,16.556-22.121,5.687-53.881-21.543-61.741A137.728,137.728,0,0,0,344,343.79c-50.82-.518-101.649-.217-152.475-.216Z" transform="translate(-122 -245.89)"/><path d="M186.157,343.574h5.364c50.826,0,101.655-.3,152.475.216a137.728,137.728,0,0,1,36.407,4.866c27.23,7.86,38.1,39.62,21.543,61.741-4.1,5.48-10.681,9.107-16.054,13.531,1.29.667,3.607,1.753,5.816,3.027,12.258,7.065,18.732,17.993,19.41,31.826.669,13.632.106,27.323.264,40.985.039,3.345-1.255,4.253-4.407,4.236-18.83-.1-37.662-.137-56.491.021-3.928.033-4.741-1.607-4.69-5.093.154-10.663.069-21.33.041-32-.03-11.861-5.013-16.978-17.041-17.043-21.329-.116-42.66-.041-63.99-.045H251.755c-.131,2.062-.335,3.8-.338,5.546-.026,14.331-.159,28.665.074,42.992.071,4.405-1.349,5.713-5.726,5.661-18.328-.215-36.66-.163-54.99-.029-3.535.026-4.966-.788-4.957-4.7q.179-75.738.08-151.477C185.9,346.7,186.033,345.554,186.157,343.574ZM294.311,405.74v-.016c11.648,0,23.3.033,34.945-.027a38.734,38.734,0,0,0,7.429-.616,6.052,6.052,0,0,0,5.215-6.374c.024-3.314-1.323-5.921-4.75-6.731a30.484,30.484,0,0,0-6.876-.806c-22.963-.058-45.928-.121-68.891,0-11.419.058-9.659-2.1-10.056,10-.13,3.987,1.574,4.68,5.044,4.638C269.016,405.647,281.664,405.74,294.311,405.74Z" transform="translate(-122 -245.89)"/><path class="a" d="M294.311,405.74c-12.647,0-25.295-.093-37.94.06-3.47.042-5.174-.651-5.044-4.638.4-12.1-1.363-9.938,10.056-10,22.963-.117,45.928-.054,68.891,0a30.484,30.484,0,0,1,6.876.806c3.427.81,4.774,3.417,4.75,6.731a6.052,6.052,0,0,1-5.215,6.374,38.734,38.734,0,0,1-7.429.616c-11.648.06-23.3.027-34.945.027Z" transform="translate(-122 -245.89)"/></svg>