<?xml version="1.0" encoding="UTF-8"?>
<svg width="125px" height="125px" viewBox="0 0 125 125" version="1.1" xmlns="http://www.w3.org/2000/svg" xmlns:xlink="http://www.w3.org/1999/xlink">
    <!-- Generator: Sketch 56.3 (81716) - https://sketch.com -->
    <title>rub</title>
    <desc>Created with Sketch.</desc>
    <g id="rub" stroke="none" stroke-width="1" fill="none" fill-rule="evenodd">
        <path d="M0,62.5 C0,27.980957 27.980957,0 62.5,0 C97.019043,0 125,27.9858398 125,62.5 C125,97.0141602 97.0166016,125 62.5,125 C27.9833984,125 0,97.019043 0,62.5 Z" id="Path" fill="#6CDE07" fill-rule="nonzero"></path>
        <path d="M31,59.1061693 L40.2608696,59.1061693 L40.2608696,17 L64.1304348,17 C68.5652396,17 72.6086774,17.5059729 76.2608696,18.517934 C79.9130617,19.5298951 83.0434652,21.0698127 85.6521739,23.1377331 C88.2608826,25.2056536 90.3043404,27.8235294 91.7826087,30.9913917 C93.260877,34.1592698 94,37.9430674 94,42.3428981 C94,46.7427288 93.2173991,50.5705241 91.6521739,53.8263989 C90.0869487,57.0822736 87.9565352,59.7881289 85.2608696,61.9440459 C82.5652039,64.099963 79.3913226,65.7058771 75.7391304,66.7618364 C72.0869383,67.8177958 68.1304561,68.3457676 63.8695652,68.3457676 L50.6956522,68.3457676 L50.6956522,81.6771879 L71.6956522,81.6771879 L71.6956522,90.3888092 L50.6956522,90.3888092 L50.6956522,109 L40.2608696,109 L40.2608696,90.3888092 L31,90.3888092 L31,81.6771879 L40.2608696,81.6771879 L40.2608696,68.3457676 L31,68.3457676 L31,59.1061693 Z M63.5418327,60 C69.5896717,60 74.3446042,58.6084477 77.8067729,55.8253012 C81.2689416,53.0421548 83,48.8233214 83,43.1686747 C83,37.514028 81.2689416,33.4056353 77.8067729,30.8433735 C74.3446042,28.2811117 69.5896717,27 63.5418327,27 L50,27 L50,60 L63.5418327,60 Z" id="₽" fill="#FFFFFF" fill-rule="nonzero"></path>
    </g>
</svg>