<svg xmlns="http://www.w3.org/2000/svg" viewBox="0 0 500 500"><defs><style>.a{fill:#fff;}.b{fill:#4a6fee;}</style></defs><path d="M48,438.89v-36a44.558,44.558,0,0,0,1.172-5.3c2.018-20.146,5.712-39.99,12.924-58.918C96.57,248.2,161.242,193.273,256.4,174.6c7.808-1.532,15.729-2.49,23.6-3.714h36c4.9.768,9.794,1.646,14.715,2.288C439.35,187.342,526.8,271.86,544.415,379.761c1.256,7.7,2.393,15.419,3.585,23.129v36c-.748,4.744-1.622,9.472-2.226,14.235C532,561.753,447.18,649.68,339.115,667.291c-7.7,1.255-15.41,2.4-23.115,3.6H280c-4.575-.726-9.135-1.571-13.728-2.161A249.776,249.776,0,0,1,51.5,461.525C50.258,453.992,49.164,446.435,48,438.89ZM301.924,248.219c-1.414,1.236-2.735,2.205-3.834,3.382q-24.694,26.452-49.342,52.952c-13.837,14.842-28.229,29.207-41.421,44.6-18.981,22.149-25.947,48.306-21.343,77.03,4.977,31.047,20.365,55.79,47.211,72.848,4.919,3.125,11.6,4.783,14.7,9.1,3.31,4.6,3.227,11.594,4.831,17.486,6.861,25.192,21.212,45.933,38.6,64.888,2.672,2.911,4.345,1.658,6.447-.589q19.437-20.778,39.009-41.431c16.508-17.367,33.584-34.225,49.446-52.16a113.259,113.259,0,0,0,17.549-27.538c8.556-18.622,9.507-38.358,5.261-58.447-6.287-29.741-22.3-52.482-48.07-68.511-2.583-1.606-4.007-1.347-5.783,1-1.383,1.828-3.355,3.211-6.161,5.805C346.908,307.746,329.764,275.675,301.924,248.219Z" transform="translate(-48 -170.89)"/><path class="a" d="M280,170.89c-7.868,1.224-15.789,2.182-23.6,3.714C161.242,193.273,96.57,248.2,62.1,338.673,54.884,357.6,51.19,377.445,49.172,397.591A44.558,44.558,0,0,1,48,402.89v-232Z" transform="translate(-48 -170.89)"/><path class="a" d="M48,438.89c1.164,7.545,2.258,15.1,3.5,22.635a249.776,249.776,0,0,0,214.77,207.2c4.593.59,9.153,1.435,13.728,2.161H48Z" transform="translate(-48 -170.89)"/><path class="a" d="M548,402.89c-1.192-7.71-2.329-15.43-3.585-23.129C526.8,271.86,439.35,187.342,330.715,173.178c-4.921-.642-9.811-1.52-14.715-2.288H548Z" transform="translate(-48 -170.89)"/><path class="a" d="M316,670.89c7.7-1.2,15.419-2.344,23.115-3.6C447.18,649.68,532,561.753,545.774,453.125c.6-4.763,1.478-9.491,2.226-14.235v232Z" transform="translate(-48 -170.89)"/><path class="b" d="M301.924,248.219c27.84,27.456,44.984,59.527,47.1,100.418,2.806-2.594,4.778-3.977,6.161-5.805,1.776-2.346,3.2-2.605,5.783-1,25.772,16.029,41.783,38.77,48.07,68.511,4.246,20.089,3.3,39.825-5.261,58.447a113.259,113.259,0,0,1-17.549,27.538c-15.862,17.935-32.938,34.793-49.446,52.16q-19.6,20.624-39.009,41.431c-2.1,2.247-3.775,3.5-6.447.589-17.386-18.955-31.737-39.7-38.6-64.888-1.6-5.892-1.521-12.883-4.831-17.486-3.106-4.32-9.784-5.978-14.7-9.1-26.846-17.058-42.234-41.8-47.211-72.848-4.6-28.724,2.362-54.881,21.343-77.03,13.192-15.394,27.584-29.759,41.421-44.6q24.68-26.469,49.342-52.952C299.189,250.424,300.51,249.455,301.924,248.219Zm-5.947,297.616c1.072-.99,1.944-1.7,2.7-2.512q13.626-14.592,27.228-29.207c13.062-13.957,26.582-27.514,39.121-41.925,14.867-17.088,17.718-37.319,12.507-58.874a71.684,71.684,0,0,0-25.01-39.7c-5.851-4.774-6-4.939-8.469,1.868a159.057,159.057,0,0,1-29.6,50.4c-9.381,10.807-18.318,21.874-25.095,34.568-8.774,16.436-13.943,33.285-7.973,52.044C285.064,524.032,288.667,535.519,295.977,545.835Zm4.931-249.93c-2.162,1.9-3.321,2.787-4.321,3.825-16.067,16.657-32.233,33.22-48.119,50.048-9.576,10.142-19.556,20.109-25.7,32.887-9.776,20.328-7.684,40.606,1.405,60.519,5.569,12.2,14.71,21.375,25.819,29.28.686-1.587,1.208-2.6,1.572-3.669,6.28-18.431,15.967-34.921,28.168-50.036,7.5-9.3,15.232-18.467,22-28.288,8.938-12.969,16.407-26.979,15.016-43.37a144.2,144.2,0,0,0-5.934-29.019C308.576,310.635,304.492,303.743,300.908,295.9Z" transform="translate(-48 -170.89)"/><path d="M295.977,545.835c-7.31-10.316-10.913-21.8-14.583-33.335-5.97-18.759-.8-35.608,7.973-52.044,6.777-12.694,15.714-23.761,25.095-34.568a159.057,159.057,0,0,0,29.6-50.4c2.47-6.807,2.618-6.642,8.469-1.868a71.684,71.684,0,0,1,25.01,39.7c5.211,21.555,2.36,41.786-12.507,58.874-12.539,14.411-26.059,27.968-39.121,41.925q-13.641,14.577-27.228,29.207C297.921,544.137,297.049,544.845,295.977,545.835Z" transform="translate(-48 -170.89)"/><path d="M300.908,295.9c3.584,7.838,7.668,14.73,9.9,22.177a144.2,144.2,0,0,1,5.934,29.019c1.391,16.391-6.078,30.4-15.016,43.37-6.767,9.821-14.5,18.992-22,28.288-12.2,15.115-21.888,31.6-28.168,50.036-.364,1.068-.886,2.082-1.572,3.669-11.109-7.9-20.25-17.079-25.819-29.28-9.089-19.913-11.181-40.191-1.405-60.519,6.144-12.778,16.124-22.745,25.7-32.887,15.886-16.828,32.052-33.391,48.119-50.048C297.587,298.692,298.746,297.808,300.908,295.9Z" transform="translate(-48 -170.89)"/></svg>