<?xml version="1.0" encoding="utf-8"?>
<!-- Generator: Adobe Illustrator 25.0.1, SVG Export Plug-In . SVG Version: 6.00 Build 0)  -->
<svg version="1.1" id="katman_1" xmlns="http://www.w3.org/2000/svg" xmlns:xlink="http://www.w3.org/1999/xlink" x="0px" y="0px"
	 viewBox="0 0 32 32" style="enable-background:new 0 0 32 32;" xml:space="preserve">
<style type="text/css">
	.st0{fill:#F00500;}
	.st1{fill:#FFFFFF;}
	.st2{fill:none;}
	.st3{fill:#FFA409;}
	.st4{fill:#FF9300;}
	.st5{fill:#FF8300;}
</style>
<g>
	<g id="Group_938_1_" transform="translate(-953.348 -232.003)">
		<g id="Group_931_1_">
			<path id="Path_8573_1_" class="st0" d="M976.8,234.8c-0.8,0.8-1.6,1.7-2.3,2.7l-0.2-0.1c-1.2-0.4-2.5-0.6-3.8-0.7
				c-0.4,0-1.8,0-2.3,0c-1.4,0.1-2.5,0.3-3.8,0.7c0,0-0.1,0-0.1,0c-0.7-0.9-1.5-1.8-2.3-2.6c4.1-2.1,9-2.3,13.3-0.7
				c0.5,0.2,0.9,0.4,1.4,0.6L976.8,234.8z"/>
			<path id="Path_8574_1_" class="st0" d="M984.5,253.5c-0.6,1.8-1.6,3.4-2.8,4.8c-0.7,0.8-1.4,1.5-2.2,2.1c-1.8,1.5-4,2.5-6.3,3.1
				c-2.5,0.6-5.2,0.6-7.7,0c-2.3-0.6-4.5-1.6-6.3-3.1c-0.8-0.6-1.5-1.3-2.2-2.1c-3.5-4.1-4.6-9.7-2.8-14.8c0.3-0.9,0.8-1.8,1.3-2.7
				c0.2-0.4,0.5-0.8,0.7-1c0.5,2,1.1,3.8,1.3,4.5c0,0,0,0.1-0.1,0.1c-1.2,2.3-1.8,4.6-1.9,7c0,0,0,0.1,0,0.1c0,0.7,0,1.1,0.1,1.5
				c0.4,1.4,1.5,3,3.3,4.5c3,2.5,7,4.3,10,4.5c3.2,0.2,7.8-1.6,11-4.3c0.5-0.4,0.9-0.9,1.4-1.4c0.3-0.4,0.8-1,0.7-1c0,0,0,0,0,0
				c0,0,0,0,0,0c0,0,0,0,0,0s0,0,0,0c0,0,0,0,0,0c0,0,0,0,0,0c0,0,0,0,0,0c0,0,0,0,0,0c0,0,0,0,0,0c0,0,0,0,0,0c0,0,0-0.1,0.1-0.1
				c0.1-0.1,0.4-0.6,0.4-0.7c0.3-0.6,0.5-1.2,0.5-1.8c0-0.3,0.1-0.8,0-0.9c0,0,0-0.1,0-0.1c0-0.1,0-0.2,0-0.4c0-0.2,0-0.5,0-0.7
				c-0.2-2.2-0.8-4.1-1.9-6c0-0.1-0.1-0.1-0.1-0.2c0,0,0,0,0,0l0,0c0.2-0.5,0.8-2.4,1.3-4.6l0,0l0.1,0.1c0.1,0.2,0.5,0.7,0.6,0.9
				c0.7,1.1,1.3,2.4,1.6,3.6C985.6,247.2,985.6,250.5,984.5,253.5z"/>
			<path id="Path_8575_1_" d="M978,247.6c0,0.1-0.2,0.3-0.5,0.5c-0.7,0.5-1.9,1-3.2,1.2c-0.7,0.1-1.4,0.1-1.6,0
				c-0.1-0.1-0.2-0.1-0.1-0.3c0.1-0.4,0.4-0.8,1-1.2c0.3-0.2,1.4-0.8,1.9-1.1c0.8-0.5,1.5-0.7,2-0.8c0.1,0,0.3,0,0.4,0
				c0.1,0,0.2,0.3,0.2,0.6C978.1,246.8,978,247.5,978,247.6z"/>
			<path id="Path_8576_1_" d="M966.3,249.3c0,0.1-0.2,0.1-0.3,0.1c-0.2,0-0.7,0-1,0c-1.1-0.1-2.2-0.5-3-0.9c-0.5-0.2-0.8-0.4-1-0.7
				l-0.1-0.1l0-0.2c0-0.3,0-0.8,0-1c0-0.2,0.1-0.3,0.2-0.4c0,0,0,0,0.2,0c0.2,0,0.4,0,0.7,0.1c0.6,0.2,1.5,0.6,2.6,1.3
				c0.9,0.5,1.3,0.8,1.5,1.2C966.2,248.8,966.3,249.2,966.3,249.3z"/>
			<path id="Path_8577_1_" d="M973.3,256.1c0,0-0.1,0.3-0.1,0.5c-0.1,0.3-0.1,0.5-0.1,0.5c-0.1,0-0.1,0-0.2,0h-0.2l-0.2,0.5
				c-0.1,0.3-0.2,0.5-0.2,0.6l0,0.1l-0.1-0.2L972,258v-1.4l0,0c-0.1,0-0.7,0.1-1,0.1c-1.1,0.1-2.2,0.1-3.3-0.1c-0.2,0-0.3,0-0.3,0
				s0,0.3,0,0.7l0,0.7l-0.1,0.1c0,0.1-0.1,0.1-0.1,0.1c0,0-0.1-0.1-0.2-0.3c-0.1-0.2-0.2-0.5-0.3-0.7l0-0.1l-0.2,0l-0.2,0l0-0.2
				c0-0.1,0-0.3-0.1-0.3l0-0.2l-0.1-0.1c-0.1-0.1-0.1-0.1-0.2-0.1c0,0,0-0.1,0-0.1v-0.1l0.6,0l0.6,0l0,0.1l0,0.1l0.2,0
				c0.1,0,0.5,0,0.8,0l0.6,0l0.2-0.2l0.2-0.2h0.2l0-0.5l0-0.5l-0.3-0.1c-0.9-0.4-1.4-0.8-1.6-1.4c0-0.1,0-0.1,0-0.6
				c0-0.5,0-0.5,0-0.6c0.1-0.2,0.3-0.4,0.5-0.5c0.1,0,0.3,0,1.5,0l1.4,0l0.2,0.1c0.2,0.1,0.3,0.2,0.4,0.3c0.1,0.2,0.2,0.3,0.2,0.6
				c0,0.4,0,0.8-0.1,0.9c-0.1,0.2-0.2,0.4-0.3,0.6c-0.2,0.3-0.7,0.6-1.1,0.8l-0.1,0l0,0.5l0,0.5l0.1,0l0.1,0l0.1,0.2l0.1,0.2h0.7
				c0.4,0,0.7,0,0.7,0c0,0,0.1,0,0.1-0.1l0.1-0.1h0.6C973.2,256.1,973.3,256.1,973.3,256.1z"/>
			<path id="Path_8578_1_" d="M970.7,257.5c-0.1,0.1-0.2,0.1-0.2,0.1c0,0-0.1-0.1-0.2-0.1l-0.1-0.1l-0.1,0.1
				c-0.3,0.3-0.3,0.3-0.4,0.3c-0.1,0-0.2,0-0.3-0.3c-0.1-0.1-0.2-0.2-0.2-0.2s-0.1,0-0.1,0l-0.1,0l-0.1,0.1l-0.1,0.1l-0.1,0
				c-0.1,0-0.2-0.1-0.3-0.1l-0.1-0.1v-0.3l1.3,0l1.3,0l0,0.1C970.9,257.4,970.9,257.4,970.7,257.5z"/>
		</g>
		<path id="Path_8579_1_" class="st1" d="M983.2,251.5c0,0,0-0.1,0-0.1c-1.2-0.1-4.6-0.2-7.8,2.4c0,0-1-4.6-5.8-4.6
			s-6.6,4.6-6.6,4.6c-2.7-2.9-6.3-2.6-7.6-2.5c0,0,0,0.1,0,0.1c0,0.7,0,1.1,0.1,1.5c0.4,1.4,1.5,3,3.3,4.5c3,2.5,7,4.3,10,4.5
			c3.2,0.2,7.8-1.6,11-4.3c0.5-0.4,0.9-0.9,1.4-1.4c0.3-0.4,0.8-1,0.7-1c0,0,0,0,0,0c0,0,0,0,0,0c0,0,0,0,0,0c0,0,0,0,0,0
			c0,0,0,0,0,0c0,0,0,0,0,0c0,0,0,0,0,0c0,0,0,0,0,0s0,0,0,0c0,0,0,0,0,0c0,0,0-0.1,0.1-0.1c0.1-0.1,0.4-0.6,0.4-0.7
			c0.3-0.6,0.5-1.2,0.5-1.8C983.2,252.1,983.2,251.6,983.2,251.5z M970.7,257.5c-0.1,0.1-0.2,0.1-0.2,0.1c0,0-0.1-0.1-0.2-0.1
			l-0.1-0.1l-0.1,0.1c-0.3,0.3-0.3,0.3-0.4,0.3c-0.1,0-0.2,0-0.3-0.3c-0.1-0.1-0.2-0.2-0.2-0.2s-0.1,0-0.1,0l-0.1,0l-0.1,0.1
			l-0.1,0.1l-0.1,0c-0.1,0-0.2-0.1-0.3-0.1l-0.1-0.1v-0.3l1.3,0l1.3,0l0,0.1C970.9,257.4,970.9,257.4,970.7,257.5z M973.2,256.7
			c-0.1,0.3-0.1,0.5-0.1,0.5c-0.1,0-0.1,0-0.2,0h-0.2l-0.2,0.5c-0.1,0.3-0.2,0.5-0.2,0.6l0,0.1l-0.1-0.2L972,258v-1.4l0,0
			c-0.1,0-0.7,0.1-1,0.1c-1.1,0.1-2.2,0.1-3.3-0.1c-0.2,0-0.3,0-0.3,0s0,0.3,0,0.7l0,0.7l-0.1,0.1c0,0.1-0.1,0.1-0.1,0.1
			c0,0-0.1-0.1-0.2-0.3c-0.1-0.2-0.2-0.5-0.3-0.7l0-0.1l-0.2,0l-0.2,0l0-0.2c0-0.1,0-0.3-0.1-0.3l0-0.2l-0.1-0.1
			c-0.1-0.1-0.1-0.1-0.2-0.1c0,0,0-0.1,0-0.1v-0.1l0.6,0l0.6,0l0,0.1l0,0.1l0.2,0c0.1,0,0.5,0,0.8,0l0.6,0l0.2-0.2l0.2-0.2h0.2
			l0-0.5l0-0.5l-0.3-0.1c-0.9-0.4-1.4-0.8-1.6-1.4c0-0.1,0-0.1,0-0.6c0-0.5,0-0.5,0-0.6c0.1-0.2,0.3-0.4,0.5-0.5c0.1,0,0.3,0,1.5,0
			l1.4,0l0.2,0.1c0.2,0.1,0.3,0.2,0.4,0.3c0.1,0.2,0.2,0.3,0.2,0.6c0,0.4,0,0.8-0.1,0.9c-0.1,0.2-0.2,0.4-0.3,0.6
			c-0.2,0.3-0.7,0.6-1.1,0.8l-0.1,0l0,0.5l0,0.5l0.1,0l0.1,0l0.1,0.2l0.1,0.2h0.7c0.4,0,0.7,0,0.7,0c0,0,0.1,0,0.1-0.1l0.1-0.1h0.6
			c0.4,0,0.6,0,0.6,0C973.3,256.1,973.3,256.4,973.2,256.7z"/>
		<path id="Path_8580_1_" class="st2" d="M955.4,251.3c-0.3,0-0.5,0.1-0.5,0.1"/>
		<path id="Path_8581_1_" class="st2" d="M983.6,251.5c0,0-0.2,0-0.4-0.1"/>
		<path id="Path_8582_1_" class="st3" d="M983.1,251c0-0.2,0-0.5,0-0.7c-0.2-2.2-0.8-4.1-1.9-6c0-0.1-0.1-0.1-0.1-0.2c0,0,0,0,0,0
			l0,0c0.2-0.5,0.8-2.4,1.3-4.6c0.7-3,1.1-6.5-0.2-7.5c0,0-2.3-0.2-5.4,2.8c-0.8,0.8-1.6,1.7-2.3,2.7l-0.2-0.1
			c-1.2-0.4-2.5-0.6-3.8-0.7c-0.4,0-1.8,0-2.3,0c-1.4,0.1-2.5,0.3-3.8,0.7c0,0-0.1,0-0.1,0c-0.7-0.9-1.5-1.8-2.3-2.6
			c-3.2-3-5.6-2.8-5.6-2.8c-1.4,1.1-0.9,4.7-0.2,7.8c0.5,2,1.1,3.8,1.3,4.5c0,0,0,0.1-0.1,0.1c-1.2,2.3-1.8,4.6-1.9,7
			c1.3-0.2,4.9-0.4,7.6,2.5c0,0,1.8-4.6,6.6-4.6c4.8,0,5.8,4.6,5.8,4.6c3.2-2.6,6.6-2.5,7.8-2.4C983.1,251.3,983.1,251.2,983.1,251z
			 M958.4,242.4c0,0-1.9-4.6-1.4-7.2l0,0c0.1-0.4,0.2-0.8,0.5-1.1c0,0,2.1,0.2,5.5,4c0,0-0.6,0.3-1.5,1c0,0,0,0,0,0
			C960.5,239.7,959.3,240.8,958.4,242.4L958.4,242.4z M966.3,249.3c0,0.1-0.2,0.1-0.3,0.1c-0.2,0-0.7,0-1,0c-1.1-0.1-2.2-0.5-3-0.9
			c-0.5-0.2-0.8-0.4-1-0.7l-0.1-0.1l0-0.2c0-0.3,0-0.8,0-1c0-0.2,0.1-0.3,0.2-0.4c0,0,0,0,0.2,0c0.2,0,0.4,0,0.7,0.1
			c0.6,0.2,1.5,0.6,2.6,1.3c0.9,0.5,1.3,0.8,1.5,1.2C966.2,248.8,966.3,249.2,966.3,249.3z M978,247.6c0,0.1-0.2,0.3-0.5,0.5
			c-0.7,0.5-1.9,1-3.2,1.2c-0.7,0.1-1.4,0.1-1.6,0c-0.1-0.1-0.2-0.1-0.1-0.3c0.1-0.4,0.4-0.8,1-1.2c0.3-0.2,1.4-0.8,1.9-1.1
			c0.8-0.5,1.5-0.7,2-0.8c0.1,0,0.3,0,0.4,0c0.1,0,0.2,0.3,0.2,0.6C978.1,246.8,978,247.5,978,247.6z M977.2,239L977.2,239
			c-0.8-0.7-1.5-1-1.5-1c3.3-3.7,5.3-4,5.3-4c0.2,0.3,0.4,0.7,0.4,1.1l0,0c0.5,2.6-1.3,7.2-1.3,7.2
			C979.4,241.1,978.4,239.9,977.2,239L977.2,239z"/>
		<path id="Path_8583_1_" class="st2" d="M974.5,237.5C974.5,237.5,974.5,237.5,974.5,237.5"/>
		<path id="Path_8584_1_" class="st2" d="M981.1,244.1c0,0.1,0,0.1,0,0.1"/>
		<g id="Group_934_1_">
			<g id="Group_933_1_">
				<g id="Group_932_1_">
					<path id="Path_8585_1_" class="st4" d="M981.5,235.2c-0.4,0-2.2-0.1-4.3,3.8l0,0c-0.8-0.7-1.5-1-1.5-1c3.3-3.7,5.3-4,5.3-4
						C981.3,234.3,981.4,234.7,981.5,235.2z"/>
				</g>
				<path id="Path_8586_1_" class="st5" d="M980.2,242.4c-0.8-1.3-1.8-2.5-3-3.4c2.1-3.9,3.9-3.9,4.3-3.8l0,0
					C982,237.8,980.2,242.4,980.2,242.4z"/>
				<path id="Path_8587_1_" class="st5" d="M981.6,235.2C981.6,235.2,981.5,235.2,981.6,235.2L981.6,235.2z"/>
			</g>
		</g>
		<path id="Path_8588_1_" class="st2" d="M964.4,237.7c0-0.1-0.1-0.1-0.2-0.2"/>
		<path id="Path_8589_1_" class="st2" d="M957.4,244.3c0.1,0.2,0.1,0.3,0.1,0.3"/>
		<g id="Group_937_1_">
			<g id="Group_936_1_">
				<g id="Group_935_1_">
					<path id="Path_8590_1_" class="st4" d="M963,238c0,0-0.6,0.3-1.5,1c0,0,0,0,0,0c-2.2-3.9-4.1-3.9-4.5-3.8
						c0.1-0.4,0.2-0.8,0.5-1.1C957.4,234,959.5,234.2,963,238z"/>
				</g>
				<path id="Path_8591_1_" class="st5" d="M961.4,239c-0.9,0.7-2.2,1.8-3.1,3.4c0,0-1.9-4.6-1.4-7.2l0,0
					C957.4,235.1,959.3,235.1,961.4,239z"/>
				<path id="Path_8592_1_" class="st5" d="M957,235.2C956.9,235.2,956.9,235.2,957,235.2L957,235.2z"/>
			</g>
		</g>
		<path id="Path_8593_1_" class="st1" d="M975.1,245c0,0-1.6,0.1-1.4-1.1c0.2-1.2,1.4-1.4,1.8-1.3c0.3,0,1.7,0.5,1.5,1.6
			c-0.2,1-0.6,0.8-0.8,0.9S975.1,245,975.1,245z"/>
		<path id="Path_8594_1_" class="st1" d="M963.4,245c0,0-1.6,0.1-1.4-1.1c0.2-1.2,1.4-1.4,1.8-1.3c0.3,0,1.7,0.5,1.5,1.6
			c-0.2,1-0.6,0.8-0.8,0.9S963.4,245,963.4,245z"/>
	</g>
</g>
</svg>
