<svg xmlns="http://www.w3.org/2000/svg" viewBox="0 0 400 400"><defs><style>.a{fill:#fff;}.b{fill:#9fa1a4;}</style></defs><path d="M98,620.89v-400H498v400Zm253.079-199.5c-.117-8.141-5.631-10.357-11.155-12.553a51.9,51.9,0,0,1-27.8-25.28c-1.67-3.248-2.937-6.7-4.53-9.993-1.957-4.042-5.469-5.737-9.773-5.678a9.957,9.957,0,0,0-9.29,5.686c-.977,1.923-1.765,3.943-2.6,5.937-3.871,9.276-9.58,17.229-17.977,22.8a123.026,123.026,0,0,1-15.849,8.329c-4.576,2.149-7.095,5.467-7,10.485.088,4.805,2.615,7.906,7.024,9.942a119.4,119.4,0,0,1,15.835,8.323c9.979,6.584,15.693,16.512,19.961,27.387,1.85,4.716,5.379,7.118,10.414,7.026,4.818-.088,7.943-2.586,9.944-7.007,2.324-5.134,4.628-10.373,7.73-15.042,6.063-9.124,14.606-15.359,24.856-19.268C346.393,430.377,351.255,427.62,351.079,421.394ZM280.062,320.257c-34.4-.4-84.889,50.273-82.431,82.48,18.435-7.921,36.924-15.585,51.671-30.189C264.187,357.806,271.909,339.141,280.062,320.257ZM197.57,439.715c3.9,38.8,43,77.758,81.74,81.608C266.757,479.636,239.349,452.021,197.57,439.715Zm119.322-119.39c12.516,41.759,39.845,69.359,81.786,81.636C399.593,369.06,348.91,318.49,316.892,320.325Zm81.533,118.556c-59.787,23.405-67.835,48.579-82.06,82.615C350.772,521.56,402.27,469.714,398.425,438.881Z" transform="translate(-98 -220.89)"/><path class="a" d="M351.079,421.394c.176,6.226-4.686,8.983-10.212,11.09-10.25,3.909-18.793,10.144-24.856,19.268-3.1,4.669-5.406,9.908-7.73,15.042-2,4.421-5.126,6.919-9.944,7.007-5.035.092-8.564-2.31-10.414-7.026-4.268-10.875-9.982-20.8-19.961-27.387a119.4,119.4,0,0,0-15.835-8.323c-4.409-2.036-6.936-5.137-7.024-9.942-.091-5.018,2.428-8.336,7-10.485a123.026,123.026,0,0,0,15.849-8.329c8.4-5.567,14.106-13.52,17.977-22.8.832-1.994,1.62-4.014,2.6-5.937a9.957,9.957,0,0,1,9.29-5.686c4.3-.059,7.816,1.636,9.773,5.678,1.593,3.291,2.86,6.745,4.53,9.993a51.9,51.9,0,0,0,27.8,25.28C345.448,411.037,350.962,413.253,351.079,421.394Z" transform="translate(-98 -220.89)"/><path class="b" d="M280.062,320.257c-8.153,18.884-15.875,37.549-30.76,52.291-14.747,14.6-33.236,22.268-51.671,30.189C195.173,370.53,245.667,319.853,280.062,320.257Z" transform="translate(-98 -220.89)"/><path class="b" d="M197.57,439.715c41.779,12.306,69.187,39.921,81.74,81.608C240.566,517.473,201.469,478.51,197.57,439.715Z" transform="translate(-98 -220.89)"/><path class="b" d="M316.892,320.325c32.018-1.835,82.7,48.735,81.786,81.636C356.737,389.684,329.408,362.084,316.892,320.325Z" transform="translate(-98 -220.89)"/><path class="b" d="M398.425,438.881c3.845,30.833-47.653,82.679-82.06,82.615C330.59,487.46,338.638,462.286,398.425,438.881Z" transform="translate(-98 -220.89)"/></svg>