<?xml version="1.0" encoding="UTF-8"?>
<svg width="125px" height="125px" viewBox="0 0 125 125" version="1.1" xmlns="http://www.w3.org/2000/svg" xmlns:xlink="http://www.w3.org/1999/xlink">
    <!-- Generator: Sketch 56.3 (81716) - https://sketch.com -->
    <title>try</title>
    <desc>Created with Sketch.</desc>
    <g id="try" stroke="none" stroke-width="1" fill="none" fill-rule="evenodd">
        <path d="M0,62.5 C0,27.980957 27.980957,0 62.5,0 C97.019043,0 125,27.9858398 125,62.5 C125,97.0141602 97.0166016,125 62.5,125 C27.9833984,125 0,97.019043 0,62.5 Z" id="Path" fill="#6CDE07" fill-rule="nonzero"></path>
        <path d="M57.8602711,60.8518006 L57.8602711,99.7146814 C62.1272372,99.7146814 65.898489,98.9986221 69.1741397,97.566482 C72.4497904,96.1343419 75.1974168,94.1163565 77.4171011,91.5124654 C79.6367855,88.9085742 81.3176863,85.7948011 82.459854,82.1710526 C83.6020217,78.5473041 84.173097,74.5438816 84.173097,70.1606648 L94,70.1606648 C94,76.4967999 93.1595496,82.1384794 91.4786236,87.0858726 C89.7976975,92.0332657 87.2009213,96.1994291 83.6882169,99.5844875 C80.1755125,102.969546 75.7038853,105.551699 70.2732013,107.331025 C64.8425172,109.110351 58.377514,110 50.8779979,110 L47.3868613,110 L47.3868613,65.4085873 L32,71.9182825 L32,63.4556787 L47.3868613,56.9459834 L47.3868613,47.4418283 L32,53.9515235 L32,45.5540166 L47.3868613,38.9792244 L47.3868613,16 L57.8602711,16 L57.8602711,34.4875346 L81.5870699,24.33241 L81.5870699,32.7299169 L57.8602711,42.8850416 L57.8602711,52.4542936 L81.5870699,42.234072 L81.5870699,50.6966759 L57.8602711,60.8518006 Z" id="₺" fill="#FFFFFF" fill-rule="nonzero"></path>
    </g>
</svg>