<?xml version="1.0" encoding="UTF-8" standalone="no"?>
<svg
   xmlns:dc="http://purl.org/dc/elements/1.1/"
   xmlns:cc="http://creativecommons.org/ns#"
   xmlns:rdf="http://www.w3.org/1999/02/22-rdf-syntax-ns#"
   xmlns:svg="http://www.w3.org/2000/svg"
   xmlns="http://www.w3.org/2000/svg"
   xmlns:sodipodi="http://sodipodi.sourceforge.net/DTD/sodipodi-0.dtd"
   xmlns:inkscape="http://www.inkscape.org/namespaces/inkscape"
   version="1.1"
   id="svg2"
   xml:space="preserve"
   width="815.21332"
   height="856"
   viewBox="0 0 815.21332 856"
   sodipodi:docname="Volt_GradientCircle.eps"><metadata
     id="metadata8"><rdf:RDF><cc:Work
         rdf:about=""><dc:format>image/svg+xml</dc:format><dc:type
           rdf:resource="http://purl.org/dc/dcmitype/StillImage" /></cc:Work></rdf:RDF></metadata><defs
     id="defs6"><clipPath
       clipPathUnits="userSpaceOnUse"
       id="clipPath22"><path
         d="m 5997.04,3220 c 0,-1623.72 -1316.28,-2940 -2940,-2940 -1623.72,0 -2940.001,1316.28 -2940.001,2940 0,1623.72 1316.281,2940 2940.001,2940 1623.72,0 2940,-1316.28 2940,-2940 z"
         id="path20" /></clipPath><radialGradient
       fx="0"
       fy="0"
       cx="0"
       cy="0"
       r="1"
       gradientUnits="userSpaceOnUse"
       gradientTransform="matrix(2940,0,0,-2940,3057.04,3220)"
       spreadMethod="pad"
       id="radialGradient28"><stop
         style="stop-opacity:1;stop-color:#b9babb"
         offset="0"
         id="stop24" /><stop
         style="stop-opacity:1;stop-color:#211c1c"
         offset="1"
         id="stop26" /></radialGradient><clipPath
       clipPathUnits="userSpaceOnUse"
       id="clipPath64"><path
         d="m 2149.92,4567.95 46.67,-536.63 102.07,62.7 17.5,-29.17 5.84,-132.7 c 0,0 59.78,-4.37 93.32,29.17 0,0 -16.04,93.33 1.46,96.24 17.5,2.92 58.33,-39.37 87.5,-34.99 29.16,4.37 72.91,37.91 65.62,74.37 l -161.87,331.02 -93.33,-68.54 -151.65,220.19 c 0,0 -16.04,10.21 -13.13,-11.66 z"
         id="path62" /></clipPath><linearGradient
       x1="0"
       y1="0"
       x2="1"
       y2="0"
       gradientUnits="userSpaceOnUse"
       gradientTransform="matrix(241.492,-630.166,-630.166,-241.492,2179.17,4596.64)"
       spreadMethod="pad"
       id="linearGradient74"><stop
         style="stop-opacity:1;stop-color:#8d9093"
         offset="0"
         id="stop66" /><stop
         style="stop-opacity:1;stop-color:#66686c"
         offset="0.658387"
         id="stop68" /><stop
         style="stop-opacity:1;stop-color:#24281a"
         offset="0.983409"
         id="stop70" /><stop
         style="stop-opacity:1;stop-color:#24281a"
         offset="1"
         id="stop72" /></linearGradient><clipPath
       clipPathUnits="userSpaceOnUse"
       id="clipPath86"><path
         d="m 3642.11,4093.89 167.7,329.57 c 0,0 7.29,14.58 21.87,1.46 14.58,-13.13 62.7,-53.96 62.7,-53.96 0,0 13.13,1.46 32.09,26.25 18.95,24.79 129.78,192.49 129.78,192.49 0,0 17.5,14.58 17.5,-8.75 0,-23.33 -37.92,-536.64 -37.92,-536.64 0,0 -2.91,-24.79 -21.87,-11.66 -18.96,13.12 -90.41,65.62 -90.41,65.62 0,0 -23.33,-11.67 -23.33,-35 0,-23.33 4.37,-115.2 4.37,-115.2 0,0 -43.75,-27.71 -110.82,24.79 0,0 16.04,75.83 8.74,72.91 -7.29,-2.91 -27.7,7.29 -27.7,7.29 0,0 -42.29,-43.74 -81.66,-29.16 -39.38,14.58 -49.58,61.25 -51.04,69.99 z"
         id="path84" /></clipPath><linearGradient
       x1="0"
       y1="0"
       x2="1"
       y2="0"
       gradientUnits="userSpaceOnUse"
       gradientTransform="matrix(-287.274,-542.466,-542.466,287.274,4084.9,4538.07)"
       spreadMethod="pad"
       id="linearGradient96"><stop
         style="stop-opacity:1;stop-color:#8d9093"
         offset="0"
         id="stop88" /><stop
         style="stop-opacity:1;stop-color:#66686c"
         offset="0.658387"
         id="stop90" /><stop
         style="stop-opacity:1;stop-color:#24281a"
         offset="0.983409"
         id="stop92" /><stop
         style="stop-opacity:1;stop-color:#24281a"
         offset="1"
         id="stop94" /></linearGradient><clipPath
       clipPathUnits="userSpaceOnUse"
       id="clipPath198"><path
         d="m 2561.75,3288.55 -21.5,-6.37 c 0,0 -29.46,-79.63 49.37,-161.64 23.89,-24.69 106.7,-97.15 239.68,-17.52 0,0 -69.27,49.37 -130.59,91.57 -61.31,42.2 -124.22,108.3 -136.96,93.96 z"
         id="path196" /></clipPath><radialGradient
       fx="0"
       fy="0"
       cx="0"
       cy="0"
       r="1"
       gradientUnits="userSpaceOnUse"
       gradientTransform="matrix(150.497,154.478,154.478,-150.497,2580.86,3102.22)"
       spreadMethod="pad"
       id="radialGradient208"><stop
         style="stop-opacity:1;stop-color:#c1e013"
         offset="0"
         id="stop200" /><stop
         style="stop-opacity:1;stop-color:#c1e013"
         offset="0.385028"
         id="stop202" /><stop
         style="stop-opacity:1;stop-color:#24281a"
         offset="0.983409"
         id="stop204" /><stop
         style="stop-opacity:1;stop-color:#24281a"
         offset="1"
         id="stop206" /></radialGradient><clipPath
       clipPathUnits="userSpaceOnUse"
       id="clipPath220"><path
         d="m 3400.24,3100.63 c 0,0 125.01,-59.72 218.18,-1.59 0,0 102.72,36.63 51.75,207.83 0,0 -27.07,0 -155.27,-117.06 0,0 -109.89,-89.98 -114.66,-89.18 z"
         id="path218" /></clipPath><radialGradient
       fx="-0.096103899"
       fy="0.0070624198"
       cx="0"
       cy="0"
       r="1"
       gradientUnits="userSpaceOnUse"
       gradientTransform="matrix(-158.46,166.422,166.422,158.46,3661.42,3117.35)"
       spreadMethod="pad"
       id="radialGradient230"><stop
         style="stop-opacity:1;stop-color:#c1e013"
         offset="0"
         id="stop222" /><stop
         style="stop-opacity:1;stop-color:#c1e013"
         offset="0.385308"
         id="stop224" /><stop
         style="stop-opacity:1;stop-color:#24281a"
         offset="0.983409"
         id="stop226" /><stop
         style="stop-opacity:1;stop-color:#24281a"
         offset="1"
         id="stop228" /></radialGradient></defs><sodipodi:namedview
     pagecolor="#ffffff"
     bordercolor="#666666"
     borderopacity="1"
     objecttolerance="10"
     gridtolerance="10"
     guidetolerance="10"
     inkscape:pageopacity="0"
     inkscape:pageshadow="2"
     inkscape:window-width="640"
     inkscape:window-height="480"
     id="namedview4" /><g
     id="g10"
     inkscape:groupmode="layer"
     inkscape:label="ink_ext_XXXXXX"
     transform="matrix(1.3333333,0,0,-1.3333333,0,856)"><g
       id="g12"
       transform="scale(0.1)"><path
         d="M 6114.08,0 H 0 V 6420 H 6114.08 V 0"
         style="fill:#100f0d;fill-opacity:1;fill-rule:nonzero;stroke:none"
         id="path14" /><g
         id="g16"><g
           id="g18"
           clip-path="url(#clipPath22)"><path
             d="m 5997.04,3220 c 0,-1623.72 -1316.28,-2940 -2940,-2940 -1623.72,0 -2940.001,1316.28 -2940.001,2940 0,1623.72 1316.281,2940 2940.001,2940 1623.72,0 2940,-1316.28 2940,-2940"
             style="fill:url(#radialGradient28);fill-opacity:1;fill-rule:nonzero;stroke:none"
             id="path30" /></g></g><path
         d="m 2689.45,4365.07 1094.59,1153.07 c 0,0 37.88,54.79 71.19,39 0,0 38.56,-12.26 8.76,-85.89 -29.8,-73.63 -454.04,-1249.93 -454.04,-1249.93 0,0 -299.77,138.5 -596.03,-19.28 0,0 -54.35,120.96 -124.47,163.03"
         style="fill:#c1df14;fill-opacity:1;fill-rule:nonzero;stroke:none"
         id="path32" /><path
         d="m 2689.45,4365.07 1094.59,1153.07 c 0,0 37.88,54.79 71.19,39 0,0 38.56,-12.26 8.76,-85.89 -29.8,-73.63 -454.04,-1249.93 -454.04,-1249.93 0,0 -299.77,138.5 -596.03,-19.28 0,0 -54.35,120.96 -124.47,163.03 z"
         style="fill:none;stroke:#100f0d;stroke-width:21.9973;stroke-linecap:butt;stroke-linejoin:miter;stroke-miterlimit:10;stroke-dasharray:none;stroke-opacity:1"
         id="path34" /><path
         d="m 4029.3,3503.55 487.32,-84.41 c 0,0 28.67,-1.59 28.67,-25.48 0,0 -7.97,-25.48 -30.26,-46.18 -22.3,-20.71 -294.63,-308.96 -294.63,-308.96 0,0 -25.48,-11.15 -33.44,9.56 -7.96,20.7 -92.37,184.73 -157.66,455.47"
         style="fill:#c1df14;fill-opacity:1;fill-rule:nonzero;stroke:none"
         id="path36" /><path
         d="m 4029.3,3503.55 487.32,-84.41 c 0,0 28.67,-1.59 28.67,-25.48 0,0 -7.97,-25.48 -30.26,-46.18 -22.3,-20.71 -294.63,-308.96 -294.63,-308.96 0,0 -25.48,-11.15 -33.44,9.56 -7.96,20.7 -92.37,184.73 -157.66,455.47 z"
         style="fill:none;stroke:#100f0d;stroke-width:21.9973;stroke-linecap:butt;stroke-linejoin:miter;stroke-miterlimit:10;stroke-dasharray:none;stroke-opacity:1"
         id="path38" /><path
         d="m 2081.6,3089.48 -479.36,78.04 c 0,0 -33.45,6.37 -33.45,28.66 0,22.3 62.11,74.85 62.11,74.85 l 528.73,552.62 c 0,0 17.52,6.37 17.52,-15.92 0,-22.3 20.7,-404.51 -23.89,-530.33 -44.59,-125.81 -27.07,-124.21 -71.66,-187.92"
         style="fill:#c1df14;fill-opacity:1;fill-rule:nonzero;stroke:none"
         id="path40" /><path
         d="m 2081.6,3089.48 -479.36,78.04 c 0,0 -33.45,6.37 -33.45,28.66 0,22.3 62.11,74.85 62.11,74.85 l 528.73,552.62 c 0,0 17.52,6.37 17.52,-15.92 0,-22.3 20.7,-404.51 -23.89,-530.33 -44.59,-125.81 -27.07,-124.21 -71.66,-187.92 z"
         style="fill:none;stroke:#100f0d;stroke-width:21.9973;stroke-linecap:butt;stroke-linejoin:miter;stroke-miterlimit:10;stroke-dasharray:none;stroke-opacity:1"
         id="path42" /><path
         d="M 2623.07,2159.43 2245.63,1082.86 c 0,0 -12.74,-39.81 14.33,-49.37 27.08,-9.56 31.85,0 66.89,35.04 35.04,35.03 711.87,740.54 711.87,740.54 0,0 -320.1,27.07 -415.65,350.36"
         style="fill:#c1df14;fill-opacity:1;fill-rule:nonzero;stroke:none"
         id="path44" /><path
         d="M 2623.07,2159.43 2245.63,1082.86 c 0,0 -12.74,-39.81 14.33,-49.37 27.08,-9.56 31.85,0 66.89,35.04 35.04,35.03 711.87,740.54 711.87,740.54 0,0 -320.1,27.07 -415.65,350.36 z"
         style="fill:none;stroke:#100f0d;stroke-width:21.9973;stroke-linecap:butt;stroke-linejoin:miter;stroke-miterlimit:10;stroke-dasharray:none;stroke-opacity:1"
         id="path46" /><path
         d="m 3220.02,2223.93 c -21.56,-22.05 -57.64,-55.1 -106.39,-91.56 -28.65,23.46 -67.05,60.33 -81.24,73.96 -6.88,6.6 -13.46,12.91 -19.61,18.76 27.96,13.21 67.26,19.54 86.75,19.9 71.31,-2.05 104.38,-12.07 120.49,-21.06 z M 4260.6,4868.5 v 0 c -25.24,36.68 -55.13,46.17 -75.76,47.67 -56.49,4.11 -100.31,-30.03 -121,-50.4 -279.13,-263.99 -461.33,-335.03 -468.93,-337.92 -69.71,-26.44 -153.81,-126.76 -196.25,-182.06 -124.65,42.34 -226.33,41.88 -256.84,40.53 -103.02,1.7 -210.2,-23.68 -287.59,-47.71 -95.69,140.15 -252.22,214.52 -270.44,222.83 -148.89,67.56 -339.75,251.58 -371.72,291.22 -3.62,4.49 -6.94,8.7 -10.21,12.85 -26.08,33.09 -61.79,78.44 -132.57,67.44 -27.66,-4.27 -65.52,-22.07 -89.51,-59.21 -19.08,-23.77 -34.03,-58.41 -53.07,-159.82 -45.05,-157.5 -44.34,-220.56 -43.65,-281.55 0.26,-23.45 0.48,-41.98 -3.04,-68.17 -19.1,-142.18 56.44,-286.68 114.91,-383 15.72,-25.88 54.34,-93.08 77.36,-163.78 l 6.61,-196.47 0.87,-93.98 c 0.73,-126.69 -16.92,-236.86 -49.76,-310.85 -54.52,-64.56 -65.53,-142.66 -67.73,-173.56 l -0.25,-3.52 0.06,-3.56 c 0.89,-52.86 7.66,-107.11 81.68,-236.02 40.4,-70.31 83.87,-135.16 85.71,-137.92 l 10.84,-16.1 c 23.58,-97.03 81.11,-165.27 87.69,-172.84 l 5.22,-6.01 10.98,-9.54 c 50.66,-40.54 104.19,-147.45 118.82,-181.4 44.89,-108.06 138.63,-173.09 184.81,-199.78 42.03,-108.07 122.31,-199.05 232.71,-263.55 108.25,-63.25 224.15,-82.99 229.01,-83.79 l 7.98,-1.33 8.03,0.29 c 32.35,1.13 63.14,9.78 90.01,25.16 19.27,-11.07 40.32,-18.86 62.8,-23.23 13.61,-2.64 27.85,-3.98 42.33,-3.98 135.41,0 279.65,120.27 337.08,173.77 51.33,34.12 90.91,90.62 117.8,168.1 108.27,40.46 190.32,190.51 213.57,237.03 30.94,61.89 106.1,142.57 116.59,153.69 56.75,54.52 83.94,121.68 96.92,171.59 22.81,17.37 39.27,42.53 46.08,70.75 6.46,12.41 21.33,37.94 38.74,65.32 180.1,176.76 97.47,337.24 42.71,443.58 -5.35,10.37 -10.86,21.07 -15.83,31.22 -11.62,59.2 -38.55,128.74 -44.08,142.71 l -0.5,1.18 c -15.4,36.86 -28.03,82.41 -37.55,135.38 l -16.44,143.77 c -1.84,18.06 2.88,50.03 12.65,85.83 23.09,47.33 132.51,258.49 204.12,395.79 l 3.8,7.3 4.98,14.27 c 70.76,234.82 -20.12,613.7 -80.75,701.78"
         style="fill:#100f0d;fill-opacity:1;fill-rule:nonzero;stroke:none"
         id="path48" /><path
         d="m 3256.32,2225.5 c -21.03,-24.97 -71.45,-73.53 -143.11,-125.29 -29.85,21.57 -81,70.71 -98.61,87.61 -10.03,9.65 -19.41,18.64 -27.77,26.45 -5.23,4.88 -9.6,10.11 -13.03,15.59 31.04,29.56 98.54,40.43 125.89,40.8 125.58,-3.53 146.83,-32.03 155.98,-44.29 0.21,-0.28 0.43,-0.57 0.65,-0.87 z m 983.15,2628.45 v 0 c -15.64,22.72 -34.65,35.04 -56.49,36.62 -46.4,3.4 -83.63,-25.86 -101.51,-43.45 -282.87,-267.52 -469.65,-340.29 -477.46,-343.26 -73.04,-27.71 -171.04,-154.7 -196.2,-188.52 -129.22,47.44 -235.18,46.74 -265.64,45.31 -107.39,1.99 -220.2,-26.73 -298.75,-52.42 -90.15,144.58 -251.78,221.42 -270.23,229.84 -152.75,69.31 -348.34,257.87 -381.1,298.48 -3.69,4.58 -7.06,8.86 -10.37,13.06 -24.63,31.25 -52.53,66.66 -108.52,57.98 -22.46,-3.47 -53.24,-18.14 -72.57,-48.89 -16.58,-20.17 -30.61,-52.85 -48.92,-150.69 -44.34,-154.74 -43.66,-216.05 -42.99,-275.34 0.27,-23.54 0.5,-43.87 -3.27,-71.89 -18.01,-134.11 54.96,-273.26 111.42,-366.26 16.5,-27.17 57.25,-98.15 80.95,-172.66 l 6.74,-200.67 0.87,-94.07 c 0.77,-132.29 -18.24,-247.58 -53.54,-324.9 -51.59,-59.24 -61.95,-132.56 -64.01,-161.49 l -0.17,-2.4 0.04,-2.42 c 0.83,-49.24 7.29,-100.06 78.28,-223.66 40.13,-69.88 82.93,-133.68 84.74,-136.37 l 13.46,-19.99 c 21.4,-93.35 76.85,-159.21 83.15,-166.46 l 5.22,-6 7.64,-6.34 c 55.03,-44.03 110.01,-153.33 126.49,-191.6 44.22,-106.45 139.14,-168.41 181.82,-191.84 38.95,-106.34 116.66,-195.9 224.95,-259.17 104.05,-60.8 215.57,-79.86 220.28,-80.64 l 5.42,-0.9 5.48,0.2 c 33.59,1.17 64.82,11.47 90.87,29.88 20.15,-14.04 42.89,-23.59 67.71,-28.41 12,-2.33 24.6,-3.51 37.45,-3.51 127.34,0.01 266.47,117.16 321.16,168.35 49.94,32.47 88.09,89.03 113.44,168.19 107.33,30.38 194.29,194.95 210.9,228.18 33.21,66.43 112.75,151.23 121.33,160.29 55.86,53.45 81.13,120.55 92.54,169.04 22.71,14.3 38.71,37.32 44.35,64.02 6.12,12.3 22.79,41.17 43.02,72.82 169.27,164.34 94.6,309.36 39.94,415.52 -6.25,12.13 -12.17,23.62 -17.58,34.81 -10.79,57.57 -37.81,127.37 -43.22,141.02 l -0.48,1.15 c -16.21,38.81 -29.46,86.66 -39.27,141.55 l -16.58,144.89 c -2.21,21.78 2.91,57.28 14.07,97.51 20.75,42.95 132.29,258.24 205.47,398.54 l 3.8,7.3 3.18,9.84 c 67.45,223.84 -20.4,597.13 -77.31,679.83"
         style="fill:#ffffff;fill-opacity:1;fill-rule:nonzero;stroke:none"
         id="path50" /><path
         d="m 3118.26,2036.56 -7.11,2.29 c -31.37,10.13 -96.03,72.23 -134.65,109.32 -9.82,9.44 -19,18.25 -27.2,25.9 -30.7,28.66 -36.23,58.78 -37.02,64.46 l 4.86,8.07 c 38.65,64.07 144.97,78.76 183.23,79.05 152.94,-4.15 183.08,-44.55 199.29,-66.28 4.32,-5.8 10.78,-14.47 19.96,-21.44 v -11.43 c -2.21,-29.13 -97.87,-119.28 -201.36,-189.94 z m -681.69,627.63 1.67,0.78 30.79,-21.53 c 29.37,-38.06 65.44,-96.52 92.67,-149.1 l 25.82,-49.83 c 2.62,-35.74 4.74,-74.19 6.28,-113.08 -36.12,54.78 -88.94,139.31 -128.6,221.39 -35.7,73.89 -30.98,103.83 -28.63,111.37 z m 1203.04,-245.75 29.12,71.59 c 24.86,61.14 87.11,128.76 119.05,160.95 l 0.42,-0.47 c 4.13,-4.51 20.31,-34.84 -66.86,-188.94 -3.58,-6.33 -6.74,-11.93 -9.31,-16.62 -12.68,-23.11 -44.63,-68.43 -73.72,-108.26 1.38,32.12 1.54,60.41 1.3,81.75 z M 4179,4835.72 c -24.65,1.8 -47.86,-16.81 -59.41,-28.24 -291.13,-275.42 -487.84,-351.91 -496.08,-355.04 -57.15,-21.68 -168.53,-158.59 -195.39,-204.49 -143.02,62.55 -265.69,58.75 -285.11,57.68 -116.43,2.55 -241.64,-33.92 -325.44,-64.54 -74.44,157.4 -258.65,243.05 -267.1,246.91 -160.57,72.85 -362.08,265.54 -401.18,314.03 -30.13,37.35 -39.83,55.54 -67.69,51.21 -8.72,-1.34 -26.6,-8.99 -36.22,-26.91 -10.27,-10.67 -22.44,-35.96 -40.09,-130.98 -42.86,-148.89 -42.21,-206.41 -41.58,-262.04 0.28,-24.63 0.54,-47.89 -3.75,-79.85 -14.94,-111.22 46.27,-235.44 103.92,-330.4 27.27,-44.93 66.29,-118.19 88.65,-191.96 l 7.02,-208.87 0.88,-94.79 c 1.32,-228.25 -52.48,-335.5 -62.25,-356.04 -45.44,-48.02 -53.88,-112.54 -55.44,-134.56 0.64,-38.13 3.88,-80.38 70.98,-197.2 39.54,-68.85 80.93,-130.46 82.67,-133.05 l 19.41,-28.83 c 16.79,-86.42 69.89,-148.58 73.07,-152.24 l 2.61,-3.01 3.11,-2.48 c 77.77,-62.21 142.44,-212.31 142.93,-213.44 49.29,-118.67 175.95,-174.08 175.95,-174.08 31.9,-103.47 102.59,-189.09 207.77,-250.55 96.79,-56.55 201.51,-73.86 201.51,-73.86 32.27,1.13 60.18,14.16 80.7,37.68 4.19,4.8 7.94,9.91 11.3,15.23 23.81,-34.66 55,-47.76 78.97,-52.41 8.8,-1.71 17.81,-2.51 26.99,-2.51 113.52,0.01 250.71,122.34 287.34,157.06 47.42,28.74 82.3,87.11 104.26,174.18 l 10.99,0.43 c 93.14,3.59 189.66,194.53 193.72,202.65 37.69,75.38 123.59,166.18 131.79,174.77 50.53,47.94 74.68,114.51 83.03,169.92 1.04,0.14 2.1,0.3 3.18,0.5 16.31,2.97 33.76,16.51 36.35,39.58 5.4,14.11 30.88,57.22 53.33,92 166.57,157.64 65.44,285.04 12.25,398.23 -8.9,54.46 -37.83,128.44 -41.27,137.13 l -0.31,0.75 c -20.96,50.17 -34.44,106.75 -43.01,155.14 l -16.81,146.92 c -5.04,49.44 16.43,119.59 17.08,122.4 15.71,33.8 134.47,262.9 208.37,404.58 l 1.92,3.68 1.2,3.98 c 69.98,232.22 -41.33,642.55 -85.12,645.73"
         style="fill:#100f0d;fill-opacity:1;fill-rule:nonzero;stroke:none"
         id="path52" /><path
         d="m 2048.15,4685.23 c 0,0 19.11,103.51 30.26,111.48 11.15,7.96 -3.18,27.07 36.63,-22.3 39.81,-49.37 245.25,-248.44 417.25,-326.47 0,0 202.26,-92.37 258,-256.41 l -50.97,-30.26 c 0,0 218.18,105.11 404.51,100.34 0,0 172,12.74 348.77,-97.15 0,0 30.26,9.56 14.34,15.93 -15.93,6.37 -54.15,15.92 -43,41.4 11.15,25.48 129,172 175.18,189.52 46.18,17.51 243.66,111.48 511.21,364.69 0,0 23.89,25.48 36.63,-46.18 0,0 105.11,-294.63 35.04,-527.14 0,0 -211.81,-406.1 -211.81,-412.47 0,-6.37 -23.89,-70.07 -12.74,-125.81 l -25.49,36.63 c 0,0 4.78,-57.34 22.3,-79.63 0,0 7.96,-159.26 60.52,-285.07 0,0 33.44,-84.41 39.81,-135.37 0,0 49.37,-87.59 49.37,-95.55 0,-7.96 22.3,-58.93 27.07,-73.26 4.78,-14.33 19.11,-79.63 -81.22,-187.92 0,0 -62.11,-95.55 -62.11,-113.07 0,-17.52 -27.07,71.66 -33.44,71.66 -6.37,0 -14.33,-22.29 -6.37,-41.4 7.96,-19.11 7.96,-141.74 -70.07,-215 0,0 -97.15,-100.33 -140.15,-186.33 -43,-86 -114.66,-176.77 -156.07,-178.37 l 4.78,65.3 c 0,0 109.89,93.96 144.52,168.01 23.86,51.01 118.25,205.44 49.77,265.17 0,0 7.96,30.25 50.96,3.18 0,0 9.56,49.37 -109.88,33.44 l 15.92,-14.33 c 0,0 -111.48,-101.92 -149.7,-195.88 0,0 -3.18,101.92 12.74,144.92 0,0 -46.18,-15.93 -46.18,-194.29 0,0 20.7,-385.4 -113.07,-458.66 0,0 -267.55,-257.99 -340.81,-93.96 l -6.37,47.78 14.33,-6.37 -7.96,52.55 c 0,0 222.96,151.29 222.96,227.74 0,0 79.62,44.59 27.07,162.44 0,0 -4.78,-111.48 -35.04,-117.85 -30.25,-6.37 -12.74,92.37 -254.81,98.74 0,0 -160.84,0 -221.36,-100.33 0,0 -43,12.74 -33.44,117.84 0,0 -55.74,-90.77 22.29,-151.29 0,0 3.19,-49.37 50.96,-93.96 47.78,-44.59 129,-129 178.37,-144.92 0,0 14.33,-141.74 -76.44,-144.93 0,0 -347.18,58.93 -380.62,366.29 0,0 -3.19,361.51 -43,429.99 l -24.44,35.2 9.92,-46.82 c 0,0 28.85,-44.12 17.7,-122.15 0,0 -93.96,181.55 -152.88,208.62 0,0 -92.37,4.78 -108.3,-36.62 0,0 62.11,20.7 71.67,14.33 0,0 -46.4,-31.62 13.53,-177.17 66.89,-162.44 174.39,-278.3 174.39,-278.3 0,0 15.92,-46.19 11.15,-63.71 0,0 -89.19,38.23 -132.19,141.74 0,0 -68.48,160.85 -156.07,230.92 0,0 -95.55,109.89 -58.92,232.52 0,0 -30.26,-7.97 -30.26,-55.74 0,0 -167.22,248.44 -146.52,297.81 0,0 1.6,71.66 47.78,116.25 0,0 62.11,105.11 60.52,380.62 0,0 82.81,117.85 70.07,152.89 0,0 -47.78,-95.55 -73.26,-92.37 l 27.08,58.93 -15.93,4.77 -6.37,189.52 c 0,0 -30.26,86 -79.63,178.36 -49.37,92.37 -127.4,222.96 -113.07,329.66 14.33,106.71 -17.52,122.63 44.59,337.63"
         style="fill:#ffffff;fill-opacity:1;fill-rule:nonzero;stroke:none"
         id="path54" /><path
         d="m 2587.87,4100.53 -0.46,2.33 -172.55,352.85 -99.16,-66.7 -139.67,204.07 -3.14,2 c -7.87,5.01 -23.77,37.73 -33.96,31.22 -6.32,-4.04 -9.5,-42.32 -7.23,-60.32 l 48.64,-573.52 106.7,66.89 11.01,0.06 6.35,-144.35 16.26,-1.19 c 0.54,-0.04 3.5,-0.24 8.21,-0.24 19.33,0 68.04,3.35 99.41,34.73 l 6.71,6.71 -1.6,9.35 c -4.64,27.04 -7.06,55.72 -6.36,71.09 4.52,-2.47 9.72,-5.64 13.79,-8.12 20.27,-12.37 43.18,-26.4 66.18,-22.95 24.63,3.69 52.72,21.76 68.29,43.93 11.72,16.68 16.07,34.72 12.58,52.16"
         style="fill:#100f0d;fill-opacity:1;fill-rule:nonzero;stroke:none"
         id="path56" /><g
         id="g58"><g
           id="g60"
           clip-path="url(#clipPath64)"><path
             d="m 2149.92,4567.95 46.67,-536.63 102.07,62.7 17.5,-29.17 5.84,-132.7 c 0,0 59.78,-4.37 93.32,29.17 0,0 -16.04,93.33 1.46,96.24 17.5,2.92 58.33,-39.37 87.5,-34.99 29.16,4.37 72.91,37.91 65.62,74.37 l -161.87,331.02 -93.33,-68.54 -151.65,220.19 c 0,0 -16.04,10.21 -13.13,-11.66"
             style="fill:url(#linearGradient74);fill-opacity:1;fill-rule:nonzero;stroke:none"
             id="path76" /></g></g><path
         d="m 4075.48,4628.29 c -11.61,5.44 -22.94,-10.49 -30.97,-17.18 l -2.07,-1.72 -1.49,-2.25 c -1.1,-1.67 -110.68,-167.46 -129.05,-191.46 -6.1,-7.99 -11.19,-12.78 -14.84,-15.6 -14.66,12.48 -42.75,36.47 -53.12,45.79 -11.5,10.36 -30.31,10.54 -37.2,9.23 -13.91,-2.63 -16.82,-14.53 -17.92,-16.72 l -154.08,-299.8 -7.17,-40.61 c 1.11,-6.64 8.7,-65.22 59.21,-83.93 37.49,-13.89 74.43,10.69 91.49,24.8 2.38,-0.91 4.68,-1.68 6.89,-2.31 -1.71,-13.35 -5.52,-34.53 -9.33,-52.54 l -2.37,-11.18 9,-7.05 c 36.22,-28.34 67.25,-35.94 90.11,-35.94 25.35,0 40.66,9.35 41.83,10.09 l 9.01,5.71 -0.51,10.66 c -0.04,0.91 -1.91,77.07 -1.91,99.7 0,4.92 2.42,9.03 5.19,12.13 20.89,-15.32 66.62,-44.83 81.22,-54.94 14.39,-9.97 21.86,-12.08 27.47,-9.56 15.6,7.04 18.74,42.24 19.17,45.9 l 0.07,0.79 c 1.56,20.98 37.97,514.24 37.97,537.98 0,18.32 -9.66,36.76 -16.6,40.01"
         style="fill:#100f0d;fill-opacity:1;fill-rule:nonzero;stroke:none"
         id="path78" /><g
         id="g80"><g
           id="g82"
           clip-path="url(#clipPath86)"><path
             d="m 3642.11,4093.89 167.7,329.57 c 0,0 7.29,14.58 21.87,1.46 14.58,-13.13 62.7,-53.96 62.7,-53.96 0,0 13.13,1.46 32.09,26.25 18.95,24.79 129.78,192.49 129.78,192.49 0,0 17.5,14.58 17.5,-8.75 0,-23.33 -37.92,-536.64 -37.92,-536.64 0,0 -2.91,-24.79 -21.87,-11.66 -18.96,13.12 -90.41,65.62 -90.41,65.62 0,0 -23.33,-11.67 -23.33,-35 0,-23.33 4.37,-115.2 4.37,-115.2 0,0 -43.75,-27.71 -110.82,24.79 0,0 16.04,75.83 8.74,72.91 -7.29,-2.91 -27.7,7.29 -27.7,7.29 0,0 -42.29,-43.74 -81.66,-29.16 -39.38,14.58 -49.58,61.25 -51.04,69.99"
             style="fill:url(#linearGradient96);fill-opacity:1;fill-rule:nonzero;stroke:none"
             id="path98" /></g></g><path
         d="m 2331.63,3307.27 c 0,0 -7.17,-8.37 -2.39,-17.92 4.78,-9.56 80.03,-102.72 86,-137.36 5.97,-34.64 83.61,-114.66 131.38,-142.13 47.78,-27.48 75.25,-54.95 225.75,-38.23 0,0 96.75,26.28 161.25,-8.36 0,0 70.47,48.97 188.71,7.17 0,0 84.81,41.8 167.22,-10.75 0,0 28.67,34.64 157.67,3.58 48.97,-8.36 167.21,-15.52 226.94,20.31 0,0 5.92,36.51 42.99,76.44 31.06,33.44 144.53,174.39 156.47,220.97 0,0 9.56,31.05 -2.39,29.86 -11.94,-1.2 -468.21,-191.11 -468.21,-191.11 0,0 -176.77,-22.69 -199.47,-2.39 -22.69,20.31 -62.11,32.25 -31.05,89.58 31.05,57.34 37.03,59.72 38.22,100.34 1.2,40.61 22.69,119.44 43,148.1 20.31,28.67 45.39,62.11 45.39,62.11 0,0 -81.22,-13.14 -101.53,-136.16 0,0 -7.16,-105.11 -87.19,-103.92 -80.03,1.2 -83.61,112.28 -83.61,112.28 0,0 -20.3,82.42 -100.33,125.41 0,0 80.03,-82.41 77.64,-148.1 -2.39,-65.7 1.19,-144.53 28.66,-164.83 0,0 56.14,-65.7 -62.11,-96.75 0,0 -98.41,0.09 -137.59,8.4 -39.18,8.32 -501.42,193.46 -501.42,193.46"
         style="fill:#cccac8;fill-opacity:1;fill-rule:nonzero;stroke:none"
         id="path100" /><path
         d="m 2312.52,2704.08 c 0,0 -6.37,40.61 35.03,85.21 0,0 -46.18,40.61 -51.75,71.66 0,0 0,70.07 0.79,70.07 0.8,0 9.56,12.74 10.35,-6.37 0,0 0,-73.25 43,-108.29 0,0 22.3,-20.7 29.47,-10.35 7.16,10.35 35.03,43.79 32.64,56.53 0,0 9.56,-11.14 -7.96,-43.79 -17.52,-32.65 -73.26,-50.96 -79.63,-98.74 0,0 1.59,-34.24 -11.94,-15.93"
         style="fill:#100f0d;fill-opacity:1;fill-rule:nonzero;stroke:none"
         id="path102" /><path
         d="m 3803.95,2838.66 c 0,0 -5.57,13.53 -0.8,15.12 4.78,1.6 20.71,-27.07 20.71,-27.07 0,0 19.9,-24.68 25.48,-24.68 5.57,0 14.25,8.68 18.31,12.74 15.93,15.92 41.41,60.51 41.41,60.51 0,0 11.52,22.08 7.96,-6.37 -3.98,-31.85 -25.48,-59.72 -40.61,-75.64 -10.55,-11.11 -7.17,-9.56 -2.39,-13.54 4.78,-3.98 43,-43 30.26,-78.04 0,0 -5.57,0.8 -8.76,13.54 -3.18,12.74 -22.29,45.39 -46.18,58.93 -23.89,13.53 -45.39,61.31 -45.39,64.5"
         style="fill:#100f0d;fill-opacity:1;fill-rule:nonzero;stroke:none"
         id="path104" /><path
         d="m 2675.62,4306.99 c 0,0 81.22,-57.33 86,-95.55 0,0 -26.28,-21.5 -34.64,-33.44 0,0 20.31,34.04 12.54,45.38 0,0 1.2,23.89 -56.73,-35.83 0,0 36.43,55.54 31.65,65.1 -4.78,9.55 -32.7,34.24 -38.82,42.4 -3.58,4.78 -9.55,9.56 0,11.94"
         style="fill:#100f0d;fill-opacity:1;fill-rule:nonzero;stroke:none"
         id="path106" /><path
         d="m 3489.02,4209.05 c 0,0 2.39,26.28 16.72,33.45 0,0 33.45,69.27 71.67,85.99 0,0 -4.78,-11.94 -11.95,-20.3 -7.16,-8.36 -47.77,-66.89 -43,-77.64 4.78,-10.75 15.53,-38.22 19.12,-40.61 3.58,-2.39 -20.31,0 -25.09,11.95 -4.78,11.94 -10.75,32.24 -27.47,7.16"
         style="fill:#100f0d;fill-opacity:1;fill-rule:nonzero;stroke:none"
         id="path108" /><path
         d="m 2312.52,3850.73 c 0,0 -77.64,42.99 -77.64,142.13 0,0 68.08,-66.89 140.94,-56.14 l 43,19.11 c 0,0 -15.53,83.61 -5.97,97.95 0,0 8.36,16.72 80.03,-34.64 0,0 72.85,19.11 81.22,70.47 0,0 -29.86,60.92 -26.28,88.39 0,0 9.55,21.5 17.91,28.66 0,0 -14.33,-33.44 10.75,-35.83 25.09,-2.39 111.09,-11.94 106.31,-63.3 0,0 -11.95,-15.53 -17.92,1.19 -5.97,16.72 -64.5,44.19 -89.58,40.61 0,-9.55 5.97,-31.05 5.97,-31.05 0,0 37.03,-52.56 -23.89,-93.17 0,0 -3.58,-11.94 16.73,-13.14 0,0 -38.23,-37.02 -94.36,-11.94 0,0 -50.47,41.1 -52.71,35.48 -2.24,-5.62 1.35,-78.48 37.18,-98.79 0,0 -27.47,-19.11 -51.36,-1.19 0,0 -58.05,-37.35 -108.45,-20.47 -50.41,16.89 -37.27,28.83 -37.27,28.83 0,0 0,-45.39 45.39,-93.16"
         style="fill:#100f0d;fill-opacity:1;fill-rule:nonzero;stroke:none"
         id="path110" /><path
         d="m 2896.78,4066.75 c 0,0 52.23,-16.96 63.84,-91.64 0,0 12.32,-9.43 10.15,12.32 -2.18,21.76 -21.03,60.91 -64.54,84.84 -43.5,23.92 -9.45,-5.52 -9.45,-5.52"
         style="fill:#100f0d;fill-opacity:1;fill-rule:nonzero;stroke:none"
         id="path112" /><path
         d="m 3297.78,4003.38 c 0,0 -15.23,-19.57 -6.53,-26.1 8.7,-6.52 13.78,6.53 20.3,21.75 6.53,15.23 50.03,71.06 62.36,76.14 12.33,5.07 21.03,22.47 -13.05,2.17 -34.08,-20.3 -53.66,-55.1 -63.08,-73.96"
         style="fill:#100f0d;fill-opacity:1;fill-rule:nonzero;stroke:none"
         id="path114" /><path
         d="m 2205.02,3357.03 c 0,0 2.39,-13.53 27.07,-20.7 24.69,-7.17 56.54,-17.52 58.93,-26.28 0,0 -3.19,-2.39 -26.28,-1.59 -23.09,0.8 -59.72,-5.57 -67.68,-27.07 0,0 6.37,45.38 38.22,38.22 31.85,-7.17 23.09,-4.78 23.09,-4.78 0,0 -57.33,8.76 -53.35,42.2"
         style="fill:#100f0d;fill-opacity:1;fill-rule:nonzero;stroke:none"
         id="path116" /><path
         d="m 3977.54,3307.66 c 0,0 -18.32,-6.37 -18.32,0 0,6.37 17.52,19.11 17.52,19.11 0,0 30.26,27.87 67.69,21.5 0,0 -29.47,-10.35 -43.8,-22.29 0,0 47.78,-3.98 47.78,-27.08 0,0 -7.17,-7.16 -12.74,-0.79 -5.58,6.37 -27.08,25.48 -58.13,9.55"
         style="fill:#100f0d;fill-opacity:1;fill-rule:nonzero;stroke:none"
         id="path118" /><path
         d="m 2909.73,2725.58 c 0,0 10.35,7.17 17.52,0.8 7.16,-6.37 37.42,-30.26 49.36,-35.04 11.95,-4.77 10.36,-30.26 10.36,-30.26 0,0 43,-57.33 43.79,-66.88 0,0 -49.37,43.79 -52.55,54.14 -3.19,10.36 -2.39,34.24 -17.52,41.41 -15.13,7.17 -46.98,26.28 -50.96,35.83"
         style="fill:#100f0d;fill-opacity:1;fill-rule:nonzero;stroke:none"
         id="path120" /><path
         d="m 3211.52,2591.81 c 0,0 2.39,20.7 16.72,42.2 14.33,21.5 20.7,28.67 20.7,39.02 0,10.35 0,19.91 19.91,24.68 l 32.65,31.06 c 0,0 15.92,6.37 18.31,0.79 2.39,-5.57 -19.11,-20.7 -26.28,-26.27 -7.16,-5.58 -35.03,-23.09 -34.24,-39.02 0.8,-15.93 -44.59,-67.68 -47.77,-72.46"
         style="fill:#100f0d;fill-opacity:1;fill-rule:nonzero;stroke:none"
         id="path122" /><path
         d="m 2909.73,2879.27 c 0,0 3.18,5.57 19.9,-5.58 16.73,-11.15 27.87,-19.11 27.87,-19.11 0,0 13.54,3.19 16.73,-38.22 0,0 15.13,-42.2 27.07,-59.72 0,0 -31.06,11.15 -39.81,55.74 -8.76,44.59 -19.91,40.61 -23.89,42.2 -3.98,1.59 -23.89,12.74 -27.87,24.69"
         style="fill:#100f0d;fill-opacity:1;fill-rule:nonzero;stroke:none"
         id="path124" /><path
         d="m 3237,2749.47 c 0,0 17.52,32.65 22.29,64.5 4.78,31.85 3.99,32.65 28.67,46.18 24.68,13.54 27.87,20.71 27.87,20.71 0,0 11.15,8.76 13.54,1.59 2.39,-7.17 -4.78,-15.93 -19.91,-24.68 -15.13,-8.76 -35.83,-15.93 -39.81,-46.19 -3.99,-30.26 -15.93,-58.92 -32.65,-62.11"
         style="fill:#100f0d;fill-opacity:1;fill-rule:nonzero;stroke:none"
         id="path126" /><path
         d="m 3524.85,4124.25 c 0,0 63.31,64.5 126.61,41.8 0,0 -14.33,-48.97 -8.36,-74.05 5.97,-25.08 16.72,-68.08 60.92,-71.67 0,0 51.36,1.2 71.66,31.06 0,0 22.7,11.94 39.42,11.94 0,0 -26.28,-63.3 -17.92,-97.94 0,0 67.51,-49.28 125.72,-9.11 0,0 29.56,34.19 47.47,34.19 17.92,0 17.92,0 17.92,0 0,0 -26.28,-10.75 -27.47,-54.94 0,0 -9.56,-58.53 -72.86,-74.05 0,0 47.77,44.19 48.97,75.24 0,0 -100.33,-62.11 -155.28,19.11 0,0 -31.05,-33.44 -53.75,-40.61 0,0 57.34,64.5 47.78,109.89 0,0 -63.3,-56.14 -125.41,-15.53 0,0 -62.11,25.09 -21.5,146.92 0,0 -56.14,1.19 -88.39,-39.42 0,0 -15.53,-20.3 -17.92,-39.41 0,0 -10.75,11.94 2.39,46.58"
         style="fill:#100f0d;fill-opacity:1;fill-rule:nonzero;stroke:none"
         id="path128" /><path
         d="m 2538.26,3003.88 c 0,0 72.86,-40.61 156.47,-37.02 0,0 101.53,14.33 124.22,19.11 22.7,4.77 101.53,8.36 119.44,-26.28 0,0 -51.36,28.67 -114.66,16.72 -63.3,-11.94 -119.44,-29.86 -200.66,-17.92 -81.22,11.95 -84.81,45.39 -84.81,45.39"
         style="fill:#100f0d;fill-opacity:1;fill-rule:nonzero;stroke:none"
         id="path130" /><path
         d="m 3262.08,2946.55 c 0,0 34.64,43 88.39,43 53.75,0 125.41,-33.44 188.72,-29.86 63.3,3.58 125.41,27.47 139.74,40.61 0,0 26.28,-32.25 -166.02,-52.55 0,0 -95.55,10.74 -142.14,23.88 -46.58,13.14 -63.3,-7.16 -108.69,-25.08"
         style="fill:#100f0d;fill-opacity:1;fill-rule:nonzero;stroke:none"
         id="path132" /><path
         d="m 3024.31,2996.16 c 0,0 9.2,-8.82 16.87,-6.14 0,0 10.36,7.67 -13.8,20.71 0,0 -31.06,21.09 -54.07,8.05 0,0 40.26,-1.53 51,-22.62"
         style="fill:#100f0d;fill-opacity:1;fill-rule:nonzero;stroke:none"
         id="path134" /><path
         d="m 2409.7,3367.4 c 0,0 138.82,-33.9 177.56,-62.95 38.74,-29.06 198.04,-153.05 210.25,-159.16 12.21,-6.1 108.54,-36.63 183.83,-23.06 0,0 50.88,12.21 59.7,43.41 0,0 7.46,12.89 -30.53,52.23 0,0 -16.28,18.32 -16.28,41.38 0,23.07 5.43,101.75 -0.68,129.57 -6.1,27.81 -43.41,75.29 -43.41,75.29 0,0 -39.34,42.74 -39.34,49.52 0,6.78 1.35,14.25 4.75,14.25 3.39,0 5.42,-14.25 16.95,-22.39 11.54,-8.14 80.05,-92.93 75.3,-122.78 -4.75,-29.85 -1.36,-138.38 8.14,-150.59 9.5,-12.21 54.95,-40.02 38.67,-80.05 -16.28,-40.02 -59.7,-50.87 -103.11,-52.91 -43.42,-2.03 -122.1,7.46 -143.81,19 -21.71,11.53 -253.02,181.11 -253.02,181.11 0,0 -104.47,47.49 -122.1,50.88 -17.64,3.39 -40.99,20.25 -22.87,17.25"
         style="fill:#100f0d;fill-opacity:1;fill-rule:nonzero;stroke:none"
         id="path136" /><path
         d="m 2937.6,3102.93 c 0,0 145.72,-55.76 167.27,-107.71 0,0 -7.61,-19.01 -26.61,7.6 -19.01,26.61 -102.64,65.9 -120.38,76.03 -17.74,10.14 -50.69,32.95 -20.28,24.08"
         style="fill:#100f0d;fill-opacity:1;fill-rule:nonzero;stroke:none"
         id="path138" /><path
         d="m 3279.73,3105.46 c 0,0 -141.92,-84.9 -134.32,-112.77 0,0 10.14,-11.41 26.61,15.2 16.48,26.61 65.9,59.56 97.57,78.57 31.68,19 35.48,17.74 10.14,19"
         style="fill:#100f0d;fill-opacity:1;fill-rule:nonzero;stroke:none"
         id="path140" /><path
         d="m 3309.99,3538.64 c 0,0 -2.48,4.96 -14.04,-10.73 -11.56,-15.7 -56.16,-82.6 -56.16,-82.6 0,0 -30.56,-55.33 -35.52,-126.36 0,0 3.3,-54.51 -30.56,-103.24 0,0 -31.8,-57.95 -22.71,-74.47 9.09,-16.52 34.88,-51.91 161.25,-47.78 126.36,4.13 129.06,31.39 129.06,31.39 0,0 192.51,167.81 213.12,176 20.62,8.19 135.42,51.13 142.86,51.13 7.43,0 19.82,11.57 13.21,11.57 -6.6,0 -171.98,-35.09 -187.48,-47.49 -24.78,-19.83 -76.81,-73.51 -76.81,-73.51 0,0 -126.37,-111.5 -189.97,-122.24 -63.53,-10.73 -175.02,-9.81 -184.93,25.71 0,0 -10.51,23.7 38.22,95.55 0,0 3,34.43 7.96,83.98 4.95,49.56 19.67,109.34 85.07,185.43 l 7.43,27.66"
         style="fill:#100f0d;fill-opacity:1;fill-rule:nonzero;stroke:none"
         id="path142" /><path
         d="m 3229.32,2994.09 c 0,0 -9.21,-8.82 -16.88,-6.14 0,0 -10.35,7.67 13.81,20.71 0,0 31.06,21.09 54.07,8.05 0,0 -40.27,-1.53 -51,-22.62"
         style="fill:#100f0d;fill-opacity:1;fill-rule:nonzero;stroke:none"
         id="path144" /><path
         d="m 3616.82,2423 c 0,0 72.46,-8.76 94.76,-8.76 l -2.39,82.81 42.2,-9.55 24.69,-3.19 c 0,0 2.39,42.2 3.18,64.5 0.8,22.3 2.39,108.29 -0.79,117.05 l -13.54,1.59 -86.79,-110.68 -59.72,-80.42 c 0,0 -7.17,-25.48 -1.6,-53.35"
         style="fill:#100f0d;fill-opacity:1;fill-rule:nonzero;stroke:none"
         id="path146" /><path
         d="m 3690.08,2542.44 62.94,93.53 c 0,0 11.12,10.78 11.12,-5.14 0,-15.93 -8.76,-122.63 -8.76,-122.63 0,0 -52.56,2.39 -66.89,18.31 0,0 -7.96,9.56 1.59,15.93"
         style="fill:#ffffff;fill-opacity:1;fill-rule:nonzero;stroke:none"
         id="path148" /><path
         d="m 3622.4,2437.33 c 0,0 -0.8,11.94 3.98,20.7 4.78,8.76 39.02,54.15 39.02,54.15 0,0 19.9,7.17 24.68,-7.17 4.78,-14.33 5.58,-74.05 5.58,-74.05 0,0 -51.76,-9.56 -73.26,6.37"
         style="fill:#ffffff;fill-opacity:1;fill-rule:nonzero;stroke:none"
         id="path150" /><path
         d="m 3638.32,2284.44 c 0,0 -12.74,124.22 -7.16,135.37 5.57,11.15 71.66,2.39 71.66,2.39 l 6.37,74.85 55.74,-12.74 c 0,0 14.33,126.61 8.76,183.14 0,0 16.72,-15.92 7.96,-78.83 l -0.79,-30.26 24.68,-2.38 v -7.17 h -26.28 l -3.18,-64.5 -1.59,-9.55 -52.56,7.96 c 0,0 -20.7,-19.91 -1.59,-91.57 l -21.5,22.29 c 0,0 -50.17,7.96 -61.31,-1.59 l 18.31,-87.59 c 0,0 10.35,0.79 17.52,3.98 7.17,3.19 7.17,-3.19 7.17,-3.19 0,0 -21.5,-47.77 -35.84,-54.14 0,0 -13.53,-4.78 -6.37,13.53"
         style="fill:#100f0d;fill-opacity:1;fill-rule:nonzero;stroke:none"
         id="path152" /><path
         d="m 3620.47,2413.26 c 0,0 21.24,-82.7 17.85,-128.82 0,0 0.57,-14.55 -12.59,-6.65 -13.15,7.89 -5.26,135.47 -5.26,135.47"
         style="fill:#cccac8;fill-opacity:1;fill-rule:nonzero;stroke:none"
         id="path154" /><path
         d="m 3655.84,2324.26 -18.31,87.59 c 0,0 49.37,5.57 61.31,1.59 11.94,-3.98 21.5,-22.29 21.5,-22.29 l 1.59,7.96 c 0,0 -19.9,57.33 0,83.61 l 52.56,-7.96 4.77,74.05 18.32,-4.78 c 0,0 11.94,-3.18 -1.59,-27.07 -13.54,-23.89 -36.63,-96.35 -76.45,-142.54 0,0 -35.03,-63.7 -63.7,-50.16"
         style="fill:#ffffff;fill-opacity:1;fill-rule:nonzero;stroke:none"
         id="path156" /><path
         d="m 3778.47,2665.86 c 0,0 33.44,11.15 33.44,-31.05 0,-42.21 -11.94,-75.65 -11.94,-75.65 l -19.11,-0.8 c 0,0 -0.8,28.67 0.79,82.12 l -3.18,25.38"
         style="fill:#ffffff;fill-opacity:1;fill-rule:nonzero;stroke:none"
         id="path158" /><path
         d="m 3674.04,2384.05 c 0,0 33.44,-15.13 38.22,-20.7 l -9.55,-16.73 c 0,0 -3.19,19.12 -28.67,37.43"
         style="fill:#100f0d;fill-opacity:1;fill-rule:nonzero;stroke:none"
         id="path160" /><path
         d="m 3732.38,2460.66 c 0,0 24.68,-6.37 30.25,-16.72 l -7.16,-11.14 c 0,0 -3.19,18.31 -23.09,27.86"
         style="fill:#100f0d;fill-opacity:1;fill-rule:nonzero;stroke:none"
         id="path162" /><path
         d="m 2451.07,2692.94 c 0,0 -6.37,-149.7 6.37,-178.37 0,0 17.52,-20.7 62.11,-1.59 l -6.37,-79.63 70.07,-11.15 -22.29,-86 11.15,-50.96 12.74,71.67 15.92,73.25 3.19,36.63 c 0,0 -78.04,159.26 -152.89,226.15"
         style="fill:#100f0d;fill-opacity:1;fill-rule:nonzero;stroke:none"
         id="path164" /><path
         d="m 2465.4,2665.86 3.19,-140.14 c 0,0 32.65,-11.95 75.65,23.89 0,0 -49.37,95.55 -78.84,116.25"
         style="fill:#ffffff;fill-opacity:1;fill-rule:nonzero;stroke:none"
         id="path166" /><path
         d="m 2553.79,2532.09 c 0,0 -16.72,0 -19.11,-12.74 -2.39,-12.74 -5.57,-69.28 -5.57,-69.28 0,0 45.38,-10.35 63.7,-3.98 0,0 6.37,13.54 -2.39,27.87 -8.76,14.33 -36.63,58.13 -36.63,58.13"
         style="fill:#ffffff;fill-opacity:1;fill-rule:nonzero;stroke:none"
         id="path168" /><path
         d="m 2449.48,2677.01 c 0,0 -4.78,-112.28 7.96,-162.44 0,0 7.96,-23.09 62.11,-1.59 l -6.37,-79.63 70.07,-11.15 -22.29,-86 c 0,0 -65.3,82.02 -82.82,121.83 -17.51,39.82 -54.14,126.61 -57.33,157.67 -3.18,31.05 0.8,66.88 28.67,61.31"
         style="fill:#ffffff;fill-opacity:1;fill-rule:nonzero;stroke:none"
         id="path170" /><path
         d="m 2424,2575.88 30.26,2.39 v -16.72 l -23.89,-1.59 -6.37,15.92"
         style="fill:#100f0d;fill-opacity:1;fill-rule:nonzero;stroke:none"
         id="path172" /><path
         d="m 2474.16,2510.59 -7.16,-39.82 11.14,-12.74 3.99,50.17 -7.97,2.39"
         style="fill:#100f0d;fill-opacity:1;fill-rule:nonzero;stroke:none"
         id="path174" /><path
         d="m 2513.98,2388.76 c 0,0 15.92,19.9 41.4,22.29 0,0 -31.85,-24.68 -31.85,-35.03 l -9.55,12.74"
         style="fill:#100f0d;fill-opacity:1;fill-rule:nonzero;stroke:none"
         id="path176" /><path
         d="m 2484.51,2442.9 32.65,3.99 -26.28,-14.34 z"
         style="fill:#100f0d;fill-opacity:1;fill-rule:nonzero;stroke:none"
         id="path178" /><path
         d="m 2600.77,2430.16 -26.28,-120.23 10.36,-21.5 c 0,0 11.14,-7.97 14.33,-2.39 3.18,5.57 11.94,127.4 1.59,144.12"
         style="fill:#ffffff;fill-opacity:1;fill-rule:nonzero;stroke:none"
         id="path180" /><path
         d="m 3097.25,1998.18 c 0,0 27.47,-17.91 56.14,3.59 28.67,21.49 168.41,148.1 168.41,148.1 0,0 46.58,58.53 46.58,87.2 0,0 -46.58,146.91 -267.55,134.97 0,0 -246.05,-8.37 -229.32,-167.22 0,0 95.55,-140.94 225.74,-206.64"
         style="fill:#100f0d;fill-opacity:1;fill-rule:nonzero;stroke:none"
         id="path182" /><path
         d="m 3875.62,3325.66 c -5.46,0 -11.51,-3.77 -19.9,-9 -7.51,-4.69 -16.87,-10.52 -28.45,-15.15 -23.09,-9.23 -160.09,-4.2 -172.84,-0.66 -14.88,4.14 -27.96,2.56 -28.51,2.49 l -1.36,-0.17 -0.91,-1.02 c -120.66,-134.77 -249.15,-195.2 -250.43,-195.8 l -0.66,-0.39 c -20.18,-15.14 -29.7,-28.59 -28.3,-39.99 1.28,-10.47 11.13,-14.73 11.56,-14.91 4.08,-1.7 100.09,-41.58 122.06,-46.45 20.55,-2.19 41.34,-3.07 60.5,-3.07 34.99,0 64.52,2.96 77.02,6.37 l 1.25,0.61 c 81.72,62.11 189.62,160.46 239.53,276.28 1.18,2.74 2.2,5.1 2.62,5.77 5.47,8.6 19.69,29.13 19.83,29.34 l 3.98,5.75 h -6.99"
         style="fill:#100f0d;fill-opacity:1;fill-rule:nonzero;stroke:none"
         id="path184" /><path
         d="m 2862.07,3081.83 -26.82,30.77 -1.03,0.95 -1.17,0.26 c -6.78,1.54 -79.44,44.58 -116.98,73.33 -12.5,9.59 -32.95,25.75 -54.61,42.87 -75.54,59.72 -93.79,73.57 -97.6,74.12 -4.36,0.58 -10.39,-1.95 -19.81,-6.19 -4.09,-1.85 -8.33,-3.76 -12.19,-5.14 -7.57,-2.7 -83.64,3.08 -129.91,7.37 -53.93,3.7 -60.36,23.39 -60.4,23.51 l -0.54,2.18 -16.3,3.76 -0.67,-3.8 c -2.1,-11.86 11.86,-25.47 28.01,-41.22 5.36,-5.23 10.9,-10.63 15.9,-16.05 18.63,-20.19 69.11,-105.23 69.35,-105.54 57.49,-148.5 200.7,-163.83 202.36,-163.99 3.97,-0.14 7.9,-0.21 11.8,-0.21 81.99,0 146.88,30.5 147.15,30.66 0.2,0.06 5.31,1.79 43.96,16.78 16.55,6.42 25.08,13.56 26.06,21.83 0.87,7.4 -4.91,12.47 -6.56,13.75"
         style="fill:#100f0d;fill-opacity:1;fill-rule:nonzero;stroke:none"
         id="path186" /><path
         d="m 2372.24,3286.96 c 0,0 151.69,-17.92 192.3,-7.17 0,0 37.03,-7.16 60.92,-37.02 23.88,-29.86 189.91,-134.97 195.88,-138.56 5.97,-3.58 45.39,-29.86 23.89,-41.8 -21.5,-11.94 -126.61,-56.14 -211.41,-45.39 0,0 -104.92,20.73 -173.19,137.36 -57.34,97.94 -75.25,109.89 -75.25,109.89 0,0 -22.7,25.08 -13.14,22.69"
         style="fill:#ffffff;fill-opacity:1;fill-rule:nonzero;stroke:none"
         id="path188" /><path
         d="m 3381.52,3052.85 c 0,0 -33.44,13.14 -23.89,25.09 11.2,13.99 55.08,28.14 83.68,46.91 28.6,18.78 167.15,131.06 194.62,154.94 0,0 8.37,9.56 28.67,4.78 20.31,-4.78 134.97,-10.75 175.58,7.17 0,0 -52.55,-130.19 -231.72,-268.75 0,0 -117.05,-19.11 -168.41,7.17 0,0 -28.67,15.53 -58.53,22.69"
         style="fill:#ffffff;fill-opacity:1;fill-rule:nonzero;stroke:none"
         id="path190" /><g
         id="g192"><g
           id="g194"
           clip-path="url(#clipPath198)"><path
             d="m 2561.75,3288.55 -21.5,-6.37 c 0,0 -29.46,-79.63 49.37,-161.64 23.89,-24.69 106.7,-97.15 239.68,-17.52 0,0 -69.27,49.37 -130.59,91.57 -61.31,42.2 -124.22,108.3 -136.96,93.96"
             style="fill:url(#radialGradient208);fill-opacity:1;fill-rule:nonzero;stroke:none"
             id="path210" /></g></g><path
         d="m 2561.75,3288.55 -21.5,-6.37 c 0,0 -29.46,-79.63 49.37,-161.64 23.89,-24.69 106.7,-97.15 239.68,-17.52 0,0 -69.27,49.37 -130.59,91.57 -61.31,42.2 -124.22,108.3 -136.96,93.96 z"
         style="fill:none;stroke:#100f0d;stroke-width:7.33242;stroke-linecap:butt;stroke-linejoin:miter;stroke-miterlimit:10;stroke-dasharray:none;stroke-opacity:1"
         id="path212" /><g
         id="g214"><g
           id="g216"
           clip-path="url(#clipPath220)"><path
             d="m 3400.24,3100.63 c 0,0 125.01,-59.72 218.18,-1.59 0,0 102.72,36.63 51.75,207.83 0,0 -27.07,0 -155.27,-117.06 0,0 -109.89,-89.98 -114.66,-89.18"
             style="fill:url(#radialGradient230);fill-opacity:1;fill-rule:nonzero;stroke:none"
             id="path232" /></g></g><path
         d="m 3400.24,3100.63 c 0,0 125.01,-59.72 218.18,-1.59 0,0 102.72,36.63 51.75,207.83 0,0 -27.07,0 -155.27,-117.06 0,0 -109.89,-89.98 -114.66,-89.18 z"
         style="fill:none;stroke:#100f0d;stroke-width:7.33242;stroke-linecap:butt;stroke-linejoin:miter;stroke-miterlimit:10;stroke-dasharray:none;stroke-opacity:1"
         id="path234" /><path
         d="m 3487.03,3162.74 c 0,0 59.02,-38.03 106.7,11.15 25.48,26.28 27.08,53.35 24.69,62.9 -2.39,9.56 -11.15,24.69 -21.5,24.69 -10.36,0 -109.89,-98.74 -109.89,-98.74"
         style="fill:#211d1d;fill-opacity:1;fill-rule:nonzero;stroke:none"
         id="path236" /><path
         d="m 2612.32,3258.89 c 0,0 -24.49,-53.15 25.08,-93.16 49.57,-40.02 105.11,-2.39 105.11,-2.39 l -130.19,95.55"
         style="fill:#211d1d;fill-opacity:1;fill-rule:nonzero;stroke:none"
         id="path238" /><path
         d="m 3285.05,2290.87 c 0,-13.22 -27.86,-23.94 -62.24,-23.94 -34.37,0 -62.24,10.72 -62.24,23.94 0,13.23 27.87,23.94 62.24,23.94 34.38,0 62.24,-10.71 62.24,-23.94"
         style="fill:#ffffff;fill-opacity:1;fill-rule:nonzero;stroke:none"
         id="path240" /><path
         d="m 3331.5,2270.58 c -6.9,-15.45 -41.78,-56.4 -218.06,-63.36 0,0 -186.05,-2.1 -212.03,54.84 -0.91,-2.66 -1.24,-4.19 -1.24,-4.19 3.59,-69.28 215,-66.89 215,-66.89 218.12,8.62 219.77,69.28 219.77,69.28 -0.96,3.56 -2.13,6.99 -3.44,10.32"
         style="fill:#ffffff;fill-opacity:1;fill-rule:nonzero;stroke:none"
         id="path242" /><path
         d="m 2547.62,3193.6 c 0,0 42,-100.14 147.11,-112.08 0,0 64.4,-6.36 121.69,26.03 l 8.25,-5.72 c 0,0 -75.43,-41.68 -142.99,-29.07 -55.18,10.3 -112.96,59.92 -134.06,120.84"
         style="fill:#e5ec23;fill-opacity:1;fill-rule:nonzero;stroke:none"
         id="path244" /><path
         d="m 3667.63,3302.31 c 0,0 50.52,-152.32 -50.27,-199.81 0,0 33.09,23.26 44.85,59.64 15.02,46.45 11.16,102.34 -3.17,136.38 l 8.59,3.79"
         style="fill:#e5ec23;fill-opacity:1;fill-rule:nonzero;stroke:none"
         id="path246" /><path
         d="m 2153.26,4581.71 c 0,0 4.78,11.94 31.85,-34.24 l 129.59,-188.05 93.33,68.54 161.87,-331.02 -167.4,301.63 c 0,0 -3.19,7.16 -13.54,0.79 -10.35,-6.37 -66.89,-49.37 -66.89,-49.37 0,0 -16.72,-12.74 -27.87,5.58 -11.14,18.31 -132.98,207.83 -132.98,207.83 0,0 -7.96,5.57 -7.96,-10.36 0,-15.92 -7.96,30.26 0,28.67"
         style="fill:#d3d2d0;fill-opacity:1;fill-rule:nonzero;stroke:none"
         id="path248" /><path
         d="m 3580.74,3202.9 c 0,-3.3 -2.49,-5.97 -5.57,-5.97 -3.08,0 -5.58,2.67 -5.58,5.97 0,3.3 2.5,5.97 5.58,5.97 3.08,0 5.57,-2.67 5.57,-5.97"
         style="fill:#ffffff;fill-opacity:1;fill-rule:nonzero;stroke:none"
         id="path250" /><path
         d="m 2629.84,3243.91 22.56,-18.64 11.28,-10.75 c 0,0 -11.28,-8.6 -24.55,4.3 -13.28,12.91 -7.97,26.53 -9.29,25.09"
         style="fill:#ffffff;fill-opacity:1;fill-rule:nonzero;stroke:none"
         id="path252" /><path
         d="m 2662.08,3191.41 c 0,-3.08 -2.49,-5.58 -5.57,-5.58 -3.08,0 -5.57,2.5 -5.57,5.58 0,3.08 2.49,5.57 5.57,5.57 3.08,0 5.57,-2.49 5.57,-5.57"
         style="fill:#ffffff;fill-opacity:1;fill-rule:nonzero;stroke:none"
         id="path254" /><path
         d="m 3563.17,3221.35 27.23,27.98 c 0,0 10.58,-13.61 -0.76,-25.71 -11.35,-12.1 -26.47,-2.27 -26.47,-2.27"
         style="fill:#ffffff;fill-opacity:1;fill-rule:nonzero;stroke:none"
         id="path256" /><path
         d="m 4056.25,4589.7 c 0,0 13.66,12.71 17.64,-4.01 l -39.02,-535.1 c 0,0 1.18,-32.7 -20.91,-17.94 -22.09,14.76 -90.41,65.62 -90.41,65.62 0,0 -27.23,-5.48 -22.45,-50.86 l 3.49,-99.34 c 0,0 -13.85,-5.77 -20.22,-5.77 -6.37,0 -4.77,115.46 -4.77,115.46 0,0 4.77,86 54.94,52.55 50.16,-33.44 77.24,-57.33 77.24,-57.33 0,0 9.55,-6.37 11.15,14.33 1.59,20.71 39.81,507.23 39.81,507.23 0,0 -12.74,8.76 -20.7,-3.98 -7.97,-12.74 14.21,19.14 14.21,19.14"
         style="fill:#d3d2d0;fill-opacity:1;fill-rule:nonzero;stroke:none"
         id="path258" /><path
         d="m 3621.6,2180.93 4.18,67.48 c 0,0 126.61,90.78 201.26,285.27 0,0 -7.96,-117.85 -156.07,-285.07 0,0 -27.07,-23.89 -14.33,-49.37 0,0 -3.19,-10.35 -35.04,-18.31"
         style="fill:#cccac8;fill-opacity:1;fill-rule:nonzero;stroke:none"
         id="path260" /><path
         d="m 2403.29,2583.05 c 0,0 46.79,-155.28 182.15,-320.9 0,0 25.88,-13.54 27.47,-83.61 l -58.52,37.62 c 0,0 16.12,35.64 -9.36,65.9 -25.48,30.25 -152.88,234.1 -141.74,300.99"
         style="fill:#cccac8;fill-opacity:1;fill-rule:nonzero;stroke:none"
         id="path262" /><path
         d="m 3640.71,2651.53 c 0,0 -17.52,-55.74 -12.74,-144.92 0,0 33.3,73.45 95.41,140.34 0,0 -66.74,-36.83 -74.71,-67.88 0,0 -19.11,11.94 -7.96,72.46"
         style="fill:#cccac8;fill-opacity:1;fill-rule:nonzero;stroke:none"
         id="path264" /><path
         d="m 3340.51,2172.17 c 0,0 -144.92,-148.11 -199.86,-173.59 l 7.96,-52.55 -14.33,6.37 c 0,0 -7.17,-74.85 54.94,-97.55 0,0 -55.74,56.94 -29.46,68.88 l 16.32,-0.8 -6.77,54.95 c 0,0 148.11,113.86 171.2,194.29"
         style="fill:#cccac8;fill-opacity:1;fill-rule:nonzero;stroke:none"
         id="path266" /><path
         d="m 2469.58,3138.85 c 0,0 -72.26,121.83 -84.2,125.42 0,0 -22.7,20.9 -15.53,23.88 0,0 102.12,-13.13 164.83,-11.34 0,0 -26.28,-103.32 77.64,-182.15 0,0 -93.17,25.08 -102.72,163.63 0,0 -96.2,17.74 -109.84,8.19 -10.09,-7.06 18.46,-21.32 69.82,-127.63"
         style="fill:#cccac8;fill-opacity:1;fill-rule:nonzero;stroke:none"
         id="path268" /><path
         d="m 3622.37,3096.95 c 0,0 95.04,42.37 57.47,186.13 0,0 92.97,-12.96 160.34,8.66 0,0 -55.3,-41.25 -132.74,-33.58 0,0 20.76,-120.01 -85.07,-161.21"
         style="fill:#cccac8;fill-opacity:1;fill-rule:nonzero;stroke:none"
         id="path270" /><path
         d="m 3797.29,3351.98 c 0,0 -102.83,-31.58 -123.13,-43.52 l 2.98,-11.35 c 0,0 16.13,-1.79 26.88,0.6 10.75,2.39 28.88,29.72 93.27,54.27"
         style="fill:#cccac8;fill-opacity:1;fill-rule:nonzero;stroke:none"
         id="path272" /><path
         d="m 2423.6,3352.06 c 0,0 41.8,-8.36 125.41,-50.77 0,0 -5.05,-5.63 -17.15,-8.49 -12.11,-2.85 -16.89,20.44 -108.26,59.26"
         style="fill:#cccac8;fill-opacity:1;fill-rule:nonzero;stroke:none"
         id="path274" /><path
         d="m 2560.16,2521.74 -6.38,10.63 c -7.79,-1.01 -9.4,-2.25 -10,-2.36 3.75,-6.65 5.32,-9.66 8.42,-15.44 23.89,-44.59 40.61,-68.48 40.61,-68.48 15.92,11.94 -32.65,75.65 -32.65,75.65"
         style="fill:#cccac8;fill-opacity:1;fill-rule:nonzero;stroke:none"
         id="path276" /><path
         d="m 2544.38,2549.53 c 0,0 -15.27,30.33 -33.59,62.19 -18.31,31.85 -45.39,54.14 -45.39,54.14 0,0 8.76,-23.09 11.95,-26.27 2.59,-2.59 34.31,-53.22 59.04,-96.35 2.07,1.87 7.8,6.3 7.99,6.29"
         style="fill:#cccac8;fill-opacity:1;fill-rule:nonzero;stroke:none"
         id="path278" /><path
         d="m 2510.79,2611.72 c 0,0 -25.48,-23.89 -30.26,-56.54 0,0 30.26,54.94 35.84,49.37 l -5.58,7.17"
         style="fill:#100f0d;fill-opacity:1;fill-rule:nonzero;stroke:none"
         id="path280" /><path
         d="m 2574.49,2505.01 c 0,0 -19.9,-8.76 -29.46,-33.44 0,0 27.08,27.87 35.83,25.48 l -6.37,7.96"
         style="fill:#100f0d;fill-opacity:1;fill-rule:nonzero;stroke:none"
         id="path282" /><path
         d="m 3688.09,2526.92 76.12,106.86 c -4.12,18.39 -19.19,-8.53 -19.19,-8.53 l -58.6,-86.33 c -4.07,-8.26 1.52,-11.92 1.67,-12"
         style="fill:#cccac8;fill-opacity:1;fill-rule:nonzero;stroke:none"
         id="path284" /><path
         d="m 3654.25,2471.57 24.78,42.1 c -0.45,0.23 -3.68,0.4 -7.26,0.2 l -6.02,-1.42 c -56.96,-66.39 -42.58,-75.87 -42.58,-75.87 23.1,-16.72 72.49,-5.62 72.49,-5.62 0,0 -20.71,2.39 -41.41,4.78 -20.7,2.39 0,35.83 0,35.83"
         style="fill:#cccac8;fill-opacity:1;fill-rule:nonzero;stroke:none"
         id="path286" /><path
         d="m 3636.73,2479.53 c 0,0 28.67,-22.29 35.04,-27.87 0,0 -21.5,43 -27.08,42.21 l -7.96,-14.34"
         style="fill:#100f0d;fill-opacity:1;fill-rule:nonzero;stroke:none"
         id="path288" /><path
         d="m 3708.4,2580.66 c 0,0 32.64,-24.68 32.64,-44.59 0,0 -4.77,31.85 -26.27,51.76 l -6.37,-7.17"
         style="fill:#100f0d;fill-opacity:1;fill-rule:nonzero;stroke:none"
         id="path290" /></g></g></svg>
